<svg width="631" height="465" viewBox="0 0 631 465" fill="none" xmlns="http://www.w3.org/2000/svg">
<path d="M0 26C0 11.6406 11.6406 0 26 0H605C619.359 0 631 11.6406 631 26V53H0V26Z" fill="url(#paint0_linear_22_132)"/>
<path d="M3 25C3 12.8497 12.8497 3 25 3H606C618.15 3 628 12.8497 628 25V53H3V25Z" fill="#2A2546"/>
<circle cx="33" cy="28" r="7.65" fill="url(#paint1_radial_22_132)" stroke="#1F1631" stroke-width="0.7"/>
<circle cx="60" cy="28" r="7.65" fill="url(#paint2_radial_22_132)" stroke="#1F1631" stroke-width="0.7"/>
<circle cx="86" cy="28" r="7.65" fill="url(#paint3_radial_22_132)" stroke="#1F1631" stroke-width="0.7"/>
<path d="M0 53H631V435C631 451.569 617.569 465 601 465H30C13.4315 465 0 451.569 0 435V53Z" fill="white"/>
<rect x="41" y="263" width="216" height="56" rx="14" fill="#D9D9F7"/>
<rect x="41" y="91" width="124" height="15" rx="7.5" fill="#D9D9F7"/>
<rect x="43" y="157" width="191" height="15" rx="7.5" fill="#D9D9F7"/>
<rect x="41" y="187" width="225" height="15" rx="7.5" fill="#D9D9F7"/>
<rect x="41" y="217" width="180" height="15" rx="7.5" fill="#D9D9F7"/>
<rect x="339" y="87" width="260" height="350" rx="27" fill="url(#paint4_linear_22_132)"/>
<rect x="361" y="227" width="214" height="64" rx="15" fill="#5667FA"/>
<path d="M399.181 235.006H402.011C403.259 235.006 404.198 235.193 404.827 235.566C405.456 235.94 405.771 236.576 405.771 237.474C405.771 237.861 405.695 238.21 405.545 238.52C405.399 238.825 405.185 239.078 404.902 239.278C404.62 239.479 404.271 239.618 403.856 239.695V239.764C404.294 239.832 404.681 239.957 405.019 240.14C405.356 240.322 405.62 240.577 405.812 240.905C406.003 241.233 406.099 241.65 406.099 242.156C406.099 242.771 405.955 243.291 405.668 243.715C405.385 244.139 404.984 244.46 404.465 244.679C403.945 244.893 403.33 245 402.619 245H399.181V235.006ZM400.343 239.292H402.257C403.127 239.292 403.729 239.148 404.062 238.861C404.399 238.574 404.567 238.155 404.567 237.604C404.567 237.034 404.367 236.624 403.966 236.373C403.569 236.122 402.936 235.997 402.065 235.997H400.343V239.292ZM400.343 240.27V244.009H402.421C403.31 244.009 403.938 243.836 404.308 243.489C404.677 243.138 404.861 242.667 404.861 242.074C404.861 241.696 404.777 241.372 404.608 241.104C404.444 240.835 404.175 240.63 403.802 240.488C403.433 240.342 402.938 240.27 402.318 240.27H400.343ZM414.101 241.24C414.101 241.855 414.021 242.405 413.861 242.888C413.702 243.371 413.472 243.779 413.171 244.111C412.87 244.444 412.505 244.699 412.077 244.877C411.653 245.05 411.172 245.137 410.635 245.137C410.133 245.137 409.673 245.05 409.254 244.877C408.839 244.699 408.479 244.444 408.174 244.111C407.873 243.779 407.638 243.371 407.47 242.888C407.306 242.405 407.224 241.855 407.224 241.24C407.224 240.42 407.363 239.723 407.641 239.148C407.919 238.57 408.315 238.13 408.83 237.829C409.35 237.524 409.967 237.371 410.683 237.371C411.366 237.371 411.963 237.524 412.474 237.829C412.989 238.134 413.387 238.576 413.67 239.155C413.957 239.729 414.101 240.424 414.101 241.24ZM408.399 241.24C408.399 241.842 408.479 242.364 408.639 242.806C408.798 243.248 409.044 243.59 409.377 243.831C409.71 244.073 410.138 244.193 410.662 244.193C411.182 244.193 411.608 244.073 411.94 243.831C412.278 243.59 412.526 243.248 412.685 242.806C412.845 242.364 412.925 241.842 412.925 241.24C412.925 240.643 412.845 240.128 412.685 239.695C412.526 239.258 412.28 238.921 411.947 238.684C411.615 238.447 411.184 238.328 410.655 238.328C409.876 238.328 409.304 238.586 408.939 239.101C408.579 239.616 408.399 240.329 408.399 241.24ZM419.19 237.371C420.079 237.371 420.751 237.59 421.207 238.027C421.663 238.46 421.89 239.158 421.89 240.119V245H420.769V240.194C420.769 239.57 420.626 239.103 420.339 238.793C420.056 238.483 419.621 238.328 419.033 238.328C418.204 238.328 417.62 238.563 417.283 239.032C416.946 239.502 416.777 240.183 416.777 241.076V245H415.642V237.508H416.558L416.729 238.588H416.791C416.95 238.324 417.153 238.103 417.399 237.925C417.645 237.743 417.921 237.606 418.226 237.515C418.532 237.419 418.853 237.371 419.19 237.371ZM422.906 248.363C422.674 248.363 422.471 248.345 422.298 248.309C422.124 248.277 421.974 248.238 421.846 248.192V247.27C421.988 247.315 422.131 247.349 422.277 247.372C422.423 247.399 422.587 247.413 422.769 247.413C423.079 247.413 423.33 247.326 423.521 247.153C423.713 246.98 423.808 246.666 423.808 246.21V237.508H424.943V246.183C424.943 246.638 424.87 247.028 424.724 247.352C424.579 247.68 424.355 247.93 424.054 248.104C423.754 248.277 423.371 248.363 422.906 248.363ZM423.706 235.45C423.706 235.195 423.77 235.008 423.897 234.89C424.029 234.767 424.193 234.705 424.389 234.705C424.576 234.705 424.736 234.767 424.868 234.89C425.005 235.008 425.073 235.195 425.073 235.45C425.073 235.701 425.005 235.888 424.868 236.011C424.736 236.134 424.576 236.195 424.389 236.195C424.193 236.195 424.029 236.134 423.897 236.011C423.77 235.888 423.706 235.701 423.706 235.45ZM433.389 241.24C433.389 241.855 433.31 242.405 433.15 242.888C432.991 243.371 432.76 243.779 432.46 244.111C432.159 244.444 431.794 244.699 431.366 244.877C430.942 245.05 430.461 245.137 429.924 245.137C429.422 245.137 428.962 245.05 428.543 244.877C428.128 244.699 427.768 244.444 427.463 244.111C427.162 243.779 426.927 243.371 426.758 242.888C426.594 242.405 426.512 241.855 426.512 241.24C426.512 240.42 426.651 239.723 426.929 239.148C427.207 238.57 427.604 238.13 428.119 237.829C428.638 237.524 429.256 237.371 429.971 237.371C430.655 237.371 431.252 237.524 431.762 237.829C432.277 238.134 432.676 238.576 432.959 239.155C433.246 239.729 433.389 240.424 433.389 241.24ZM427.688 241.24C427.688 241.842 427.768 242.364 427.927 242.806C428.087 243.248 428.333 243.59 428.666 243.831C428.998 244.073 429.427 244.193 429.951 244.193C430.47 244.193 430.896 244.073 431.229 243.831C431.566 243.59 431.815 243.248 431.974 242.806C432.134 242.364 432.214 241.842 432.214 241.24C432.214 240.643 432.134 240.128 431.974 239.695C431.815 239.258 431.569 238.921 431.236 238.684C430.903 238.447 430.473 238.328 429.944 238.328C429.165 238.328 428.593 238.586 428.228 239.101C427.868 239.616 427.688 240.329 427.688 241.24ZM441.118 237.508V245H440.188L440.024 243.947H439.963C439.808 244.207 439.607 244.426 439.361 244.604C439.115 244.781 438.837 244.913 438.527 245C438.222 245.091 437.896 245.137 437.549 245.137C436.957 245.137 436.46 245.041 436.059 244.85C435.658 244.658 435.355 244.362 435.15 243.961C434.949 243.56 434.849 243.045 434.849 242.416V237.508H435.998V242.334C435.998 242.958 436.139 243.425 436.421 243.735C436.704 244.041 437.135 244.193 437.713 244.193C438.269 244.193 438.712 244.089 439.04 243.879C439.372 243.669 439.612 243.362 439.757 242.956C439.903 242.546 439.976 242.045 439.976 241.452V237.508H441.118ZM446.501 237.371C446.652 237.371 446.809 237.38 446.973 237.398C447.137 237.412 447.283 237.433 447.411 237.46L447.267 238.513C447.144 238.481 447.007 238.456 446.857 238.438C446.707 238.419 446.565 238.41 446.433 238.41C446.132 238.41 445.848 238.472 445.579 238.595C445.314 238.713 445.082 238.886 444.881 239.114C444.681 239.338 444.524 239.609 444.41 239.928C444.296 240.242 444.239 240.593 444.239 240.98V245H443.097V237.508H444.041L444.164 238.889H444.211C444.366 238.611 444.553 238.358 444.772 238.13C444.991 237.897 445.244 237.713 445.531 237.576C445.822 237.439 446.146 237.371 446.501 237.371ZM449.705 243.373L449.793 243.53C449.711 243.863 449.607 244.218 449.479 244.597C449.356 244.975 449.219 245.353 449.069 245.731C448.923 246.114 448.775 246.472 448.624 246.805H447.777C447.872 246.44 447.966 246.055 448.057 245.649C448.148 245.248 448.23 244.852 448.303 244.46C448.381 244.063 448.442 243.701 448.488 243.373H449.705ZM453.923 248.363C453.691 248.363 453.488 248.345 453.315 248.309C453.142 248.277 452.991 248.238 452.864 248.192V247.27C453.005 247.315 453.148 247.349 453.294 247.372C453.44 247.399 453.604 247.413 453.786 247.413C454.096 247.413 454.347 247.326 454.538 247.153C454.73 246.98 454.825 246.666 454.825 246.21V237.508H455.96V246.183C455.96 246.638 455.887 247.028 455.741 247.352C455.596 247.68 455.372 247.93 455.072 248.104C454.771 248.277 454.388 248.363 453.923 248.363ZM454.723 235.45C454.723 235.195 454.787 235.008 454.914 234.89C455.046 234.767 455.211 234.705 455.407 234.705C455.593 234.705 455.753 234.767 455.885 234.89C456.022 235.008 456.09 235.195 456.09 235.45C456.09 235.701 456.022 235.888 455.885 236.011C455.753 236.134 455.593 236.195 455.407 236.195C455.211 236.195 455.046 236.134 454.914 236.011C454.787 235.888 454.723 235.701 454.723 235.45ZM460.831 237.371C461.469 237.371 462.016 237.512 462.472 237.795C462.928 238.077 463.276 238.474 463.518 238.984C463.759 239.49 463.88 240.083 463.88 240.762V241.466H458.705C458.719 242.345 458.938 243.015 459.362 243.476C459.785 243.936 460.382 244.166 461.153 244.166C461.627 244.166 462.046 244.123 462.41 244.036C462.775 243.95 463.153 243.822 463.545 243.653V244.651C463.167 244.82 462.791 244.943 462.417 245.021C462.048 245.098 461.611 245.137 461.105 245.137C460.385 245.137 459.756 244.991 459.218 244.699C458.685 244.403 458.27 243.97 457.974 243.4C457.678 242.831 457.529 242.133 457.529 241.309C457.529 240.502 457.664 239.805 457.933 239.217C458.206 238.624 458.589 238.169 459.081 237.85C459.578 237.531 460.161 237.371 460.831 237.371ZM460.818 238.301C460.211 238.301 459.728 238.499 459.368 238.896C459.008 239.292 458.794 239.846 458.726 240.557H462.691C462.686 240.11 462.615 239.718 462.479 239.381C462.347 239.039 462.144 238.775 461.87 238.588C461.597 238.396 461.246 238.301 460.818 238.301ZM473.451 242.949C473.451 243.428 473.33 243.831 473.089 244.159C472.852 244.483 472.51 244.727 472.064 244.891C471.621 245.055 471.093 245.137 470.478 245.137C469.953 245.137 469.5 245.096 469.117 245.014C468.734 244.932 468.399 244.815 468.112 244.665V243.619C468.418 243.77 468.782 243.906 469.206 244.029C469.63 244.152 470.063 244.214 470.505 244.214C471.152 244.214 471.621 244.109 471.913 243.899C472.205 243.69 472.351 243.405 472.351 243.045C472.351 242.84 472.291 242.66 472.173 242.505C472.059 242.345 471.865 242.193 471.592 242.047C471.318 241.896 470.94 241.732 470.457 241.555C469.979 241.372 469.564 241.192 469.213 241.015C468.867 240.832 468.598 240.611 468.406 240.352C468.219 240.092 468.126 239.755 468.126 239.34C468.126 238.706 468.381 238.221 468.892 237.884C469.407 237.542 470.081 237.371 470.915 237.371C471.366 237.371 471.788 237.417 472.18 237.508C472.576 237.594 472.945 237.713 473.287 237.863L472.904 238.772C472.594 238.64 472.264 238.529 471.913 238.438C471.562 238.346 471.204 238.301 470.84 238.301C470.316 238.301 469.912 238.387 469.63 238.561C469.352 238.734 469.213 238.971 469.213 239.271C469.213 239.504 469.277 239.695 469.404 239.846C469.536 239.996 469.746 240.137 470.033 240.27C470.32 240.402 470.699 240.557 471.168 240.734C471.637 240.908 472.043 241.088 472.385 241.274C472.727 241.457 472.989 241.68 473.171 241.944C473.358 242.204 473.451 242.539 473.451 242.949ZM481.043 237.508V245H480.113L479.949 243.947H479.888C479.733 244.207 479.532 244.426 479.286 244.604C479.04 244.781 478.762 244.913 478.452 245C478.147 245.091 477.821 245.137 477.475 245.137C476.882 245.137 476.385 245.041 475.984 244.85C475.583 244.658 475.28 244.362 475.075 243.961C474.875 243.56 474.774 243.045 474.774 242.416V237.508H475.923V242.334C475.923 242.958 476.064 243.425 476.347 243.735C476.629 244.041 477.06 244.193 477.639 244.193C478.195 244.193 478.637 244.089 478.965 243.879C479.297 243.669 479.537 243.362 479.683 242.956C479.828 242.546 479.901 242.045 479.901 241.452V237.508H481.043ZM484.157 237.508V245H483.022V237.508H484.157ZM483.603 234.705C483.79 234.705 483.95 234.767 484.082 234.89C484.219 235.008 484.287 235.195 484.287 235.45C484.287 235.701 484.219 235.888 484.082 236.011C483.95 236.134 483.79 236.195 483.603 236.195C483.407 236.195 483.243 236.134 483.111 236.011C482.984 235.888 482.92 235.701 482.92 235.45C482.92 235.195 482.984 235.008 483.111 234.89C483.243 234.767 483.407 234.705 483.603 234.705ZM490.99 242.949C490.99 243.428 490.869 243.831 490.628 244.159C490.391 244.483 490.049 244.727 489.602 244.891C489.16 245.055 488.632 245.137 488.016 245.137C487.492 245.137 487.039 245.096 486.656 245.014C486.273 244.932 485.938 244.815 485.651 244.665V243.619C485.957 243.77 486.321 243.906 486.745 244.029C487.169 244.152 487.602 244.214 488.044 244.214C488.691 244.214 489.16 244.109 489.452 243.899C489.744 243.69 489.889 243.405 489.889 243.045C489.889 242.84 489.83 242.66 489.712 242.505C489.598 242.345 489.404 242.193 489.131 242.047C488.857 241.896 488.479 241.732 487.996 241.555C487.517 241.372 487.103 241.192 486.752 241.015C486.405 240.832 486.137 240.611 485.945 240.352C485.758 240.092 485.665 239.755 485.665 239.34C485.665 238.706 485.92 238.221 486.43 237.884C486.945 237.542 487.62 237.371 488.454 237.371C488.905 237.371 489.327 237.417 489.719 237.508C490.115 237.594 490.484 237.713 490.826 237.863L490.443 238.772C490.133 238.64 489.803 238.529 489.452 238.438C489.101 238.346 488.743 238.301 488.379 238.301C487.855 238.301 487.451 238.387 487.169 238.561C486.891 238.734 486.752 238.971 486.752 239.271C486.752 239.504 486.816 239.695 486.943 239.846C487.075 239.996 487.285 240.137 487.572 240.27C487.859 240.402 488.237 240.557 488.707 240.734C489.176 240.908 489.582 241.088 489.924 241.274C490.265 241.457 490.527 241.68 490.71 241.944C490.897 242.204 490.99 242.539 490.99 242.949ZM498.497 237.371C499.135 237.371 499.682 237.512 500.137 237.795C500.593 238.077 500.942 238.474 501.183 238.984C501.425 239.49 501.546 240.083 501.546 240.762V241.466H496.371C496.384 242.345 496.603 243.015 497.027 243.476C497.451 243.936 498.048 244.166 498.818 244.166C499.292 244.166 499.711 244.123 500.076 244.036C500.44 243.95 500.819 243.822 501.211 243.653V244.651C500.832 244.82 500.456 244.943 500.083 245.021C499.714 245.098 499.276 245.137 498.77 245.137C498.05 245.137 497.421 244.991 496.883 244.699C496.35 244.403 495.936 243.97 495.639 243.4C495.343 242.831 495.195 242.133 495.195 241.309C495.195 240.502 495.329 239.805 495.598 239.217C495.872 238.624 496.255 238.169 496.747 237.85C497.243 237.531 497.827 237.371 498.497 237.371ZM498.483 238.301C497.877 238.301 497.394 238.499 497.034 238.896C496.674 239.292 496.46 239.846 496.391 240.557H500.356C500.352 240.11 500.281 239.718 500.144 239.381C500.012 239.039 499.809 238.775 499.536 238.588C499.262 238.396 498.911 238.301 498.483 238.301ZM502.418 241.746V240.734H505.808V241.746H502.418ZM510.549 237.371C510.7 237.371 510.857 237.38 511.021 237.398C511.185 237.412 511.331 237.433 511.458 237.46L511.315 238.513C511.192 238.481 511.055 238.456 510.905 238.438C510.754 238.419 510.613 238.41 510.481 238.41C510.18 238.41 509.895 238.472 509.626 238.595C509.362 238.713 509.13 238.886 508.929 239.114C508.729 239.338 508.571 239.609 508.457 239.928C508.344 240.242 508.287 240.593 508.287 240.98V245H507.145V237.508H508.088L508.211 238.889H508.259C508.414 238.611 508.601 238.358 508.82 238.13C509.039 237.897 509.291 237.713 509.579 237.576C509.87 237.439 510.194 237.371 510.549 237.371ZM518.913 241.24C518.913 241.855 518.834 242.405 518.674 242.888C518.515 243.371 518.285 243.779 517.984 244.111C517.683 244.444 517.318 244.699 516.89 244.877C516.466 245.05 515.985 245.137 515.448 245.137C514.946 245.137 514.486 245.05 514.067 244.877C513.652 244.699 513.292 244.444 512.987 244.111C512.686 243.779 512.451 243.371 512.283 242.888C512.119 242.405 512.037 241.855 512.037 241.24C512.037 240.42 512.176 239.723 512.454 239.148C512.732 238.57 513.128 238.13 513.643 237.829C514.163 237.524 514.78 237.371 515.496 237.371C516.179 237.371 516.776 237.524 517.287 237.829C517.802 238.134 518.2 238.576 518.483 239.155C518.77 239.729 518.913 240.424 518.913 241.24ZM513.212 241.24C513.212 241.842 513.292 242.364 513.452 242.806C513.611 243.248 513.857 243.59 514.19 243.831C514.523 244.073 514.951 244.193 515.475 244.193C515.995 244.193 516.421 244.073 516.753 243.831C517.091 243.59 517.339 243.248 517.498 242.806C517.658 242.364 517.738 241.842 517.738 241.24C517.738 240.643 517.658 240.128 517.498 239.695C517.339 239.258 517.093 238.921 516.76 238.684C516.427 238.447 515.997 238.328 515.468 238.328C514.689 238.328 514.117 238.586 513.752 239.101C513.392 239.616 513.212 240.329 513.212 241.24ZM521.59 234.363V237.022C521.59 237.328 521.581 237.624 521.563 237.911C521.549 238.198 521.538 238.422 521.529 238.581H521.59C521.795 238.244 522.091 237.959 522.479 237.727C522.866 237.494 523.361 237.378 523.962 237.378C524.901 237.378 525.648 237.704 526.204 238.355C526.765 239.003 527.045 239.966 527.045 241.247C527.045 242.09 526.918 242.801 526.662 243.38C526.407 243.959 526.047 244.396 525.582 244.692C525.117 244.989 524.568 245.137 523.935 245.137C523.342 245.137 522.855 245.027 522.472 244.809C522.094 244.585 521.802 244.314 521.597 243.995H521.508L521.276 245H520.455V234.363H521.59ZM523.778 238.328C523.235 238.328 522.805 238.435 522.486 238.649C522.167 238.859 521.937 239.178 521.795 239.606C521.659 240.03 521.59 240.568 521.59 241.22V241.281C521.59 242.225 521.747 242.947 522.062 243.448C522.376 243.945 522.948 244.193 523.778 244.193C524.475 244.193 524.997 243.938 525.343 243.428C525.694 242.917 525.869 242.188 525.869 241.24C525.869 240.274 525.696 239.547 525.35 239.06C525.008 238.572 524.484 238.328 523.778 238.328ZM535.068 241.24C535.068 241.855 534.988 242.405 534.828 242.888C534.669 243.371 534.439 243.779 534.138 244.111C533.837 244.444 533.473 244.699 533.044 244.877C532.62 245.05 532.14 245.137 531.602 245.137C531.1 245.137 530.64 245.05 530.221 244.877C529.806 244.699 529.446 244.444 529.141 244.111C528.84 243.779 528.605 243.371 528.437 242.888C528.273 242.405 528.191 241.855 528.191 241.24C528.191 240.42 528.33 239.723 528.608 239.148C528.886 238.57 529.282 238.13 529.797 237.829C530.317 237.524 530.934 237.371 531.65 237.371C532.333 237.371 532.93 237.524 533.441 237.829C533.956 238.134 534.354 238.576 534.637 239.155C534.924 239.729 535.068 240.424 535.068 241.24ZM529.366 241.24C529.366 241.842 529.446 242.364 529.606 242.806C529.765 243.248 530.011 243.59 530.344 243.831C530.677 244.073 531.105 244.193 531.629 244.193C532.149 244.193 532.575 244.073 532.907 243.831C533.245 243.59 533.493 243.248 533.653 242.806C533.812 242.364 533.892 241.842 533.892 241.24C533.892 240.643 533.812 240.128 533.653 239.695C533.493 239.258 533.247 238.921 532.914 238.684C532.582 238.447 532.151 238.328 531.622 238.328C530.843 238.328 530.271 238.586 529.906 239.101C529.546 239.616 529.366 240.329 529.366 241.24ZM539.029 244.207C539.216 244.207 539.408 244.191 539.604 244.159C539.8 244.127 539.959 244.089 540.082 244.043V244.925C539.95 244.984 539.765 245.034 539.528 245.075C539.296 245.116 539.068 245.137 538.845 245.137C538.448 245.137 538.088 245.068 537.765 244.932C537.441 244.79 537.181 244.553 536.986 244.221C536.794 243.888 536.698 243.428 536.698 242.84V238.396H535.632V237.843L536.705 237.398L537.156 235.771H537.84V237.508H540.034V238.396H537.84V242.806C537.84 243.275 537.947 243.626 538.161 243.858C538.38 244.091 538.669 244.207 539.029 244.207ZM542.479 243.373L542.567 243.53C542.485 243.863 542.381 244.218 542.253 244.597C542.13 244.975 541.993 245.353 541.843 245.731C541.697 246.114 541.549 246.472 541.399 246.805H540.551C540.647 246.44 540.74 246.055 540.831 245.649C540.922 245.248 541.004 244.852 541.077 244.46C541.155 244.063 541.216 243.701 541.262 243.373H542.479ZM381.048 264.137C380.373 264.137 379.779 263.998 379.264 263.72C378.749 263.442 378.348 263.018 378.061 262.448C377.774 261.879 377.63 261.161 377.63 260.295C377.63 259.388 377.78 258.647 378.081 258.073C378.386 257.494 378.806 257.066 379.339 256.788C379.872 256.51 380.478 256.371 381.157 256.371C381.531 256.371 381.891 256.41 382.237 256.487C382.588 256.56 382.875 256.654 383.099 256.768L382.757 257.718C382.529 257.627 382.265 257.545 381.964 257.472C381.668 257.399 381.39 257.362 381.13 257.362C380.61 257.362 380.177 257.474 379.831 257.697C379.489 257.921 379.232 258.249 379.059 258.682C378.89 259.115 378.806 259.648 378.806 260.281C378.806 260.887 378.888 261.405 379.052 261.833C379.22 262.261 379.469 262.59 379.797 262.817C380.13 263.041 380.544 263.152 381.041 263.152C381.438 263.152 381.795 263.111 382.114 263.029C382.433 262.943 382.723 262.842 382.982 262.729V263.74C382.732 263.868 382.452 263.966 382.142 264.034C381.836 264.103 381.472 264.137 381.048 264.137ZM390.8 260.24C390.8 260.855 390.72 261.405 390.561 261.888C390.401 262.371 390.171 262.779 389.87 263.111C389.569 263.444 389.205 263.699 388.776 263.877C388.353 264.05 387.872 264.137 387.334 264.137C386.833 264.137 386.372 264.05 385.953 263.877C385.538 263.699 385.178 263.444 384.873 263.111C384.572 262.779 384.338 262.371 384.169 261.888C384.005 261.405 383.923 260.855 383.923 260.24C383.923 259.42 384.062 258.723 384.34 258.148C384.618 257.57 385.014 257.13 385.529 256.829C386.049 256.524 386.666 256.371 387.382 256.371C388.065 256.371 388.662 256.524 389.173 256.829C389.688 257.134 390.087 257.576 390.369 258.155C390.656 258.729 390.8 259.424 390.8 260.24ZM385.099 260.24C385.099 260.842 385.178 261.364 385.338 261.806C385.497 262.248 385.743 262.59 386.076 262.831C386.409 263.073 386.837 263.193 387.361 263.193C387.881 263.193 388.307 263.073 388.64 262.831C388.977 262.59 389.225 262.248 389.385 261.806C389.544 261.364 389.624 260.842 389.624 260.24C389.624 259.643 389.544 259.128 389.385 258.695C389.225 258.258 388.979 257.921 388.646 257.684C388.314 257.447 387.883 257.328 387.354 257.328C386.575 257.328 386.003 257.586 385.639 258.101C385.279 258.616 385.099 259.329 385.099 260.24ZM400.476 256.371C401.301 256.371 401.923 256.588 402.343 257.021C402.762 257.449 402.972 258.139 402.972 259.092V264H401.851V259.146C401.851 258.54 401.718 258.087 401.454 257.786C401.194 257.481 400.807 257.328 400.292 257.328C399.567 257.328 399.041 257.538 398.713 257.957C398.385 258.376 398.221 258.994 398.221 259.81V264H397.093V259.146C397.093 258.741 397.033 258.404 396.915 258.135C396.801 257.866 396.628 257.665 396.395 257.533C396.168 257.396 395.878 257.328 395.527 257.328C395.031 257.328 394.632 257.431 394.331 257.636C394.03 257.841 393.811 258.146 393.675 258.552C393.543 258.953 393.476 259.447 393.476 260.035V264H392.342V256.508H393.258L393.429 257.567H393.49C393.641 257.308 393.83 257.089 394.058 256.911C394.285 256.733 394.541 256.599 394.823 256.508C395.106 256.417 395.406 256.371 395.726 256.371C396.295 256.371 396.771 256.478 397.154 256.692C397.542 256.902 397.822 257.223 397.995 257.656H398.057C398.303 257.223 398.64 256.902 399.068 256.692C399.497 256.478 399.966 256.371 400.476 256.371ZM413.017 256.371C413.842 256.371 414.464 256.588 414.884 257.021C415.303 257.449 415.513 258.139 415.513 259.092V264H414.391V259.146C414.391 258.54 414.259 258.087 413.995 257.786C413.735 257.481 413.348 257.328 412.833 257.328C412.108 257.328 411.582 257.538 411.254 257.957C410.926 258.376 410.762 258.994 410.762 259.81V264H409.634V259.146C409.634 258.741 409.574 258.404 409.456 258.135C409.342 257.866 409.169 257.665 408.936 257.533C408.708 257.396 408.419 257.328 408.068 257.328C407.571 257.328 407.173 257.431 406.872 257.636C406.571 257.841 406.352 258.146 406.216 258.552C406.083 258.953 406.017 259.447 406.017 260.035V264H404.883V256.508H405.799L405.97 257.567H406.031C406.181 257.308 406.371 257.089 406.598 256.911C406.826 256.733 407.082 256.599 407.364 256.508C407.647 256.417 407.947 256.371 408.266 256.371C408.836 256.371 409.312 256.478 409.695 256.692C410.083 256.902 410.363 257.223 410.536 257.656H410.597C410.844 257.223 411.181 256.902 411.609 256.692C412.038 256.478 412.507 256.371 413.017 256.371ZM420.308 256.371C420.946 256.371 421.493 256.512 421.949 256.795C422.405 257.077 422.753 257.474 422.995 257.984C423.236 258.49 423.357 259.083 423.357 259.762V260.466H418.182C418.196 261.345 418.415 262.015 418.839 262.476C419.262 262.936 419.859 263.166 420.63 263.166C421.104 263.166 421.523 263.123 421.887 263.036C422.252 262.95 422.63 262.822 423.022 262.653V263.651C422.644 263.82 422.268 263.943 421.894 264.021C421.525 264.098 421.088 264.137 420.582 264.137C419.862 264.137 419.233 263.991 418.695 263.699C418.162 263.403 417.747 262.97 417.451 262.4C417.155 261.831 417.007 261.133 417.007 260.309C417.007 259.502 417.141 258.805 417.41 258.217C417.683 257.624 418.066 257.169 418.558 256.85C419.055 256.531 419.638 256.371 420.308 256.371ZM420.295 257.301C419.689 257.301 419.205 257.499 418.845 257.896C418.485 258.292 418.271 258.846 418.203 259.557H422.168C422.163 259.11 422.093 258.718 421.956 258.381C421.824 258.039 421.621 257.775 421.347 257.588C421.074 257.396 420.723 257.301 420.295 257.301ZM428.413 256.371C429.301 256.371 429.974 256.59 430.429 257.027C430.885 257.46 431.113 258.158 431.113 259.119V264H429.992V259.194C429.992 258.57 429.848 258.103 429.561 257.793C429.279 257.483 428.843 257.328 428.256 257.328C427.426 257.328 426.843 257.563 426.506 258.032C426.168 258.502 426 259.183 426 260.076V264H424.865V256.508H425.781L425.952 257.588H426.013C426.173 257.324 426.376 257.103 426.622 256.925C426.868 256.743 427.144 256.606 427.449 256.515C427.754 256.419 428.076 256.371 428.413 256.371ZM435.451 263.207C435.638 263.207 435.829 263.191 436.025 263.159C436.221 263.127 436.38 263.089 436.504 263.043V263.925C436.371 263.984 436.187 264.034 435.95 264.075C435.717 264.116 435.49 264.137 435.266 264.137C434.87 264.137 434.51 264.068 434.186 263.932C433.863 263.79 433.603 263.553 433.407 263.221C433.215 262.888 433.12 262.428 433.12 261.84V257.396H432.053V256.843L433.127 256.398L433.578 254.771H434.261V256.508H436.456V257.396H434.261V261.806C434.261 262.275 434.368 262.626 434.583 262.858C434.801 263.091 435.091 263.207 435.451 263.207ZM445.664 261.949C445.664 262.428 445.544 262.831 445.302 263.159C445.065 263.483 444.723 263.727 444.277 263.891C443.835 264.055 443.306 264.137 442.691 264.137C442.167 264.137 441.713 264.096 441.331 264.014C440.948 263.932 440.613 263.815 440.326 263.665V262.619C440.631 262.77 440.996 262.906 441.419 263.029C441.843 263.152 442.276 263.214 442.718 263.214C443.365 263.214 443.835 263.109 444.126 262.899C444.418 262.69 444.564 262.405 444.564 262.045C444.564 261.84 444.505 261.66 444.386 261.505C444.272 261.345 444.079 261.193 443.805 261.047C443.532 260.896 443.153 260.732 442.67 260.555C442.192 260.372 441.777 260.192 441.426 260.015C441.08 259.832 440.811 259.611 440.62 259.352C440.433 259.092 440.339 258.755 440.339 258.34C440.339 257.706 440.595 257.221 441.105 256.884C441.62 256.542 442.294 256.371 443.128 256.371C443.58 256.371 444.001 256.417 444.393 256.508C444.789 256.594 445.159 256.713 445.5 256.863L445.118 257.772C444.808 257.64 444.477 257.529 444.126 257.438C443.775 257.346 443.418 257.301 443.053 257.301C442.529 257.301 442.126 257.387 441.843 257.561C441.565 257.734 441.426 257.971 441.426 258.271C441.426 258.504 441.49 258.695 441.618 258.846C441.75 258.996 441.959 259.137 442.247 259.27C442.534 259.402 442.912 259.557 443.381 259.734C443.851 259.908 444.256 260.088 444.598 260.274C444.94 260.457 445.202 260.68 445.384 260.944C445.571 261.204 445.664 261.539 445.664 261.949ZM453.53 260.24C453.53 260.855 453.45 261.405 453.29 261.888C453.131 262.371 452.901 262.779 452.6 263.111C452.299 263.444 451.935 263.699 451.506 263.877C451.082 264.05 450.602 264.137 450.064 264.137C449.563 264.137 449.102 264.05 448.683 263.877C448.268 263.699 447.908 263.444 447.603 263.111C447.302 262.779 447.067 262.371 446.899 261.888C446.735 261.405 446.653 260.855 446.653 260.24C446.653 259.42 446.792 258.723 447.07 258.148C447.348 257.57 447.744 257.13 448.259 256.829C448.779 256.524 449.396 256.371 450.112 256.371C450.795 256.371 451.392 256.524 451.903 256.829C452.418 257.134 452.816 257.576 453.099 258.155C453.386 258.729 453.53 259.424 453.53 260.24ZM447.828 260.24C447.828 260.842 447.908 261.364 448.068 261.806C448.227 262.248 448.473 262.59 448.806 262.831C449.139 263.073 449.567 263.193 450.091 263.193C450.611 263.193 451.037 263.073 451.369 262.831C451.707 262.59 451.955 262.248 452.115 261.806C452.274 261.364 452.354 260.842 452.354 260.24C452.354 259.643 452.274 259.128 452.115 258.695C451.955 258.258 451.709 257.921 451.376 257.684C451.044 257.447 450.613 257.328 450.084 257.328C449.305 257.328 448.733 257.586 448.369 258.101C448.008 258.616 447.828 259.329 447.828 260.24ZM461.258 256.508V264H460.328L460.164 262.947H460.103C459.948 263.207 459.747 263.426 459.501 263.604C459.255 263.781 458.977 263.913 458.667 264C458.362 264.091 458.036 264.137 457.69 264.137C457.097 264.137 456.601 264.041 456.199 263.85C455.798 263.658 455.495 263.362 455.29 262.961C455.09 262.56 454.99 262.045 454.99 261.416V256.508H456.138V261.334C456.138 261.958 456.279 262.425 456.562 262.735C456.844 263.041 457.275 263.193 457.854 263.193C458.41 263.193 458.852 263.089 459.18 262.879C459.513 262.669 459.752 262.362 459.898 261.956C460.044 261.546 460.116 261.045 460.116 260.452V256.508H461.258ZM464.372 253.363V256.542C464.372 256.724 464.368 256.909 464.359 257.096C464.349 257.278 464.334 257.447 464.311 257.602H464.386C464.541 257.337 464.737 257.116 464.974 256.938C465.215 256.756 465.489 256.619 465.794 256.528C466.099 256.433 466.423 256.385 466.765 256.385C467.366 256.385 467.868 256.48 468.269 256.672C468.674 256.863 468.977 257.16 469.178 257.561C469.383 257.962 469.486 258.481 469.486 259.119V264H468.364V259.194C468.364 258.57 468.221 258.103 467.934 257.793C467.651 257.483 467.216 257.328 466.628 257.328C466.072 257.328 465.628 257.435 465.295 257.649C464.967 257.859 464.73 258.169 464.584 258.579C464.443 258.989 464.372 259.491 464.372 260.083V264H463.237V253.363H464.372ZM474.206 256.385C475.099 256.385 475.762 256.585 476.195 256.986C476.628 257.387 476.845 258.028 476.845 258.907V264H476.018L475.799 262.893H475.744C475.535 263.166 475.316 263.396 475.088 263.583C474.86 263.765 474.596 263.904 474.295 264C473.999 264.091 473.634 264.137 473.201 264.137C472.746 264.137 472.34 264.057 471.984 263.897C471.634 263.738 471.356 263.496 471.151 263.173C470.95 262.849 470.85 262.439 470.85 261.942C470.85 261.195 471.146 260.621 471.738 260.22C472.331 259.819 473.233 259.6 474.445 259.563L475.737 259.509V259.051C475.737 258.404 475.598 257.95 475.32 257.69C475.042 257.431 474.651 257.301 474.145 257.301C473.753 257.301 473.379 257.358 473.024 257.472C472.668 257.586 472.331 257.72 472.012 257.875L471.663 257.014C472 256.84 472.388 256.692 472.825 256.569C473.263 256.446 473.723 256.385 474.206 256.385ZM475.724 260.309L474.582 260.356C473.648 260.393 472.989 260.546 472.607 260.814C472.224 261.083 472.032 261.464 472.032 261.956C472.032 262.384 472.162 262.701 472.422 262.906C472.682 263.111 473.026 263.214 473.454 263.214C474.12 263.214 474.664 263.029 475.088 262.66C475.512 262.291 475.724 261.737 475.724 260.999V260.309ZM479.897 256.508V264H478.763V256.508H479.897ZM479.344 253.705C479.531 253.705 479.69 253.767 479.822 253.89C479.959 254.008 480.027 254.195 480.027 254.45C480.027 254.701 479.959 254.888 479.822 255.011C479.69 255.134 479.531 255.195 479.344 255.195C479.148 255.195 478.984 255.134 478.852 255.011C478.724 254.888 478.66 254.701 478.66 254.45C478.66 254.195 478.724 254.008 478.852 253.89C478.984 253.767 479.148 253.705 479.344 253.705ZM484.304 263.207C484.491 263.207 484.682 263.191 484.878 263.159C485.074 263.127 485.233 263.089 485.356 263.043V263.925C485.224 263.984 485.04 264.034 484.803 264.075C484.57 264.116 484.342 264.137 484.119 264.137C483.723 264.137 483.363 264.068 483.039 263.932C482.715 263.79 482.456 263.553 482.26 263.221C482.068 262.888 481.973 262.428 481.973 261.84V257.396H480.906V256.843L481.979 256.398L482.431 254.771H483.114V256.508H485.309V257.396H483.114V261.806C483.114 262.275 483.221 262.626 483.436 262.858C483.654 263.091 483.944 263.207 484.304 263.207ZM489.339 256.371C489.977 256.371 490.524 256.512 490.979 256.795C491.435 257.077 491.784 257.474 492.025 257.984C492.267 258.49 492.388 259.083 492.388 259.762V260.466H487.213C487.226 261.345 487.445 262.015 487.869 262.476C488.293 262.936 488.89 263.166 489.66 263.166C490.134 263.166 490.553 263.123 490.918 263.036C491.282 262.95 491.661 262.822 492.053 262.653V263.651C491.674 263.82 491.298 263.943 490.925 264.021C490.556 264.098 490.118 264.137 489.612 264.137C488.892 264.137 488.263 263.991 487.725 263.699C487.192 263.403 486.778 262.97 486.481 262.4C486.185 261.831 486.037 261.133 486.037 260.309C486.037 259.502 486.171 258.805 486.44 258.217C486.714 257.624 487.097 257.169 487.589 256.85C488.085 256.531 488.669 256.371 489.339 256.371ZM489.325 257.301C488.719 257.301 488.236 257.499 487.876 257.896C487.516 258.292 487.302 258.846 487.233 259.557H491.198C491.194 259.11 491.123 258.718 490.986 258.381C490.854 258.039 490.651 257.775 490.378 257.588C490.104 257.396 489.753 257.301 489.325 257.301ZM498.708 264H493.246V263.248L497.354 257.396H493.506V256.508H498.619V257.349L494.565 263.118H498.708V264ZM499.402 260.746V259.734H502.793V260.746H499.402ZM505.777 264L502.933 256.508H504.15L505.798 261.04C505.911 261.35 506.028 261.692 506.146 262.065C506.265 262.439 506.347 262.74 506.392 262.968H506.44C506.495 262.74 506.586 262.439 506.714 262.065C506.841 261.687 506.957 261.345 507.062 261.04L508.71 256.508H509.926L507.076 264H505.777ZM517.169 260.24C517.169 260.855 517.09 261.405 516.93 261.888C516.771 262.371 516.541 262.779 516.24 263.111C515.939 263.444 515.574 263.699 515.146 263.877C514.722 264.05 514.241 264.137 513.704 264.137C513.202 264.137 512.742 264.05 512.323 263.877C511.908 263.699 511.548 263.444 511.243 263.111C510.942 262.779 510.707 262.371 510.539 261.888C510.375 261.405 510.293 260.855 510.293 260.24C510.293 259.42 510.432 258.723 510.71 258.148C510.988 257.57 511.384 257.13 511.899 256.829C512.419 256.524 513.036 256.371 513.752 256.371C514.435 256.371 515.032 256.524 515.543 256.829C516.058 257.134 516.456 257.576 516.739 258.155C517.026 258.729 517.169 259.424 517.169 260.24ZM511.468 260.24C511.468 260.842 511.548 261.364 511.708 261.806C511.867 262.248 512.113 262.59 512.446 262.831C512.779 263.073 513.207 263.193 513.731 263.193C514.251 263.193 514.677 263.073 515.009 262.831C515.347 262.59 515.595 262.248 515.754 261.806C515.914 261.364 515.994 260.842 515.994 260.24C515.994 259.643 515.914 259.128 515.754 258.695C515.595 258.258 515.349 257.921 515.016 257.684C514.683 257.447 514.253 257.328 513.724 257.328C512.945 257.328 512.373 257.586 512.008 258.101C511.648 258.616 511.468 259.329 511.468 260.24ZM524.898 256.508V264H523.968L523.804 262.947H523.743C523.588 263.207 523.387 263.426 523.141 263.604C522.895 263.781 522.617 263.913 522.307 264C522.002 264.091 521.676 264.137 521.33 264.137C520.737 264.137 520.24 264.041 519.839 263.85C519.438 263.658 519.135 263.362 518.93 262.961C518.73 262.56 518.629 262.045 518.629 261.416V256.508H519.778V261.334C519.778 261.958 519.919 262.425 520.202 262.735C520.484 263.041 520.915 263.193 521.494 263.193C522.05 263.193 522.492 263.089 522.82 262.879C523.152 262.669 523.392 262.362 523.538 261.956C523.683 261.546 523.756 261.045 523.756 260.452V256.508H524.898ZM531.724 261.949C531.724 262.428 531.603 262.831 531.362 263.159C531.125 263.483 530.783 263.727 530.336 263.891C529.894 264.055 529.366 264.137 528.75 264.137C528.226 264.137 527.773 264.096 527.39 264.014C527.007 263.932 526.672 263.815 526.385 263.665V262.619C526.69 262.77 527.055 262.906 527.479 263.029C527.903 263.152 528.336 263.214 528.778 263.214C529.425 263.214 529.894 263.109 530.186 262.899C530.478 262.69 530.623 262.405 530.623 262.045C530.623 261.84 530.564 261.66 530.446 261.505C530.332 261.345 530.138 261.193 529.865 261.047C529.591 260.896 529.213 260.732 528.73 260.555C528.251 260.372 527.837 260.192 527.486 260.015C527.139 259.832 526.87 259.611 526.679 259.352C526.492 259.092 526.399 258.755 526.399 258.34C526.399 257.706 526.654 257.221 527.164 256.884C527.679 256.542 528.354 256.371 529.188 256.371C529.639 256.371 530.061 256.417 530.453 256.508C530.849 256.594 531.218 256.713 531.56 256.863L531.177 257.772C530.867 257.64 530.537 257.529 530.186 257.438C529.835 257.346 529.477 257.301 529.113 257.301C528.589 257.301 528.185 257.387 527.903 257.561C527.625 257.734 527.486 257.971 527.486 258.271C527.486 258.504 527.55 258.695 527.677 258.846C527.809 258.996 528.019 259.137 528.306 259.27C528.593 259.402 528.971 259.557 529.441 259.734C529.91 259.908 530.316 260.088 530.658 260.274C530.999 260.457 531.261 260.68 531.444 260.944C531.631 261.204 531.724 261.539 531.724 261.949ZM537.993 264L535.15 256.508H536.366L538.014 261.04C538.128 261.35 538.244 261.692 538.363 262.065C538.481 262.439 538.563 262.74 538.609 262.968H538.656C538.711 262.74 538.802 262.439 538.93 262.065C539.058 261.687 539.174 261.345 539.279 261.04L540.926 256.508H542.143L539.292 264H537.993ZM549.386 260.24C549.386 260.855 549.306 261.405 549.147 261.888C548.987 262.371 548.757 262.779 548.456 263.111C548.155 263.444 547.791 263.699 547.362 263.877C546.939 264.05 546.458 264.137 545.92 264.137C545.419 264.137 544.958 264.05 544.539 263.877C544.125 263.699 543.764 263.444 543.459 263.111C543.158 262.779 542.924 262.371 542.755 261.888C542.591 261.405 542.509 260.855 542.509 260.24C542.509 259.42 542.648 258.723 542.926 258.148C543.204 257.57 543.6 257.13 544.115 256.829C544.635 256.524 545.252 256.371 545.968 256.371C546.652 256.371 547.249 256.524 547.759 256.829C548.274 257.134 548.673 257.576 548.955 258.155C549.242 258.729 549.386 259.424 549.386 260.24ZM543.685 260.24C543.685 260.842 543.764 261.364 543.924 261.806C544.083 262.248 544.33 262.59 544.662 262.831C544.995 263.073 545.423 263.193 545.947 263.193C546.467 263.193 546.893 263.073 547.226 262.831C547.563 262.59 547.811 262.248 547.971 261.806C548.13 261.364 548.21 260.842 548.21 260.24C548.21 259.643 548.13 259.128 547.971 258.695C547.811 258.258 547.565 257.921 547.233 257.684C546.9 257.447 546.469 257.328 545.941 257.328C545.161 257.328 544.589 257.586 544.225 258.101C543.865 258.616 543.685 259.329 543.685 260.24ZM557.114 256.508V264H556.185L556.021 262.947H555.959C555.804 263.207 555.604 263.426 555.357 263.604C555.111 263.781 554.833 263.913 554.524 264C554.218 264.091 553.892 264.137 553.546 264.137C552.954 264.137 552.457 264.041 552.056 263.85C551.655 263.658 551.352 263.362 551.147 262.961C550.946 262.56 550.846 262.045 550.846 261.416V256.508H551.994V261.334C551.994 261.958 552.135 262.425 552.418 262.735C552.701 263.041 553.131 263.193 553.71 263.193C554.266 263.193 554.708 263.089 555.036 262.879C555.369 262.669 555.608 262.362 555.754 261.956C555.9 261.546 555.973 261.045 555.973 260.452V256.508H557.114ZM563.94 261.949C563.94 262.428 563.82 262.831 563.578 263.159C563.341 263.483 562.999 263.727 562.553 263.891C562.111 264.055 561.582 264.137 560.967 264.137C560.443 264.137 559.989 264.096 559.606 264.014C559.224 263.932 558.889 263.815 558.602 263.665V262.619C558.907 262.77 559.271 262.906 559.695 263.029C560.119 263.152 560.552 263.214 560.994 263.214C561.641 263.214 562.111 263.109 562.402 262.899C562.694 262.69 562.84 262.405 562.84 262.045C562.84 261.84 562.781 261.66 562.662 261.505C562.548 261.345 562.354 261.193 562.081 261.047C561.808 260.896 561.429 260.732 560.946 260.555C560.468 260.372 560.053 260.192 559.702 260.015C559.356 259.832 559.087 259.611 558.896 259.352C558.709 259.092 558.615 258.755 558.615 258.34C558.615 257.706 558.87 257.221 559.381 256.884C559.896 256.542 560.57 256.371 561.404 256.371C561.855 256.371 562.277 256.417 562.669 256.508C563.065 256.594 563.435 256.713 563.776 256.863L563.394 257.772C563.084 257.64 562.753 257.529 562.402 257.438C562.051 257.346 561.694 257.301 561.329 257.301C560.805 257.301 560.402 257.387 560.119 257.561C559.841 257.734 559.702 257.971 559.702 258.271C559.702 258.504 559.766 258.695 559.894 258.846C560.026 258.996 560.235 259.137 560.522 259.27C560.81 259.402 561.188 259.557 561.657 259.734C562.127 259.908 562.532 260.088 562.874 260.274C563.216 260.457 563.478 260.68 563.66 260.944C563.847 261.204 563.94 261.539 563.94 261.949ZM439.227 283.137C438.552 283.137 437.958 282.998 437.443 282.72C436.928 282.442 436.527 282.018 436.24 281.448C435.953 280.879 435.809 280.161 435.809 279.295C435.809 278.388 435.959 277.647 436.26 277.073C436.565 276.494 436.985 276.066 437.518 275.788C438.051 275.51 438.657 275.371 439.336 275.371C439.71 275.371 440.07 275.41 440.416 275.487C440.767 275.56 441.054 275.654 441.278 275.768L440.936 276.718C440.708 276.627 440.444 276.545 440.143 276.472C439.847 276.399 439.569 276.362 439.309 276.362C438.789 276.362 438.357 276.474 438.01 276.697C437.668 276.921 437.411 277.249 437.238 277.682C437.069 278.115 436.985 278.648 436.985 279.281C436.985 279.887 437.067 280.405 437.231 280.833C437.399 281.261 437.648 281.59 437.976 281.817C438.309 282.041 438.723 282.152 439.22 282.152C439.617 282.152 439.974 282.111 440.293 282.029C440.612 281.943 440.902 281.842 441.162 281.729V282.74C440.911 282.868 440.631 282.966 440.321 283.034C440.015 283.103 439.651 283.137 439.227 283.137ZM448.979 279.24C448.979 279.855 448.899 280.405 448.74 280.888C448.58 281.371 448.35 281.779 448.049 282.111C447.748 282.444 447.384 282.699 446.955 282.877C446.532 283.05 446.051 283.137 445.513 283.137C445.012 283.137 444.551 283.05 444.132 282.877C443.717 282.699 443.357 282.444 443.052 282.111C442.751 281.779 442.517 281.371 442.348 280.888C442.184 280.405 442.102 279.855 442.102 279.24C442.102 278.42 442.241 277.723 442.519 277.148C442.797 276.57 443.193 276.13 443.708 275.829C444.228 275.524 444.845 275.371 445.561 275.371C446.244 275.371 446.841 275.524 447.352 275.829C447.867 276.134 448.266 276.576 448.548 277.155C448.835 277.729 448.979 278.424 448.979 279.24ZM443.278 279.24C443.278 279.842 443.357 280.364 443.517 280.806C443.676 281.248 443.923 281.59 444.255 281.831C444.588 282.073 445.016 282.193 445.54 282.193C446.06 282.193 446.486 282.073 446.819 281.831C447.156 281.59 447.404 281.248 447.564 280.806C447.723 280.364 447.803 279.842 447.803 279.24C447.803 278.643 447.723 278.128 447.564 277.695C447.404 277.258 447.158 276.921 446.826 276.684C446.493 276.447 446.062 276.328 445.534 276.328C444.754 276.328 444.182 276.586 443.818 277.101C443.458 277.616 443.278 278.329 443.278 279.24ZM454.069 275.371C454.957 275.371 455.629 275.59 456.085 276.027C456.541 276.46 456.769 277.158 456.769 278.119V283H455.648V278.194C455.648 277.57 455.504 277.103 455.217 276.793C454.934 276.483 454.499 276.328 453.911 276.328C453.082 276.328 452.499 276.563 452.161 277.032C451.824 277.502 451.656 278.183 451.656 279.076V283H450.521V275.508H451.437L451.608 276.588H451.669C451.829 276.324 452.031 276.103 452.278 275.925C452.524 275.743 452.799 275.606 453.105 275.515C453.41 275.419 453.731 275.371 454.069 275.371ZM462.235 275.371C463.123 275.371 463.795 275.59 464.251 276.027C464.707 276.46 464.935 277.158 464.935 278.119V283H463.814V278.194C463.814 277.57 463.67 277.103 463.383 276.793C463.1 276.483 462.665 276.328 462.077 276.328C461.248 276.328 460.665 276.563 460.327 277.032C459.99 277.502 459.821 278.183 459.821 279.076V283H458.687V275.508H459.603L459.774 276.588H459.835C459.995 276.324 460.197 276.103 460.444 275.925C460.69 275.743 460.965 275.606 461.271 275.515C461.576 275.419 461.897 275.371 462.235 275.371ZM469.737 275.371C470.375 275.371 470.922 275.512 471.378 275.795C471.834 276.077 472.182 276.474 472.424 276.984C472.665 277.49 472.786 278.083 472.786 278.762V279.466H467.611C467.625 280.345 467.844 281.015 468.268 281.476C468.691 281.936 469.288 282.166 470.059 282.166C470.533 282.166 470.952 282.123 471.316 282.036C471.681 281.95 472.059 281.822 472.451 281.653V282.651C472.073 282.82 471.697 282.943 471.323 283.021C470.954 283.098 470.517 283.137 470.011 283.137C469.291 283.137 468.662 282.991 468.124 282.699C467.591 282.403 467.176 281.97 466.88 281.4C466.584 280.831 466.436 280.133 466.436 279.309C466.436 278.502 466.57 277.805 466.839 277.217C467.112 276.624 467.495 276.169 467.987 275.85C468.484 275.531 469.067 275.371 469.737 275.371ZM469.724 276.301C469.118 276.301 468.635 276.499 468.274 276.896C467.914 277.292 467.7 277.846 467.632 278.557H471.597C471.592 278.11 471.522 277.718 471.385 277.381C471.253 277.039 471.05 276.775 470.776 276.588C470.503 276.396 470.152 276.301 469.724 276.301ZM477.295 283.137C476.62 283.137 476.026 282.998 475.511 282.72C474.996 282.442 474.595 282.018 474.308 281.448C474.021 280.879 473.877 280.161 473.877 279.295C473.877 278.388 474.027 277.647 474.328 277.073C474.633 276.494 475.053 276.066 475.586 275.788C476.119 275.51 476.725 275.371 477.404 275.371C477.778 275.371 478.138 275.41 478.484 275.487C478.835 275.56 479.122 275.654 479.346 275.768L479.004 276.718C478.776 276.627 478.512 276.545 478.211 276.472C477.915 276.399 477.637 276.362 477.377 276.362C476.857 276.362 476.424 276.474 476.078 276.697C475.736 276.921 475.479 277.249 475.306 277.682C475.137 278.115 475.053 278.648 475.053 279.281C475.053 279.887 475.135 280.405 475.299 280.833C475.467 281.261 475.716 281.59 476.044 281.817C476.377 282.041 476.791 282.152 477.288 282.152C477.685 282.152 478.042 282.111 478.361 282.029C478.68 281.943 478.97 281.842 479.229 281.729V282.74C478.979 282.868 478.699 282.966 478.389 283.034C478.083 283.103 477.719 283.137 477.295 283.137ZM483.007 282.207C483.194 282.207 483.385 282.191 483.581 282.159C483.777 282.127 483.936 282.089 484.059 282.043V282.925C483.927 282.984 483.743 283.034 483.506 283.075C483.273 283.116 483.045 283.137 482.822 283.137C482.426 283.137 482.066 283.068 481.742 282.932C481.419 282.79 481.159 282.553 480.963 282.221C480.771 281.888 480.676 281.428 480.676 280.84V276.396H479.609V275.843L480.683 275.398L481.134 273.771H481.817V275.508H484.012V276.396H481.817V280.806C481.817 281.275 481.924 281.626 482.139 281.858C482.357 282.091 482.647 282.207 483.007 282.207ZM488.042 275.371C488.68 275.371 489.227 275.512 489.682 275.795C490.138 276.077 490.487 276.474 490.728 276.984C490.97 277.49 491.091 278.083 491.091 278.762V279.466H485.916C485.93 280.345 486.148 281.015 486.572 281.476C486.996 281.936 487.593 282.166 488.363 282.166C488.837 282.166 489.256 282.123 489.621 282.036C489.986 281.95 490.364 281.822 490.756 281.653V282.651C490.377 282.82 490.001 282.943 489.628 283.021C489.259 283.098 488.821 283.137 488.315 283.137C487.595 283.137 486.966 282.991 486.429 282.699C485.895 282.403 485.481 281.97 485.184 281.4C484.888 280.831 484.74 280.133 484.74 279.309C484.74 278.502 484.875 277.805 485.143 277.217C485.417 276.624 485.8 276.169 486.292 275.85C486.789 275.531 487.372 275.371 488.042 275.371ZM488.028 276.301C487.422 276.301 486.939 276.499 486.579 276.896C486.219 277.292 486.005 277.846 485.936 278.557H489.901C489.897 278.11 489.826 277.718 489.689 277.381C489.557 277.039 489.354 276.775 489.081 276.588C488.807 276.396 488.457 276.301 488.028 276.301ZM496.003 275.371C496.153 275.371 496.31 275.38 496.474 275.398C496.638 275.412 496.784 275.433 496.912 275.46L496.768 276.513C496.645 276.481 496.509 276.456 496.358 276.438C496.208 276.419 496.066 276.41 495.934 276.41C495.634 276.41 495.349 276.472 495.08 276.595C494.816 276.713 494.583 276.886 494.383 277.114C494.182 277.338 494.025 277.609 493.911 277.928C493.797 278.242 493.74 278.593 493.74 278.98V283H492.598V275.508H493.542L493.665 276.889H493.713C493.868 276.611 494.054 276.358 494.273 276.13C494.492 275.897 494.745 275.713 495.032 275.576C495.324 275.439 495.647 275.371 496.003 275.371ZM501.896 280.225V279.869C501.896 279.505 501.93 279.192 501.999 278.933C502.067 278.668 502.185 278.422 502.354 278.194C502.527 277.966 502.767 277.725 503.072 277.47C503.427 277.174 503.708 276.923 503.913 276.718C504.122 276.508 504.273 276.299 504.364 276.089C504.455 275.879 504.501 275.626 504.501 275.33C504.501 274.856 504.348 274.494 504.043 274.243C503.737 273.988 503.307 273.86 502.751 273.86C502.299 273.86 501.898 273.917 501.547 274.031C501.197 274.145 500.859 274.282 500.536 274.441L500.139 273.525C500.513 273.329 500.919 273.17 501.356 273.047C501.794 272.924 502.281 272.862 502.819 272.862C503.698 272.862 504.38 273.081 504.863 273.519C505.346 273.951 505.587 274.549 505.587 275.31C505.587 275.733 505.519 276.096 505.382 276.396C505.246 276.693 505.052 276.966 504.801 277.217C504.551 277.463 504.254 277.725 503.913 278.003C503.612 278.258 503.382 278.484 503.222 278.68C503.063 278.871 502.953 279.069 502.894 279.274C502.835 279.475 502.805 279.716 502.805 279.999V280.225H501.896ZM501.595 282.289C501.595 281.97 501.671 281.744 501.821 281.612C501.971 281.476 502.165 281.407 502.402 281.407C502.625 281.407 502.814 281.476 502.969 281.612C503.129 281.744 503.209 281.97 503.209 282.289C503.209 282.604 503.129 282.834 502.969 282.979C502.814 283.121 502.625 283.191 502.402 283.191C502.165 283.191 501.971 283.121 501.821 282.979C501.671 282.834 501.595 282.604 501.595 282.289Z" fill="white"/>
<circle cx="466" cy="162" r="41" fill="white"/>
<path d="M478.25 155.458H453.75C451.817 155.458 450.25 157.286 450.25 159.542V171.792C450.25 174.047 451.817 175.875 453.75 175.875H478.25C480.183 175.875 481.75 174.047 481.75 171.792V159.542C481.75 157.286 480.183 155.458 478.25 155.458Z" stroke="url(#paint5_linear_22_132)" stroke-width="5" stroke-linecap="round" stroke-linejoin="round"/>
<path d="M466 147.292C467.933 147.292 469.5 145.463 469.5 143.208C469.5 140.953 467.933 139.125 466 139.125C464.067 139.125 462.5 140.953 462.5 143.208C462.5 145.463 464.067 147.292 466 147.292Z" stroke="url(#paint6_linear_22_132)" stroke-width="3" stroke-linecap="round" stroke-linejoin="round"/>
<path d="M466 147.292V155.458" stroke="url(#paint7_linear_22_132)" stroke-width="3" stroke-linecap="round" stroke-linejoin="round"/>
<ellipse cx="459" cy="165.667" rx="1.75" ry="2.04167" fill="url(#paint8_linear_22_132)"/>
<ellipse cx="473" cy="165.667" rx="1.75" ry="2.04167" fill="url(#paint9_linear_22_132)"/>
<path d="M430 181.5L448.5 199C448.5 199 446.004 196.663 444 196.5C442.816 196.403 441 197 441 197L433.007 199.388C430.678 200.083 428.532 197.866 429.303 195.561L431.5 189C431.5 189 432.326 186.327 432 185C431.624 183.471 430 181.5 430 181.5Z" fill="white"/>
<rect x="361" y="304" width="214" height="49" rx="15" fill="white"/>
<path d="M419.588 331.085C419.588 331.72 419.432 332.267 419.119 332.726C418.812 333.185 418.367 333.536 417.786 333.78C417.21 334.024 416.521 334.146 415.721 334.146C415.33 334.146 414.957 334.125 414.6 334.081C414.244 334.037 413.907 333.973 413.589 333.89C413.277 333.802 412.991 333.697 412.732 333.575V331.92C413.167 332.11 413.653 332.284 414.19 332.44C414.727 332.591 415.274 332.667 415.831 332.667C416.285 332.667 416.661 332.608 416.958 332.491C417.261 332.369 417.486 332.198 417.632 331.979C417.779 331.754 417.852 331.493 417.852 331.195C417.852 330.877 417.767 330.609 417.596 330.389C417.425 330.169 417.166 329.969 416.819 329.789C416.478 329.603 416.048 329.405 415.53 329.195C415.179 329.054 414.842 328.893 414.52 328.712C414.202 328.531 413.919 328.319 413.67 328.075C413.421 327.831 413.223 327.542 413.077 327.21C412.935 326.874 412.864 326.478 412.864 326.024C412.864 325.418 413.008 324.901 413.296 324.471C413.589 324.042 414 323.712 414.527 323.482C415.059 323.253 415.679 323.138 416.387 323.138C416.949 323.138 417.476 323.197 417.969 323.314C418.467 323.431 418.956 323.597 419.434 323.812L418.877 325.226C418.438 325.045 418.011 324.901 417.596 324.793C417.186 324.686 416.766 324.632 416.336 324.632C415.965 324.632 415.65 324.688 415.391 324.801C415.132 324.913 414.935 325.072 414.798 325.277C414.666 325.477 414.6 325.716 414.6 325.995C414.6 326.307 414.676 326.571 414.827 326.786C414.983 326.996 415.223 327.188 415.545 327.364C415.872 327.54 416.292 327.735 416.805 327.95C417.396 328.194 417.896 328.451 418.306 328.719C418.721 328.988 419.039 329.31 419.258 329.686C419.478 330.057 419.588 330.523 419.588 331.085ZM422.749 325.892V334H421.028V325.892H422.749ZM421.899 322.787C422.163 322.787 422.39 322.857 422.58 322.999C422.776 323.141 422.873 323.385 422.873 323.731C422.873 324.073 422.776 324.317 422.58 324.464C422.39 324.605 422.163 324.676 421.899 324.676C421.626 324.676 421.394 324.605 421.203 324.464C421.018 324.317 420.925 324.073 420.925 323.731C420.925 323.385 421.018 323.141 421.203 322.999C421.394 322.857 421.626 322.787 421.899 322.787ZM427.081 337.604C425.983 337.604 425.141 337.406 424.555 337.01C423.969 336.615 423.676 336.061 423.676 335.348C423.676 334.85 423.832 334.427 424.144 334.081C424.457 333.739 424.904 333.502 425.485 333.37C425.265 333.272 425.075 333.121 424.913 332.916C424.757 332.706 424.679 332.474 424.679 332.22C424.679 331.917 424.765 331.659 424.935 331.444C425.106 331.229 425.363 331.021 425.704 330.821C425.28 330.641 424.938 330.348 424.679 329.942C424.425 329.532 424.298 329.051 424.298 328.5C424.298 327.914 424.423 327.416 424.672 327.005C424.921 326.59 425.285 326.275 425.763 326.061C426.242 325.841 426.82 325.731 427.499 325.731C427.645 325.731 427.804 325.741 427.975 325.76C428.151 325.775 428.312 325.794 428.458 325.819C428.61 325.838 428.725 325.86 428.803 325.885H431.608V326.844L430.231 327.101C430.363 327.286 430.468 327.499 430.546 327.738C430.624 327.972 430.663 328.229 430.663 328.507C430.663 329.347 430.372 330.008 429.791 330.492C429.215 330.97 428.419 331.209 427.404 331.209C427.16 331.2 426.923 331.18 426.693 331.151C426.517 331.258 426.383 331.378 426.29 331.51C426.198 331.637 426.151 331.781 426.151 331.942C426.151 332.074 426.198 332.181 426.29 332.264C426.383 332.342 426.52 332.401 426.701 332.44C426.886 332.479 427.111 332.499 427.374 332.499H428.773C429.662 332.499 430.341 332.687 430.809 333.062C431.278 333.438 431.513 333.99 431.513 334.718C431.513 335.641 431.132 336.351 430.37 336.849C429.608 337.352 428.512 337.604 427.081 337.604ZM427.147 336.395C427.748 336.395 428.253 336.336 428.663 336.219C429.074 336.102 429.384 335.934 429.594 335.714C429.804 335.499 429.909 335.243 429.909 334.945C429.909 334.681 429.843 334.479 429.711 334.337C429.579 334.195 429.381 334.098 429.118 334.044C428.854 333.99 428.527 333.963 428.136 333.963H426.862C426.544 333.963 426.264 334.012 426.019 334.11C425.775 334.212 425.585 334.359 425.448 334.549C425.316 334.74 425.25 334.969 425.25 335.238C425.25 335.609 425.414 335.895 425.741 336.095C426.073 336.295 426.542 336.395 427.147 336.395ZM427.484 330.082C427.987 330.082 428.361 329.945 428.605 329.671C428.849 329.393 428.971 329.002 428.971 328.5C428.971 327.953 428.844 327.542 428.59 327.269C428.341 326.996 427.97 326.859 427.477 326.859C426.994 326.859 426.625 326.998 426.371 327.276C426.122 327.555 425.997 327.967 425.997 328.514C425.997 329.007 426.122 329.393 426.371 329.671C426.625 329.945 426.996 330.082 427.484 330.082ZM436.863 325.738C437.776 325.738 438.487 325.975 438.995 326.449C439.507 326.917 439.764 327.672 439.764 328.712V334H438.043V329.034C438.043 328.404 437.913 327.933 437.654 327.621C437.396 327.303 436.995 327.145 436.453 327.145C435.667 327.145 435.12 327.386 434.813 327.87C434.51 328.353 434.358 329.054 434.358 329.972V334H432.637V325.892H433.978L434.219 326.991H434.315C434.49 326.708 434.708 326.476 434.966 326.295C435.23 326.109 435.523 325.97 435.845 325.877C436.172 325.785 436.512 325.738 436.863 325.738ZM446.891 325.892V334H445.17V325.892H446.891ZM446.042 322.787C446.305 322.787 446.532 322.857 446.723 322.999C446.918 323.141 447.016 323.385 447.016 323.731C447.016 324.073 446.918 324.317 446.723 324.464C446.532 324.605 446.305 324.676 446.042 324.676C445.768 324.676 445.536 324.605 445.346 324.464C445.16 324.317 445.067 324.073 445.067 323.731C445.067 323.385 445.16 323.141 445.346 322.999C445.536 322.857 445.768 322.787 446.042 322.787ZM453.135 325.738C454.049 325.738 454.759 325.975 455.267 326.449C455.779 326.917 456.036 327.672 456.036 328.712V334H454.315V329.034C454.315 328.404 454.185 327.933 453.926 327.621C453.668 327.303 453.267 327.145 452.725 327.145C451.939 327.145 451.392 327.386 451.085 327.87C450.782 328.353 450.631 329.054 450.631 329.972V334H448.909V325.892H450.25L450.491 326.991H450.587C450.762 326.708 450.98 326.476 451.238 326.295C451.502 326.109 451.795 325.97 452.117 325.877C452.445 325.785 452.784 325.738 453.135 325.738ZM468.07 333.993L467.045 330.221C466.996 330.035 466.938 329.811 466.869 329.547C466.801 329.283 466.733 329.012 466.664 328.734C466.596 328.451 466.532 328.189 466.474 327.95C466.42 327.711 466.379 327.525 466.349 327.394H466.291C466.266 327.525 466.227 327.711 466.173 327.95C466.12 328.189 466.059 328.451 465.99 328.734C465.922 329.017 465.854 329.293 465.785 329.562C465.722 329.83 465.663 330.06 465.609 330.25L464.533 333.993H462.643L460.373 325.885H462.116L463.171 329.913C463.239 330.187 463.305 330.482 463.368 330.799C463.437 331.117 463.495 331.419 463.544 331.708C463.593 331.996 463.629 332.232 463.654 332.418H463.713C463.732 332.286 463.759 332.12 463.793 331.92C463.827 331.715 463.866 331.502 463.91 331.283C463.954 331.058 463.998 330.848 464.042 330.653C464.086 330.453 464.128 330.292 464.167 330.169L465.412 325.885H467.294L468.488 330.169C468.542 330.355 468.6 330.589 468.664 330.873C468.727 331.151 468.783 331.432 468.832 331.715C468.886 331.993 468.92 332.225 468.935 332.411H468.993C469.013 332.245 469.047 332.02 469.096 331.737C469.15 331.449 469.211 331.144 469.279 330.821C469.347 330.494 469.418 330.191 469.491 329.913L470.568 325.885H472.282L469.997 333.993H468.07ZM474.945 325.892V334H473.223V325.892H474.945ZM474.095 322.787C474.359 322.787 474.586 322.857 474.776 322.999C474.971 323.141 475.069 323.385 475.069 323.731C475.069 324.073 474.971 324.317 474.776 324.464C474.586 324.605 474.359 324.676 474.095 324.676C473.822 324.676 473.59 324.605 473.399 324.464C473.214 324.317 473.121 324.073 473.121 323.731C473.121 323.385 473.214 323.141 473.399 322.999C473.59 322.857 473.822 322.787 474.095 322.787ZM479.98 332.755C480.205 332.755 480.427 332.735 480.647 332.696C480.867 332.652 481.067 332.601 481.248 332.542V333.846C481.057 333.929 480.811 334 480.508 334.059C480.205 334.117 479.89 334.146 479.563 334.146C479.104 334.146 478.691 334.071 478.325 333.919C477.959 333.763 477.668 333.497 477.454 333.121C477.239 332.745 477.131 332.225 477.131 331.561V327.203H476.025V326.434L477.212 325.826L477.776 324.09H478.86V325.892H481.182V327.203H478.86V331.539C478.86 331.949 478.962 332.254 479.167 332.455C479.373 332.655 479.644 332.755 479.98 332.755ZM484.167 322.604V325.467C484.167 325.765 484.157 326.056 484.137 326.339C484.123 326.622 484.106 326.842 484.086 326.998H484.181C484.352 326.715 484.562 326.483 484.811 326.302C485.06 326.117 485.339 325.978 485.646 325.885C485.959 325.792 486.291 325.746 486.642 325.746C487.262 325.746 487.79 325.851 488.224 326.061C488.659 326.266 488.991 326.585 489.22 327.02C489.455 327.455 489.572 328.019 489.572 328.712V334H487.851V329.034C487.851 328.404 487.721 327.933 487.463 327.621C487.204 327.303 486.803 327.145 486.261 327.145C485.739 327.145 485.324 327.254 485.016 327.474C484.714 327.689 484.496 328.009 484.364 328.434C484.233 328.854 484.167 329.366 484.167 329.972V334H482.446V322.604H484.167ZM499.475 328.185H503.474V333.561C502.913 333.746 502.332 333.89 501.731 333.993C501.13 334.095 500.457 334.146 499.71 334.146C498.621 334.146 497.698 333.932 496.941 333.502C496.189 333.067 495.618 332.44 495.227 331.62C494.837 330.794 494.641 329.801 494.641 328.639C494.641 327.521 494.858 326.551 495.293 325.731C495.728 324.906 496.36 324.269 497.19 323.819C498.02 323.365 499.026 323.138 500.208 323.138C500.789 323.138 501.35 323.197 501.892 323.314C502.439 323.426 502.94 323.583 503.394 323.783L502.778 325.233C502.417 325.062 502.012 324.918 501.563 324.801C501.113 324.684 500.647 324.625 500.164 324.625C499.397 324.625 498.735 324.791 498.179 325.123C497.627 325.455 497.202 325.924 496.904 326.529C496.607 327.13 496.458 327.84 496.458 328.661C496.458 329.457 496.577 330.155 496.817 330.755C497.056 331.356 497.429 331.825 497.937 332.162C498.45 332.494 499.111 332.66 499.922 332.66C500.327 332.66 500.671 332.638 500.955 332.594C501.238 332.55 501.499 332.501 501.738 332.447V329.686H499.475V328.185ZM512.59 329.928C512.59 330.602 512.502 331.2 512.326 331.722C512.15 332.245 511.894 332.687 511.557 333.048C511.22 333.404 510.815 333.678 510.341 333.868C509.867 334.054 509.333 334.146 508.737 334.146C508.18 334.146 507.67 334.054 507.206 333.868C506.742 333.678 506.34 333.404 505.998 333.048C505.661 332.687 505.4 332.245 505.214 331.722C505.029 331.2 504.936 330.602 504.936 329.928C504.936 329.034 505.09 328.277 505.397 327.657C505.71 327.032 506.154 326.556 506.73 326.229C507.306 325.902 507.992 325.738 508.788 325.738C509.535 325.738 510.195 325.902 510.766 326.229C511.337 326.556 511.784 327.032 512.106 327.657C512.429 328.282 512.59 329.039 512.59 329.928ZM506.708 329.928C506.708 330.519 506.779 331.024 506.921 331.444C507.067 331.864 507.292 332.186 507.595 332.411C507.897 332.63 508.288 332.74 508.766 332.74C509.245 332.74 509.636 332.63 509.938 332.411C510.241 332.186 510.463 331.864 510.605 331.444C510.746 331.024 510.817 330.519 510.817 329.928C510.817 329.337 510.746 328.836 510.605 328.426C510.463 328.011 510.241 327.696 509.938 327.481C509.636 327.262 509.242 327.152 508.759 327.152C508.046 327.152 507.526 327.391 507.199 327.87C506.872 328.348 506.708 329.034 506.708 329.928ZM521.295 329.928C521.295 330.602 521.207 331.2 521.031 331.722C520.855 332.245 520.599 332.687 520.262 333.048C519.925 333.404 519.52 333.678 519.046 333.868C518.573 334.054 518.038 334.146 517.442 334.146C516.886 334.146 516.375 334.054 515.912 333.868C515.448 333.678 515.045 333.404 514.703 333.048C514.366 332.687 514.105 332.245 513.919 331.722C513.734 331.2 513.641 330.602 513.641 329.928C513.641 329.034 513.795 328.277 514.103 327.657C514.415 327.032 514.859 326.556 515.436 326.229C516.012 325.902 516.698 325.738 517.494 325.738C518.241 325.738 518.9 325.902 519.471 326.229C520.042 326.556 520.489 327.032 520.812 327.657C521.134 328.282 521.295 329.039 521.295 329.928ZM515.414 329.928C515.414 330.519 515.484 331.024 515.626 331.444C515.772 331.864 515.997 332.186 516.3 332.411C516.603 332.63 516.993 332.74 517.472 332.74C517.95 332.74 518.341 332.63 518.644 332.411C518.946 332.186 519.168 331.864 519.31 331.444C519.452 331.024 519.522 330.519 519.522 329.928C519.522 329.337 519.452 328.836 519.31 328.426C519.168 328.011 518.946 327.696 518.644 327.481C518.341 327.262 517.948 327.152 517.464 327.152C516.751 327.152 516.231 327.391 515.904 327.87C515.577 328.348 515.414 329.034 515.414 329.928ZM525.137 337.604C524.038 337.604 523.196 337.406 522.61 337.01C522.024 336.615 521.731 336.061 521.731 335.348C521.731 334.85 521.887 334.427 522.2 334.081C522.512 333.739 522.959 333.502 523.54 333.37C523.321 333.272 523.13 333.121 522.969 332.916C522.813 332.706 522.735 332.474 522.735 332.22C522.735 331.917 522.82 331.659 522.991 331.444C523.162 331.229 523.418 331.021 523.76 330.821C523.335 330.641 522.993 330.348 522.735 329.942C522.481 329.532 522.354 329.051 522.354 328.5C522.354 327.914 522.478 327.416 522.727 327.005C522.976 326.59 523.34 326.275 523.819 326.061C524.297 325.841 524.876 325.731 525.554 325.731C525.701 325.731 525.86 325.741 526.03 325.76C526.206 325.775 526.367 325.794 526.514 325.819C526.665 325.838 526.78 325.86 526.858 325.885H529.663V326.844L528.286 327.101C528.418 327.286 528.523 327.499 528.601 327.738C528.679 327.972 528.718 328.229 528.718 328.507C528.718 329.347 528.428 330.008 527.847 330.492C527.271 330.97 526.475 331.209 525.459 331.209C525.215 331.2 524.978 331.18 524.749 331.151C524.573 331.258 524.439 331.378 524.346 331.51C524.253 331.637 524.207 331.781 524.207 331.942C524.207 332.074 524.253 332.181 524.346 332.264C524.439 332.342 524.575 332.401 524.756 332.44C524.942 332.479 525.166 332.499 525.43 332.499H526.829C527.717 332.499 528.396 332.687 528.865 333.062C529.334 333.438 529.568 333.99 529.568 334.718C529.568 335.641 529.187 336.351 528.425 336.849C527.664 337.352 526.568 337.604 525.137 337.604ZM525.203 336.395C525.803 336.395 526.309 336.336 526.719 336.219C527.129 336.102 527.439 335.934 527.649 335.714C527.859 335.499 527.964 335.243 527.964 334.945C527.964 334.681 527.898 334.479 527.766 334.337C527.634 334.195 527.437 334.098 527.173 334.044C526.909 333.99 526.582 333.963 526.192 333.963H524.917C524.6 333.963 524.319 334.012 524.075 334.11C523.831 334.212 523.64 334.359 523.504 334.549C523.372 334.74 523.306 334.969 523.306 335.238C523.306 335.609 523.469 335.895 523.797 336.095C524.129 336.295 524.597 336.395 525.203 336.395ZM525.54 330.082C526.043 330.082 526.416 329.945 526.66 329.671C526.904 329.393 527.027 329.002 527.027 328.5C527.027 327.953 526.9 327.542 526.646 327.269C526.397 326.996 526.026 326.859 525.532 326.859C525.049 326.859 524.68 326.998 524.426 327.276C524.177 327.555 524.053 327.967 524.053 328.514C524.053 329.007 524.177 329.393 524.426 329.671C524.68 329.945 525.051 330.082 525.54 330.082ZM532.421 334H530.693V322.604H532.421V334ZM537.662 325.738C538.385 325.738 539.005 325.887 539.523 326.185C540.04 326.483 540.438 326.905 540.716 327.452C540.995 327.999 541.134 328.653 541.134 329.415V330.338H535.721C535.741 331.124 535.951 331.729 536.351 332.154C536.756 332.579 537.323 332.792 538.05 332.792C538.568 332.792 539.032 332.743 539.442 332.645C539.857 332.542 540.284 332.394 540.724 332.198V333.597C540.318 333.788 539.906 333.927 539.486 334.015C539.066 334.103 538.563 334.146 537.977 334.146C537.181 334.146 536.481 333.993 535.875 333.685C535.275 333.373 534.803 332.909 534.462 332.293C534.125 331.678 533.956 330.914 533.956 330.001C533.956 329.093 534.11 328.321 534.418 327.687C534.725 327.052 535.157 326.568 535.714 326.236C536.271 325.904 536.92 325.738 537.662 325.738ZM537.662 327.035C537.12 327.035 536.681 327.21 536.344 327.562C536.012 327.914 535.817 328.429 535.758 329.107H539.449C539.444 328.702 539.376 328.343 539.244 328.031C539.117 327.718 538.922 327.474 538.658 327.298C538.4 327.123 538.067 327.035 537.662 327.035Z" fill="black"/>
<g clip-path="url(#clip0_22_132)">
<path fill-rule="evenodd" clip-rule="evenodd" d="M384.303 328C384.303 327.365 384.409 326.756 384.597 326.185L381.301 323.668C380.659 324.972 380.297 326.442 380.297 328C380.297 329.557 380.659 331.025 381.3 332.328L384.594 329.807C384.407 329.239 384.303 328.632 384.303 328Z" fill="#FBBC05"/>
<path fill-rule="evenodd" clip-rule="evenodd" d="M390.089 322.222C391.469 322.222 392.715 322.711 393.694 323.511L396.543 320.667C394.807 319.156 392.582 318.222 390.089 318.222C386.22 318.222 382.894 320.435 381.302 323.668L384.597 326.185C385.356 323.88 387.521 322.222 390.089 322.222Z" fill="#EB4335"/>
<path fill-rule="evenodd" clip-rule="evenodd" d="M390.089 333.778C387.521 333.778 385.356 332.12 384.597 329.815L381.302 332.331C382.894 335.565 386.22 337.778 390.089 337.778C392.477 337.778 394.757 336.93 396.469 335.341L393.341 332.923C392.458 333.479 391.347 333.778 390.089 333.778Z" fill="#34A853"/>
<path fill-rule="evenodd" clip-rule="evenodd" d="M399.436 328C399.436 327.422 399.347 326.8 399.213 326.222H390.089V330H395.341C395.078 331.288 394.363 332.278 393.341 332.923L396.469 335.341C398.266 333.672 399.436 331.187 399.436 328Z" fill="#4285F4"/>
</g>
<rect x="361" y="364" width="214" height="49" rx="15" fill="#1F1B34"/>
<path d="M419.588 391.085C419.588 391.72 419.432 392.267 419.119 392.726C418.812 393.185 418.367 393.536 417.786 393.78C417.21 394.024 416.521 394.146 415.721 394.146C415.33 394.146 414.957 394.125 414.6 394.081C414.244 394.037 413.907 393.973 413.589 393.89C413.277 393.802 412.991 393.697 412.732 393.575V391.92C413.167 392.11 413.653 392.284 414.19 392.44C414.727 392.591 415.274 392.667 415.831 392.667C416.285 392.667 416.661 392.608 416.958 392.491C417.261 392.369 417.486 392.198 417.632 391.979C417.779 391.754 417.852 391.493 417.852 391.195C417.852 390.877 417.767 390.609 417.596 390.389C417.425 390.169 417.166 389.969 416.819 389.789C416.478 389.603 416.048 389.405 415.53 389.195C415.179 389.054 414.842 388.893 414.52 388.712C414.202 388.531 413.919 388.319 413.67 388.075C413.421 387.831 413.223 387.542 413.077 387.21C412.935 386.874 412.864 386.478 412.864 386.024C412.864 385.418 413.008 384.901 413.296 384.471C413.589 384.042 414 383.712 414.527 383.482C415.059 383.253 415.679 383.138 416.387 383.138C416.949 383.138 417.476 383.197 417.969 383.314C418.467 383.431 418.956 383.597 419.434 383.812L418.877 385.226C418.438 385.045 418.011 384.901 417.596 384.793C417.186 384.686 416.766 384.632 416.336 384.632C415.965 384.632 415.65 384.688 415.391 384.801C415.132 384.913 414.935 385.072 414.798 385.277C414.666 385.477 414.6 385.716 414.6 385.995C414.6 386.307 414.676 386.571 414.827 386.786C414.983 386.996 415.223 387.188 415.545 387.364C415.872 387.54 416.292 387.735 416.805 387.95C417.396 388.194 417.896 388.451 418.306 388.719C418.721 388.988 419.039 389.31 419.258 389.686C419.478 390.057 419.588 390.523 419.588 391.085ZM422.749 385.892V394H421.028V385.892H422.749ZM421.899 382.787C422.163 382.787 422.39 382.857 422.58 382.999C422.776 383.141 422.873 383.385 422.873 383.731C422.873 384.073 422.776 384.317 422.58 384.464C422.39 384.605 422.163 384.676 421.899 384.676C421.626 384.676 421.394 384.605 421.203 384.464C421.018 384.317 420.925 384.073 420.925 383.731C420.925 383.385 421.018 383.141 421.203 382.999C421.394 382.857 421.626 382.787 421.899 382.787ZM427.081 397.604C425.983 397.604 425.141 397.406 424.555 397.01C423.969 396.615 423.676 396.061 423.676 395.348C423.676 394.85 423.832 394.427 424.144 394.081C424.457 393.739 424.904 393.502 425.485 393.37C425.265 393.272 425.075 393.121 424.913 392.916C424.757 392.706 424.679 392.474 424.679 392.22C424.679 391.917 424.765 391.659 424.935 391.444C425.106 391.229 425.363 391.021 425.704 390.821C425.28 390.641 424.938 390.348 424.679 389.942C424.425 389.532 424.298 389.051 424.298 388.5C424.298 387.914 424.423 387.416 424.672 387.005C424.921 386.59 425.285 386.275 425.763 386.061C426.242 385.841 426.82 385.731 427.499 385.731C427.645 385.731 427.804 385.741 427.975 385.76C428.151 385.775 428.312 385.794 428.458 385.819C428.61 385.838 428.725 385.86 428.803 385.885H431.608V386.844L430.231 387.101C430.363 387.286 430.468 387.499 430.546 387.738C430.624 387.972 430.663 388.229 430.663 388.507C430.663 389.347 430.372 390.008 429.791 390.492C429.215 390.97 428.419 391.209 427.404 391.209C427.16 391.2 426.923 391.18 426.693 391.151C426.517 391.258 426.383 391.378 426.29 391.51C426.198 391.637 426.151 391.781 426.151 391.942C426.151 392.074 426.198 392.181 426.29 392.264C426.383 392.342 426.52 392.401 426.701 392.44C426.886 392.479 427.111 392.499 427.374 392.499H428.773C429.662 392.499 430.341 392.687 430.809 393.062C431.278 393.438 431.513 393.99 431.513 394.718C431.513 395.641 431.132 396.351 430.37 396.849C429.608 397.352 428.512 397.604 427.081 397.604ZM427.147 396.395C427.748 396.395 428.253 396.336 428.663 396.219C429.074 396.102 429.384 395.934 429.594 395.714C429.804 395.499 429.909 395.243 429.909 394.945C429.909 394.681 429.843 394.479 429.711 394.337C429.579 394.195 429.381 394.098 429.118 394.044C428.854 393.99 428.527 393.963 428.136 393.963H426.862C426.544 393.963 426.264 394.012 426.019 394.11C425.775 394.212 425.585 394.359 425.448 394.549C425.316 394.74 425.25 394.969 425.25 395.238C425.25 395.609 425.414 395.895 425.741 396.095C426.073 396.295 426.542 396.395 427.147 396.395ZM427.484 390.082C427.987 390.082 428.361 389.945 428.605 389.671C428.849 389.393 428.971 389.002 428.971 388.5C428.971 387.953 428.844 387.542 428.59 387.269C428.341 386.996 427.97 386.859 427.477 386.859C426.994 386.859 426.625 386.998 426.371 387.276C426.122 387.555 425.997 387.967 425.997 388.514C425.997 389.007 426.122 389.393 426.371 389.671C426.625 389.945 426.996 390.082 427.484 390.082ZM436.863 385.738C437.776 385.738 438.487 385.975 438.995 386.449C439.507 386.917 439.764 387.672 439.764 388.712V394H438.043V389.034C438.043 388.404 437.913 387.933 437.654 387.621C437.396 387.303 436.995 387.145 436.453 387.145C435.667 387.145 435.12 387.386 434.813 387.87C434.51 388.353 434.358 389.054 434.358 389.972V394H432.637V385.892H433.978L434.219 386.991H434.315C434.49 386.708 434.708 386.476 434.966 386.295C435.23 386.109 435.523 385.97 435.845 385.877C436.172 385.785 436.512 385.738 436.863 385.738ZM446.891 385.892V394H445.17V385.892H446.891ZM446.042 382.787C446.305 382.787 446.532 382.857 446.723 382.999C446.918 383.141 447.016 383.385 447.016 383.731C447.016 384.073 446.918 384.317 446.723 384.464C446.532 384.605 446.305 384.676 446.042 384.676C445.768 384.676 445.536 384.605 445.346 384.464C445.16 384.317 445.067 384.073 445.067 383.731C445.067 383.385 445.16 383.141 445.346 382.999C445.536 382.857 445.768 382.787 446.042 382.787ZM453.135 385.738C454.049 385.738 454.759 385.975 455.267 386.449C455.779 386.917 456.036 387.672 456.036 388.712V394H454.315V389.034C454.315 388.404 454.185 387.933 453.926 387.621C453.668 387.303 453.267 387.145 452.725 387.145C451.939 387.145 451.392 387.386 451.085 387.87C450.782 388.353 450.631 389.054 450.631 389.972V394H448.909V385.892H450.25L450.491 386.991H450.587C450.762 386.708 450.98 386.476 451.238 386.295C451.502 386.109 451.795 385.97 452.117 385.877C452.445 385.785 452.784 385.738 453.135 385.738ZM468.07 393.993L467.045 390.221C466.996 390.035 466.938 389.811 466.869 389.547C466.801 389.283 466.733 389.012 466.664 388.734C466.596 388.451 466.532 388.189 466.474 387.95C466.42 387.711 466.379 387.525 466.349 387.394H466.291C466.266 387.525 466.227 387.711 466.173 387.95C466.12 388.189 466.059 388.451 465.99 388.734C465.922 389.017 465.854 389.293 465.785 389.562C465.722 389.83 465.663 390.06 465.609 390.25L464.533 393.993H462.643L460.373 385.885H462.116L463.171 389.913C463.239 390.187 463.305 390.482 463.368 390.799C463.437 391.117 463.495 391.419 463.544 391.708C463.593 391.996 463.629 392.232 463.654 392.418H463.713C463.732 392.286 463.759 392.12 463.793 391.92C463.827 391.715 463.866 391.502 463.91 391.283C463.954 391.058 463.998 390.848 464.042 390.653C464.086 390.453 464.128 390.292 464.167 390.169L465.412 385.885H467.294L468.488 390.169C468.542 390.355 468.6 390.589 468.664 390.873C468.727 391.151 468.783 391.432 468.832 391.715C468.886 391.993 468.92 392.225 468.935 392.411H468.993C469.013 392.245 469.047 392.02 469.096 391.737C469.15 391.449 469.211 391.144 469.279 390.821C469.347 390.494 469.418 390.191 469.491 389.913L470.568 385.885H472.282L469.997 393.993H468.07ZM474.945 385.892V394H473.223V385.892H474.945ZM474.095 382.787C474.359 382.787 474.586 382.857 474.776 382.999C474.971 383.141 475.069 383.385 475.069 383.731C475.069 384.073 474.971 384.317 474.776 384.464C474.586 384.605 474.359 384.676 474.095 384.676C473.822 384.676 473.59 384.605 473.399 384.464C473.214 384.317 473.121 384.073 473.121 383.731C473.121 383.385 473.214 383.141 473.399 382.999C473.59 382.857 473.822 382.787 474.095 382.787ZM479.98 392.755C480.205 392.755 480.427 392.735 480.647 392.696C480.867 392.652 481.067 392.601 481.248 392.542V393.846C481.057 393.929 480.811 394 480.508 394.059C480.205 394.117 479.89 394.146 479.563 394.146C479.104 394.146 478.691 394.071 478.325 393.919C477.959 393.763 477.668 393.497 477.454 393.121C477.239 392.745 477.131 392.225 477.131 391.561V387.203H476.025V386.434L477.212 385.826L477.776 384.09H478.86V385.892H481.182V387.203H478.86V391.539C478.86 391.949 478.962 392.254 479.167 392.455C479.373 392.655 479.644 392.755 479.98 392.755ZM484.167 382.604V385.467C484.167 385.765 484.157 386.056 484.137 386.339C484.123 386.622 484.106 386.842 484.086 386.998H484.181C484.352 386.715 484.562 386.483 484.811 386.302C485.06 386.117 485.339 385.978 485.646 385.885C485.959 385.792 486.291 385.746 486.642 385.746C487.262 385.746 487.79 385.851 488.224 386.061C488.659 386.266 488.991 386.585 489.22 387.02C489.455 387.455 489.572 388.019 489.572 388.712V394H487.851V389.034C487.851 388.404 487.721 387.933 487.463 387.621C487.204 387.303 486.803 387.145 486.261 387.145C485.739 387.145 485.324 387.254 485.016 387.474C484.714 387.689 484.496 388.009 484.364 388.434C484.233 388.854 484.167 389.366 484.167 389.972V394H482.446V382.604H484.167ZM501.79 394L500.742 391.026H496.648L495.601 394H493.748L497.732 383.248H499.68L503.657 394H501.79ZM500.288 389.518L499.27 386.588C499.231 386.461 499.175 386.283 499.102 386.053C499.028 385.819 498.955 385.582 498.882 385.343C498.809 385.099 498.748 384.894 498.699 384.728C498.65 384.928 498.589 385.152 498.516 385.401C498.447 385.646 498.379 385.875 498.311 386.09C498.247 386.305 498.198 386.471 498.164 386.588L497.139 389.518H500.288ZM508.605 385.738C509.567 385.738 510.339 386.09 510.92 386.793C511.506 387.496 511.799 388.541 511.799 389.928C511.799 390.846 511.662 391.62 511.388 392.25C511.12 392.875 510.742 393.348 510.253 393.67C509.77 393.988 509.206 394.146 508.561 394.146C508.151 394.146 507.795 394.093 507.492 393.985C507.189 393.878 506.93 393.739 506.716 393.568C506.501 393.392 506.32 393.202 506.174 392.997H506.071C506.096 393.192 506.117 393.409 506.137 393.648C506.161 393.883 506.174 394.098 506.174 394.293V397.596H504.445V385.892H505.851L506.093 387.013H506.174C506.325 386.783 506.508 386.571 506.723 386.375C506.943 386.18 507.206 386.026 507.514 385.914C507.826 385.797 508.19 385.738 508.605 385.738ZM508.144 387.145C507.67 387.145 507.289 387.24 507.001 387.43C506.718 387.616 506.511 387.896 506.379 388.272C506.252 388.648 506.183 389.12 506.174 389.686V389.928C506.174 390.528 506.235 391.039 506.357 391.458C506.484 391.874 506.691 392.191 506.979 392.411C507.272 392.625 507.668 392.733 508.166 392.733C508.586 392.733 508.932 392.618 509.206 392.389C509.484 392.159 509.692 391.832 509.828 391.407C509.965 390.982 510.033 390.482 510.033 389.906C510.033 389.032 509.877 388.353 509.565 387.87C509.257 387.386 508.783 387.145 508.144 387.145ZM517.501 385.738C518.463 385.738 519.234 386.09 519.815 386.793C520.401 387.496 520.694 388.541 520.694 389.928C520.694 390.846 520.558 391.62 520.284 392.25C520.016 392.875 519.637 393.348 519.149 393.67C518.666 393.988 518.102 394.146 517.457 394.146C517.047 394.146 516.69 394.093 516.388 393.985C516.085 393.878 515.826 393.739 515.611 393.568C515.396 393.392 515.216 393.202 515.069 392.997H514.967C514.991 393.192 515.013 393.409 515.033 393.648C515.057 393.883 515.069 394.098 515.069 394.293V397.596H513.341V385.892H514.747L514.989 387.013H515.069C515.221 386.783 515.404 386.571 515.619 386.375C515.838 386.18 516.102 386.026 516.41 385.914C516.722 385.797 517.086 385.738 517.501 385.738ZM517.04 387.145C516.566 387.145 516.185 387.24 515.897 387.43C515.614 387.616 515.406 387.896 515.274 388.272C515.147 388.648 515.079 389.12 515.069 389.686V389.928C515.069 390.528 515.13 391.039 515.252 391.458C515.379 391.874 515.587 392.191 515.875 392.411C516.168 392.625 516.563 392.733 517.062 392.733C517.481 392.733 517.828 392.618 518.102 392.389C518.38 392.159 518.587 391.832 518.724 391.407C518.861 390.982 518.929 390.482 518.929 389.906C518.929 389.032 518.773 388.353 518.46 387.87C518.153 387.386 517.679 387.145 517.04 387.145ZM523.965 394H522.237V382.604H523.965V394ZM529.206 385.738C529.929 385.738 530.549 385.887 531.066 386.185C531.584 386.483 531.982 386.905 532.26 387.452C532.538 387.999 532.678 388.653 532.678 389.415V390.338H527.265C527.285 391.124 527.495 391.729 527.895 392.154C528.3 392.579 528.867 392.792 529.594 392.792C530.112 392.792 530.576 392.743 530.986 392.645C531.401 392.542 531.828 392.394 532.267 392.198V393.597C531.862 393.788 531.45 393.927 531.03 394.015C530.61 394.103 530.107 394.146 529.521 394.146C528.725 394.146 528.024 393.993 527.419 393.685C526.818 393.373 526.347 392.909 526.005 392.293C525.668 391.678 525.5 390.914 525.5 390.001C525.5 389.093 525.654 388.321 525.961 387.687C526.269 387.052 526.701 386.568 527.258 386.236C527.814 385.904 528.464 385.738 529.206 385.738ZM529.206 387.035C528.664 387.035 528.225 387.21 527.888 387.562C527.556 387.914 527.36 388.429 527.302 389.107H530.993C530.988 388.702 530.92 388.343 530.788 388.031C530.661 387.718 530.466 387.474 530.202 387.298C529.943 387.123 529.611 387.035 529.206 387.035Z" fill="white"/>
<path d="M389.713 382.823C389.5 381.663 390.049 380.468 390.709 379.664C391.438 378.775 392.688 378.094 393.756 378.02C393.936 379.236 393.44 380.422 392.786 381.26C392.085 382.161 390.879 382.86 389.713 382.823ZM395.978 387.029C396.308 386.106 396.963 385.277 397.979 384.717C396.952 383.436 395.511 382.692 394.151 382.692C392.352 382.692 391.591 383.55 390.341 383.55C389.054 383.55 388.077 382.692 386.518 382.692C384.99 382.692 383.363 383.624 382.331 385.215C381.952 385.803 381.695 386.534 381.555 387.347C381.166 389.63 381.747 392.604 383.48 395.244C384.322 396.525 385.445 397.968 386.912 397.98C388.219 397.993 388.59 397.145 390.36 397.136C392.131 397.126 392.467 397.989 393.773 397.977C395.24 397.964 396.425 396.367 397.268 395.086C397.868 394.167 398.095 393.703 398.561 392.664C396.189 391.769 395.213 389.155 395.978 387.029Z" fill="white"/>
<defs>
<linearGradient id="paint0_linear_22_132" x1="315.5" y1="0" x2="315.5" y2="53" gradientUnits="userSpaceOnUse">
<stop stop-color="#5B538A"/>
<stop offset="1" stop-color="#373056"/>
</linearGradient>
<radialGradient id="paint1_radial_22_132" cx="0" cy="0" r="1" gradientUnits="userSpaceOnUse" gradientTransform="translate(33 28) rotate(90) scale(8)">
<stop offset="0.817308" stop-color="#65619C"/>
<stop offset="1" stop-color="#7373B2"/>
</radialGradient>
<radialGradient id="paint2_radial_22_132" cx="0" cy="0" r="1" gradientUnits="userSpaceOnUse" gradientTransform="translate(60 28) rotate(90) scale(8)">
<stop offset="0.817308" stop-color="#65619C"/>
<stop offset="1" stop-color="#7373B2"/>
</radialGradient>
<radialGradient id="paint3_radial_22_132" cx="0" cy="0" r="1" gradientUnits="userSpaceOnUse" gradientTransform="translate(86 28) rotate(90) scale(8)">
<stop offset="0.817308" stop-color="#65619C"/>
<stop offset="1" stop-color="#7373B2"/>
</radialGradient>
<linearGradient id="paint4_linear_22_132" x1="518" y1="92" x2="469" y2="437" gradientUnits="userSpaceOnUse">
<stop stop-color="#6027EB"/>
<stop offset="1" stop-color="#4956F3"/>
</linearGradient>
<linearGradient id="paint5_linear_22_132" x1="466" y1="155.458" x2="466" y2="175.875" gradientUnits="userSpaceOnUse">
<stop stop-color="#5F2ED3"/>
</linearGradient>
<linearGradient id="paint6_linear_22_132" x1="466" y1="139.125" x2="466" y2="147.292" gradientUnits="userSpaceOnUse">
<stop stop-color="#5F2ED3"/>
</linearGradient>
<linearGradient id="paint7_linear_22_132" x1="466.5" y1="147.292" x2="466.5" y2="155.458" gradientUnits="userSpaceOnUse">
<stop stop-color="#5F2ED3"/>
</linearGradient>
<linearGradient id="paint8_linear_22_132" x1="459" y1="163.625" x2="459" y2="167.708" gradientUnits="userSpaceOnUse">
<stop stop-color="#5F2ED3"/>
</linearGradient>
<linearGradient id="paint9_linear_22_132" x1="473" y1="163.625" x2="473" y2="167.708" gradientUnits="userSpaceOnUse">
<stop stop-color="#5F2ED3"/>
</linearGradient>
<clipPath id="clip0_22_132">
<rect width="20" height="20" fill="white" transform="translate(380 318)"/>
</clipPath>
</defs>
</svg>
