<svg width="1009" height="209" viewBox="0 0 1009 209" fill="none" xmlns="http://www.w3.org/2000/svg">
<g filter="url(#filter0_f_114_11)">
<line x1="87.9969" y1="100.5" x2="900.997" y2="99.5025" stroke="white" stroke-opacity="0.42" stroke-width="5"/>
</g>
<line x1="84.997" y1="100.75" x2="906.997" y2="98.75" stroke="url(#paint0_linear_114_11)" stroke-width="2.5"/>
<g filter="url(#filter1_f_114_11)">
<circle cx="81.5" cy="91.5" r="38.5" fill="#D472E7"/>
</g>
<path d="M80.9785 56.7852C86.9084 56.6294 90.5775 56.909 96.0068 59.3398C100.603 61.3974 103.577 63.323 107.174 66.8203C109.238 68.8271 110.699 70.4842 111.915 72.3027C113.13 74.1209 114.094 76.0927 115.17 78.7246C117.088 83.415 117.28 86.4628 117.247 91.4863C117.215 96.3116 117.043 99.2411 115.17 103.739C113.508 107.731 112.158 109.539 109.476 112.918C107.753 115.088 105.968 116.574 104.299 118.094C102.627 119.615 101.06 121.179 99.7227 123.524C98.8885 124.988 97.9922 126.879 97.3027 128.408C96.9585 129.172 96.6668 129.844 96.4609 130.325C96.358 130.566 96.2763 130.759 96.2207 130.892C96.193 130.958 96.1716 131.008 96.1572 131.043C96.1501 131.06 96.1443 131.073 96.1406 131.082C96.1389 131.086 96.1376 131.09 96.1367 131.092C96.1363 131.093 96.136 131.094 96.1357 131.095V131.096L96.0713 131.25H67.9697L67.9004 131.111H67.8994C67.8991 131.111 67.899 131.11 67.8984 131.108C67.8973 131.106 67.8957 131.103 67.8936 131.099C67.8891 131.09 67.8828 131.076 67.874 131.059C67.8565 131.024 67.8297 130.972 67.7959 130.905C67.7283 130.771 67.6296 130.577 67.5059 130.334C67.2583 129.849 66.9103 129.172 66.5068 128.404C65.6992 126.868 64.6733 124.974 63.7949 123.531C62.2097 120.928 60.334 119.545 58.3721 118.179C56.4091 116.811 54.3516 115.455 52.4883 112.91C50.1053 109.655 49.1348 107.509 47.8242 103.725C46.2373 99.1416 45.7839 96.3258 45.752 91.4863C45.7188 86.4573 46.0218 83.4563 47.8262 78.7305C49.7812 73.6102 51.6522 70.8296 55.6025 66.9883C59.6787 63.0247 62.7073 61.3597 68.0352 59.334C72.8397 57.5072 75.8303 56.9203 80.9785 56.7852Z" fill="url(#paint1_linear_114_11)" stroke="url(#paint2_linear_114_11)" stroke-width="0.5"/>
<path d="M69.9999 144H93.9999C93.9999 144 94.3128 147.073 93.9999 149C93.8056 150.197 93.6233 151.251 93.1999 152C92.7323 152.827 92.4106 153.378 91.6922 154C91.0722 154.537 90.7358 154.738 89.9999 155.1C89.1183 155.533 88.5042 155.721 87.5384 155.9C86.7555 156.045 85.4999 156.1 85.4999 156.1H81.9999H78.4999C78.4999 156.1 77.423 156.1 76.4614 155.8C75.4999 155.5 75.3362 155.391 74.6153 155C73.8943 154.609 73.2802 154.133 72.5999 153.5C71.8215 152.776 71.5332 152.408 70.9799 151.5C70.4382 150.611 70.2529 150.018 69.9999 149C69.5288 147.105 69.9999 144 69.9999 144Z" fill="#391FD2"/>
<g filter="url(#filter2_f_114_11)">
<rect x="69.5" y="142" width="25" height="3" rx="1" fill="black" fill-opacity="0.67"/>
</g>
<path d="M66.5 131.5C66.7658 131.232 67.1048 131.117 67.5562 131.05C67.7834 131.016 68.1445 131 68.1445 131H95.8574C95.8574 131 96.2823 131 96.5469 131.05C96.9598 131.128 97.2445 131.247 97.5 131.5C97.7501 131.748 97.8869 132.122 97.95 132.5C97.9788 132.673 98 133.13 98 133.13V140.252C98 140.252 98.015 140.731 97.9 141C97.7913 141.254 97.6 141.5 97.6 141.5L96.1 143C96.1 143 95.7198 143.333 95.5 143.5C95.2336 143.703 95.0794 143.791 94.7423 143.9C94.3507 144.027 93.688 144 93.688 144H70.5C70.5 144 70 144.012 69.5 143.8C69.0582 143.613 68.87 143.4 68.87 143.4L66.9 141.5L66.5 141C66.5 141 66.201 140.633 66.1 140.318C66.0022 140.014 66 139.5 66 139.5V133C66 133 66.0143 132.658 66.05 132.444C66.1187 132.033 66.228 131.774 66.5 131.5Z" fill="url(#paint3_linear_114_11)"/>
<g filter="url(#filter3_f_114_11)">
<path d="M67 131H97V141L96.5 141.5L96 142H68.7489C68.7489 142 67.8714 141.872 67.5 141.5C67.1371 141.137 67 140.285 67 140.285V131Z" fill="url(#paint4_linear_114_11)"/>
</g>
<g filter="url(#filter4_f_114_11)">
<circle cx="293.5" cy="103.5" r="53.5" fill="#6252DA"/>
</g>
<path d="M295.505 55.7495C304.437 55.5893 317.371 59.7255 327.323 69.6772C337.261 79.6147 339.745 91.1808 338.751 101.977C338.375 106.064 337.761 109.39 336.56 112.448C335.359 115.503 333.566 118.304 330.815 121.332C326.744 125.813 322.916 129.187 316.977 129.751C314.491 129.988 312.658 129.32 310.811 128.423C308.968 127.529 307.08 126.387 304.561 125.757C300.496 124.741 296.951 125.234 293.355 127.796C289.889 130.267 289.75 134.017 290.253 137.536C290.496 139.241 290.267 140.802 289.552 142.182C288.836 143.563 287.625 144.781 285.876 145.783C283.599 147.087 280.68 146.931 277.917 146.199C275.162 145.468 272.616 144.178 271.129 143.286C268.144 141.495 260.999 137.321 254.717 126.375C249.908 117.997 248.48 111.671 248.75 102.007C249.129 88.4409 252.889 78.0511 262.673 68.6802C271.9 59.8431 282.714 55.9792 295.505 55.7495Z" fill="url(#paint5_linear_114_11)" stroke="url(#paint6_linear_114_11)" stroke-width="0.5"/>
<circle cx="279.5" cy="79.5" r="9.5" fill="#FF00F2"/>
<circle cx="318.5" cy="107.5" r="9.5" fill="#00B3FF"/>
<circle cx="308" cy="82" r="11" fill="white"/>
<g filter="url(#filter5_f_114_11)">
<ellipse cx="504" cy="104.5" rx="46" ry="62.5" fill="#7B52DA" fill-opacity="0.65"/>
</g>
<rect x="468" y="54" width="71" height="100" rx="11" fill="white"/>
<rect x="474" y="59" width="60" height="90" rx="6" fill="url(#paint7_linear_114_11)"/>
<path d="M490 59H519L517 63.5C517 63.5 516.624 64.1754 516.1 64.35C515.561 64.5297 515 64.5 515 64.5H494C494 64.5 493.27 64.4735 492.9 64.35C492.53 64.2265 492.268 63.9023 492 63.5C491 62 490 59 490 59Z" fill="#C79BFC"/>
<path d="M483 82C483 79.7909 484.791 78 487 78H502V103H487C484.791 103 483 101.209 483 99V82Z" fill="#956AEF"/>
<path d="M483 115C483 113.343 484.343 112 486 112H502V118H486C484.343 118 483 116.657 483 115Z" fill="#956AEF"/>
<path d="M484 129C484 127.343 485.343 126 487 126H502V132H487C485.343 132 484 130.657 484 129Z" fill="#956AEF"/>
<path d="M525 82C525 79.7909 523.209 78 521 78H502V103H521C523.209 103 525 101.209 525 99V82Z" fill="#6647E9"/>
<path d="M525 115C525 113.343 523.657 112 522 112H502V118H522C523.657 118 525 116.657 525 115Z" fill="#6647E9"/>
<path d="M511 129C511 127.343 509.657 126 508 126H502V132H508C509.657 132 511 130.657 511 129Z" fill="#6647E9"/>
<g filter="url(#filter6_f_114_11)">
<ellipse cx="709.5" cy="100" rx="47.5" ry="58" fill="#9593FF" fill-opacity="0.43"/>
</g>
<rect x="668" y="54" width="90" height="38" rx="6" fill="url(#paint8_linear_114_11)"/>
<rect x="672" y="57.5" width="82" height="31" rx="3" fill="url(#paint9_linear_114_11)"/>
<circle cx="685" cy="73" r="4" fill="url(#paint10_radial_114_11)"/>
<rect x="711" y="67" width="33" height="5" rx="2.5" fill="#2806AE"/>
<rect x="711" y="75" width="33" height="5" rx="2.5" fill="#2806AE"/>
<rect x="668" y="95" width="90" height="50" rx="6" fill="url(#paint11_linear_114_11)"/>
<rect x="672" y="98.5" width="82" height="43" rx="3" fill="url(#paint12_linear_114_11)"/>
<circle cx="685" cy="114" r="3" fill="url(#paint13_radial_114_11)"/>
<circle cx="685" cy="129" r="3" fill="url(#paint14_radial_114_11)"/>
<rect x="711" y="108" width="33" height="5" rx="2.5" fill="#2806AE"/>
<rect x="711" y="129" width="33" height="5" rx="2.5" fill="#2806AE"/>
<rect x="711" y="118" width="33" height="5" rx="2.5" fill="#2806AE"/>
<g filter="url(#filter7_f_114_11)">
<ellipse cx="919.5" cy="108" rx="47.5" ry="58" fill="#7371FF" fill-opacity="0.44"/>
</g>
<path d="M882 119.522L896.5 107L903 129L885.5 142.5L882 119.522Z" fill="white"/>
<path d="M956 119.522L941.5 107L935 129L952.5 142.5L956 119.522Z" fill="url(#paint15_linear_114_11)"/>
<path d="M955 120L941.5 108L935 129L952.5 142.5L955 120Z" fill="#8B45FA"/>
<path d="M900.491 78C900.491 78 911.404 79.5603 918.996 79.5272C926.192 79.4959 938.489 78 938.489 78C938.489 78 942.509 94.0612 941.949 104.472C941.433 114.08 937 128.5 937 128.5C937 128.5 936.3 130.162 935.49 130.944C934.8 131.727 934.407 132.254 931.5 133.5C928 135 922.561 134.7 920 134.7C917.439 134.7 909 134.5 906.5 133C905.416 132.35 904.724 131.841 904 130.944C903.238 130 902.5 128 902.5 128C902.5 128 896.627 113.982 896.044 104.472C895.402 94.0088 900.491 78 900.491 78Z" fill="url(#paint16_linear_114_11)"/>
<path d="M919.5 56.5C920.985 56.5686 921.702 56.7738 923 57.5C926.737 59.5912 929.324 63.1569 932 66.5001C935.622 71.0245 938.5 78 938.5 78C938.5 78 926.943 79.5 919.5 79.5C912.057 79.5 900.5 78 900.5 78C900.5 78 903.051 70.4055 906.5 66.0001C909.224 62.521 911.57 59.5188 915.5 57.5C916.984 56.7377 917.833 56.4231 919.5 56.5Z" fill="url(#paint17_linear_114_11)"/>
<path d="M883 120L896.5 108L903 129L885.5 142.5L883 120Z" fill="#8B45FA"/>
<path d="M916 116.5C916.929 114.805 918.072 113.352 920 113.5C921.652 113.627 923.098 114.893 923.5 116.5C924 118.5 924.27 119.525 924 122.5C923.742 125.334 923.547 128.298 923.5 133C923.417 141.258 924.5 139.975 924.5 145C924.5 149 924.347 153.672 920.5 153.5C916.748 153.332 916 148.756 916 145C916 141 917 141 917 133C917 128.249 916 122.5 916 122.5C916 122.5 914.95 118.414 916 116.5Z" fill="#6627F1"/>
<path d="M70.62 171.16C70.78 171.16 70.86 171.247 70.86 171.42V185.66C70.86 185.793 70.8333 185.887 70.78 185.94C70.7267 185.98 70.6333 186 70.5 186H69.24C69.12 186 69.04 185.98 69 185.94C68.96 185.9 68.94 185.827 68.94 185.72V171.44C68.94 171.253 69.02 171.16 69.18 171.16H70.62ZM81.8808 186C81.7874 186 81.7141 185.98 81.6608 185.94C81.6208 185.887 81.6008 185.813 81.6008 185.72V184.88C81.6008 184.773 81.5741 184.713 81.5208 184.7C81.4808 184.687 81.4208 184.72 81.3408 184.8C81.1941 184.933 80.9808 185.113 80.7008 185.34C80.4341 185.567 80.0941 185.767 79.6808 185.94C79.2674 186.113 78.7741 186.2 78.2008 186.2C77.3608 186.2 76.6074 186 75.9408 185.6C75.2741 185.2 74.7408 184.607 74.3408 183.82C73.9541 183.02 73.7608 182.033 73.7608 180.86C73.7608 179.727 73.9541 178.74 74.3408 177.9C74.7408 177.047 75.2941 176.387 76.0008 175.92C76.7208 175.44 77.5341 175.2 78.4408 175.2C79.0941 175.2 79.6408 175.307 80.0808 175.52C80.5208 175.733 80.9074 175.98 81.2408 176.26C81.3608 176.353 81.4408 176.393 81.4808 176.38C81.5341 176.353 81.5608 176.267 81.5608 176.12V171.42C81.5608 171.247 81.6341 171.16 81.7808 171.16H83.0008C83.1474 171.16 83.2208 171.247 83.2208 171.42V185.68C83.2208 185.8 83.2008 185.887 83.1608 185.94C83.1208 185.98 83.0341 186 82.9008 186H81.8808ZM81.5408 177.74C81.1274 177.327 80.7074 177.007 80.2808 176.78C79.8541 176.553 79.3741 176.44 78.8408 176.44C78.2008 176.44 77.6208 176.607 77.1008 176.94C76.5941 177.26 76.1941 177.747 75.9008 178.4C75.6208 179.053 75.4808 179.853 75.4808 180.8C75.4808 181.773 75.6274 182.573 75.9208 183.2C76.2141 183.813 76.6074 184.267 77.1008 184.56C77.5941 184.84 78.1341 184.98 78.7208 184.98C79.2674 184.98 79.7474 184.853 80.1608 184.6C80.5874 184.347 80.9208 184.033 81.1608 183.66C81.4141 183.287 81.5408 182.92 81.5408 182.56V177.74ZM87.4334 181.36C87.4334 182.013 87.5868 182.613 87.8934 183.16C88.2134 183.693 88.6334 184.12 89.1534 184.44C89.6868 184.76 90.2801 184.92 90.9334 184.92C91.6001 184.92 92.1934 184.787 92.7134 184.52C93.2334 184.24 93.6801 183.82 94.0534 183.26C94.1068 183.207 94.1468 183.18 94.1734 183.18C94.2134 183.167 94.2668 183.173 94.3334 183.2L95.1734 183.62C95.2934 183.687 95.3068 183.78 95.2134 183.9C94.8534 184.433 94.4534 184.873 94.0134 185.22C93.5868 185.553 93.1068 185.8 92.5734 185.96C92.0401 186.12 91.4401 186.2 90.7734 186.2C89.7868 186.2 88.9134 185.973 88.1534 185.52C87.3934 185.067 86.7934 184.433 86.3534 183.62C85.9134 182.807 85.6934 181.867 85.6934 180.8C85.6934 179.64 85.9134 178.647 86.3534 177.82C86.8068 176.98 87.4134 176.333 88.1734 175.88C88.9468 175.427 89.8068 175.2 90.7534 175.2C91.7268 175.2 92.5734 175.413 93.2934 175.84C94.0134 176.267 94.5734 176.887 94.9734 177.7C95.3734 178.513 95.5734 179.493 95.5734 180.64C95.5734 180.733 95.5601 180.827 95.5334 180.92C95.5201 181.013 95.4334 181.06 95.2734 181.06H87.6134C87.5601 181.06 87.5134 181.093 87.4734 181.16C87.4468 181.213 87.4334 181.28 87.4334 181.36ZM93.5534 179.96C93.7001 179.96 93.7934 179.947 93.8334 179.92C93.8734 179.88 93.8934 179.8 93.8934 179.68C93.8934 179.107 93.7668 178.573 93.5134 178.08C93.2734 177.573 92.9201 177.167 92.4534 176.86C92.0001 176.553 91.4468 176.4 90.7934 176.4C90.0734 176.4 89.4668 176.573 88.9734 176.92C88.4801 177.253 88.1068 177.693 87.8534 178.24C87.6001 178.787 87.4734 179.36 87.4734 179.96H93.5534ZM93.4334 171.94C93.4868 172.113 93.4134 172.233 93.2134 172.3L88.6534 173.68C88.5601 173.693 88.4868 173.693 88.4334 173.68C88.3934 173.653 88.3601 173.6 88.3334 173.52L88.1734 173.08C88.1201 172.933 88.1468 172.84 88.2534 172.8L92.8934 170.94C93.0134 170.9 93.0934 170.933 93.1334 171.04L93.4334 171.94ZM99.0545 181.36C99.0545 182.013 99.2079 182.613 99.5145 183.16C99.8345 183.693 100.255 184.12 100.775 184.44C101.308 184.76 101.901 184.92 102.555 184.92C103.221 184.92 103.815 184.787 104.335 184.52C104.855 184.24 105.301 183.82 105.675 183.26C105.728 183.207 105.768 183.18 105.795 183.18C105.835 183.167 105.888 183.173 105.955 183.2L106.795 183.62C106.915 183.687 106.928 183.78 106.835 183.9C106.475 184.433 106.075 184.873 105.635 185.22C105.208 185.553 104.728 185.8 104.195 185.96C103.661 186.12 103.061 186.2 102.395 186.2C101.408 186.2 100.535 185.973 99.7745 185.52C99.0145 185.067 98.4145 184.433 97.9745 183.62C97.5345 182.807 97.3145 181.867 97.3145 180.8C97.3145 179.64 97.5345 178.647 97.9745 177.82C98.4279 176.98 99.0345 176.333 99.7945 175.88C100.568 175.427 101.428 175.2 102.375 175.2C103.348 175.2 104.195 175.413 104.915 175.84C105.635 176.267 106.195 176.887 106.595 177.7C106.995 178.513 107.195 179.493 107.195 180.64C107.195 180.733 107.181 180.827 107.155 180.92C107.141 181.013 107.055 181.06 106.895 181.06H99.2345C99.1812 181.06 99.1345 181.093 99.0945 181.16C99.0679 181.213 99.0545 181.28 99.0545 181.36ZM105.175 179.96C105.321 179.96 105.415 179.947 105.455 179.92C105.495 179.88 105.515 179.8 105.515 179.68C105.515 179.107 105.388 178.573 105.135 178.08C104.895 177.573 104.541 177.167 104.075 176.86C103.621 176.553 103.068 176.4 102.415 176.4C101.695 176.4 101.088 176.573 100.595 176.92C100.101 177.253 99.7279 177.693 99.4745 178.24C99.2212 178.787 99.0945 179.36 99.0945 179.96H105.175Z" fill="white"/>
<path d="M263.24 170.16C263.333 170.16 263.527 170.16 263.82 170.16C264.113 170.16 264.433 170.167 264.78 170.18C265.127 170.18 265.447 170.18 265.74 170.18C266.033 170.18 266.24 170.18 266.36 170.18C268.213 170.207 269.707 170.5 270.84 171.06C271.987 171.62 272.82 172.433 273.34 173.5C273.873 174.567 274.14 175.887 274.14 177.46C274.14 179.127 273.853 180.52 273.28 181.64C272.707 182.76 271.827 183.6 270.64 184.16C269.453 184.72 267.96 185 266.16 185H263.22C263.033 185 262.94 184.893 262.94 184.68V170.44C262.94 170.347 262.96 170.28 263 170.24C263.053 170.187 263.133 170.16 263.24 170.16ZM265.06 171.62C264.927 171.62 264.86 171.713 264.86 171.9V183.34C264.86 183.487 264.94 183.56 265.1 183.56H265.86C267.34 183.56 268.54 183.367 269.46 182.98C270.38 182.58 271.053 181.94 271.48 181.06C271.92 180.18 272.14 179.013 272.14 177.56C272.14 176.04 271.913 174.853 271.46 174C271.02 173.133 270.34 172.52 269.42 172.16C268.513 171.8 267.36 171.62 265.96 171.62H265.06ZM278.094 180.36C278.094 181.013 278.247 181.613 278.554 182.16C278.874 182.693 279.294 183.12 279.814 183.44C280.347 183.76 280.94 183.92 281.594 183.92C282.26 183.92 282.854 183.787 283.374 183.52C283.894 183.24 284.34 182.82 284.714 182.26C284.767 182.207 284.807 182.18 284.834 182.18C284.874 182.167 284.927 182.173 284.994 182.2L285.834 182.62C285.954 182.687 285.967 182.78 285.874 182.9C285.514 183.433 285.114 183.873 284.674 184.22C284.247 184.553 283.767 184.8 283.234 184.96C282.7 185.12 282.1 185.2 281.434 185.2C280.447 185.2 279.574 184.973 278.814 184.52C278.054 184.067 277.454 183.433 277.014 182.62C276.574 181.807 276.354 180.867 276.354 179.8C276.354 178.64 276.574 177.647 277.014 176.82C277.467 175.98 278.074 175.333 278.834 174.88C279.607 174.427 280.467 174.2 281.414 174.2C282.387 174.2 283.234 174.413 283.954 174.84C284.674 175.267 285.234 175.887 285.634 176.7C286.034 177.513 286.234 178.493 286.234 179.64C286.234 179.733 286.22 179.827 286.194 179.92C286.18 180.013 286.094 180.06 285.934 180.06H278.274C278.22 180.06 278.174 180.093 278.134 180.16C278.107 180.213 278.094 180.28 278.094 180.36ZM284.214 178.96C284.36 178.96 284.454 178.947 284.494 178.92C284.534 178.88 284.554 178.8 284.554 178.68C284.554 178.107 284.427 177.573 284.174 177.08C283.934 176.573 283.58 176.167 283.114 175.86C282.66 175.553 282.107 175.4 281.454 175.4C280.734 175.4 280.127 175.573 279.634 175.92C279.14 176.253 278.767 176.693 278.514 177.24C278.26 177.787 278.134 178.36 278.134 178.96H284.214ZM294.955 176.74C294.688 176.34 294.315 176.013 293.835 175.76C293.355 175.507 292.781 175.38 292.115 175.38C291.395 175.38 290.795 175.533 290.315 175.84C289.848 176.147 289.615 176.56 289.615 177.08C289.615 177.36 289.721 177.627 289.935 177.88C290.148 178.12 290.581 178.347 291.235 178.56L293.775 179.32C294.695 179.573 295.355 179.94 295.755 180.42C296.168 180.9 296.375 181.453 296.375 182.08C296.375 182.707 296.188 183.253 295.815 183.72C295.441 184.187 294.928 184.553 294.275 184.82C293.621 185.073 292.881 185.2 292.055 185.2C291.001 185.2 290.081 184.993 289.295 184.58C288.508 184.153 287.948 183.627 287.615 183C287.575 182.933 287.555 182.873 287.555 182.82C287.555 182.767 287.588 182.72 287.655 182.68L288.435 182.24C288.501 182.2 288.561 182.187 288.615 182.2C288.668 182.2 288.708 182.22 288.735 182.26C288.961 182.607 289.221 182.907 289.515 183.16C289.821 183.413 290.181 183.613 290.595 183.76C291.021 183.907 291.515 183.98 292.075 183.98C292.581 183.967 293.041 183.893 293.455 183.76C293.868 183.627 294.195 183.433 294.435 183.18C294.675 182.913 294.795 182.607 294.795 182.26C294.795 181.9 294.648 181.593 294.355 181.34C294.061 181.073 293.555 180.84 292.835 180.64L290.775 180.06C289.775 179.793 289.068 179.433 288.655 178.98C288.255 178.527 288.048 177.993 288.035 177.38C288.035 176.74 288.208 176.187 288.555 175.72C288.901 175.24 289.381 174.867 289.995 174.6C290.621 174.333 291.335 174.2 292.135 174.2C293.028 174.2 293.821 174.373 294.515 174.72C295.221 175.053 295.755 175.5 296.115 176.06C296.155 176.113 296.175 176.167 296.175 176.22C296.175 176.26 296.148 176.3 296.095 176.34L295.255 176.8C295.201 176.827 295.148 176.84 295.095 176.84C295.055 176.827 295.008 176.793 294.955 176.74ZM300.509 184.66C300.509 184.793 300.482 184.887 300.429 184.94C300.389 184.98 300.296 185 300.149 185H299.129C299.009 185 298.929 184.98 298.889 184.94C298.849 184.9 298.829 184.827 298.829 184.72V174.68C298.829 174.493 298.909 174.4 299.069 174.4H300.289C300.436 174.4 300.509 174.487 300.509 174.66V184.66ZM300.589 172.12C300.589 172.373 300.469 172.5 300.229 172.5H299.069C298.949 172.5 298.869 172.473 298.829 172.42C298.789 172.353 298.769 172.267 298.769 172.16V170.48C298.769 170.267 298.862 170.16 299.049 170.16H300.309C300.496 170.16 300.589 170.26 300.589 170.46V172.12ZM313.194 174.22C313.328 174.22 313.421 174.247 313.474 174.3C313.541 174.353 313.574 174.433 313.574 174.54V175.24C313.574 175.36 313.541 175.453 313.474 175.52C313.421 175.587 313.321 175.613 313.174 175.6C312.961 175.6 312.774 175.613 312.614 175.64C312.454 175.667 312.294 175.713 312.134 175.78C311.814 175.9 311.681 176.053 311.734 176.24C311.801 176.387 311.874 176.567 311.954 176.78C312.034 176.98 312.074 177.253 312.074 177.6C312.074 178.187 311.921 178.727 311.614 179.22C311.308 179.7 310.828 180.087 310.174 180.38C309.534 180.673 308.721 180.82 307.734 180.82C307.054 180.82 306.521 180.86 306.134 180.94C305.748 181.02 305.474 181.127 305.314 181.26C305.154 181.393 305.074 181.533 305.074 181.68C305.074 181.893 305.214 182.047 305.494 182.14C305.788 182.233 306.254 182.3 306.894 182.34L309.474 182.48C310.648 182.547 311.508 182.827 312.054 183.32C312.601 183.813 312.874 184.46 312.874 185.26C312.874 186.26 312.428 187.047 311.534 187.62C310.654 188.207 309.394 188.5 307.754 188.5C306.061 188.5 304.768 188.253 303.874 187.76C302.994 187.28 302.554 186.587 302.554 185.68C302.554 185.213 302.714 184.793 303.034 184.42C303.368 184.047 303.834 183.713 304.434 183.42C304.581 183.353 304.581 183.28 304.434 183.2C304.141 183.067 303.914 182.907 303.754 182.72C303.594 182.52 303.514 182.287 303.514 182.02C303.514 181.833 303.574 181.647 303.694 181.46C303.814 181.273 303.988 181.1 304.214 180.94C304.454 180.78 304.741 180.64 305.074 180.52C305.154 180.493 305.194 180.46 305.194 180.42C305.194 180.38 305.161 180.333 305.094 180.28C304.508 179.987 304.074 179.62 303.794 179.18C303.514 178.74 303.374 178.213 303.374 177.6C303.374 176.56 303.768 175.74 304.554 175.14C305.341 174.54 306.454 174.24 307.894 174.24C308.588 174.24 309.174 174.32 309.654 174.48C310.148 174.64 310.561 174.86 310.894 175.14C310.974 175.207 311.048 175.24 311.114 175.24C311.181 175.24 311.248 175.207 311.314 175.14C311.474 174.993 311.654 174.853 311.854 174.72C312.054 174.573 312.268 174.453 312.494 174.36C312.734 174.267 312.968 174.22 313.194 174.22ZM307.734 179.76C308.668 179.76 309.361 179.573 309.814 179.2C310.268 178.813 310.494 178.273 310.494 177.58C310.494 176.873 310.268 176.32 309.814 175.92C309.361 175.507 308.668 175.3 307.734 175.3C306.841 175.3 306.148 175.507 305.654 175.92C305.174 176.32 304.934 176.873 304.934 177.58C304.934 178.273 305.174 178.813 305.654 179.2C306.148 179.573 306.841 179.76 307.734 179.76ZM305.974 183.7C305.734 183.687 305.468 183.76 305.174 183.92C304.881 184.067 304.621 184.273 304.394 184.54C304.168 184.807 304.054 185.12 304.054 185.48C304.054 185.893 304.194 186.247 304.474 186.54C304.768 186.847 305.201 187.073 305.774 187.22C306.361 187.38 307.081 187.46 307.934 187.46C309.041 187.46 309.881 187.293 310.454 186.96C311.028 186.64 311.314 186.14 311.314 185.46C311.314 185.02 311.161 184.66 310.854 184.38C310.561 184.1 310.048 183.94 309.314 183.9L305.974 183.7ZM315.925 185C315.739 185 315.645 184.913 315.645 184.74V174.66C315.645 174.487 315.719 174.4 315.865 174.4H317.065C317.212 174.4 317.285 174.473 317.285 174.62V175.78C317.285 175.847 317.299 175.887 317.325 175.9C317.352 175.913 317.399 175.893 317.465 175.84C317.905 175.493 318.312 175.2 318.685 174.96C319.072 174.707 319.465 174.52 319.865 174.4C320.265 174.267 320.692 174.2 321.145 174.2C322.185 174.2 322.979 174.48 323.525 175.04C324.085 175.6 324.365 176.327 324.365 177.22V184.68C324.365 184.893 324.265 185 324.065 185H322.945C322.852 185 322.785 184.98 322.745 184.94C322.705 184.887 322.685 184.82 322.685 184.74V177.6C322.685 176.947 322.519 176.44 322.185 176.08C321.852 175.707 321.325 175.52 320.605 175.52C320.219 175.52 319.852 175.587 319.505 175.72C319.172 175.84 318.832 176.02 318.485 176.26C318.139 176.487 317.752 176.78 317.325 177.14V184.7C317.325 184.9 317.225 185 317.025 185H315.925Z" fill="white"/>
<path d="M438.24 170.16C438.333 170.16 438.527 170.16 438.82 170.16C439.113 170.16 439.433 170.167 439.78 170.18C440.127 170.18 440.447 170.18 440.74 170.18C441.033 170.18 441.24 170.18 441.36 170.18C443.213 170.207 444.707 170.5 445.84 171.06C446.987 171.62 447.82 172.433 448.34 173.5C448.873 174.567 449.14 175.887 449.14 177.46C449.14 179.127 448.853 180.52 448.28 181.64C447.707 182.76 446.827 183.6 445.64 184.16C444.453 184.72 442.96 185 441.16 185H438.22C438.033 185 437.94 184.893 437.94 184.68V170.44C437.94 170.347 437.96 170.28 438 170.24C438.053 170.187 438.133 170.16 438.24 170.16ZM440.06 171.62C439.927 171.62 439.86 171.713 439.86 171.9V183.34C439.86 183.487 439.94 183.56 440.1 183.56H440.86C442.34 183.56 443.54 183.367 444.46 182.98C445.38 182.58 446.053 181.94 446.48 181.06C446.92 180.18 447.14 179.013 447.14 177.56C447.14 176.04 446.913 174.853 446.46 174C446.02 173.133 445.34 172.52 444.42 172.16C443.513 171.8 442.36 171.62 440.96 171.62H440.06ZM453.094 180.36C453.094 181.013 453.247 181.613 453.554 182.16C453.874 182.693 454.294 183.12 454.814 183.44C455.347 183.76 455.94 183.92 456.594 183.92C457.26 183.92 457.854 183.787 458.374 183.52C458.894 183.24 459.34 182.82 459.714 182.26C459.767 182.207 459.807 182.18 459.834 182.18C459.874 182.167 459.927 182.173 459.994 182.2L460.834 182.62C460.954 182.687 460.967 182.78 460.874 182.9C460.514 183.433 460.114 183.873 459.674 184.22C459.247 184.553 458.767 184.8 458.234 184.96C457.7 185.12 457.1 185.2 456.434 185.2C455.447 185.2 454.574 184.973 453.814 184.52C453.054 184.067 452.454 183.433 452.014 182.62C451.574 181.807 451.354 180.867 451.354 179.8C451.354 178.64 451.574 177.647 452.014 176.82C452.467 175.98 453.074 175.333 453.834 174.88C454.607 174.427 455.467 174.2 456.414 174.2C457.387 174.2 458.234 174.413 458.954 174.84C459.674 175.267 460.234 175.887 460.634 176.7C461.034 177.513 461.234 178.493 461.234 179.64C461.234 179.733 461.22 179.827 461.194 179.92C461.18 180.013 461.094 180.06 460.934 180.06H453.274C453.22 180.06 453.174 180.093 453.134 180.16C453.107 180.213 453.094 180.28 453.094 180.36ZM459.214 178.96C459.36 178.96 459.454 178.947 459.494 178.92C459.534 178.88 459.554 178.8 459.554 178.68C459.554 178.107 459.427 177.573 459.174 177.08C458.934 176.573 458.58 176.167 458.114 175.86C457.66 175.553 457.107 175.4 456.454 175.4C455.734 175.4 455.127 175.573 454.634 175.92C454.14 176.253 453.767 176.693 453.514 177.24C453.26 177.787 453.134 178.36 453.134 178.96H459.214ZM471.902 174.4C471.996 174.4 472.062 174.433 472.102 174.5C472.142 174.553 472.142 174.62 472.102 174.7L468.042 184.7C467.976 184.9 467.822 185 467.582 185H466.862C466.609 185 466.442 184.907 466.362 184.72L462.322 174.7C462.296 174.62 462.302 174.553 462.342 174.5C462.382 174.433 462.449 174.4 462.542 174.4H463.782C463.862 174.4 463.929 174.42 463.982 174.46C464.036 174.487 464.076 174.54 464.102 174.62L467.242 182.48C467.336 182.733 467.442 182.727 467.562 182.46L470.682 174.62C470.709 174.54 470.742 174.487 470.782 174.46C470.836 174.42 470.902 174.4 470.982 174.4H471.902ZM474.832 180.36C474.832 181.013 474.985 181.613 475.292 182.16C475.612 182.693 476.032 183.12 476.552 183.44C477.085 183.76 477.679 183.92 478.332 183.92C478.999 183.92 479.592 183.787 480.112 183.52C480.632 183.24 481.079 182.82 481.452 182.26C481.505 182.207 481.545 182.18 481.572 182.18C481.612 182.167 481.665 182.173 481.732 182.2L482.572 182.62C482.692 182.687 482.705 182.78 482.612 182.9C482.252 183.433 481.852 183.873 481.412 184.22C480.985 184.553 480.505 184.8 479.972 184.96C479.439 185.12 478.839 185.2 478.172 185.2C477.185 185.2 476.312 184.973 475.552 184.52C474.792 184.067 474.192 183.433 473.752 182.62C473.312 181.807 473.092 180.867 473.092 179.8C473.092 178.64 473.312 177.647 473.752 176.82C474.205 175.98 474.812 175.333 475.572 174.88C476.345 174.427 477.205 174.2 478.152 174.2C479.125 174.2 479.972 174.413 480.692 174.84C481.412 175.267 481.972 175.887 482.372 176.7C482.772 177.513 482.972 178.493 482.972 179.64C482.972 179.733 482.959 179.827 482.932 179.92C482.919 180.013 482.832 180.06 482.672 180.06H475.012C474.959 180.06 474.912 180.093 474.872 180.16C474.845 180.213 474.832 180.28 474.832 180.36ZM480.952 178.96C481.099 178.96 481.192 178.947 481.232 178.92C481.272 178.88 481.292 178.8 481.292 178.68C481.292 178.107 481.165 177.573 480.912 177.08C480.672 176.573 480.319 176.167 479.852 175.86C479.399 175.553 478.845 175.4 478.192 175.4C477.472 175.4 476.865 175.573 476.372 175.92C475.879 176.253 475.505 176.693 475.252 177.24C474.999 177.787 474.872 178.36 474.872 178.96H480.952ZM487.033 184.66C487.033 184.793 487.006 184.887 486.953 184.94C486.9 184.98 486.806 185 486.673 185H485.633C485.433 185 485.333 184.907 485.333 184.72L485.353 170.44C485.353 170.253 485.433 170.16 485.593 170.16H486.793C486.953 170.16 487.033 170.247 487.033 170.42V184.66ZM494.558 185.2C493.558 185.2 492.671 184.973 491.898 184.52C491.138 184.053 490.545 183.413 490.118 182.6C489.705 181.773 489.498 180.827 489.498 179.76C489.498 178.653 489.711 177.687 490.138 176.86C490.578 176.02 491.178 175.367 491.938 174.9C492.698 174.433 493.578 174.2 494.578 174.2C495.591 174.2 496.471 174.44 497.218 174.92C497.978 175.387 498.565 176.04 498.978 176.88C499.405 177.707 499.618 178.66 499.618 179.74C499.618 180.807 499.405 181.753 498.978 182.58C498.551 183.393 497.958 184.033 497.198 184.5C496.451 184.967 495.571 185.2 494.558 185.2ZM494.598 183.94C495.291 183.94 495.885 183.773 496.378 183.44C496.871 183.093 497.245 182.607 497.498 181.98C497.765 181.34 497.898 180.58 497.898 179.7C497.898 178.82 497.765 178.067 497.498 177.44C497.231 176.8 496.851 176.307 496.358 175.96C495.865 175.613 495.271 175.44 494.578 175.44C493.898 175.44 493.305 175.613 492.798 175.96C492.291 176.307 491.898 176.8 491.618 177.44C491.351 178.067 491.218 178.82 491.218 179.7C491.218 180.567 491.351 181.32 491.618 181.96C491.898 182.6 492.291 183.093 492.798 183.44C493.305 183.773 493.905 183.94 494.598 183.94ZM503.471 174.4C503.657 174.4 503.751 174.5 503.751 174.7V175.54C503.751 175.647 503.771 175.707 503.811 175.72C503.864 175.72 503.931 175.687 504.011 175.62C504.157 175.46 504.357 175.273 504.611 175.06C504.864 174.833 505.191 174.633 505.591 174.46C506.004 174.287 506.524 174.2 507.151 174.2C507.964 174.2 508.697 174.4 509.351 174.8C510.017 175.187 510.544 175.773 510.931 176.56C511.331 177.347 511.531 178.34 511.531 179.54C511.531 180.74 511.337 181.76 510.951 182.6C510.564 183.44 510.024 184.087 509.331 184.54C508.651 184.98 507.851 185.2 506.931 185.2C506.317 185.2 505.771 185.107 505.291 184.92C504.824 184.72 504.424 184.48 504.091 184.2C503.971 184.093 503.884 184.053 503.831 184.08C503.791 184.093 503.771 184.173 503.771 184.32V188.04C503.771 188.213 503.697 188.3 503.551 188.3H502.311C502.164 188.3 502.091 188.213 502.091 188.04V174.72C502.091 174.6 502.111 174.52 502.151 174.48C502.204 174.427 502.291 174.4 502.411 174.4H503.471ZM503.771 182.66C504.184 183.06 504.604 183.38 505.031 183.62C505.471 183.86 505.957 183.98 506.491 183.98C507.131 183.98 507.697 183.813 508.191 183.48C508.697 183.147 509.091 182.653 509.371 182C509.664 181.347 509.811 180.533 509.811 179.56C509.811 178.587 509.664 177.793 509.371 177.18C509.077 176.567 508.684 176.12 508.191 175.84C507.711 175.56 507.177 175.42 506.591 175.42C506.044 175.42 505.557 175.54 505.131 175.78C504.704 176.02 504.371 176.32 504.131 176.68C503.891 177.027 503.771 177.373 503.771 177.72V182.66ZM515.404 174.4C515.591 174.4 515.684 174.5 515.684 174.7V175.54C515.684 175.647 515.704 175.707 515.744 175.72C515.798 175.72 515.864 175.687 515.944 175.62C516.091 175.46 516.291 175.273 516.544 175.06C516.798 174.833 517.124 174.633 517.524 174.46C517.938 174.287 518.458 174.2 519.084 174.2C519.898 174.2 520.631 174.4 521.284 174.8C521.951 175.187 522.478 175.773 522.864 176.56C523.264 177.347 523.464 178.34 523.464 179.54C523.464 180.74 523.271 181.76 522.884 182.6C522.498 183.44 521.958 184.087 521.264 184.54C520.584 184.98 519.784 185.2 518.864 185.2C518.251 185.2 517.704 185.107 517.224 184.92C516.758 184.72 516.358 184.48 516.024 184.2C515.904 184.093 515.818 184.053 515.764 184.08C515.724 184.093 515.704 184.173 515.704 184.32V188.04C515.704 188.213 515.631 188.3 515.484 188.3H514.244C514.098 188.3 514.024 188.213 514.024 188.04V174.72C514.024 174.6 514.044 174.52 514.084 174.48C514.138 174.427 514.224 174.4 514.344 174.4H515.404ZM515.704 182.66C516.118 183.06 516.538 183.38 516.964 183.62C517.404 183.86 517.891 183.98 518.424 183.98C519.064 183.98 519.631 183.813 520.124 183.48C520.631 183.147 521.024 182.653 521.304 182C521.598 181.347 521.744 180.533 521.744 179.56C521.744 178.587 521.598 177.793 521.304 177.18C521.011 176.567 520.618 176.12 520.124 175.84C519.644 175.56 519.111 175.42 518.524 175.42C517.978 175.42 517.491 175.54 517.064 175.78C516.638 176.02 516.304 176.32 516.064 176.68C515.824 177.027 515.704 177.373 515.704 177.72V182.66ZM526.238 185C526.051 185 525.958 184.913 525.958 184.74V174.66C525.958 174.487 526.031 174.4 526.178 174.4H527.378C527.511 174.4 527.578 174.473 527.578 174.62V175.78C527.578 175.847 527.591 175.887 527.618 175.9C527.658 175.913 527.711 175.893 527.778 175.84C528.205 175.493 528.598 175.2 528.958 174.96C529.331 174.707 529.705 174.52 530.078 174.4C530.465 174.267 530.878 174.2 531.318 174.2C532.105 174.2 532.731 174.38 533.198 174.74C533.678 175.1 533.998 175.507 534.158 175.96C534.185 176.013 534.225 176.033 534.278 176.02C534.331 176.007 534.385 175.973 534.438 175.92C534.865 175.56 535.265 175.253 535.638 175C536.025 174.747 536.411 174.553 536.798 174.42C537.198 174.273 537.618 174.2 538.058 174.2C539.031 174.2 539.785 174.48 540.318 175.04C540.851 175.587 541.118 176.327 541.118 177.26V184.68C541.118 184.893 541.018 185 540.818 185H539.698C539.605 185 539.538 184.98 539.498 184.94C539.458 184.887 539.438 184.82 539.438 184.74V177.6C539.438 176.947 539.278 176.44 538.958 176.08C538.651 175.707 538.165 175.52 537.498 175.52C537.111 175.52 536.738 175.593 536.378 175.74C536.031 175.887 535.711 176.067 535.418 176.28C535.138 176.493 534.885 176.693 534.658 176.88C534.551 176.973 534.478 177.067 534.438 177.16C534.398 177.24 534.378 177.347 534.378 177.48V184.68C534.378 184.893 534.278 185 534.078 185H532.958C532.878 185 532.811 184.98 532.758 184.94C532.718 184.887 532.698 184.82 532.698 184.74V177.6C532.698 176.947 532.545 176.44 532.238 176.08C531.931 175.707 531.445 175.52 530.778 175.52C530.218 175.52 529.705 175.653 529.238 175.92C528.771 176.187 528.238 176.593 527.638 177.14V184.7C527.638 184.9 527.538 185 527.338 185H526.238ZM545.203 180.36C545.203 181.013 545.356 181.613 545.663 182.16C545.983 182.693 546.403 183.12 546.923 183.44C547.456 183.76 548.05 183.92 548.703 183.92C549.37 183.92 549.963 183.787 550.483 183.52C551.003 183.24 551.45 182.82 551.823 182.26C551.876 182.207 551.916 182.18 551.943 182.18C551.983 182.167 552.036 182.173 552.103 182.2L552.943 182.62C553.063 182.687 553.076 182.78 552.983 182.9C552.623 183.433 552.223 183.873 551.783 184.22C551.356 184.553 550.876 184.8 550.343 184.96C549.81 185.12 549.21 185.2 548.543 185.2C547.556 185.2 546.683 184.973 545.923 184.52C545.163 184.067 544.563 183.433 544.123 182.62C543.683 181.807 543.463 180.867 543.463 179.8C543.463 178.64 543.683 177.647 544.123 176.82C544.576 175.98 545.183 175.333 545.943 174.88C546.716 174.427 547.576 174.2 548.523 174.2C549.496 174.2 550.343 174.413 551.063 174.84C551.783 175.267 552.343 175.887 552.743 176.7C553.143 177.513 553.343 178.493 553.343 179.64C553.343 179.733 553.33 179.827 553.303 179.92C553.29 180.013 553.203 180.06 553.043 180.06H545.383C545.33 180.06 545.283 180.093 545.243 180.16C545.216 180.213 545.203 180.28 545.203 180.36ZM551.323 178.96C551.47 178.96 551.563 178.947 551.603 178.92C551.643 178.88 551.663 178.8 551.663 178.68C551.663 178.107 551.536 177.573 551.283 177.08C551.043 176.573 550.69 176.167 550.223 175.86C549.77 175.553 549.216 175.4 548.563 175.4C547.843 175.4 547.236 175.573 546.743 175.92C546.25 176.253 545.876 176.693 545.623 177.24C545.37 177.787 545.243 178.36 545.243 178.96H551.323ZM555.984 185C555.797 185 555.704 184.913 555.704 184.74V174.66C555.704 174.487 555.777 174.4 555.924 174.4H557.124C557.271 174.4 557.344 174.473 557.344 174.62V175.78C557.344 175.847 557.357 175.887 557.384 175.9C557.411 175.913 557.457 175.893 557.524 175.84C557.964 175.493 558.371 175.2 558.744 174.96C559.131 174.707 559.524 174.52 559.924 174.4C560.324 174.267 560.751 174.2 561.204 174.2C562.244 174.2 563.037 174.48 563.584 175.04C564.144 175.6 564.424 176.327 564.424 177.22V184.68C564.424 184.893 564.324 185 564.124 185H563.004C562.911 185 562.844 184.98 562.804 184.94C562.764 184.887 562.744 184.82 562.744 184.74V177.6C562.744 176.947 562.577 176.44 562.244 176.08C561.911 175.707 561.384 175.52 560.664 175.52C560.277 175.52 559.911 175.587 559.564 175.72C559.231 175.84 558.891 176.02 558.544 176.26C558.197 176.487 557.811 176.78 557.384 177.14V184.7C557.384 184.9 557.284 185 557.084 185H555.984ZM569.93 175.66C569.823 175.66 569.77 175.713 569.77 175.82V182.16C569.77 182.787 569.877 183.207 570.09 183.42C570.303 183.633 570.623 183.74 571.05 183.74H572.43C572.497 183.74 572.55 183.76 572.59 183.8C572.63 183.827 572.65 183.88 572.65 183.96L572.63 184.64C572.63 184.773 572.55 184.86 572.39 184.9C572.257 184.927 572.063 184.947 571.81 184.96C571.57 184.973 571.33 184.987 571.09 185C570.863 185 570.67 185 570.51 185C569.67 185 569.057 184.807 568.67 184.42C568.283 184.02 568.09 183.393 568.09 182.54V175.86C568.09 175.727 568.023 175.66 567.89 175.66H566.29C566.143 175.66 566.07 175.587 566.07 175.44V174.6C566.07 174.467 566.137 174.4 566.27 174.4H567.97C568.063 174.4 568.11 174.347 568.11 174.24L568.33 171.06C568.343 170.887 568.417 170.8 568.55 170.8H569.55C569.71 170.8 569.79 170.893 569.79 171.08V174.24C569.79 174.347 569.843 174.4 569.95 174.4H572.47C572.617 174.4 572.69 174.46 572.69 174.58V175.44C572.69 175.587 572.617 175.66 572.47 175.66H569.93Z" fill="white"/>
<path d="M652.02 174.06C651.913 174.06 651.86 174.113 651.86 174.22V180.7C651.86 180.9 651.747 181 651.52 181H650.22C650.113 181 650.04 180.98 650 180.94C649.96 180.887 649.94 180.813 649.94 180.72V166.44C649.94 166.253 650.02 166.16 650.18 166.16H651.62C651.78 166.16 651.86 166.247 651.86 166.42V172.3C651.86 172.46 651.933 172.54 652.08 172.54H658.64C658.773 172.54 658.84 172.46 658.84 172.3V166.4C658.84 166.24 658.913 166.16 659.06 166.16H660.52C660.68 166.16 660.76 166.253 660.76 166.44V180.72C660.76 180.813 660.74 180.887 660.7 180.94C660.66 180.98 660.587 181 660.48 181H659.18C658.953 181 658.84 180.9 658.84 180.7V174.24C658.84 174.12 658.78 174.06 658.66 174.06H652.02ZM665.367 176.36C665.367 177.013 665.52 177.613 665.827 178.16C666.147 178.693 666.567 179.12 667.087 179.44C667.62 179.76 668.214 179.92 668.867 179.92C669.534 179.92 670.127 179.787 670.647 179.52C671.167 179.24 671.614 178.82 671.987 178.26C672.04 178.207 672.08 178.18 672.107 178.18C672.147 178.167 672.2 178.173 672.267 178.2L673.107 178.62C673.227 178.687 673.24 178.78 673.147 178.9C672.787 179.433 672.387 179.873 671.947 180.22C671.52 180.553 671.04 180.8 670.507 180.96C669.974 181.12 669.374 181.2 668.707 181.2C667.72 181.2 666.847 180.973 666.087 180.52C665.327 180.067 664.727 179.433 664.287 178.62C663.847 177.807 663.627 176.867 663.627 175.8C663.627 174.64 663.847 173.647 664.287 172.82C664.74 171.98 665.347 171.333 666.107 170.88C666.88 170.427 667.74 170.2 668.687 170.2C669.66 170.2 670.507 170.413 671.227 170.84C671.947 171.267 672.507 171.887 672.907 172.7C673.307 173.513 673.507 174.493 673.507 175.64C673.507 175.733 673.494 175.827 673.467 175.92C673.454 176.013 673.367 176.06 673.207 176.06H665.547C665.494 176.06 665.447 176.093 665.407 176.16C665.38 176.213 665.367 176.28 665.367 176.36ZM671.487 174.96C671.634 174.96 671.727 174.947 671.767 174.92C671.807 174.88 671.827 174.8 671.827 174.68C671.827 174.107 671.7 173.573 671.447 173.08C671.207 172.573 670.854 172.167 670.387 171.86C669.934 171.553 669.38 171.4 668.727 171.4C668.007 171.4 667.4 171.573 666.907 171.92C666.414 172.253 666.04 172.693 665.787 173.24C665.534 173.787 665.407 174.36 665.407 174.96H671.487ZM676.188 181C676.068 181 675.981 180.973 675.928 180.92C675.888 180.867 675.868 180.787 675.868 180.68V166.44C675.868 166.253 675.948 166.16 676.108 166.16H677.348C677.481 166.16 677.548 166.253 677.548 166.44V171.34C677.548 171.487 677.575 171.567 677.628 171.58C677.681 171.58 677.755 171.54 677.848 171.46C677.968 171.34 678.161 171.18 678.428 170.98C678.708 170.78 679.061 170.6 679.488 170.44C679.928 170.28 680.448 170.2 681.048 170.2C682.021 170.2 682.821 170.44 683.448 170.92C684.075 171.4 684.541 172.053 684.848 172.88C685.168 173.693 685.328 174.613 685.328 175.64C685.328 177.347 684.928 178.7 684.128 179.7C683.328 180.7 682.208 181.2 680.768 181.2C680.155 181.2 679.628 181.107 679.188 180.92C678.761 180.733 678.408 180.513 678.128 180.26C677.848 180.007 677.641 179.793 677.508 179.62C677.455 179.553 677.408 179.527 677.368 179.54C677.328 179.553 677.301 179.6 677.288 179.68L677.188 180.68C677.161 180.893 677.041 181 676.828 181H676.188ZM677.548 177.42C677.548 177.9 677.681 178.34 677.948 178.74C678.228 179.127 678.588 179.433 679.028 179.66C679.468 179.887 679.928 180 680.408 180C681.008 180 681.548 179.853 682.028 179.56C682.508 179.253 682.888 178.78 683.168 178.14C683.448 177.5 683.588 176.68 683.588 175.68C683.588 174.32 683.328 173.273 682.808 172.54C682.288 171.793 681.535 171.42 680.548 171.42C679.921 171.42 679.348 171.567 678.828 171.86C678.321 172.14 677.895 172.487 677.548 172.9V177.42ZM688.961 176.36C688.961 177.013 689.114 177.613 689.421 178.16C689.741 178.693 690.161 179.12 690.681 179.44C691.214 179.76 691.807 179.92 692.461 179.92C693.127 179.92 693.721 179.787 694.241 179.52C694.761 179.24 695.207 178.82 695.581 178.26C695.634 178.207 695.674 178.18 695.701 178.18C695.741 178.167 695.794 178.173 695.861 178.2L696.701 178.62C696.821 178.687 696.834 178.78 696.741 178.9C696.381 179.433 695.981 179.873 695.541 180.22C695.114 180.553 694.634 180.8 694.101 180.96C693.567 181.12 692.967 181.2 692.301 181.2C691.314 181.2 690.441 180.973 689.681 180.52C688.921 180.067 688.321 179.433 687.881 178.62C687.441 177.807 687.221 176.867 687.221 175.8C687.221 174.64 687.441 173.647 687.881 172.82C688.334 171.98 688.941 171.333 689.701 170.88C690.474 170.427 691.334 170.2 692.281 170.2C693.254 170.2 694.101 170.413 694.821 170.84C695.541 171.267 696.101 171.887 696.501 172.7C696.901 173.513 697.101 174.493 697.101 175.64C697.101 175.733 697.087 175.827 697.061 175.92C697.047 176.013 696.961 176.06 696.801 176.06H689.141C689.087 176.06 689.041 176.093 689.001 176.16C688.974 176.213 688.961 176.28 688.961 176.36ZM695.081 174.96C695.227 174.96 695.321 174.947 695.361 174.92C695.401 174.88 695.421 174.8 695.421 174.68C695.421 174.107 695.294 173.573 695.041 173.08C694.801 172.573 694.447 172.167 693.981 171.86C693.527 171.553 692.974 171.4 692.321 171.4C691.601 171.4 690.994 171.573 690.501 171.92C690.007 172.253 689.634 172.693 689.381 173.24C689.127 173.787 689.001 174.36 689.001 174.96H695.081ZM699.742 181C699.649 181 699.575 180.98 699.522 180.94C699.482 180.887 699.462 180.82 699.462 180.74V170.66C699.462 170.487 699.535 170.4 699.682 170.4H700.842C700.989 170.4 701.062 170.473 701.062 170.62V171.92C701.062 172 701.082 172.047 701.122 172.06C701.162 172.073 701.215 172.047 701.282 171.98C701.629 171.567 701.969 171.233 702.302 170.98C702.649 170.713 702.995 170.52 703.342 170.4C703.689 170.267 704.035 170.2 704.382 170.2C704.849 170.2 705.082 170.287 705.082 170.46V171.66C705.082 171.793 705.022 171.847 704.902 171.82C704.782 171.807 704.642 171.793 704.482 171.78C704.335 171.767 704.175 171.76 704.002 171.76C703.709 171.76 703.395 171.827 703.062 171.96C702.729 172.08 702.415 172.253 702.122 172.48C701.842 172.707 701.609 172.96 701.422 173.24C701.235 173.52 701.142 173.8 701.142 174.08V180.7C701.142 180.9 701.042 181 700.842 181H699.742ZM716.698 170.22C716.831 170.22 716.925 170.247 716.978 170.3C717.045 170.353 717.078 170.433 717.078 170.54V171.24C717.078 171.36 717.045 171.453 716.978 171.52C716.925 171.587 716.825 171.613 716.678 171.6C716.465 171.6 716.278 171.613 716.118 171.64C715.958 171.667 715.798 171.713 715.638 171.78C715.318 171.9 715.185 172.053 715.238 172.24C715.305 172.387 715.378 172.567 715.458 172.78C715.538 172.98 715.578 173.253 715.578 173.6C715.578 174.187 715.425 174.727 715.118 175.22C714.811 175.7 714.331 176.087 713.678 176.38C713.038 176.673 712.225 176.82 711.238 176.82C710.558 176.82 710.025 176.86 709.638 176.94C709.251 177.02 708.978 177.127 708.818 177.26C708.658 177.393 708.578 177.533 708.578 177.68C708.578 177.893 708.718 178.047 708.998 178.14C709.291 178.233 709.758 178.3 710.398 178.34L712.978 178.48C714.151 178.547 715.011 178.827 715.558 179.32C716.105 179.813 716.378 180.46 716.378 181.26C716.378 182.26 715.931 183.047 715.038 183.62C714.158 184.207 712.898 184.5 711.258 184.5C709.565 184.5 708.271 184.253 707.378 183.76C706.498 183.28 706.058 182.587 706.058 181.68C706.058 181.213 706.218 180.793 706.538 180.42C706.871 180.047 707.338 179.713 707.938 179.42C708.085 179.353 708.085 179.28 707.938 179.2C707.645 179.067 707.418 178.907 707.258 178.72C707.098 178.52 707.018 178.287 707.018 178.02C707.018 177.833 707.078 177.647 707.198 177.46C707.318 177.273 707.491 177.1 707.718 176.94C707.958 176.78 708.245 176.64 708.578 176.52C708.658 176.493 708.698 176.46 708.698 176.42C708.698 176.38 708.665 176.333 708.598 176.28C708.011 175.987 707.578 175.62 707.298 175.18C707.018 174.74 706.878 174.213 706.878 173.6C706.878 172.56 707.271 171.74 708.058 171.14C708.845 170.54 709.958 170.24 711.398 170.24C712.091 170.24 712.678 170.32 713.158 170.48C713.651 170.64 714.065 170.86 714.398 171.14C714.478 171.207 714.551 171.24 714.618 171.24C714.685 171.24 714.751 171.207 714.818 171.14C714.978 170.993 715.158 170.853 715.358 170.72C715.558 170.573 715.771 170.453 715.998 170.36C716.238 170.267 716.471 170.22 716.698 170.22ZM711.238 175.76C712.171 175.76 712.865 175.573 713.318 175.2C713.771 174.813 713.998 174.273 713.998 173.58C713.998 172.873 713.771 172.32 713.318 171.92C712.865 171.507 712.171 171.3 711.238 171.3C710.345 171.3 709.651 171.507 709.158 171.92C708.678 172.32 708.438 172.873 708.438 173.58C708.438 174.273 708.678 174.813 709.158 175.2C709.651 175.573 710.345 175.76 711.238 175.76ZM709.478 179.7C709.238 179.687 708.971 179.76 708.678 179.92C708.385 180.067 708.125 180.273 707.898 180.54C707.671 180.807 707.558 181.12 707.558 181.48C707.558 181.893 707.698 182.247 707.978 182.54C708.271 182.847 708.705 183.073 709.278 183.22C709.865 183.38 710.585 183.46 711.438 183.46C712.545 183.46 713.385 183.293 713.958 182.96C714.531 182.64 714.818 182.14 714.818 181.46C714.818 181.02 714.665 180.66 714.358 180.38C714.065 180.1 713.551 179.94 712.818 179.9L709.478 179.7ZM719.918 176.36C719.918 177.013 720.071 177.613 720.378 178.16C720.698 178.693 721.118 179.12 721.638 179.44C722.171 179.76 722.764 179.92 723.418 179.92C724.084 179.92 724.678 179.787 725.198 179.52C725.718 179.24 726.164 178.82 726.538 178.26C726.591 178.207 726.631 178.18 726.658 178.18C726.698 178.167 726.751 178.173 726.818 178.2L727.658 178.62C727.778 178.687 727.791 178.78 727.698 178.9C727.338 179.433 726.938 179.873 726.498 180.22C726.071 180.553 725.591 180.8 725.058 180.96C724.524 181.12 723.924 181.2 723.258 181.2C722.271 181.2 721.398 180.973 720.638 180.52C719.878 180.067 719.278 179.433 718.838 178.62C718.398 177.807 718.178 176.867 718.178 175.8C718.178 174.64 718.398 173.647 718.838 172.82C719.291 171.98 719.898 171.333 720.658 170.88C721.431 170.427 722.291 170.2 723.238 170.2C724.211 170.2 725.058 170.413 725.778 170.84C726.498 171.267 727.058 171.887 727.458 172.7C727.858 173.513 728.058 174.493 728.058 175.64C728.058 175.733 728.044 175.827 728.018 175.92C728.004 176.013 727.918 176.06 727.758 176.06H720.098C720.044 176.06 719.998 176.093 719.958 176.16C719.931 176.213 719.918 176.28 719.918 176.36ZM726.038 174.96C726.184 174.96 726.278 174.947 726.318 174.92C726.358 174.88 726.378 174.8 726.378 174.68C726.378 174.107 726.251 173.573 725.998 173.08C725.758 172.573 725.404 172.167 724.938 171.86C724.484 171.553 723.931 171.4 723.278 171.4C722.558 171.4 721.951 171.573 721.458 171.92C720.964 172.253 720.591 172.693 720.338 173.24C720.084 173.787 719.958 174.36 719.958 174.96H726.038ZM730.699 181C730.512 181 730.419 180.913 730.419 180.74V170.66C730.419 170.487 730.492 170.4 730.639 170.4H731.839C731.972 170.4 732.039 170.473 732.039 170.62V171.78C732.039 171.847 732.052 171.887 732.079 171.9C732.119 171.913 732.172 171.893 732.239 171.84C732.666 171.493 733.059 171.2 733.419 170.96C733.792 170.707 734.166 170.52 734.539 170.4C734.926 170.267 735.339 170.2 735.779 170.2C736.566 170.2 737.192 170.38 737.659 170.74C738.139 171.1 738.459 171.507 738.619 171.96C738.646 172.013 738.686 172.033 738.739 172.02C738.792 172.007 738.846 171.973 738.899 171.92C739.326 171.56 739.726 171.253 740.099 171C740.486 170.747 740.872 170.553 741.259 170.42C741.659 170.273 742.079 170.2 742.519 170.2C743.492 170.2 744.246 170.48 744.779 171.04C745.312 171.587 745.579 172.327 745.579 173.26V180.68C745.579 180.893 745.479 181 745.279 181H744.159C744.066 181 743.999 180.98 743.959 180.94C743.919 180.887 743.899 180.82 743.899 180.74V173.6C743.899 172.947 743.739 172.44 743.419 172.08C743.112 171.707 742.626 171.52 741.959 171.52C741.572 171.52 741.199 171.593 740.839 171.74C740.492 171.887 740.172 172.067 739.879 172.28C739.599 172.493 739.346 172.693 739.119 172.88C739.012 172.973 738.939 173.067 738.899 173.16C738.859 173.24 738.839 173.347 738.839 173.48V180.68C738.839 180.893 738.739 181 738.539 181H737.419C737.339 181 737.272 180.98 737.219 180.94C737.179 180.887 737.159 180.82 737.159 180.74V173.6C737.159 172.947 737.006 172.44 736.699 172.08C736.392 171.707 735.906 171.52 735.239 171.52C734.679 171.52 734.166 171.653 733.699 171.92C733.232 172.187 732.699 172.593 732.099 173.14V180.7C732.099 180.9 731.999 181 731.799 181H730.699ZM749.664 176.36C749.664 177.013 749.817 177.613 750.124 178.16C750.444 178.693 750.864 179.12 751.384 179.44C751.917 179.76 752.511 179.92 753.164 179.92C753.831 179.92 754.424 179.787 754.944 179.52C755.464 179.24 755.911 178.82 756.284 178.26C756.337 178.207 756.377 178.18 756.404 178.18C756.444 178.167 756.497 178.173 756.564 178.2L757.404 178.62C757.524 178.687 757.537 178.78 757.444 178.9C757.084 179.433 756.684 179.873 756.244 180.22C755.817 180.553 755.337 180.8 754.804 180.96C754.271 181.12 753.671 181.2 753.004 181.2C752.017 181.2 751.144 180.973 750.384 180.52C749.624 180.067 749.024 179.433 748.584 178.62C748.144 177.807 747.924 176.867 747.924 175.8C747.924 174.64 748.144 173.647 748.584 172.82C749.037 171.98 749.644 171.333 750.404 170.88C751.177 170.427 752.037 170.2 752.984 170.2C753.957 170.2 754.804 170.413 755.524 170.84C756.244 171.267 756.804 171.887 757.204 172.7C757.604 173.513 757.804 174.493 757.804 175.64C757.804 175.733 757.791 175.827 757.764 175.92C757.751 176.013 757.664 176.06 757.504 176.06H749.844C749.791 176.06 749.744 176.093 749.704 176.16C749.677 176.213 749.664 176.28 749.664 176.36ZM755.784 174.96C755.931 174.96 756.024 174.947 756.064 174.92C756.104 174.88 756.124 174.8 756.124 174.68C756.124 174.107 755.997 173.573 755.744 173.08C755.504 172.573 755.151 172.167 754.684 171.86C754.231 171.553 753.677 171.4 753.024 171.4C752.304 171.4 751.697 171.573 751.204 171.92C750.711 172.253 750.337 172.693 750.084 173.24C749.831 173.787 749.704 174.36 749.704 174.96H755.784ZM760.445 181C760.258 181 760.165 180.913 760.165 180.74V170.66C760.165 170.487 760.238 170.4 760.385 170.4H761.585C761.732 170.4 761.805 170.473 761.805 170.62V171.78C761.805 171.847 761.818 171.887 761.845 171.9C761.872 171.913 761.918 171.893 761.985 171.84C762.425 171.493 762.832 171.2 763.205 170.96C763.592 170.707 763.985 170.52 764.385 170.4C764.785 170.267 765.212 170.2 765.665 170.2C766.705 170.2 767.498 170.48 768.045 171.04C768.605 171.6 768.885 172.327 768.885 173.22V180.68C768.885 180.893 768.785 181 768.585 181H767.465C767.372 181 767.305 180.98 767.265 180.94C767.225 180.887 767.205 180.82 767.205 180.74V173.6C767.205 172.947 767.038 172.44 766.705 172.08C766.372 171.707 765.845 171.52 765.125 171.52C764.738 171.52 764.372 171.587 764.025 171.72C763.692 171.84 763.352 172.02 763.005 172.26C762.658 172.487 762.272 172.78 761.845 173.14V180.7C761.845 180.9 761.745 181 761.545 181H760.445ZM774.391 171.66C774.284 171.66 774.231 171.713 774.231 171.82V178.16C774.231 178.787 774.337 179.207 774.551 179.42C774.764 179.633 775.084 179.74 775.511 179.74H776.891C776.957 179.74 777.011 179.76 777.051 179.8C777.091 179.827 777.111 179.88 777.111 179.96L777.091 180.64C777.091 180.773 777.011 180.86 776.851 180.9C776.717 180.927 776.524 180.947 776.271 180.96C776.031 180.973 775.791 180.987 775.551 181C775.324 181 775.131 181 774.971 181C774.131 181 773.517 180.807 773.131 180.42C772.744 180.02 772.551 179.393 772.551 178.54V171.86C772.551 171.727 772.484 171.66 772.351 171.66H770.751C770.604 171.66 770.531 171.587 770.531 171.44V170.6C770.531 170.467 770.597 170.4 770.731 170.4H772.431C772.524 170.4 772.571 170.347 772.571 170.24L772.791 167.06C772.804 166.887 772.877 166.8 773.011 166.8H774.011C774.171 166.8 774.251 166.893 774.251 167.08V170.24C774.251 170.347 774.304 170.4 774.411 170.4H776.931C777.077 170.4 777.151 170.46 777.151 170.58V171.44C777.151 171.587 777.077 171.66 776.931 171.66H774.391Z" fill="white"/>
<path d="M861.22 180C861.033 180 860.94 179.9 860.94 179.7V165.44C860.94 165.253 861.02 165.16 861.18 165.16H863.1C863.207 165.16 863.28 165.173 863.32 165.2C863.373 165.227 863.413 165.287 863.44 165.38L867.88 176.84C867.933 176.96 867.987 177.02 868.04 177.02C868.093 177.007 868.147 176.94 868.2 176.82L872.64 165.42C872.693 165.247 872.793 165.16 872.94 165.16H874.96C875.107 165.16 875.18 165.247 875.18 165.42V179.7C875.18 179.9 875.08 180 874.88 180H873.56C873.453 180 873.373 179.98 873.32 179.94C873.28 179.9 873.26 179.833 873.26 179.74V168.3C873.26 168.233 873.247 168.207 873.22 168.22C873.193 168.22 873.173 168.247 873.16 168.3L868.76 179.74C868.693 179.913 868.567 180 868.38 180H867.42C867.207 180 867.073 179.92 867.02 179.76L862.68 168.42C862.653 168.353 862.627 168.327 862.6 168.34C862.587 168.34 862.58 168.367 862.58 168.42V179.74C862.58 179.833 862.56 179.9 862.52 179.94C862.48 179.98 862.407 180 862.3 180H861.22ZM880.345 179.66C880.345 179.793 880.318 179.887 880.265 179.94C880.225 179.98 880.132 180 879.985 180H878.965C878.845 180 878.765 179.98 878.725 179.94C878.685 179.9 878.665 179.827 878.665 179.72V169.68C878.665 169.493 878.745 169.4 878.905 169.4H880.125C880.272 169.4 880.345 169.487 880.345 169.66V179.66ZM880.425 167.12C880.425 167.373 880.305 167.5 880.065 167.5H878.905C878.785 167.5 878.705 167.473 878.665 167.42C878.625 167.353 878.605 167.267 878.605 167.16V165.48C878.605 165.267 878.698 165.16 878.885 165.16H880.145C880.332 165.16 880.425 165.26 880.425 165.46V167.12ZM889.81 171.74C889.543 171.34 889.17 171.013 888.69 170.76C888.21 170.507 887.637 170.38 886.97 170.38C886.25 170.38 885.65 170.533 885.17 170.84C884.703 171.147 884.47 171.56 884.47 172.08C884.47 172.36 884.577 172.627 884.79 172.88C885.003 173.12 885.437 173.347 886.09 173.56L888.63 174.32C889.55 174.573 890.21 174.94 890.61 175.42C891.023 175.9 891.23 176.453 891.23 177.08C891.23 177.707 891.043 178.253 890.67 178.72C890.297 179.187 889.783 179.553 889.13 179.82C888.477 180.073 887.737 180.2 886.91 180.2C885.857 180.2 884.937 179.993 884.15 179.58C883.363 179.153 882.803 178.627 882.47 178C882.43 177.933 882.41 177.873 882.41 177.82C882.41 177.767 882.443 177.72 882.51 177.68L883.29 177.24C883.357 177.2 883.417 177.187 883.47 177.2C883.523 177.2 883.563 177.22 883.59 177.26C883.817 177.607 884.077 177.907 884.37 178.16C884.677 178.413 885.037 178.613 885.45 178.76C885.877 178.907 886.37 178.98 886.93 178.98C887.437 178.967 887.897 178.893 888.31 178.76C888.723 178.627 889.05 178.433 889.29 178.18C889.53 177.913 889.65 177.607 889.65 177.26C889.65 176.9 889.503 176.593 889.21 176.34C888.917 176.073 888.41 175.84 887.69 175.64L885.63 175.06C884.63 174.793 883.923 174.433 883.51 173.98C883.11 173.527 882.903 172.993 882.89 172.38C882.89 171.74 883.063 171.187 883.41 170.72C883.757 170.24 884.237 169.867 884.85 169.6C885.477 169.333 886.19 169.2 886.99 169.2C887.883 169.2 888.677 169.373 889.37 169.72C890.077 170.053 890.61 170.5 890.97 171.06C891.01 171.113 891.03 171.167 891.03 171.22C891.03 171.26 891.003 171.3 890.95 171.34L890.11 171.8C890.057 171.827 890.003 171.84 889.95 171.84C889.91 171.827 889.863 171.793 889.81 171.74ZM894.805 175.36C894.805 176.013 894.958 176.613 895.265 177.16C895.585 177.693 896.005 178.12 896.525 178.44C897.058 178.76 897.651 178.92 898.305 178.92C898.971 178.92 899.565 178.787 900.085 178.52C900.605 178.24 901.051 177.82 901.425 177.26C901.478 177.207 901.518 177.18 901.545 177.18C901.585 177.167 901.638 177.173 901.705 177.2L902.545 177.62C902.665 177.687 902.678 177.78 902.585 177.9C902.225 178.433 901.825 178.873 901.385 179.22C900.958 179.553 900.478 179.8 899.945 179.96C899.411 180.12 898.811 180.2 898.145 180.2C897.158 180.2 896.285 179.973 895.525 179.52C894.765 179.067 894.165 178.433 893.725 177.62C893.285 176.807 893.065 175.867 893.065 174.8C893.065 173.64 893.285 172.647 893.725 171.82C894.178 170.98 894.785 170.333 895.545 169.88C896.318 169.427 897.178 169.2 898.125 169.2C899.098 169.2 899.945 169.413 900.665 169.84C901.385 170.267 901.945 170.887 902.345 171.7C902.745 172.513 902.945 173.493 902.945 174.64C902.945 174.733 902.931 174.827 902.905 174.92C902.891 175.013 902.805 175.06 902.645 175.06H894.985C894.931 175.06 894.885 175.093 894.845 175.16C894.818 175.213 894.805 175.28 894.805 175.36ZM900.925 173.96C901.071 173.96 901.165 173.947 901.205 173.92C901.245 173.88 901.265 173.8 901.265 173.68C901.265 173.107 901.138 172.573 900.885 172.08C900.645 171.573 900.291 171.167 899.825 170.86C899.371 170.553 898.818 170.4 898.165 170.4C897.445 170.4 896.838 170.573 896.345 170.92C895.851 171.253 895.478 171.693 895.225 172.24C894.971 172.787 894.845 173.36 894.845 173.96H900.925ZM910.703 175.36C910.703 176.013 910.856 176.613 911.163 177.16C911.483 177.693 911.903 178.12 912.423 178.44C912.956 178.76 913.55 178.92 914.203 178.92C914.87 178.92 915.463 178.787 915.983 178.52C916.503 178.24 916.95 177.82 917.323 177.26C917.376 177.207 917.416 177.18 917.443 177.18C917.483 177.167 917.536 177.173 917.603 177.2L918.443 177.62C918.563 177.687 918.576 177.78 918.483 177.9C918.123 178.433 917.723 178.873 917.283 179.22C916.856 179.553 916.376 179.8 915.843 179.96C915.31 180.12 914.71 180.2 914.043 180.2C913.056 180.2 912.183 179.973 911.423 179.52C910.663 179.067 910.063 178.433 909.623 177.62C909.183 176.807 908.963 175.867 908.963 174.8C908.963 173.64 909.183 172.647 909.623 171.82C910.076 170.98 910.683 170.333 911.443 169.88C912.216 169.427 913.076 169.2 914.023 169.2C914.996 169.2 915.843 169.413 916.563 169.84C917.283 170.267 917.843 170.887 918.243 171.7C918.643 172.513 918.843 173.493 918.843 174.64C918.843 174.733 918.83 174.827 918.803 174.92C918.79 175.013 918.703 175.06 918.543 175.06H910.883C910.83 175.06 910.783 175.093 910.743 175.16C910.716 175.213 910.703 175.28 910.703 175.36ZM916.823 173.96C916.97 173.96 917.063 173.947 917.103 173.92C917.143 173.88 917.163 173.8 917.163 173.68C917.163 173.107 917.036 172.573 916.783 172.08C916.543 171.573 916.19 171.167 915.723 170.86C915.27 170.553 914.716 170.4 914.063 170.4C913.343 170.4 912.736 170.573 912.243 170.92C911.75 171.253 911.376 171.693 911.123 172.24C910.87 172.787 910.743 173.36 910.743 173.96H916.823ZM921.484 180C921.297 180 921.204 179.913 921.204 179.74V169.66C921.204 169.487 921.277 169.4 921.424 169.4H922.624C922.771 169.4 922.844 169.473 922.844 169.62V170.78C922.844 170.847 922.857 170.887 922.884 170.9C922.911 170.913 922.957 170.893 923.024 170.84C923.464 170.493 923.871 170.2 924.244 169.96C924.631 169.707 925.024 169.52 925.424 169.4C925.824 169.267 926.251 169.2 926.704 169.2C927.744 169.2 928.537 169.48 929.084 170.04C929.644 170.6 929.924 171.327 929.924 172.22V179.68C929.924 179.893 929.824 180 929.624 180H928.504C928.411 180 928.344 179.98 928.304 179.94C928.264 179.887 928.244 179.82 928.244 179.74V172.6C928.244 171.947 928.077 171.44 927.744 171.08C927.411 170.707 926.884 170.52 926.164 170.52C925.777 170.52 925.411 170.587 925.064 170.72C924.731 170.84 924.391 171.02 924.044 171.26C923.697 171.487 923.311 171.78 922.884 172.14V179.7C922.884 179.9 922.784 180 922.584 180H921.484ZM938.861 179.66C938.861 179.793 938.834 179.887 938.781 179.94C938.728 179.98 938.634 180 938.501 180H937.461C937.261 180 937.161 179.907 937.161 179.72L937.181 165.44C937.181 165.253 937.261 165.16 937.421 165.16H938.621C938.781 165.16 938.861 165.247 938.861 165.42V179.66ZM943.626 179.66C943.626 179.793 943.6 179.887 943.546 179.94C943.506 179.98 943.413 180 943.266 180H942.246C942.126 180 942.046 179.98 942.006 179.94C941.966 179.9 941.946 179.827 941.946 179.72V169.68C941.946 169.493 942.026 169.4 942.186 169.4H943.406C943.553 169.4 943.626 169.487 943.626 169.66V179.66ZM943.706 167.12C943.706 167.373 943.586 167.5 943.346 167.5H942.186C942.066 167.5 941.986 167.473 941.946 167.42C941.906 167.353 941.886 167.267 941.886 167.16V165.48C941.886 165.267 941.98 165.16 942.166 165.16H943.426C943.613 165.16 943.706 165.26 943.706 165.46V167.12ZM956.311 169.22C956.445 169.22 956.538 169.247 956.591 169.3C956.658 169.353 956.691 169.433 956.691 169.54V170.24C956.691 170.36 956.658 170.453 956.591 170.52C956.538 170.587 956.438 170.613 956.291 170.6C956.078 170.6 955.891 170.613 955.731 170.64C955.571 170.667 955.411 170.713 955.251 170.78C954.931 170.9 954.798 171.053 954.851 171.24C954.918 171.387 954.991 171.567 955.071 171.78C955.151 171.98 955.191 172.253 955.191 172.6C955.191 173.187 955.038 173.727 954.731 174.22C954.425 174.7 953.945 175.087 953.291 175.38C952.651 175.673 951.838 175.82 950.851 175.82C950.171 175.82 949.638 175.86 949.251 175.94C948.865 176.02 948.591 176.127 948.431 176.26C948.271 176.393 948.191 176.533 948.191 176.68C948.191 176.893 948.331 177.047 948.611 177.14C948.905 177.233 949.371 177.3 950.011 177.34L952.591 177.48C953.765 177.547 954.625 177.827 955.171 178.32C955.718 178.813 955.991 179.46 955.991 180.26C955.991 181.26 955.545 182.047 954.651 182.62C953.771 183.207 952.511 183.5 950.871 183.5C949.178 183.5 947.885 183.253 946.991 182.76C946.111 182.28 945.671 181.587 945.671 180.68C945.671 180.213 945.831 179.793 946.151 179.42C946.485 179.047 946.951 178.713 947.551 178.42C947.698 178.353 947.698 178.28 947.551 178.2C947.258 178.067 947.031 177.907 946.871 177.72C946.711 177.52 946.631 177.287 946.631 177.02C946.631 176.833 946.691 176.647 946.811 176.46C946.931 176.273 947.105 176.1 947.331 175.94C947.571 175.78 947.858 175.64 948.191 175.52C948.271 175.493 948.311 175.46 948.311 175.42C948.311 175.38 948.278 175.333 948.211 175.28C947.625 174.987 947.191 174.62 946.911 174.18C946.631 173.74 946.491 173.213 946.491 172.6C946.491 171.56 946.885 170.74 947.671 170.14C948.458 169.54 949.571 169.24 951.011 169.24C951.705 169.24 952.291 169.32 952.771 169.48C953.265 169.64 953.678 169.86 954.011 170.14C954.091 170.207 954.165 170.24 954.231 170.24C954.298 170.24 954.365 170.207 954.431 170.14C954.591 169.993 954.771 169.853 954.971 169.72C955.171 169.573 955.385 169.453 955.611 169.36C955.851 169.267 956.085 169.22 956.311 169.22ZM950.851 174.76C951.785 174.76 952.478 174.573 952.931 174.2C953.385 173.813 953.611 173.273 953.611 172.58C953.611 171.873 953.385 171.32 952.931 170.92C952.478 170.507 951.785 170.3 950.851 170.3C949.958 170.3 949.265 170.507 948.771 170.92C948.291 171.32 948.051 171.873 948.051 172.58C948.051 173.273 948.291 173.813 948.771 174.2C949.265 174.573 949.958 174.76 950.851 174.76ZM949.091 178.7C948.851 178.687 948.585 178.76 948.291 178.92C947.998 179.067 947.738 179.273 947.511 179.54C947.285 179.807 947.171 180.12 947.171 180.48C947.171 180.893 947.311 181.247 947.591 181.54C947.885 181.847 948.318 182.073 948.891 182.22C949.478 182.38 950.198 182.46 951.051 182.46C952.158 182.46 952.998 182.293 953.571 181.96C954.145 181.64 954.431 181.14 954.431 180.46C954.431 180.02 954.278 179.66 953.971 179.38C953.678 179.1 953.165 178.94 952.431 178.9L949.091 178.7ZM959.043 180C958.856 180 958.763 179.913 958.763 179.74V169.66C958.763 169.487 958.836 169.4 958.983 169.4H960.183C960.329 169.4 960.403 169.473 960.403 169.62V170.78C960.403 170.847 960.416 170.887 960.443 170.9C960.469 170.913 960.516 170.893 960.583 170.84C961.023 170.493 961.429 170.2 961.803 169.96C962.189 169.707 962.583 169.52 962.983 169.4C963.383 169.267 963.809 169.2 964.263 169.2C965.303 169.2 966.096 169.48 966.643 170.04C967.203 170.6 967.483 171.327 967.483 172.22V179.68C967.483 179.893 967.383 180 967.183 180H966.063C965.969 180 965.903 179.98 965.863 179.94C965.823 179.887 965.803 179.82 965.803 179.74V172.6C965.803 171.947 965.636 171.44 965.303 171.08C964.969 170.707 964.443 170.52 963.723 170.52C963.336 170.52 962.969 170.587 962.623 170.72C962.289 170.84 961.949 171.02 961.603 171.26C961.256 171.487 960.869 171.78 960.443 172.14V179.7C960.443 179.9 960.343 180 960.143 180H959.043ZM971.562 175.36C971.562 176.013 971.716 176.613 972.022 177.16C972.342 177.693 972.762 178.12 973.282 178.44C973.816 178.76 974.409 178.92 975.062 178.92C975.729 178.92 976.322 178.787 976.842 178.52C977.362 178.24 977.809 177.82 978.182 177.26C978.236 177.207 978.276 177.18 978.302 177.18C978.342 177.167 978.396 177.173 978.462 177.2L979.302 177.62C979.422 177.687 979.436 177.78 979.342 177.9C978.982 178.433 978.582 178.873 978.142 179.22C977.716 179.553 977.236 179.8 976.702 179.96C976.169 180.12 975.569 180.2 974.902 180.2C973.916 180.2 973.042 179.973 972.282 179.52C971.522 179.067 970.922 178.433 970.482 177.62C970.042 176.807 969.822 175.867 969.822 174.8C969.822 173.64 970.042 172.647 970.482 171.82C970.936 170.98 971.542 170.333 972.302 169.88C973.076 169.427 973.936 169.2 974.882 169.2C975.856 169.2 976.702 169.413 977.422 169.84C978.142 170.267 978.702 170.887 979.102 171.7C979.502 172.513 979.702 173.493 979.702 174.64C979.702 174.733 979.689 174.827 979.662 174.92C979.649 175.013 979.562 175.06 979.402 175.06H971.742C971.689 175.06 971.642 175.093 971.602 175.16C971.576 175.213 971.562 175.28 971.562 175.36ZM977.682 173.96C977.829 173.96 977.922 173.947 977.962 173.92C978.002 173.88 978.022 173.8 978.022 173.68C978.022 173.107 977.896 172.573 977.642 172.08C977.402 171.573 977.049 171.167 976.582 170.86C976.129 170.553 975.576 170.4 974.922 170.4C974.202 170.4 973.596 170.573 973.102 170.92C972.609 171.253 972.236 171.693 971.982 172.24C971.729 172.787 971.602 173.36 971.602 173.96H977.682Z" fill="white"/>
<defs>
<filter id="filter0_f_114_11" x="74.3937" y="83.4024" width="840.206" height="33.1976" filterUnits="userSpaceOnUse" color-interpolation-filters="sRGB">
<feFlood flood-opacity="0" result="BackgroundImageFix"/>
<feBlend mode="normal" in="SourceGraphic" in2="BackgroundImageFix" result="shape"/>
<feGaussianBlur stdDeviation="6.8" result="effect1_foregroundBlur_114_11"/>
</filter>
<filter id="filter1_f_114_11" x="0.799999" y="10.8" width="161.4" height="161.4" filterUnits="userSpaceOnUse" color-interpolation-filters="sRGB">
<feFlood flood-opacity="0" result="BackgroundImageFix"/>
<feBlend mode="normal" in="SourceGraphic" in2="BackgroundImageFix" result="shape"/>
<feGaussianBlur stdDeviation="21.1" result="effect1_foregroundBlur_114_11"/>
</filter>
<filter id="filter2_f_114_11" x="68.7" y="141.2" width="26.6" height="4.6" filterUnits="userSpaceOnUse" color-interpolation-filters="sRGB">
<feFlood flood-opacity="0" result="BackgroundImageFix"/>
<feBlend mode="normal" in="SourceGraphic" in2="BackgroundImageFix" result="shape"/>
<feGaussianBlur stdDeviation="0.4" result="effect1_foregroundBlur_114_11"/>
</filter>
<filter id="filter3_f_114_11" x="66.1" y="130.1" width="31.8" height="12.8" filterUnits="userSpaceOnUse" color-interpolation-filters="sRGB">
<feFlood flood-opacity="0" result="BackgroundImageFix"/>
<feBlend mode="normal" in="SourceGraphic" in2="BackgroundImageFix" result="shape"/>
<feGaussianBlur stdDeviation="0.45" result="effect1_foregroundBlur_114_11"/>
</filter>
<filter id="filter4_f_114_11" x="198.7" y="8.7" width="189.6" height="189.6" filterUnits="userSpaceOnUse" color-interpolation-filters="sRGB">
<feFlood flood-opacity="0" result="BackgroundImageFix"/>
<feBlend mode="normal" in="SourceGraphic" in2="BackgroundImageFix" result="shape"/>
<feGaussianBlur stdDeviation="20.65" result="effect1_foregroundBlur_114_11"/>
</filter>
<filter id="filter5_f_114_11" x="416.7" y="0.700001" width="174.6" height="207.6" filterUnits="userSpaceOnUse" color-interpolation-filters="sRGB">
<feFlood flood-opacity="0" result="BackgroundImageFix"/>
<feBlend mode="normal" in="SourceGraphic" in2="BackgroundImageFix" result="shape"/>
<feGaussianBlur stdDeviation="20.65" result="effect1_foregroundBlur_114_11"/>
</filter>
<filter id="filter6_f_114_11" x="620.7" y="0.700001" width="177.6" height="198.6" filterUnits="userSpaceOnUse" color-interpolation-filters="sRGB">
<feFlood flood-opacity="0" result="BackgroundImageFix"/>
<feBlend mode="normal" in="SourceGraphic" in2="BackgroundImageFix" result="shape"/>
<feGaussianBlur stdDeviation="20.65" result="effect1_foregroundBlur_114_11"/>
</filter>
<filter id="filter7_f_114_11" x="830.7" y="8.7" width="177.6" height="198.6" filterUnits="userSpaceOnUse" color-interpolation-filters="sRGB">
<feFlood flood-opacity="0" result="BackgroundImageFix"/>
<feBlend mode="normal" in="SourceGraphic" in2="BackgroundImageFix" result="shape"/>
<feGaussianBlur stdDeviation="20.65" result="effect1_foregroundBlur_114_11"/>
</filter>
<linearGradient id="paint0_linear_114_11" x1="85.0012" y1="102.5" x2="907.001" y2="100.5" gradientUnits="userSpaceOnUse">
<stop stop-color="#BA79DF"/>
<stop offset="0.177885" stop-color="#8072D3"/>
<stop offset="0.379808" stop-color="#8C80D3"/>
<stop offset="0.629808" stop-color="#8571E2"/>
<stop offset="0.875" stop-color="#7068D7"/>
<stop offset="0.966346" stop-color="#6A5BD9"/>
</linearGradient>
<linearGradient id="paint1_linear_114_11" x1="81.5" y1="57" x2="81.5" y2="131" gradientUnits="userSpaceOnUse">
<stop stop-color="#FB9DE4"/>
<stop offset="1" stop-color="#A843EA"/>
</linearGradient>
<linearGradient id="paint2_linear_114_11" x1="81.5" y1="57" x2="81.5" y2="131" gradientUnits="userSpaceOnUse">
<stop stop-color="#FDE4FC"/>
<stop offset="1" stop-color="#F4C1FA"/>
</linearGradient>
<linearGradient id="paint3_linear_114_11" x1="66" y1="137.5" x2="98" y2="137.5" gradientUnits="userSpaceOnUse">
<stop stop-color="#713DD4"/>
<stop offset="1" stop-color="#3823CC"/>
</linearGradient>
<linearGradient id="paint4_linear_114_11" x1="97" y1="136.5" x2="67" y2="133" gradientUnits="userSpaceOnUse">
<stop stop-color="#4D10E7"/>
<stop offset="1" stop-color="#3F21DD"/>
</linearGradient>
<linearGradient id="paint5_linear_114_11" x1="294.082" y1="56.9893" x2="294.082" y2="146.94" gradientUnits="userSpaceOnUse">
<stop stop-color="#CC56FC"/>
<stop offset="1" stop-color="#5525E3"/>
</linearGradient>
<linearGradient id="paint6_linear_114_11" x1="293.836" y1="147.008" x2="293.836" y2="56.9932" gradientUnits="userSpaceOnUse">
<stop stop-color="#6756E5"/>
<stop offset="1" stop-color="#9B83E7"/>
</linearGradient>
<linearGradient id="paint7_linear_114_11" x1="504" y1="59" x2="499.5" y2="144.5" gradientUnits="userSpaceOnUse">
<stop stop-color="#4A2ED5"/>
<stop offset="1" stop-color="#6423D1"/>
</linearGradient>
<linearGradient id="paint8_linear_114_11" x1="672.5" y1="57.5" x2="751.5" y2="91.5" gradientUnits="userSpaceOnUse">
<stop stop-color="#8674E7"/>
<stop offset="1" stop-color="#5B4CF0"/>
</linearGradient>
<linearGradient id="paint9_linear_114_11" x1="674.628" y1="70.5781" x2="751.147" y2="77.4397" gradientUnits="userSpaceOnUse">
<stop stop-color="#4634E3"/>
<stop offset="1" stop-color="#3624DB"/>
</linearGradient>
<radialGradient id="paint10_radial_114_11" cx="0" cy="0" r="1" gradientUnits="userSpaceOnUse" gradientTransform="translate(685 73) rotate(90) scale(4)">
<stop offset="0.8" stop-color="#D87AC3"/>
<stop offset="1" stop-color="#F195A7"/>
</radialGradient>
<linearGradient id="paint11_linear_114_11" x1="672.5" y1="99.6053" x2="757.084" y2="127.272" gradientUnits="userSpaceOnUse">
<stop stop-color="#7261EE"/>
<stop offset="1" stop-color="#3F2CE1"/>
</linearGradient>
<linearGradient id="paint12_linear_114_11" x1="674.628" y1="116.641" x2="751.442" y2="121.606" gradientUnits="userSpaceOnUse">
<stop stop-color="#3C26DD"/>
<stop offset="1" stop-color="#2413CF"/>
</linearGradient>
<radialGradient id="paint13_radial_114_11" cx="0" cy="0" r="1" gradientUnits="userSpaceOnUse" gradientTransform="translate(685 114) rotate(90) scale(3)">
<stop offset="0.8" stop-color="#D87AC3"/>
<stop offset="1" stop-color="#F195A7"/>
</radialGradient>
<radialGradient id="paint14_radial_114_11" cx="0" cy="0" r="1" gradientUnits="userSpaceOnUse" gradientTransform="translate(685 129) rotate(90) scale(3)">
<stop offset="0.8" stop-color="#D87AC3"/>
<stop offset="1" stop-color="#F195A7"/>
</radialGradient>
<linearGradient id="paint15_linear_114_11" x1="945.5" y1="109.5" x2="953.5" y2="140.5" gradientUnits="userSpaceOnUse">
<stop stop-color="#BFA5FF"/>
<stop offset="1" stop-color="#744DEA"/>
</linearGradient>
<linearGradient id="paint16_linear_114_11" x1="902.164" y1="80.0363" x2="931.153" y2="130.992" gradientUnits="userSpaceOnUse">
<stop stop-color="#E6CDFF"/>
<stop offset="1" stop-color="#966EFF"/>
</linearGradient>
<linearGradient id="paint17_linear_114_11" x1="915.5" y1="60.5" x2="931" y2="77" gradientUnits="userSpaceOnUse">
<stop stop-color="#9E59FD"/>
<stop offset="1" stop-color="#8143FD"/>
</linearGradient>
</defs>
</svg>
