<svg width="450" height="846" viewBox="0 0 450 846" fill="none" xmlns="http://www.w3.org/2000/svg">
<g filter="url(#filter0_f_141_474)">
<line x1="214.5" y1="13.9967" x2="215.5" y2="831.997" stroke="url(#paint0_linear_141_474)" stroke-opacity="0.42" stroke-width="5"/>
</g>
<g filter="url(#filter1_f_141_474)">
<line x1="218.001" y1="247.5" x2="271.001" y2="247.5" stroke="url(#paint1_linear_141_474)" stroke-opacity="0.42" stroke-width="3"/>
</g>
<g filter="url(#filter2_f_141_474)">
<line x1="158" y1="419.5" x2="211" y2="419.5" stroke="url(#paint2_linear_141_474)" stroke-opacity="0.42" stroke-width="3"/>
</g>
<g filter="url(#filter3_f_141_474)">
<line x1="161" y1="722.5" x2="214" y2="722.5" stroke="url(#paint3_linear_141_474)" stroke-opacity="0.42" stroke-width="3"/>
</g>
<g filter="url(#filter4_f_141_474)">
<line x1="217.001" y1="556.499" x2="282.001" y2="556.499" stroke="url(#paint4_linear_141_474)" stroke-opacity="0.42" stroke-width="3"/>
</g>
<g filter="url(#filter5_f_141_474)">
<line x1="155" y1="102.5" x2="208" y2="102.5" stroke="url(#paint5_linear_141_474)" stroke-opacity="0.42" stroke-width="3"/>
</g>
<line x1="213.25" y1="14.0027" x2="216.25" y2="824.995" stroke="url(#paint6_linear_141_474)" stroke-width="2.5"/>
<line y1="-1.5" x2="79" y2="-1.5" transform="matrix(-1 0 0 1 214 104)" stroke="url(#paint7_linear_141_474)" stroke-width="3"/>
<g filter="url(#filter6_f_141_474)">
<circle cx="108.5" cy="92.5" r="38.5" fill="#D472E7"/>
</g>
<path d="M107.979 57.7852C113.908 57.6294 117.577 57.909 123.007 60.3398C127.603 62.3974 130.577 64.323 134.174 67.8203C136.238 69.8271 137.699 71.4842 138.915 73.3027C140.13 75.1209 141.094 77.0927 142.17 79.7246C144.088 84.415 144.28 87.4628 144.247 92.4863C144.215 97.3116 144.043 100.241 142.17 104.739C140.508 108.731 139.158 110.539 136.476 113.918C134.753 116.088 132.968 117.574 131.299 119.094C129.627 120.615 128.06 122.179 126.723 124.524C125.888 125.988 124.992 127.879 124.303 129.408C123.959 130.172 123.667 130.844 123.461 131.325C123.358 131.566 123.276 131.759 123.221 131.892C123.193 131.958 123.172 132.008 123.157 132.043C123.15 132.06 123.144 132.073 123.141 132.082C123.139 132.086 123.138 132.09 123.137 132.092C123.136 132.093 123.136 132.094 123.136 132.095V132.096L123.071 132.25H94.9697L94.9004 132.111H94.8994C94.8991 132.111 94.899 132.11 94.8984 132.108C94.8973 132.106 94.8957 132.103 94.8936 132.099C94.8891 132.09 94.8828 132.076 94.874 132.059C94.8565 132.024 94.8297 131.972 94.7959 131.905C94.7283 131.771 94.6296 131.577 94.5059 131.334C94.2583 130.849 93.9103 130.172 93.5068 129.404C92.6992 127.868 91.6733 125.974 90.7949 124.531C89.2097 121.928 87.334 120.545 85.3721 119.179C83.4091 117.811 81.3516 116.455 79.4883 113.91C77.1053 110.655 76.1348 108.509 74.8242 104.725C73.2373 100.142 72.7839 97.3258 72.752 92.4863C72.7188 87.4573 73.0218 84.4563 74.8262 79.7305C76.7812 74.6102 78.6522 71.8296 82.6025 67.9883C86.6787 64.0247 89.7073 62.3597 95.0352 60.334C99.8397 58.5072 102.83 57.9203 107.979 57.7852Z" fill="url(#paint8_linear_141_474)" stroke="url(#paint9_linear_141_474)" stroke-width="0.5"/>
<path d="M96.9999 145H121C121 145 121.313 148.073 121 150C120.806 151.197 120.623 152.251 120.2 153C119.732 153.827 119.411 154.378 118.692 155C118.072 155.537 117.736 155.738 117 156.1C116.118 156.533 115.504 156.721 114.538 156.9C113.756 157.045 112.5 157.1 112.5 157.1H109H105.5C105.5 157.1 104.423 157.1 103.461 156.8C102.5 156.5 102.336 156.391 101.615 156C100.894 155.609 100.28 155.133 99.5999 154.5C98.8215 153.776 98.5332 153.408 97.9799 152.5C97.4382 151.611 97.2529 151.018 96.9999 150C96.5288 148.105 96.9999 145 96.9999 145Z" fill="#391FD2"/>
<g filter="url(#filter7_f_141_474)">
<rect x="96.5" y="143" width="25" height="3" rx="1" fill="black" fill-opacity="0.67"/>
</g>
<path d="M93.5 132.5C93.7658 132.232 94.1048 132.117 94.5562 132.05C94.7834 132.016 95.1445 132 95.1445 132H122.857C122.857 132 123.282 132 123.547 132.05C123.96 132.128 124.244 132.247 124.5 132.5C124.75 132.748 124.887 133.122 124.95 133.5C124.979 133.673 125 134.13 125 134.13V141.252C125 141.252 125.015 141.731 124.9 142C124.791 142.254 124.6 142.5 124.6 142.5L123.1 144C123.1 144 122.72 144.333 122.5 144.5C122.234 144.703 122.079 144.791 121.742 144.9C121.351 145.027 120.688 145 120.688 145H97.5C97.5 145 97 145.012 96.5 144.8C96.0582 144.613 95.87 144.4 95.87 144.4L93.9 142.5L93.5 142C93.5 142 93.201 141.633 93.1 141.318C93.0022 141.014 93 140.5 93 140.5V134C93 134 93.0143 133.658 93.05 133.444C93.1187 133.033 93.228 132.774 93.5 132.5Z" fill="url(#paint10_linear_141_474)"/>
<g filter="url(#filter8_f_141_474)">
<path d="M94 132H124V142L123.5 142.5L123 143H95.7489C95.7489 143 94.8714 142.872 94.5 142.5C94.1371 142.137 94 141.285 94 141.285V132Z" fill="url(#paint11_linear_141_474)"/>
</g>
<path d="M91.62 181.16C91.78 181.16 91.86 181.247 91.86 181.42V195.66C91.86 195.793 91.8333 195.887 91.78 195.94C91.7267 195.98 91.6333 196 91.5 196H90.24C90.12 196 90.04 195.98 90 195.94C89.96 195.9 89.94 195.827 89.94 195.72V181.44C89.94 181.253 90.02 181.16 90.18 181.16H91.62ZM102.881 196C102.787 196 102.714 195.98 102.661 195.94C102.621 195.887 102.601 195.813 102.601 195.72V194.88C102.601 194.773 102.574 194.713 102.521 194.7C102.481 194.687 102.421 194.72 102.341 194.8C102.194 194.933 101.981 195.113 101.701 195.34C101.434 195.567 101.094 195.767 100.681 195.94C100.267 196.113 99.7741 196.2 99.2008 196.2C98.3608 196.2 97.6074 196 96.9408 195.6C96.2741 195.2 95.7408 194.607 95.3408 193.82C94.9541 193.02 94.7608 192.033 94.7608 190.86C94.7608 189.727 94.9541 188.74 95.3408 187.9C95.7408 187.047 96.2941 186.387 97.0008 185.92C97.7208 185.44 98.5341 185.2 99.4408 185.2C100.094 185.2 100.641 185.307 101.081 185.52C101.521 185.733 101.907 185.98 102.241 186.26C102.361 186.353 102.441 186.393 102.481 186.38C102.534 186.353 102.561 186.267 102.561 186.12V181.42C102.561 181.247 102.634 181.16 102.781 181.16H104.001C104.147 181.16 104.221 181.247 104.221 181.42V195.68C104.221 195.8 104.201 195.887 104.161 195.94C104.121 195.98 104.034 196 103.901 196H102.881ZM102.541 187.74C102.127 187.327 101.707 187.007 101.281 186.78C100.854 186.553 100.374 186.44 99.8408 186.44C99.2008 186.44 98.6208 186.607 98.1008 186.94C97.5941 187.26 97.1941 187.747 96.9008 188.4C96.6208 189.053 96.4808 189.853 96.4808 190.8C96.4808 191.773 96.6274 192.573 96.9208 193.2C97.2141 193.813 97.6074 194.267 98.1008 194.56C98.5941 194.84 99.1341 194.98 99.7208 194.98C100.267 194.98 100.747 194.853 101.161 194.6C101.587 194.347 101.921 194.033 102.161 193.66C102.414 193.287 102.541 192.92 102.541 192.56V187.74ZM108.433 191.36C108.433 192.013 108.587 192.613 108.893 193.16C109.213 193.693 109.633 194.12 110.153 194.44C110.687 194.76 111.28 194.92 111.933 194.92C112.6 194.92 113.193 194.787 113.713 194.52C114.233 194.24 114.68 193.82 115.053 193.26C115.107 193.207 115.147 193.18 115.173 193.18C115.213 193.167 115.267 193.173 115.333 193.2L116.173 193.62C116.293 193.687 116.307 193.78 116.213 193.9C115.853 194.433 115.453 194.873 115.013 195.22C114.587 195.553 114.107 195.8 113.573 195.96C113.04 196.12 112.44 196.2 111.773 196.2C110.787 196.2 109.913 195.973 109.153 195.52C108.393 195.067 107.793 194.433 107.353 193.62C106.913 192.807 106.693 191.867 106.693 190.8C106.693 189.64 106.913 188.647 107.353 187.82C107.807 186.98 108.413 186.333 109.173 185.88C109.947 185.427 110.807 185.2 111.753 185.2C112.727 185.2 113.573 185.413 114.293 185.84C115.013 186.267 115.573 186.887 115.973 187.7C116.373 188.513 116.573 189.493 116.573 190.64C116.573 190.733 116.56 190.827 116.533 190.92C116.52 191.013 116.433 191.06 116.273 191.06H108.613C108.56 191.06 108.513 191.093 108.473 191.16C108.447 191.213 108.433 191.28 108.433 191.36ZM114.553 189.96C114.7 189.96 114.793 189.947 114.833 189.92C114.873 189.88 114.893 189.8 114.893 189.68C114.893 189.107 114.767 188.573 114.513 188.08C114.273 187.573 113.92 187.167 113.453 186.86C113 186.553 112.447 186.4 111.793 186.4C111.073 186.4 110.467 186.573 109.973 186.92C109.48 187.253 109.107 187.693 108.853 188.24C108.6 188.787 108.473 189.36 108.473 189.96H114.553ZM114.433 181.94C114.487 182.113 114.413 182.233 114.213 182.3L109.653 183.68C109.56 183.693 109.487 183.693 109.433 183.68C109.393 183.653 109.36 183.6 109.333 183.52L109.173 183.08C109.12 182.933 109.147 182.84 109.253 182.8L113.893 180.94C114.013 180.9 114.093 180.933 114.133 181.04L114.433 181.94ZM120.055 191.36C120.055 192.013 120.208 192.613 120.515 193.16C120.835 193.693 121.255 194.12 121.775 194.44C122.308 194.76 122.901 194.92 123.555 194.92C124.221 194.92 124.815 194.787 125.335 194.52C125.855 194.24 126.301 193.82 126.675 193.26C126.728 193.207 126.768 193.18 126.795 193.18C126.835 193.167 126.888 193.173 126.955 193.2L127.795 193.62C127.915 193.687 127.928 193.78 127.835 193.9C127.475 194.433 127.075 194.873 126.635 195.22C126.208 195.553 125.728 195.8 125.195 195.96C124.661 196.12 124.061 196.2 123.395 196.2C122.408 196.2 121.535 195.973 120.775 195.52C120.015 195.067 119.415 194.433 118.975 193.62C118.535 192.807 118.315 191.867 118.315 190.8C118.315 189.64 118.535 188.647 118.975 187.82C119.428 186.98 120.035 186.333 120.795 185.88C121.568 185.427 122.428 185.2 123.375 185.2C124.348 185.2 125.195 185.413 125.915 185.84C126.635 186.267 127.195 186.887 127.595 187.7C127.995 188.513 128.195 189.493 128.195 190.64C128.195 190.733 128.181 190.827 128.155 190.92C128.141 191.013 128.055 191.06 127.895 191.06H120.235C120.181 191.06 120.135 191.093 120.095 191.16C120.068 191.213 120.055 191.28 120.055 191.36ZM126.175 189.96C126.321 189.96 126.415 189.947 126.455 189.92C126.495 189.88 126.515 189.8 126.515 189.68C126.515 189.107 126.388 188.573 126.135 188.08C125.895 187.573 125.541 187.167 125.075 186.86C124.621 186.553 124.068 186.4 123.415 186.4C122.695 186.4 122.088 186.573 121.595 186.92C121.101 187.253 120.728 187.693 120.475 188.24C120.221 188.787 120.095 189.36 120.095 189.96H126.175Z" fill="white"/>
<line x1="215" y1="722.5" x2="153" y2="722.5" stroke="url(#paint12_linear_141_474)" stroke-width="3"/>
<g filter="url(#filter9_f_141_474)">
<ellipse cx="109.5" cy="725" rx="47.5" ry="58" fill="#7371FF" fill-opacity="0.44"/>
</g>
<path d="M72 736.522L86.5 724L93 746L75.5 759.5L72 736.522Z" fill="white"/>
<path d="M146 736.522L131.5 724L125 746L142.5 759.5L146 736.522Z" fill="url(#paint13_linear_141_474)"/>
<path d="M145 737L131.5 725L125 746L142.5 759.5L145 737Z" fill="#8B45FA"/>
<path d="M90.4911 695C90.4911 695 101.404 696.56 108.996 696.527C116.192 696.496 128.489 695 128.489 695C128.489 695 132.509 711.061 131.949 721.472C131.433 731.08 127 745.5 127 745.5C127 745.5 126.3 747.162 125.49 747.944C124.8 748.727 124.407 749.254 121.5 750.5C118 752 112.561 751.7 110 751.7C107.439 751.7 99 751.5 96.5 750C95.4161 749.35 94.7243 748.841 94 747.944C93.2378 747 92.5002 745 92.5002 745C92.5002 745 86.6266 730.982 86.0437 721.472C85.4024 711.009 90.4911 695 90.4911 695Z" fill="url(#paint14_linear_141_474)"/>
<path d="M109.5 673.5C110.985 673.569 111.702 673.774 113 674.5C116.737 676.591 119.324 680.157 122 683.5C125.622 688.025 128.5 695 128.5 695C128.5 695 116.943 696.5 109.5 696.5C102.057 696.5 90.5 695 90.5 695C90.5 695 93.0512 687.406 96.5 683C99.2235 679.521 101.57 676.519 105.5 674.5C106.984 673.738 107.833 673.423 109.5 673.5Z" fill="url(#paint15_linear_141_474)"/>
<path d="M73 737L86.5 725L93 746L75.5 759.5L73 737Z" fill="#8B45FA"/>
<path d="M106 733.5C106.929 731.805 108.072 730.352 110 730.5C111.652 730.627 113.098 731.893 113.5 733.5C114 735.5 114.27 736.525 114 739.5C113.742 742.334 113.547 745.298 113.5 750C113.417 758.259 114.5 756.975 114.5 762C114.5 766 114.347 770.672 110.5 770.5C106.748 770.332 106 765.756 106 762C106 758 107 758 107 750C107 745.249 106 739.5 106 739.5C106 739.5 104.95 735.414 106 733.5Z" fill="#6627F1"/>
<path d="M54.22 801C54.0333 801 53.94 800.9 53.94 800.7V786.44C53.94 786.253 54.02 786.16 54.18 786.16H56.1C56.2067 786.16 56.28 786.173 56.32 786.2C56.3733 786.227 56.4133 786.287 56.44 786.38L60.88 797.84C60.9333 797.96 60.9867 798.02 61.04 798.02C61.0933 798.007 61.1467 797.94 61.2 797.82L65.64 786.42C65.6933 786.247 65.7933 786.16 65.94 786.16H67.96C68.1067 786.16 68.18 786.247 68.18 786.42V800.7C68.18 800.9 68.08 801 67.88 801H66.56C66.4533 801 66.3733 800.98 66.32 800.94C66.28 800.9 66.26 800.833 66.26 800.74V789.3C66.26 789.233 66.2467 789.207 66.22 789.22C66.1933 789.22 66.1733 789.247 66.16 789.3L61.76 800.74C61.6933 800.913 61.5667 801 61.38 801H60.42C60.2067 801 60.0733 800.92 60.02 800.76L55.68 789.42C55.6533 789.353 55.6267 789.327 55.6 789.34C55.5867 789.34 55.58 789.367 55.58 789.42V800.74C55.58 800.833 55.56 800.9 55.52 800.94C55.48 800.98 55.4067 801 55.3 801H54.22ZM73.345 800.66C73.345 800.793 73.3183 800.887 73.265 800.94C73.225 800.98 73.1317 801 72.985 801H71.965C71.845 801 71.765 800.98 71.725 800.94C71.685 800.9 71.665 800.827 71.665 800.72V790.68C71.665 790.493 71.745 790.4 71.905 790.4H73.125C73.2717 790.4 73.345 790.487 73.345 790.66V800.66ZM73.425 788.12C73.425 788.373 73.305 788.5 73.065 788.5H71.905C71.785 788.5 71.705 788.473 71.665 788.42C71.625 788.353 71.605 788.267 71.605 788.16V786.48C71.605 786.267 71.6983 786.16 71.885 786.16H73.145C73.3317 786.16 73.425 786.26 73.425 786.46V788.12ZM82.8102 792.74C82.5435 792.34 82.1702 792.013 81.6902 791.76C81.2102 791.507 80.6368 791.38 79.9702 791.38C79.2502 791.38 78.6502 791.533 78.1702 791.84C77.7035 792.147 77.4702 792.56 77.4702 793.08C77.4702 793.36 77.5768 793.627 77.7902 793.88C78.0035 794.12 78.4368 794.347 79.0902 794.56L81.6302 795.32C82.5502 795.573 83.2102 795.94 83.6102 796.42C84.0235 796.9 84.2302 797.453 84.2302 798.08C84.2302 798.707 84.0435 799.253 83.6702 799.72C83.2968 800.187 82.7835 800.553 82.1302 800.82C81.4768 801.073 80.7368 801.2 79.9102 801.2C78.8568 801.2 77.9368 800.993 77.1502 800.58C76.3635 800.153 75.8035 799.627 75.4702 799C75.4302 798.933 75.4102 798.873 75.4102 798.82C75.4102 798.767 75.4435 798.72 75.5102 798.68L76.2902 798.24C76.3568 798.2 76.4168 798.187 76.4702 798.2C76.5235 798.2 76.5635 798.22 76.5902 798.26C76.8168 798.607 77.0768 798.907 77.3702 799.16C77.6768 799.413 78.0368 799.613 78.4502 799.76C78.8768 799.907 79.3702 799.98 79.9302 799.98C80.4368 799.967 80.8968 799.893 81.3102 799.76C81.7235 799.627 82.0502 799.433 82.2902 799.18C82.5302 798.913 82.6502 798.607 82.6502 798.26C82.6502 797.9 82.5035 797.593 82.2102 797.34C81.9168 797.073 81.4102 796.84 80.6902 796.64L78.6302 796.06C77.6302 795.793 76.9235 795.433 76.5102 794.98C76.1102 794.527 75.9035 793.993 75.8902 793.38C75.8902 792.74 76.0635 792.187 76.4102 791.72C76.7568 791.24 77.2368 790.867 77.8502 790.6C78.4768 790.333 79.1902 790.2 79.9902 790.2C80.8835 790.2 81.6768 790.373 82.3702 790.72C83.0768 791.053 83.6102 791.5 83.9702 792.06C84.0102 792.113 84.0302 792.167 84.0302 792.22C84.0302 792.26 84.0035 792.3 83.9502 792.34L83.1102 792.8C83.0568 792.827 83.0035 792.84 82.9502 792.84C82.9102 792.827 82.8635 792.793 82.8102 792.74ZM87.8045 796.36C87.8045 797.013 87.9579 797.613 88.2645 798.16C88.5845 798.693 89.0045 799.12 89.5245 799.44C90.0579 799.76 90.6512 799.92 91.3045 799.92C91.9712 799.92 92.5645 799.787 93.0845 799.52C93.6045 799.24 94.0512 798.82 94.4245 798.26C94.4779 798.207 94.5179 798.18 94.5445 798.18C94.5845 798.167 94.6379 798.173 94.7045 798.2L95.5445 798.62C95.6645 798.687 95.6779 798.78 95.5845 798.9C95.2245 799.433 94.8245 799.873 94.3845 800.22C93.9579 800.553 93.4779 800.8 92.9445 800.96C92.4112 801.12 91.8112 801.2 91.1445 801.2C90.1579 801.2 89.2845 800.973 88.5245 800.52C87.7645 800.067 87.1645 799.433 86.7245 798.62C86.2845 797.807 86.0645 796.867 86.0645 795.8C86.0645 794.64 86.2845 793.647 86.7245 792.82C87.1779 791.98 87.7845 791.333 88.5445 790.88C89.3179 790.427 90.1779 790.2 91.1245 790.2C92.0979 790.2 92.9445 790.413 93.6645 790.84C94.3845 791.267 94.9445 791.887 95.3445 792.7C95.7445 793.513 95.9445 794.493 95.9445 795.64C95.9445 795.733 95.9312 795.827 95.9045 795.92C95.8912 796.013 95.8045 796.06 95.6445 796.06H87.9845C87.9312 796.06 87.8845 796.093 87.8445 796.16C87.8179 796.213 87.8045 796.28 87.8045 796.36ZM93.9245 794.96C94.0712 794.96 94.1645 794.947 94.2045 794.92C94.2445 794.88 94.2645 794.8 94.2645 794.68C94.2645 794.107 94.1379 793.573 93.8845 793.08C93.6445 792.573 93.2912 792.167 92.8245 791.86C92.3712 791.553 91.8179 791.4 91.1645 791.4C90.4445 791.4 89.8379 791.573 89.3445 791.92C88.8512 792.253 88.4779 792.693 88.2245 793.24C87.9712 793.787 87.8445 794.36 87.8445 794.96H93.9245ZM103.703 796.36C103.703 797.013 103.856 797.613 104.163 798.16C104.483 798.693 104.903 799.12 105.423 799.44C105.956 799.76 106.55 799.92 107.203 799.92C107.87 799.92 108.463 799.787 108.983 799.52C109.503 799.24 109.95 798.82 110.323 798.26C110.376 798.207 110.416 798.18 110.443 798.18C110.483 798.167 110.536 798.173 110.603 798.2L111.443 798.62C111.563 798.687 111.576 798.78 111.483 798.9C111.123 799.433 110.723 799.873 110.283 800.22C109.856 800.553 109.376 800.8 108.843 800.96C108.31 801.12 107.71 801.2 107.043 801.2C106.056 801.2 105.183 800.973 104.423 800.52C103.663 800.067 103.063 799.433 102.623 798.62C102.183 797.807 101.963 796.867 101.963 795.8C101.963 794.64 102.183 793.647 102.623 792.82C103.076 791.98 103.683 791.333 104.443 790.88C105.216 790.427 106.076 790.2 107.023 790.2C107.996 790.2 108.843 790.413 109.563 790.84C110.283 791.267 110.843 791.887 111.243 792.7C111.643 793.513 111.843 794.493 111.843 795.64C111.843 795.733 111.83 795.827 111.803 795.92C111.79 796.013 111.703 796.06 111.543 796.06H103.883C103.83 796.06 103.783 796.093 103.743 796.16C103.716 796.213 103.703 796.28 103.703 796.36ZM109.823 794.96C109.97 794.96 110.063 794.947 110.103 794.92C110.143 794.88 110.163 794.8 110.163 794.68C110.163 794.107 110.036 793.573 109.783 793.08C109.543 792.573 109.19 792.167 108.723 791.86C108.27 791.553 107.716 791.4 107.063 791.4C106.343 791.4 105.736 791.573 105.243 791.92C104.75 792.253 104.376 792.693 104.123 793.24C103.87 793.787 103.743 794.36 103.743 794.96H109.823ZM114.484 801C114.297 801 114.204 800.913 114.204 800.74V790.66C114.204 790.487 114.277 790.4 114.424 790.4H115.624C115.771 790.4 115.844 790.473 115.844 790.62V791.78C115.844 791.847 115.857 791.887 115.884 791.9C115.911 791.913 115.957 791.893 116.024 791.84C116.464 791.493 116.871 791.2 117.244 790.96C117.631 790.707 118.024 790.52 118.424 790.4C118.824 790.267 119.251 790.2 119.704 790.2C120.744 790.2 121.537 790.48 122.084 791.04C122.644 791.6 122.924 792.327 122.924 793.22V800.68C122.924 800.893 122.824 801 122.624 801H121.504C121.411 801 121.344 800.98 121.304 800.94C121.264 800.887 121.244 800.82 121.244 800.74V793.6C121.244 792.947 121.077 792.44 120.744 792.08C120.411 791.707 119.884 791.52 119.164 791.52C118.777 791.52 118.411 791.587 118.064 791.72C117.731 791.84 117.391 792.02 117.044 792.26C116.697 792.487 116.311 792.78 115.884 793.14V800.7C115.884 800.9 115.784 801 115.584 801H114.484ZM131.861 800.66C131.861 800.793 131.834 800.887 131.781 800.94C131.728 800.98 131.634 801 131.501 801H130.461C130.261 801 130.161 800.907 130.161 800.72L130.181 786.44C130.181 786.253 130.261 786.16 130.421 786.16H131.621C131.781 786.16 131.861 786.247 131.861 786.42V800.66ZM136.626 800.66C136.626 800.793 136.6 800.887 136.546 800.94C136.506 800.98 136.413 801 136.266 801H135.246C135.126 801 135.046 800.98 135.006 800.94C134.966 800.9 134.946 800.827 134.946 800.72V790.68C134.946 790.493 135.026 790.4 135.186 790.4H136.406C136.553 790.4 136.626 790.487 136.626 790.66V800.66ZM136.706 788.12C136.706 788.373 136.586 788.5 136.346 788.5H135.186C135.066 788.5 134.986 788.473 134.946 788.42C134.906 788.353 134.886 788.267 134.886 788.16V786.48C134.886 786.267 134.98 786.16 135.166 786.16H136.426C136.613 786.16 136.706 786.26 136.706 786.46V788.12ZM149.311 790.22C149.445 790.22 149.538 790.247 149.591 790.3C149.658 790.353 149.691 790.433 149.691 790.54V791.24C149.691 791.36 149.658 791.453 149.591 791.52C149.538 791.587 149.438 791.613 149.291 791.6C149.078 791.6 148.891 791.613 148.731 791.64C148.571 791.667 148.411 791.713 148.251 791.78C147.931 791.9 147.798 792.053 147.851 792.24C147.918 792.387 147.991 792.567 148.071 792.78C148.151 792.98 148.191 793.253 148.191 793.6C148.191 794.187 148.038 794.727 147.731 795.22C147.425 795.7 146.945 796.087 146.291 796.38C145.651 796.673 144.838 796.82 143.851 796.82C143.171 796.82 142.638 796.86 142.251 796.94C141.865 797.02 141.591 797.127 141.431 797.26C141.271 797.393 141.191 797.533 141.191 797.68C141.191 797.893 141.331 798.047 141.611 798.14C141.905 798.233 142.371 798.3 143.011 798.34L145.591 798.48C146.765 798.547 147.625 798.827 148.171 799.32C148.718 799.813 148.991 800.46 148.991 801.26C148.991 802.26 148.545 803.047 147.651 803.62C146.771 804.207 145.511 804.5 143.871 804.5C142.178 804.5 140.885 804.253 139.991 803.76C139.111 803.28 138.671 802.587 138.671 801.68C138.671 801.213 138.831 800.793 139.151 800.42C139.485 800.047 139.951 799.713 140.551 799.42C140.698 799.353 140.698 799.28 140.551 799.2C140.258 799.067 140.031 798.907 139.871 798.72C139.711 798.52 139.631 798.287 139.631 798.02C139.631 797.833 139.691 797.647 139.811 797.46C139.931 797.273 140.105 797.1 140.331 796.94C140.571 796.78 140.858 796.64 141.191 796.52C141.271 796.493 141.311 796.46 141.311 796.42C141.311 796.38 141.278 796.333 141.211 796.28C140.625 795.987 140.191 795.62 139.911 795.18C139.631 794.74 139.491 794.213 139.491 793.6C139.491 792.56 139.885 791.74 140.671 791.14C141.458 790.54 142.571 790.24 144.011 790.24C144.705 790.24 145.291 790.32 145.771 790.48C146.265 790.64 146.678 790.86 147.011 791.14C147.091 791.207 147.165 791.24 147.231 791.24C147.298 791.24 147.365 791.207 147.431 791.14C147.591 790.993 147.771 790.853 147.971 790.72C148.171 790.573 148.385 790.453 148.611 790.36C148.851 790.267 149.085 790.22 149.311 790.22ZM143.851 795.76C144.785 795.76 145.478 795.573 145.931 795.2C146.385 794.813 146.611 794.273 146.611 793.58C146.611 792.873 146.385 792.32 145.931 791.92C145.478 791.507 144.785 791.3 143.851 791.3C142.958 791.3 142.265 791.507 141.771 791.92C141.291 792.32 141.051 792.873 141.051 793.58C141.051 794.273 141.291 794.813 141.771 795.2C142.265 795.573 142.958 795.76 143.851 795.76ZM142.091 799.7C141.851 799.687 141.585 799.76 141.291 799.92C140.998 800.067 140.738 800.273 140.511 800.54C140.285 800.807 140.171 801.12 140.171 801.48C140.171 801.893 140.311 802.247 140.591 802.54C140.885 802.847 141.318 803.073 141.891 803.22C142.478 803.38 143.198 803.46 144.051 803.46C145.158 803.46 145.998 803.293 146.571 802.96C147.145 802.64 147.431 802.14 147.431 801.46C147.431 801.02 147.278 800.66 146.971 800.38C146.678 800.1 146.165 799.94 145.431 799.9L142.091 799.7ZM152.043 801C151.856 801 151.763 800.913 151.763 800.74V790.66C151.763 790.487 151.836 790.4 151.983 790.4H153.183C153.329 790.4 153.403 790.473 153.403 790.62V791.78C153.403 791.847 153.416 791.887 153.443 791.9C153.469 791.913 153.516 791.893 153.583 791.84C154.023 791.493 154.429 791.2 154.803 790.96C155.189 790.707 155.583 790.52 155.983 790.4C156.383 790.267 156.809 790.2 157.263 790.2C158.303 790.2 159.096 790.48 159.643 791.04C160.203 791.6 160.483 792.327 160.483 793.22V800.68C160.483 800.893 160.383 801 160.183 801H159.063C158.969 801 158.903 800.98 158.863 800.94C158.823 800.887 158.803 800.82 158.803 800.74V793.6C158.803 792.947 158.636 792.44 158.303 792.08C157.969 791.707 157.443 791.52 156.723 791.52C156.336 791.52 155.969 791.587 155.623 791.72C155.289 791.84 154.949 792.02 154.603 792.26C154.256 792.487 153.869 792.78 153.443 793.14V800.7C153.443 800.9 153.343 801 153.143 801H152.043ZM164.562 796.36C164.562 797.013 164.716 797.613 165.022 798.16C165.342 798.693 165.762 799.12 166.282 799.44C166.816 799.76 167.409 799.92 168.062 799.92C168.729 799.92 169.322 799.787 169.842 799.52C170.362 799.24 170.809 798.82 171.182 798.26C171.236 798.207 171.276 798.18 171.302 798.18C171.342 798.167 171.396 798.173 171.462 798.2L172.302 798.62C172.422 798.687 172.436 798.78 172.342 798.9C171.982 799.433 171.582 799.873 171.142 800.22C170.716 800.553 170.236 800.8 169.702 800.96C169.169 801.12 168.569 801.2 167.902 801.2C166.916 801.2 166.042 800.973 165.282 800.52C164.522 800.067 163.922 799.433 163.482 798.62C163.042 797.807 162.822 796.867 162.822 795.8C162.822 794.64 163.042 793.647 163.482 792.82C163.936 791.98 164.542 791.333 165.302 790.88C166.076 790.427 166.936 790.2 167.882 790.2C168.856 790.2 169.702 790.413 170.422 790.84C171.142 791.267 171.702 791.887 172.102 792.7C172.502 793.513 172.702 794.493 172.702 795.64C172.702 795.733 172.689 795.827 172.662 795.92C172.649 796.013 172.562 796.06 172.402 796.06H164.742C164.689 796.06 164.642 796.093 164.602 796.16C164.576 796.213 164.562 796.28 164.562 796.36ZM170.682 794.96C170.829 794.96 170.922 794.947 170.962 794.92C171.002 794.88 171.022 794.8 171.022 794.68C171.022 794.107 170.896 793.573 170.642 793.08C170.402 792.573 170.049 792.167 169.582 791.86C169.129 791.553 168.576 791.4 167.922 791.4C167.202 791.4 166.596 791.573 166.102 791.92C165.609 792.253 165.236 792.693 164.982 793.24C164.729 793.787 164.602 794.36 164.602 794.96H170.682Z" fill="white"/>
<line x1="216" y1="556.5" x2="295" y2="556.5" stroke="url(#paint16_linear_141_474)" stroke-width="3"/>
<path d="M273.02 642.06C272.913 642.06 272.86 642.113 272.86 642.22V648.7C272.86 648.9 272.747 649 272.52 649H271.22C271.113 649 271.04 648.98 271 648.94C270.96 648.887 270.94 648.813 270.94 648.72V634.44C270.94 634.253 271.02 634.16 271.18 634.16H272.62C272.78 634.16 272.86 634.247 272.86 634.42V640.3C272.86 640.46 272.933 640.54 273.08 640.54H279.64C279.773 640.54 279.84 640.46 279.84 640.3V634.4C279.84 634.24 279.913 634.16 280.06 634.16H281.52C281.68 634.16 281.76 634.253 281.76 634.44V648.72C281.76 648.813 281.74 648.887 281.7 648.94C281.66 648.98 281.587 649 281.48 649H280.18C279.953 649 279.84 648.9 279.84 648.7V642.24C279.84 642.12 279.78 642.06 279.66 642.06H273.02ZM286.367 644.36C286.367 645.013 286.52 645.613 286.827 646.16C287.147 646.693 287.567 647.12 288.087 647.44C288.62 647.76 289.214 647.92 289.867 647.92C290.534 647.92 291.127 647.787 291.647 647.52C292.167 647.24 292.614 646.82 292.987 646.26C293.04 646.207 293.08 646.18 293.107 646.18C293.147 646.167 293.2 646.173 293.267 646.2L294.107 646.62C294.227 646.687 294.24 646.78 294.147 646.9C293.787 647.433 293.387 647.873 292.947 648.22C292.52 648.553 292.04 648.8 291.507 648.96C290.974 649.12 290.374 649.2 289.707 649.2C288.72 649.2 287.847 648.973 287.087 648.52C286.327 648.067 285.727 647.433 285.287 646.62C284.847 645.807 284.627 644.867 284.627 643.8C284.627 642.64 284.847 641.647 285.287 640.82C285.74 639.98 286.347 639.333 287.107 638.88C287.88 638.427 288.74 638.2 289.687 638.2C290.66 638.2 291.507 638.413 292.227 638.84C292.947 639.267 293.507 639.887 293.907 640.7C294.307 641.513 294.507 642.493 294.507 643.64C294.507 643.733 294.494 643.827 294.467 643.92C294.454 644.013 294.367 644.06 294.207 644.06H286.547C286.494 644.06 286.447 644.093 286.407 644.16C286.38 644.213 286.367 644.28 286.367 644.36ZM292.487 642.96C292.634 642.96 292.727 642.947 292.767 642.92C292.807 642.88 292.827 642.8 292.827 642.68C292.827 642.107 292.7 641.573 292.447 641.08C292.207 640.573 291.854 640.167 291.387 639.86C290.934 639.553 290.38 639.4 289.727 639.4C289.007 639.4 288.4 639.573 287.907 639.92C287.414 640.253 287.04 640.693 286.787 641.24C286.534 641.787 286.407 642.36 286.407 642.96H292.487ZM297.188 649C297.068 649 296.981 648.973 296.928 648.92C296.888 648.867 296.868 648.787 296.868 648.68V634.44C296.868 634.253 296.948 634.16 297.108 634.16H298.348C298.481 634.16 298.548 634.253 298.548 634.44V639.34C298.548 639.487 298.575 639.567 298.628 639.58C298.681 639.58 298.755 639.54 298.848 639.46C298.968 639.34 299.161 639.18 299.428 638.98C299.708 638.78 300.061 638.6 300.488 638.44C300.928 638.28 301.448 638.2 302.048 638.2C303.021 638.2 303.821 638.44 304.448 638.92C305.075 639.4 305.541 640.053 305.848 640.88C306.168 641.693 306.328 642.613 306.328 643.64C306.328 645.347 305.928 646.7 305.128 647.7C304.328 648.7 303.208 649.2 301.768 649.2C301.155 649.2 300.628 649.107 300.188 648.92C299.761 648.733 299.408 648.513 299.128 648.26C298.848 648.007 298.641 647.793 298.508 647.62C298.455 647.553 298.408 647.527 298.368 647.54C298.328 647.553 298.301 647.6 298.288 647.68L298.188 648.68C298.161 648.893 298.041 649 297.828 649H297.188ZM298.548 645.42C298.548 645.9 298.681 646.34 298.948 646.74C299.228 647.127 299.588 647.433 300.028 647.66C300.468 647.887 300.928 648 301.408 648C302.008 648 302.548 647.853 303.028 647.56C303.508 647.253 303.888 646.78 304.168 646.14C304.448 645.5 304.588 644.68 304.588 643.68C304.588 642.32 304.328 641.273 303.808 640.54C303.288 639.793 302.535 639.42 301.548 639.42C300.921 639.42 300.348 639.567 299.828 639.86C299.321 640.14 298.895 640.487 298.548 640.9V645.42ZM309.961 644.36C309.961 645.013 310.114 645.613 310.421 646.16C310.741 646.693 311.161 647.12 311.681 647.44C312.214 647.76 312.807 647.92 313.461 647.92C314.127 647.92 314.721 647.787 315.241 647.52C315.761 647.24 316.207 646.82 316.581 646.26C316.634 646.207 316.674 646.18 316.701 646.18C316.741 646.167 316.794 646.173 316.861 646.2L317.701 646.62C317.821 646.687 317.834 646.78 317.741 646.9C317.381 647.433 316.981 647.873 316.541 648.22C316.114 648.553 315.634 648.8 315.101 648.96C314.567 649.12 313.967 649.2 313.301 649.2C312.314 649.2 311.441 648.973 310.681 648.52C309.921 648.067 309.321 647.433 308.881 646.62C308.441 645.807 308.221 644.867 308.221 643.8C308.221 642.64 308.441 641.647 308.881 640.82C309.334 639.98 309.941 639.333 310.701 638.88C311.474 638.427 312.334 638.2 313.281 638.2C314.254 638.2 315.101 638.413 315.821 638.84C316.541 639.267 317.101 639.887 317.501 640.7C317.901 641.513 318.101 642.493 318.101 643.64C318.101 643.733 318.087 643.827 318.061 643.92C318.047 644.013 317.961 644.06 317.801 644.06H310.141C310.087 644.06 310.041 644.093 310.001 644.16C309.974 644.213 309.961 644.28 309.961 644.36ZM316.081 642.96C316.227 642.96 316.321 642.947 316.361 642.92C316.401 642.88 316.421 642.8 316.421 642.68C316.421 642.107 316.294 641.573 316.041 641.08C315.801 640.573 315.447 640.167 314.981 639.86C314.527 639.553 313.974 639.4 313.321 639.4C312.601 639.4 311.994 639.573 311.501 639.92C311.007 640.253 310.634 640.693 310.381 641.24C310.127 641.787 310.001 642.36 310.001 642.96H316.081ZM320.742 649C320.649 649 320.575 648.98 320.522 648.94C320.482 648.887 320.462 648.82 320.462 648.74V638.66C320.462 638.487 320.535 638.4 320.682 638.4H321.842C321.989 638.4 322.062 638.473 322.062 638.62V639.92C322.062 640 322.082 640.047 322.122 640.06C322.162 640.073 322.215 640.047 322.282 639.98C322.629 639.567 322.969 639.233 323.302 638.98C323.649 638.713 323.995 638.52 324.342 638.4C324.689 638.267 325.035 638.2 325.382 638.2C325.849 638.2 326.082 638.287 326.082 638.46V639.66C326.082 639.793 326.022 639.847 325.902 639.82C325.782 639.807 325.642 639.793 325.482 639.78C325.335 639.767 325.175 639.76 325.002 639.76C324.709 639.76 324.395 639.827 324.062 639.96C323.729 640.08 323.415 640.253 323.122 640.48C322.842 640.707 322.609 640.96 322.422 641.24C322.235 641.52 322.142 641.8 322.142 642.08V648.7C322.142 648.9 322.042 649 321.842 649H320.742ZM337.698 638.22C337.831 638.22 337.925 638.247 337.978 638.3C338.045 638.353 338.078 638.433 338.078 638.54V639.24C338.078 639.36 338.045 639.453 337.978 639.52C337.925 639.587 337.825 639.613 337.678 639.6C337.465 639.6 337.278 639.613 337.118 639.64C336.958 639.667 336.798 639.713 336.638 639.78C336.318 639.9 336.185 640.053 336.238 640.24C336.305 640.387 336.378 640.567 336.458 640.78C336.538 640.98 336.578 641.253 336.578 641.6C336.578 642.187 336.425 642.727 336.118 643.22C335.811 643.7 335.331 644.087 334.678 644.38C334.038 644.673 333.225 644.82 332.238 644.82C331.558 644.82 331.025 644.86 330.638 644.94C330.251 645.02 329.978 645.127 329.818 645.26C329.658 645.393 329.578 645.533 329.578 645.68C329.578 645.893 329.718 646.047 329.998 646.14C330.291 646.233 330.758 646.3 331.398 646.34L333.978 646.48C335.151 646.547 336.011 646.827 336.558 647.32C337.105 647.813 337.378 648.46 337.378 649.26C337.378 650.26 336.931 651.047 336.038 651.62C335.158 652.207 333.898 652.5 332.258 652.5C330.565 652.5 329.271 652.253 328.378 651.76C327.498 651.28 327.058 650.587 327.058 649.68C327.058 649.213 327.218 648.793 327.538 648.42C327.871 648.047 328.338 647.713 328.938 647.42C329.085 647.353 329.085 647.28 328.938 647.2C328.645 647.067 328.418 646.907 328.258 646.72C328.098 646.52 328.018 646.287 328.018 646.02C328.018 645.833 328.078 645.647 328.198 645.46C328.318 645.273 328.491 645.1 328.718 644.94C328.958 644.78 329.245 644.64 329.578 644.52C329.658 644.493 329.698 644.46 329.698 644.42C329.698 644.38 329.665 644.333 329.598 644.28C329.011 643.987 328.578 643.62 328.298 643.18C328.018 642.74 327.878 642.213 327.878 641.6C327.878 640.56 328.271 639.74 329.058 639.14C329.845 638.54 330.958 638.24 332.398 638.24C333.091 638.24 333.678 638.32 334.158 638.48C334.651 638.64 335.065 638.86 335.398 639.14C335.478 639.207 335.551 639.24 335.618 639.24C335.685 639.24 335.751 639.207 335.818 639.14C335.978 638.993 336.158 638.853 336.358 638.72C336.558 638.573 336.771 638.453 336.998 638.36C337.238 638.267 337.471 638.22 337.698 638.22ZM332.238 643.76C333.171 643.76 333.865 643.573 334.318 643.2C334.771 642.813 334.998 642.273 334.998 641.58C334.998 640.873 334.771 640.32 334.318 639.92C333.865 639.507 333.171 639.3 332.238 639.3C331.345 639.3 330.651 639.507 330.158 639.92C329.678 640.32 329.438 640.873 329.438 641.58C329.438 642.273 329.678 642.813 330.158 643.2C330.651 643.573 331.345 643.76 332.238 643.76ZM330.478 647.7C330.238 647.687 329.971 647.76 329.678 647.92C329.385 648.067 329.125 648.273 328.898 648.54C328.671 648.807 328.558 649.12 328.558 649.48C328.558 649.893 328.698 650.247 328.978 650.54C329.271 650.847 329.705 651.073 330.278 651.22C330.865 651.38 331.585 651.46 332.438 651.46C333.545 651.46 334.385 651.293 334.958 650.96C335.531 650.64 335.818 650.14 335.818 649.46C335.818 649.02 335.665 648.66 335.358 648.38C335.065 648.1 334.551 647.94 333.818 647.9L330.478 647.7ZM340.918 644.36C340.918 645.013 341.071 645.613 341.378 646.16C341.698 646.693 342.118 647.12 342.638 647.44C343.171 647.76 343.764 647.92 344.418 647.92C345.084 647.92 345.678 647.787 346.198 647.52C346.718 647.24 347.164 646.82 347.538 646.26C347.591 646.207 347.631 646.18 347.658 646.18C347.698 646.167 347.751 646.173 347.818 646.2L348.658 646.62C348.778 646.687 348.791 646.78 348.698 646.9C348.338 647.433 347.938 647.873 347.498 648.22C347.071 648.553 346.591 648.8 346.058 648.96C345.524 649.12 344.924 649.2 344.258 649.2C343.271 649.2 342.398 648.973 341.638 648.52C340.878 648.067 340.278 647.433 339.838 646.62C339.398 645.807 339.178 644.867 339.178 643.8C339.178 642.64 339.398 641.647 339.838 640.82C340.291 639.98 340.898 639.333 341.658 638.88C342.431 638.427 343.291 638.2 344.238 638.2C345.211 638.2 346.058 638.413 346.778 638.84C347.498 639.267 348.058 639.887 348.458 640.7C348.858 641.513 349.058 642.493 349.058 643.64C349.058 643.733 349.044 643.827 349.018 643.92C349.004 644.013 348.918 644.06 348.758 644.06H341.098C341.044 644.06 340.998 644.093 340.958 644.16C340.931 644.213 340.918 644.28 340.918 644.36ZM347.038 642.96C347.184 642.96 347.278 642.947 347.318 642.92C347.358 642.88 347.378 642.8 347.378 642.68C347.378 642.107 347.251 641.573 346.998 641.08C346.758 640.573 346.404 640.167 345.938 639.86C345.484 639.553 344.931 639.4 344.278 639.4C343.558 639.4 342.951 639.573 342.458 639.92C341.964 640.253 341.591 640.693 341.338 641.24C341.084 641.787 340.958 642.36 340.958 642.96H347.038ZM351.699 649C351.512 649 351.419 648.913 351.419 648.74V638.66C351.419 638.487 351.492 638.4 351.639 638.4H352.839C352.972 638.4 353.039 638.473 353.039 638.62V639.78C353.039 639.847 353.052 639.887 353.079 639.9C353.119 639.913 353.172 639.893 353.239 639.84C353.666 639.493 354.059 639.2 354.419 638.96C354.792 638.707 355.166 638.52 355.539 638.4C355.926 638.267 356.339 638.2 356.779 638.2C357.566 638.2 358.192 638.38 358.659 638.74C359.139 639.1 359.459 639.507 359.619 639.96C359.646 640.013 359.686 640.033 359.739 640.02C359.792 640.007 359.846 639.973 359.899 639.92C360.326 639.56 360.726 639.253 361.099 639C361.486 638.747 361.872 638.553 362.259 638.42C362.659 638.273 363.079 638.2 363.519 638.2C364.492 638.2 365.246 638.48 365.779 639.04C366.312 639.587 366.579 640.327 366.579 641.26V648.68C366.579 648.893 366.479 649 366.279 649H365.159C365.066 649 364.999 648.98 364.959 648.94C364.919 648.887 364.899 648.82 364.899 648.74V641.6C364.899 640.947 364.739 640.44 364.419 640.08C364.112 639.707 363.626 639.52 362.959 639.52C362.572 639.52 362.199 639.593 361.839 639.74C361.492 639.887 361.172 640.067 360.879 640.28C360.599 640.493 360.346 640.693 360.119 640.88C360.012 640.973 359.939 641.067 359.899 641.16C359.859 641.24 359.839 641.347 359.839 641.48V648.68C359.839 648.893 359.739 649 359.539 649H358.419C358.339 649 358.272 648.98 358.219 648.94C358.179 648.887 358.159 648.82 358.159 648.74V641.6C358.159 640.947 358.006 640.44 357.699 640.08C357.392 639.707 356.906 639.52 356.239 639.52C355.679 639.52 355.166 639.653 354.699 639.92C354.232 640.187 353.699 640.593 353.099 641.14V648.7C353.099 648.9 352.999 649 352.799 649H351.699ZM370.664 644.36C370.664 645.013 370.817 645.613 371.124 646.16C371.444 646.693 371.864 647.12 372.384 647.44C372.917 647.76 373.511 647.92 374.164 647.92C374.831 647.92 375.424 647.787 375.944 647.52C376.464 647.24 376.911 646.82 377.284 646.26C377.337 646.207 377.377 646.18 377.404 646.18C377.444 646.167 377.497 646.173 377.564 646.2L378.404 646.62C378.524 646.687 378.537 646.78 378.444 646.9C378.084 647.433 377.684 647.873 377.244 648.22C376.817 648.553 376.337 648.8 375.804 648.96C375.271 649.12 374.671 649.2 374.004 649.2C373.017 649.2 372.144 648.973 371.384 648.52C370.624 648.067 370.024 647.433 369.584 646.62C369.144 645.807 368.924 644.867 368.924 643.8C368.924 642.64 369.144 641.647 369.584 640.82C370.037 639.98 370.644 639.333 371.404 638.88C372.177 638.427 373.037 638.2 373.984 638.2C374.957 638.2 375.804 638.413 376.524 638.84C377.244 639.267 377.804 639.887 378.204 640.7C378.604 641.513 378.804 642.493 378.804 643.64C378.804 643.733 378.791 643.827 378.764 643.92C378.751 644.013 378.664 644.06 378.504 644.06H370.844C370.791 644.06 370.744 644.093 370.704 644.16C370.677 644.213 370.664 644.28 370.664 644.36ZM376.784 642.96C376.931 642.96 377.024 642.947 377.064 642.92C377.104 642.88 377.124 642.8 377.124 642.68C377.124 642.107 376.997 641.573 376.744 641.08C376.504 640.573 376.151 640.167 375.684 639.86C375.231 639.553 374.677 639.4 374.024 639.4C373.304 639.4 372.697 639.573 372.204 639.92C371.711 640.253 371.337 640.693 371.084 641.24C370.831 641.787 370.704 642.36 370.704 642.96H376.784ZM381.445 649C381.258 649 381.165 648.913 381.165 648.74V638.66C381.165 638.487 381.238 638.4 381.385 638.4H382.585C382.732 638.4 382.805 638.473 382.805 638.62V639.78C382.805 639.847 382.818 639.887 382.845 639.9C382.872 639.913 382.918 639.893 382.985 639.84C383.425 639.493 383.832 639.2 384.205 638.96C384.592 638.707 384.985 638.52 385.385 638.4C385.785 638.267 386.212 638.2 386.665 638.2C387.705 638.2 388.498 638.48 389.045 639.04C389.605 639.6 389.885 640.327 389.885 641.22V648.68C389.885 648.893 389.785 649 389.585 649H388.465C388.372 649 388.305 648.98 388.265 648.94C388.225 648.887 388.205 648.82 388.205 648.74V641.6C388.205 640.947 388.038 640.44 387.705 640.08C387.372 639.707 386.845 639.52 386.125 639.52C385.738 639.52 385.372 639.587 385.025 639.72C384.692 639.84 384.352 640.02 384.005 640.26C383.658 640.487 383.272 640.78 382.845 641.14V648.7C382.845 648.9 382.745 649 382.545 649H381.445ZM395.391 639.66C395.284 639.66 395.231 639.713 395.231 639.82V646.16C395.231 646.787 395.337 647.207 395.551 647.42C395.764 647.633 396.084 647.74 396.511 647.74H397.891C397.957 647.74 398.011 647.76 398.051 647.8C398.091 647.827 398.111 647.88 398.111 647.96L398.091 648.64C398.091 648.773 398.011 648.86 397.851 648.9C397.717 648.927 397.524 648.947 397.271 648.96C397.031 648.973 396.791 648.987 396.551 649C396.324 649 396.131 649 395.971 649C395.131 649 394.517 648.807 394.131 648.42C393.744 648.02 393.551 647.393 393.551 646.54V639.86C393.551 639.727 393.484 639.66 393.351 639.66H391.751C391.604 639.66 391.531 639.587 391.531 639.44V638.6C391.531 638.467 391.597 638.4 391.731 638.4H393.431C393.524 638.4 393.571 638.347 393.571 638.24L393.791 635.06C393.804 634.887 393.877 634.8 394.011 634.8H395.011C395.171 634.8 395.251 634.893 395.251 635.08V638.24C395.251 638.347 395.304 638.4 395.411 638.4H397.931C398.077 638.4 398.151 638.46 398.151 638.58V639.44C398.151 639.587 398.077 639.66 397.931 639.66H395.391Z" fill="white"/>
<g filter="url(#filter10_f_141_474)">
<ellipse cx="332.5" cy="558" rx="47.5" ry="58" fill="#9593FF" fill-opacity="0.43"/>
</g>
<rect x="291" y="512" width="90" height="38" rx="6" fill="url(#paint17_linear_141_474)"/>
<rect x="295" y="515.5" width="82" height="31" rx="3" fill="url(#paint18_linear_141_474)"/>
<circle cx="308" cy="531" r="4" fill="url(#paint19_radial_141_474)"/>
<rect x="334" y="525" width="33" height="5" rx="2.5" fill="#2806AE"/>
<rect x="334" y="533" width="33" height="5" rx="2.5" fill="#2806AE"/>
<rect x="291" y="553" width="90" height="50" rx="6" fill="url(#paint20_linear_141_474)"/>
<rect x="295" y="556.5" width="82" height="43" rx="3" fill="url(#paint21_linear_141_474)"/>
<circle cx="308" cy="572" r="3" fill="url(#paint22_radial_141_474)"/>
<circle cx="308" cy="587" r="3" fill="url(#paint23_radial_141_474)"/>
<rect x="334" y="566" width="33" height="5" rx="2.5" fill="#2806AE"/>
<rect x="334" y="587" width="33" height="5" rx="2.5" fill="#2806AE"/>
<rect x="334" y="576" width="33" height="5" rx="2.5" fill="#2806AE"/>
<line y1="-1.5" x2="79" y2="-1.5" transform="matrix(-1 0 0 1 214 420)" stroke="url(#paint24_linear_141_474)" stroke-width="3"/>
<path d="M46.24 497.16C46.3333 497.16 46.5267 497.16 46.82 497.16C47.1133 497.16 47.4333 497.167 47.78 497.18C48.1267 497.18 48.4467 497.18 48.74 497.18C49.0333 497.18 49.24 497.18 49.36 497.18C51.2133 497.207 52.7067 497.5 53.84 498.06C54.9867 498.62 55.82 499.433 56.34 500.5C56.8733 501.567 57.14 502.887 57.14 504.46C57.14 506.127 56.8533 507.52 56.28 508.64C55.7067 509.76 54.8267 510.6 53.64 511.16C52.4533 511.72 50.96 512 49.16 512H46.22C46.0333 512 45.94 511.893 45.94 511.68V497.44C45.94 497.347 45.96 497.28 46 497.24C46.0533 497.187 46.1333 497.16 46.24 497.16ZM48.06 498.62C47.9267 498.62 47.86 498.713 47.86 498.9V510.34C47.86 510.487 47.94 510.56 48.1 510.56H48.86C50.34 510.56 51.54 510.367 52.46 509.98C53.38 509.58 54.0533 508.94 54.48 508.06C54.92 507.18 55.14 506.013 55.14 504.56C55.14 503.04 54.9133 501.853 54.46 501C54.02 500.133 53.34 499.52 52.42 499.16C51.5133 498.8 50.36 498.62 48.96 498.62H48.06ZM61.0936 507.36C61.0936 508.013 61.2469 508.613 61.5536 509.16C61.8736 509.693 62.2936 510.12 62.8136 510.44C63.3469 510.76 63.9403 510.92 64.5936 510.92C65.2603 510.92 65.8536 510.787 66.3736 510.52C66.8936 510.24 67.3403 509.82 67.7136 509.26C67.7669 509.207 67.8069 509.18 67.8336 509.18C67.8736 509.167 67.9269 509.173 67.9936 509.2L68.8336 509.62C68.9536 509.687 68.9669 509.78 68.8736 509.9C68.5136 510.433 68.1136 510.873 67.6736 511.22C67.2469 511.553 66.7669 511.8 66.2336 511.96C65.7003 512.12 65.1003 512.2 64.4336 512.2C63.4469 512.2 62.5736 511.973 61.8136 511.52C61.0536 511.067 60.4536 510.433 60.0136 509.62C59.5736 508.807 59.3536 507.867 59.3536 506.8C59.3536 505.64 59.5736 504.647 60.0136 503.82C60.4669 502.98 61.0736 502.333 61.8336 501.88C62.6069 501.427 63.4669 501.2 64.4136 501.2C65.3869 501.2 66.2336 501.413 66.9536 501.84C67.6736 502.267 68.2336 502.887 68.6336 503.7C69.0336 504.513 69.2336 505.493 69.2336 506.64C69.2336 506.733 69.2203 506.827 69.1936 506.92C69.1803 507.013 69.0936 507.06 68.9336 507.06H61.2736C61.2203 507.06 61.1736 507.093 61.1336 507.16C61.1069 507.213 61.0936 507.28 61.0936 507.36ZM67.2136 505.96C67.3603 505.96 67.4536 505.947 67.4936 505.92C67.5336 505.88 67.5536 505.8 67.5536 505.68C67.5536 505.107 67.4269 504.573 67.1736 504.08C66.9336 503.573 66.5803 503.167 66.1136 502.86C65.6603 502.553 65.1069 502.4 64.4536 502.4C63.7336 502.4 63.1269 502.573 62.6336 502.92C62.1403 503.253 61.7669 503.693 61.5136 504.24C61.2603 504.787 61.1336 505.36 61.1336 505.96H67.2136ZM79.9022 501.4C79.9955 501.4 80.0622 501.433 80.1022 501.5C80.1422 501.553 80.1422 501.62 80.1022 501.7L76.0422 511.7C75.9755 511.9 75.8222 512 75.5822 512H74.8622C74.6089 512 74.4422 511.907 74.3622 511.72L70.3222 501.7C70.2955 501.62 70.3022 501.553 70.3422 501.5C70.3822 501.433 70.4489 501.4 70.5422 501.4H71.7822C71.8622 501.4 71.9289 501.42 71.9822 501.46C72.0355 501.487 72.0755 501.54 72.1022 501.62L75.2422 509.48C75.3355 509.733 75.4422 509.727 75.5622 509.46L78.6822 501.62C78.7089 501.54 78.7422 501.487 78.7822 501.46C78.8355 501.42 78.9022 501.4 78.9822 501.4H79.9022ZM82.8319 507.36C82.8319 508.013 82.9852 508.613 83.2919 509.16C83.6119 509.693 84.0319 510.12 84.5519 510.44C85.0852 510.76 85.6785 510.92 86.3319 510.92C86.9985 510.92 87.5919 510.787 88.1119 510.52C88.6319 510.24 89.0785 509.82 89.4519 509.26C89.5052 509.207 89.5452 509.18 89.5719 509.18C89.6119 509.167 89.6652 509.173 89.7319 509.2L90.5719 509.62C90.6919 509.687 90.7052 509.78 90.6119 509.9C90.2519 510.433 89.8519 510.873 89.4119 511.22C88.9852 511.553 88.5052 511.8 87.9719 511.96C87.4385 512.12 86.8385 512.2 86.1719 512.2C85.1852 512.2 84.3119 511.973 83.5519 511.52C82.7919 511.067 82.1919 510.433 81.7519 509.62C81.3119 508.807 81.0919 507.867 81.0919 506.8C81.0919 505.64 81.3119 504.647 81.7519 503.82C82.2052 502.98 82.8119 502.333 83.5719 501.88C84.3452 501.427 85.2052 501.2 86.1519 501.2C87.1252 501.2 87.9719 501.413 88.6919 501.84C89.4119 502.267 89.9719 502.887 90.3719 503.7C90.7719 504.513 90.9719 505.493 90.9719 506.64C90.9719 506.733 90.9585 506.827 90.9319 506.92C90.9185 507.013 90.8319 507.06 90.6719 507.06H83.0119C82.9585 507.06 82.9119 507.093 82.8719 507.16C82.8452 507.213 82.8319 507.28 82.8319 507.36ZM88.9519 505.96C89.0985 505.96 89.1919 505.947 89.2319 505.92C89.2719 505.88 89.2919 505.8 89.2919 505.68C89.2919 505.107 89.1652 504.573 88.9119 504.08C88.6719 503.573 88.3185 503.167 87.8519 502.86C87.3985 502.553 86.8452 502.4 86.1919 502.4C85.4719 502.4 84.8652 502.573 84.3719 502.92C83.8785 503.253 83.5052 503.693 83.2519 504.24C82.9985 504.787 82.8719 505.36 82.8719 505.96H88.9519ZM95.033 511.66C95.033 511.793 95.0063 511.887 94.953 511.94C94.8996 511.98 94.8063 512 94.673 512H93.633C93.433 512 93.333 511.907 93.333 511.72L93.353 497.44C93.353 497.253 93.433 497.16 93.593 497.16H94.793C94.953 497.16 95.033 497.247 95.033 497.42V511.66ZM102.558 512.2C101.558 512.2 100.671 511.973 99.8981 511.52C99.1381 511.053 98.5448 510.413 98.1181 509.6C97.7048 508.773 97.4981 507.827 97.4981 506.76C97.4981 505.653 97.7115 504.687 98.1381 503.86C98.5781 503.02 99.1781 502.367 99.9381 501.9C100.698 501.433 101.578 501.2 102.578 501.2C103.591 501.2 104.471 501.44 105.218 501.92C105.978 502.387 106.565 503.04 106.978 503.88C107.405 504.707 107.618 505.66 107.618 506.74C107.618 507.807 107.405 508.753 106.978 509.58C106.551 510.393 105.958 511.033 105.198 511.5C104.451 511.967 103.571 512.2 102.558 512.2ZM102.598 510.94C103.291 510.94 103.885 510.773 104.378 510.44C104.871 510.093 105.245 509.607 105.498 508.98C105.765 508.34 105.898 507.58 105.898 506.7C105.898 505.82 105.765 505.067 105.498 504.44C105.231 503.8 104.851 503.307 104.358 502.96C103.865 502.613 103.271 502.44 102.578 502.44C101.898 502.44 101.305 502.613 100.798 502.96C100.291 503.307 99.8981 503.8 99.6181 504.44C99.3515 505.067 99.2181 505.82 99.2181 506.7C99.2181 507.567 99.3515 508.32 99.6181 508.96C99.8981 509.6 100.291 510.093 100.798 510.44C101.305 510.773 101.905 510.94 102.598 510.94ZM111.471 501.4C111.657 501.4 111.751 501.5 111.751 501.7V502.54C111.751 502.647 111.771 502.707 111.811 502.72C111.864 502.72 111.931 502.687 112.011 502.62C112.157 502.46 112.357 502.273 112.611 502.06C112.864 501.833 113.191 501.633 113.591 501.46C114.004 501.287 114.524 501.2 115.151 501.2C115.964 501.2 116.697 501.4 117.351 501.8C118.017 502.187 118.544 502.773 118.931 503.56C119.331 504.347 119.531 505.34 119.531 506.54C119.531 507.74 119.337 508.76 118.951 509.6C118.564 510.44 118.024 511.087 117.331 511.54C116.651 511.98 115.851 512.2 114.931 512.2C114.317 512.2 113.771 512.107 113.291 511.92C112.824 511.72 112.424 511.48 112.091 511.2C111.971 511.093 111.884 511.053 111.831 511.08C111.791 511.093 111.771 511.173 111.771 511.32V515.04C111.771 515.213 111.697 515.3 111.551 515.3H110.311C110.164 515.3 110.091 515.213 110.091 515.04V501.72C110.091 501.6 110.111 501.52 110.151 501.48C110.204 501.427 110.291 501.4 110.411 501.4H111.471ZM111.771 509.66C112.184 510.06 112.604 510.38 113.031 510.62C113.471 510.86 113.957 510.98 114.491 510.98C115.131 510.98 115.697 510.813 116.191 510.48C116.697 510.147 117.091 509.653 117.371 509C117.664 508.347 117.811 507.533 117.811 506.56C117.811 505.587 117.664 504.793 117.371 504.18C117.077 503.567 116.684 503.12 116.191 502.84C115.711 502.56 115.177 502.42 114.591 502.42C114.044 502.42 113.557 502.54 113.131 502.78C112.704 503.02 112.371 503.32 112.131 503.68C111.891 504.027 111.771 504.373 111.771 504.72V509.66ZM123.404 501.4C123.591 501.4 123.684 501.5 123.684 501.7V502.54C123.684 502.647 123.704 502.707 123.744 502.72C123.798 502.72 123.864 502.687 123.944 502.62C124.091 502.46 124.291 502.273 124.544 502.06C124.798 501.833 125.124 501.633 125.524 501.46C125.938 501.287 126.458 501.2 127.084 501.2C127.898 501.2 128.631 501.4 129.284 501.8C129.951 502.187 130.478 502.773 130.864 503.56C131.264 504.347 131.464 505.34 131.464 506.54C131.464 507.74 131.271 508.76 130.884 509.6C130.498 510.44 129.958 511.087 129.264 511.54C128.584 511.98 127.784 512.2 126.864 512.2C126.251 512.2 125.704 512.107 125.224 511.92C124.758 511.72 124.358 511.48 124.024 511.2C123.904 511.093 123.818 511.053 123.764 511.08C123.724 511.093 123.704 511.173 123.704 511.32V515.04C123.704 515.213 123.631 515.3 123.484 515.3H122.244C122.098 515.3 122.024 515.213 122.024 515.04V501.72C122.024 501.6 122.044 501.52 122.084 501.48C122.138 501.427 122.224 501.4 122.344 501.4H123.404ZM123.704 509.66C124.118 510.06 124.538 510.38 124.964 510.62C125.404 510.86 125.891 510.98 126.424 510.98C127.064 510.98 127.631 510.813 128.124 510.48C128.631 510.147 129.024 509.653 129.304 509C129.598 508.347 129.744 507.533 129.744 506.56C129.744 505.587 129.598 504.793 129.304 504.18C129.011 503.567 128.618 503.12 128.124 502.84C127.644 502.56 127.111 502.42 126.524 502.42C125.978 502.42 125.491 502.54 125.064 502.78C124.638 503.02 124.304 503.32 124.064 503.68C123.824 504.027 123.704 504.373 123.704 504.72V509.66ZM134.238 512C134.051 512 133.958 511.913 133.958 511.74V501.66C133.958 501.487 134.031 501.4 134.178 501.4H135.378C135.511 501.4 135.578 501.473 135.578 501.62V502.78C135.578 502.847 135.591 502.887 135.618 502.9C135.658 502.913 135.711 502.893 135.778 502.84C136.205 502.493 136.598 502.2 136.958 501.96C137.331 501.707 137.705 501.52 138.078 501.4C138.465 501.267 138.878 501.2 139.318 501.2C140.105 501.2 140.731 501.38 141.198 501.74C141.678 502.1 141.998 502.507 142.158 502.96C142.185 503.013 142.225 503.033 142.278 503.02C142.331 503.007 142.385 502.973 142.438 502.92C142.865 502.56 143.265 502.253 143.638 502C144.025 501.747 144.411 501.553 144.798 501.42C145.198 501.273 145.618 501.2 146.058 501.2C147.031 501.2 147.785 501.48 148.318 502.04C148.851 502.587 149.118 503.327 149.118 504.26V511.68C149.118 511.893 149.018 512 148.818 512H147.698C147.605 512 147.538 511.98 147.498 511.94C147.458 511.887 147.438 511.82 147.438 511.74V504.6C147.438 503.947 147.278 503.44 146.958 503.08C146.651 502.707 146.165 502.52 145.498 502.52C145.111 502.52 144.738 502.593 144.378 502.74C144.031 502.887 143.711 503.067 143.418 503.28C143.138 503.493 142.885 503.693 142.658 503.88C142.551 503.973 142.478 504.067 142.438 504.16C142.398 504.24 142.378 504.347 142.378 504.48V511.68C142.378 511.893 142.278 512 142.078 512H140.958C140.878 512 140.811 511.98 140.758 511.94C140.718 511.887 140.698 511.82 140.698 511.74V504.6C140.698 503.947 140.545 503.44 140.238 503.08C139.931 502.707 139.445 502.52 138.778 502.52C138.218 502.52 137.705 502.653 137.238 502.92C136.771 503.187 136.238 503.593 135.638 504.14V511.7C135.638 511.9 135.538 512 135.338 512H134.238ZM153.203 507.36C153.203 508.013 153.356 508.613 153.663 509.16C153.983 509.693 154.403 510.12 154.923 510.44C155.456 510.76 156.05 510.92 156.703 510.92C157.37 510.92 157.963 510.787 158.483 510.52C159.003 510.24 159.45 509.82 159.823 509.26C159.876 509.207 159.916 509.18 159.943 509.18C159.983 509.167 160.036 509.173 160.103 509.2L160.943 509.62C161.063 509.687 161.076 509.78 160.983 509.9C160.623 510.433 160.223 510.873 159.783 511.22C159.356 511.553 158.876 511.8 158.343 511.96C157.81 512.12 157.21 512.2 156.543 512.2C155.556 512.2 154.683 511.973 153.923 511.52C153.163 511.067 152.563 510.433 152.123 509.62C151.683 508.807 151.463 507.867 151.463 506.8C151.463 505.64 151.683 504.647 152.123 503.82C152.576 502.98 153.183 502.333 153.943 501.88C154.716 501.427 155.576 501.2 156.523 501.2C157.496 501.2 158.343 501.413 159.063 501.84C159.783 502.267 160.343 502.887 160.743 503.7C161.143 504.513 161.343 505.493 161.343 506.64C161.343 506.733 161.33 506.827 161.303 506.92C161.29 507.013 161.203 507.06 161.043 507.06H153.383C153.33 507.06 153.283 507.093 153.243 507.16C153.216 507.213 153.203 507.28 153.203 507.36ZM159.323 505.96C159.47 505.96 159.563 505.947 159.603 505.92C159.643 505.88 159.663 505.8 159.663 505.68C159.663 505.107 159.536 504.573 159.283 504.08C159.043 503.573 158.69 503.167 158.223 502.86C157.77 502.553 157.216 502.4 156.563 502.4C155.843 502.4 155.236 502.573 154.743 502.92C154.25 503.253 153.876 503.693 153.623 504.24C153.37 504.787 153.243 505.36 153.243 505.96H159.323ZM163.984 512C163.797 512 163.704 511.913 163.704 511.74V501.66C163.704 501.487 163.777 501.4 163.924 501.4H165.124C165.271 501.4 165.344 501.473 165.344 501.62V502.78C165.344 502.847 165.357 502.887 165.384 502.9C165.411 502.913 165.457 502.893 165.524 502.84C165.964 502.493 166.371 502.2 166.744 501.96C167.131 501.707 167.524 501.52 167.924 501.4C168.324 501.267 168.751 501.2 169.204 501.2C170.244 501.2 171.037 501.48 171.584 502.04C172.144 502.6 172.424 503.327 172.424 504.22V511.68C172.424 511.893 172.324 512 172.124 512H171.004C170.911 512 170.844 511.98 170.804 511.94C170.764 511.887 170.744 511.82 170.744 511.74V504.6C170.744 503.947 170.577 503.44 170.244 503.08C169.911 502.707 169.384 502.52 168.664 502.52C168.277 502.52 167.911 502.587 167.564 502.72C167.231 502.84 166.891 503.02 166.544 503.26C166.197 503.487 165.811 503.78 165.384 504.14V511.7C165.384 511.9 165.284 512 165.084 512H163.984ZM177.93 502.66C177.823 502.66 177.77 502.713 177.77 502.82V509.16C177.77 509.787 177.877 510.207 178.09 510.42C178.303 510.633 178.623 510.74 179.05 510.74H180.43C180.497 510.74 180.55 510.76 180.59 510.8C180.63 510.827 180.65 510.88 180.65 510.96L180.63 511.64C180.63 511.773 180.55 511.86 180.39 511.9C180.257 511.927 180.063 511.947 179.81 511.96C179.57 511.973 179.33 511.987 179.09 512C178.863 512 178.67 512 178.51 512C177.67 512 177.057 511.807 176.67 511.42C176.283 511.02 176.09 510.393 176.09 509.54V502.86C176.09 502.727 176.023 502.66 175.89 502.66H174.29C174.143 502.66 174.07 502.587 174.07 502.44V501.6C174.07 501.467 174.137 501.4 174.27 501.4H175.97C176.063 501.4 176.11 501.347 176.11 501.24L176.33 498.06C176.343 497.887 176.417 497.8 176.55 497.8H177.55C177.71 497.8 177.79 497.893 177.79 498.08V501.24C177.79 501.347 177.843 501.4 177.95 501.4H180.47C180.617 501.4 180.69 501.46 180.69 501.58V502.44C180.69 502.587 180.617 502.66 180.47 502.66H177.93Z" fill="white"/>
<g filter="url(#filter11_f_141_474)">
<ellipse cx="112" cy="413.5" rx="46" ry="62.5" fill="#7B52DA" fill-opacity="0.65"/>
</g>
<rect x="76" y="363" width="71" height="100" rx="11" fill="white"/>
<rect x="82" y="368" width="60" height="90" rx="6" fill="url(#paint25_linear_141_474)"/>
<path d="M98 368H127L125 372.5C125 372.5 124.624 373.175 124.1 373.35C123.561 373.53 123 373.5 123 373.5H102C102 373.5 101.27 373.473 100.9 373.35C100.53 373.227 100.268 372.902 100 372.5C99 371 98 368 98 368Z" fill="#C79BFC"/>
<path d="M91 391C91 388.791 92.7909 387 95 387H110V412H95C92.7909 412 91 410.209 91 408V391Z" fill="#956AEF"/>
<path d="M91 424C91 422.343 92.3431 421 94 421H110V427H94C92.3431 427 91 425.657 91 424V424Z" fill="#956AEF"/>
<path d="M92 438C92 436.343 93.3431 435 95 435H110V441H95C93.3431 441 92 439.657 92 438V438Z" fill="#956AEF"/>
<path d="M133 391C133 388.791 131.209 387 129 387H110V412H129C131.209 412 133 410.209 133 408V391Z" fill="#6647E9"/>
<path d="M133 424C133 422.343 131.657 421 130 421H110V427H130C131.657 427 133 425.657 133 424V424Z" fill="#6647E9"/>
<path d="M119 438C119 436.343 117.657 435 116 435H110V441H116C117.657 441 119 439.657 119 438V438Z" fill="#6647E9"/>
<line x1="214" y1="245.5" x2="293" y2="245.5" stroke="url(#paint26_linear_141_474)" stroke-width="3"/>
<g filter="url(#filter12_f_141_474)">
<circle cx="331.5" cy="249.5" r="53.5" fill="#6252DA" fill-opacity="0.62"/>
</g>
<path d="M337.505 201.75C346.437 201.589 359.371 205.725 369.323 215.677C379.261 225.615 381.745 237.181 380.751 247.977C380.375 252.064 379.761 255.39 378.56 258.448C377.359 261.503 375.566 264.304 372.815 267.332C368.744 271.813 364.916 275.187 358.977 275.751C356.491 275.988 354.658 275.32 352.811 274.423C350.968 273.529 349.08 272.387 346.561 271.757C342.496 270.741 338.951 271.234 335.355 273.796C331.889 276.267 331.75 280.017 332.253 283.536C332.496 285.241 332.267 286.802 331.552 288.182C330.836 289.563 329.625 290.781 327.876 291.783C325.599 293.087 322.68 292.931 319.917 292.199C317.162 291.468 314.616 290.178 313.129 289.286C310.144 287.495 302.999 283.321 296.717 272.375C291.908 263.997 290.48 257.671 290.75 248.007C291.129 234.441 294.889 224.051 304.673 214.68C313.9 205.843 324.714 201.979 337.505 201.75Z" fill="url(#paint27_linear_141_474)" stroke="url(#paint28_linear_141_474)" stroke-width="0.5"/>
<circle cx="321.5" cy="225.5" r="9.5" fill="#FF00F2"/>
<circle cx="360.5" cy="253.5" r="9.5" fill="#00B3FF"/>
<circle cx="350" cy="228" r="11" fill="white"/>
<path d="M305.24 307.16C305.333 307.16 305.527 307.16 305.82 307.16C306.113 307.16 306.433 307.167 306.78 307.18C307.127 307.18 307.447 307.18 307.74 307.18C308.033 307.18 308.24 307.18 308.36 307.18C310.213 307.207 311.707 307.5 312.84 308.06C313.987 308.62 314.82 309.433 315.34 310.5C315.873 311.567 316.14 312.887 316.14 314.46C316.14 316.127 315.853 317.52 315.28 318.64C314.707 319.76 313.827 320.6 312.64 321.16C311.453 321.72 309.96 322 308.16 322H305.22C305.033 322 304.94 321.893 304.94 321.68V307.44C304.94 307.347 304.96 307.28 305 307.24C305.053 307.187 305.133 307.16 305.24 307.16ZM307.06 308.62C306.927 308.62 306.86 308.713 306.86 308.9V320.34C306.86 320.487 306.94 320.56 307.1 320.56H307.86C309.34 320.56 310.54 320.367 311.46 319.98C312.38 319.58 313.053 318.94 313.48 318.06C313.92 317.18 314.14 316.013 314.14 314.56C314.14 313.04 313.913 311.853 313.46 311C313.02 310.133 312.34 309.52 311.42 309.16C310.513 308.8 309.36 308.62 307.96 308.62H307.06ZM320.094 317.36C320.094 318.013 320.247 318.613 320.554 319.16C320.874 319.693 321.294 320.12 321.814 320.44C322.347 320.76 322.94 320.92 323.594 320.92C324.26 320.92 324.854 320.787 325.374 320.52C325.894 320.24 326.34 319.82 326.714 319.26C326.767 319.207 326.807 319.18 326.834 319.18C326.874 319.167 326.927 319.173 326.994 319.2L327.834 319.62C327.954 319.687 327.967 319.78 327.874 319.9C327.514 320.433 327.114 320.873 326.674 321.22C326.247 321.553 325.767 321.8 325.234 321.96C324.7 322.12 324.1 322.2 323.434 322.2C322.447 322.2 321.574 321.973 320.814 321.52C320.054 321.067 319.454 320.433 319.014 319.62C318.574 318.807 318.354 317.867 318.354 316.8C318.354 315.64 318.574 314.647 319.014 313.82C319.467 312.98 320.074 312.333 320.834 311.88C321.607 311.427 322.467 311.2 323.414 311.2C324.387 311.2 325.234 311.413 325.954 311.84C326.674 312.267 327.234 312.887 327.634 313.7C328.034 314.513 328.234 315.493 328.234 316.64C328.234 316.733 328.22 316.827 328.194 316.92C328.18 317.013 328.094 317.06 327.934 317.06H320.274C320.22 317.06 320.174 317.093 320.134 317.16C320.107 317.213 320.094 317.28 320.094 317.36ZM326.214 315.96C326.36 315.96 326.454 315.947 326.494 315.92C326.534 315.88 326.554 315.8 326.554 315.68C326.554 315.107 326.427 314.573 326.174 314.08C325.934 313.573 325.58 313.167 325.114 312.86C324.66 312.553 324.107 312.4 323.454 312.4C322.734 312.4 322.127 312.573 321.634 312.92C321.14 313.253 320.767 313.693 320.514 314.24C320.26 314.787 320.134 315.36 320.134 315.96H326.214ZM336.955 313.74C336.688 313.34 336.315 313.013 335.835 312.76C335.355 312.507 334.781 312.38 334.115 312.38C333.395 312.38 332.795 312.533 332.315 312.84C331.848 313.147 331.615 313.56 331.615 314.08C331.615 314.36 331.721 314.627 331.935 314.88C332.148 315.12 332.581 315.347 333.235 315.56L335.775 316.32C336.695 316.573 337.355 316.94 337.755 317.42C338.168 317.9 338.375 318.453 338.375 319.08C338.375 319.707 338.188 320.253 337.815 320.72C337.441 321.187 336.928 321.553 336.275 321.82C335.621 322.073 334.881 322.2 334.055 322.2C333.001 322.2 332.081 321.993 331.295 321.58C330.508 321.153 329.948 320.627 329.615 320C329.575 319.933 329.555 319.873 329.555 319.82C329.555 319.767 329.588 319.72 329.655 319.68L330.435 319.24C330.501 319.2 330.561 319.187 330.615 319.2C330.668 319.2 330.708 319.22 330.735 319.26C330.961 319.607 331.221 319.907 331.515 320.16C331.821 320.413 332.181 320.613 332.595 320.76C333.021 320.907 333.515 320.98 334.075 320.98C334.581 320.967 335.041 320.893 335.455 320.76C335.868 320.627 336.195 320.433 336.435 320.18C336.675 319.913 336.795 319.607 336.795 319.26C336.795 318.9 336.648 318.593 336.355 318.34C336.061 318.073 335.555 317.84 334.835 317.64L332.775 317.06C331.775 316.793 331.068 316.433 330.655 315.98C330.255 315.527 330.048 314.993 330.035 314.38C330.035 313.74 330.208 313.187 330.555 312.72C330.901 312.24 331.381 311.867 331.995 311.6C332.621 311.333 333.335 311.2 334.135 311.2C335.028 311.2 335.821 311.373 336.515 311.72C337.221 312.053 337.755 312.5 338.115 313.06C338.155 313.113 338.175 313.167 338.175 313.22C338.175 313.26 338.148 313.3 338.095 313.34L337.255 313.8C337.201 313.827 337.148 313.84 337.095 313.84C337.055 313.827 337.008 313.793 336.955 313.74ZM342.509 321.66C342.509 321.793 342.482 321.887 342.429 321.94C342.389 321.98 342.296 322 342.149 322H341.129C341.009 322 340.929 321.98 340.889 321.94C340.849 321.9 340.829 321.827 340.829 321.72V311.68C340.829 311.493 340.909 311.4 341.069 311.4H342.289C342.436 311.4 342.509 311.487 342.509 311.66V321.66ZM342.589 309.12C342.589 309.373 342.469 309.5 342.229 309.5H341.069C340.949 309.5 340.869 309.473 340.829 309.42C340.789 309.353 340.769 309.267 340.769 309.16V307.48C340.769 307.267 340.862 307.16 341.049 307.16H342.309C342.496 307.16 342.589 307.26 342.589 307.46V309.12ZM355.194 311.22C355.328 311.22 355.421 311.247 355.474 311.3C355.541 311.353 355.574 311.433 355.574 311.54V312.24C355.574 312.36 355.541 312.453 355.474 312.52C355.421 312.587 355.321 312.613 355.174 312.6C354.961 312.6 354.774 312.613 354.614 312.64C354.454 312.667 354.294 312.713 354.134 312.78C353.814 312.9 353.681 313.053 353.734 313.24C353.801 313.387 353.874 313.567 353.954 313.78C354.034 313.98 354.074 314.253 354.074 314.6C354.074 315.187 353.921 315.727 353.614 316.22C353.308 316.7 352.828 317.087 352.174 317.38C351.534 317.673 350.721 317.82 349.734 317.82C349.054 317.82 348.521 317.86 348.134 317.94C347.748 318.02 347.474 318.127 347.314 318.26C347.154 318.393 347.074 318.533 347.074 318.68C347.074 318.893 347.214 319.047 347.494 319.14C347.788 319.233 348.254 319.3 348.894 319.34L351.474 319.48C352.648 319.547 353.508 319.827 354.054 320.32C354.601 320.813 354.874 321.46 354.874 322.26C354.874 323.26 354.428 324.047 353.534 324.62C352.654 325.207 351.394 325.5 349.754 325.5C348.061 325.5 346.768 325.253 345.874 324.76C344.994 324.28 344.554 323.587 344.554 322.68C344.554 322.213 344.714 321.793 345.034 321.42C345.368 321.047 345.834 320.713 346.434 320.42C346.581 320.353 346.581 320.28 346.434 320.2C346.141 320.067 345.914 319.907 345.754 319.72C345.594 319.52 345.514 319.287 345.514 319.02C345.514 318.833 345.574 318.647 345.694 318.46C345.814 318.273 345.988 318.1 346.214 317.94C346.454 317.78 346.741 317.64 347.074 317.52C347.154 317.493 347.194 317.46 347.194 317.42C347.194 317.38 347.161 317.333 347.094 317.28C346.508 316.987 346.074 316.62 345.794 316.18C345.514 315.74 345.374 315.213 345.374 314.6C345.374 313.56 345.768 312.74 346.554 312.14C347.341 311.54 348.454 311.24 349.894 311.24C350.588 311.24 351.174 311.32 351.654 311.48C352.148 311.64 352.561 311.86 352.894 312.14C352.974 312.207 353.048 312.24 353.114 312.24C353.181 312.24 353.248 312.207 353.314 312.14C353.474 311.993 353.654 311.853 353.854 311.72C354.054 311.573 354.268 311.453 354.494 311.36C354.734 311.267 354.968 311.22 355.194 311.22ZM349.734 316.76C350.668 316.76 351.361 316.573 351.814 316.2C352.268 315.813 352.494 315.273 352.494 314.58C352.494 313.873 352.268 313.32 351.814 312.92C351.361 312.507 350.668 312.3 349.734 312.3C348.841 312.3 348.148 312.507 347.654 312.92C347.174 313.32 346.934 313.873 346.934 314.58C346.934 315.273 347.174 315.813 347.654 316.2C348.148 316.573 348.841 316.76 349.734 316.76ZM347.974 320.7C347.734 320.687 347.468 320.76 347.174 320.92C346.881 321.067 346.621 321.273 346.394 321.54C346.168 321.807 346.054 322.12 346.054 322.48C346.054 322.893 346.194 323.247 346.474 323.54C346.768 323.847 347.201 324.073 347.774 324.22C348.361 324.38 349.081 324.46 349.934 324.46C351.041 324.46 351.881 324.293 352.454 323.96C353.028 323.64 353.314 323.14 353.314 322.46C353.314 322.02 353.161 321.66 352.854 321.38C352.561 321.1 352.048 320.94 351.314 320.9L347.974 320.7ZM357.925 322C357.739 322 357.645 321.913 357.645 321.74V311.66C357.645 311.487 357.719 311.4 357.865 311.4H359.065C359.212 311.4 359.285 311.473 359.285 311.62V312.78C359.285 312.847 359.299 312.887 359.325 312.9C359.352 312.913 359.399 312.893 359.465 312.84C359.905 312.493 360.312 312.2 360.685 311.96C361.072 311.707 361.465 311.52 361.865 311.4C362.265 311.267 362.692 311.2 363.145 311.2C364.185 311.2 364.979 311.48 365.525 312.04C366.085 312.6 366.365 313.327 366.365 314.22V321.68C366.365 321.893 366.265 322 366.065 322H364.945C364.852 322 364.785 321.98 364.745 321.94C364.705 321.887 364.685 321.82 364.685 321.74V314.6C364.685 313.947 364.519 313.44 364.185 313.08C363.852 312.707 363.325 312.52 362.605 312.52C362.219 312.52 361.852 312.587 361.505 312.72C361.172 312.84 360.832 313.02 360.485 313.26C360.139 313.487 359.752 313.78 359.325 314.14V321.7C359.325 321.9 359.225 322 359.025 322H357.925Z" fill="white"/>
<defs>
<filter id="filter0_f_141_474" x="198.4" y="0.393652" width="33.2" height="845.206" filterUnits="userSpaceOnUse" color-interpolation-filters="sRGB">
<feFlood flood-opacity="0" result="BackgroundImageFix"/>
<feBlend mode="normal" in="SourceGraphic" in2="BackgroundImageFix" result="shape"/>
<feGaussianBlur stdDeviation="6.8" result="effect1_foregroundBlur_141_474"/>
</filter>
<filter id="filter1_f_141_474" x="204.401" y="232.4" width="80.2" height="30.2001" filterUnits="userSpaceOnUse" color-interpolation-filters="sRGB">
<feFlood flood-opacity="0" result="BackgroundImageFix"/>
<feBlend mode="normal" in="SourceGraphic" in2="BackgroundImageFix" result="shape"/>
<feGaussianBlur stdDeviation="6.8" result="effect1_foregroundBlur_141_474"/>
</filter>
<filter id="filter2_f_141_474" x="144.4" y="404.4" width="80.2" height="30.2001" filterUnits="userSpaceOnUse" color-interpolation-filters="sRGB">
<feFlood flood-opacity="0" result="BackgroundImageFix"/>
<feBlend mode="normal" in="SourceGraphic" in2="BackgroundImageFix" result="shape"/>
<feGaussianBlur stdDeviation="6.8" result="effect1_foregroundBlur_141_474"/>
</filter>
<filter id="filter3_f_141_474" x="147.4" y="707.4" width="80.2" height="30.2001" filterUnits="userSpaceOnUse" color-interpolation-filters="sRGB">
<feFlood flood-opacity="0" result="BackgroundImageFix"/>
<feBlend mode="normal" in="SourceGraphic" in2="BackgroundImageFix" result="shape"/>
<feGaussianBlur stdDeviation="6.8" result="effect1_foregroundBlur_141_474"/>
</filter>
<filter id="filter4_f_141_474" x="203.401" y="541.399" width="92.2" height="30.2001" filterUnits="userSpaceOnUse" color-interpolation-filters="sRGB">
<feFlood flood-opacity="0" result="BackgroundImageFix"/>
<feBlend mode="normal" in="SourceGraphic" in2="BackgroundImageFix" result="shape"/>
<feGaussianBlur stdDeviation="6.8" result="effect1_foregroundBlur_141_474"/>
</filter>
<filter id="filter5_f_141_474" x="141.4" y="87.3998" width="80.2" height="30.2002" filterUnits="userSpaceOnUse" color-interpolation-filters="sRGB">
<feFlood flood-opacity="0" result="BackgroundImageFix"/>
<feBlend mode="normal" in="SourceGraphic" in2="BackgroundImageFix" result="shape"/>
<feGaussianBlur stdDeviation="6.8" result="effect1_foregroundBlur_141_474"/>
</filter>
<filter id="filter6_f_141_474" x="27.8" y="11.8" width="161.4" height="161.4" filterUnits="userSpaceOnUse" color-interpolation-filters="sRGB">
<feFlood flood-opacity="0" result="BackgroundImageFix"/>
<feBlend mode="normal" in="SourceGraphic" in2="BackgroundImageFix" result="shape"/>
<feGaussianBlur stdDeviation="21.1" result="effect1_foregroundBlur_141_474"/>
</filter>
<filter id="filter7_f_141_474" x="95.7" y="142.2" width="26.6" height="4.6" filterUnits="userSpaceOnUse" color-interpolation-filters="sRGB">
<feFlood flood-opacity="0" result="BackgroundImageFix"/>
<feBlend mode="normal" in="SourceGraphic" in2="BackgroundImageFix" result="shape"/>
<feGaussianBlur stdDeviation="0.4" result="effect1_foregroundBlur_141_474"/>
</filter>
<filter id="filter8_f_141_474" x="93.1" y="131.1" width="31.8" height="12.8" filterUnits="userSpaceOnUse" color-interpolation-filters="sRGB">
<feFlood flood-opacity="0" result="BackgroundImageFix"/>
<feBlend mode="normal" in="SourceGraphic" in2="BackgroundImageFix" result="shape"/>
<feGaussianBlur stdDeviation="0.45" result="effect1_foregroundBlur_141_474"/>
</filter>
<filter id="filter9_f_141_474" x="20.7" y="625.7" width="177.6" height="198.6" filterUnits="userSpaceOnUse" color-interpolation-filters="sRGB">
<feFlood flood-opacity="0" result="BackgroundImageFix"/>
<feBlend mode="normal" in="SourceGraphic" in2="BackgroundImageFix" result="shape"/>
<feGaussianBlur stdDeviation="20.65" result="effect1_foregroundBlur_141_474"/>
</filter>
<filter id="filter10_f_141_474" x="243.7" y="458.7" width="177.6" height="198.6" filterUnits="userSpaceOnUse" color-interpolation-filters="sRGB">
<feFlood flood-opacity="0" result="BackgroundImageFix"/>
<feBlend mode="normal" in="SourceGraphic" in2="BackgroundImageFix" result="shape"/>
<feGaussianBlur stdDeviation="20.65" result="effect1_foregroundBlur_141_474"/>
</filter>
<filter id="filter11_f_141_474" x="24.7" y="309.7" width="174.6" height="207.6" filterUnits="userSpaceOnUse" color-interpolation-filters="sRGB">
<feFlood flood-opacity="0" result="BackgroundImageFix"/>
<feBlend mode="normal" in="SourceGraphic" in2="BackgroundImageFix" result="shape"/>
<feGaussianBlur stdDeviation="20.65" result="effect1_foregroundBlur_141_474"/>
</filter>
<filter id="filter12_f_141_474" x="236.7" y="154.7" width="189.6" height="189.6" filterUnits="userSpaceOnUse" color-interpolation-filters="sRGB">
<feFlood flood-opacity="0" result="BackgroundImageFix"/>
<feBlend mode="normal" in="SourceGraphic" in2="BackgroundImageFix" result="shape"/>
<feGaussianBlur stdDeviation="20.65" result="effect1_foregroundBlur_141_474"/>
</filter>
<linearGradient id="paint0_linear_141_474" x1="211.469" y1="-11.696" x2="212.5" y2="832" gradientUnits="userSpaceOnUse">
<stop stop-color="#0A0A30" stop-opacity="0.18"/>
<stop offset="0.066375" stop-color="white"/>
<stop offset="0.965755" stop-color="white"/>
<stop offset="1" stop-color="#0A0A30" stop-opacity="0.18"/>
</linearGradient>
<linearGradient id="paint1_linear_141_474" x1="216.337" y1="249.5" x2="271.001" y2="249.5" gradientUnits="userSpaceOnUse">
<stop stop-color="#0A0A30" stop-opacity="0.18"/>
<stop offset="0.066375" stop-color="white"/>
<stop offset="0.965755" stop-color="white"/>
<stop offset="1" stop-color="#0A0A30" stop-opacity="0.18"/>
</linearGradient>
<linearGradient id="paint2_linear_141_474" x1="156.336" y1="421.5" x2="211" y2="421.5" gradientUnits="userSpaceOnUse">
<stop stop-color="#0A0A30" stop-opacity="0.18"/>
<stop offset="0.066375" stop-color="white"/>
<stop offset="0.965755" stop-color="white"/>
<stop offset="1" stop-color="#0A0A30" stop-opacity="0.18"/>
</linearGradient>
<linearGradient id="paint3_linear_141_474" x1="159.335" y1="724.5" x2="214" y2="724.5" gradientUnits="userSpaceOnUse">
<stop stop-color="#0A0A30" stop-opacity="0.18"/>
<stop offset="0.066375" stop-color="white"/>
<stop offset="0.965755" stop-color="white"/>
<stop offset="1" stop-color="#0A0A30" stop-opacity="0.18"/>
</linearGradient>
<linearGradient id="paint4_linear_141_474" x1="214.96" y1="558.499" x2="282.001" y2="558.499" gradientUnits="userSpaceOnUse">
<stop stop-color="#0A0A30" stop-opacity="0.18"/>
<stop offset="0.066375" stop-color="white"/>
<stop offset="0.965755" stop-color="white"/>
<stop offset="1" stop-color="#0A0A30" stop-opacity="0.18"/>
</linearGradient>
<linearGradient id="paint5_linear_141_474" x1="153.336" y1="104.5" x2="208" y2="104.5" gradientUnits="userSpaceOnUse">
<stop stop-color="#0A0A30" stop-opacity="0.18"/>
<stop offset="0.066375" stop-color="white"/>
<stop offset="0.965755" stop-color="white"/>
<stop offset="1" stop-color="#0A0A30" stop-opacity="0.18"/>
</linearGradient>
<linearGradient id="paint6_linear_141_474" x1="211.5" y1="14.0092" x2="214.5" y2="825.002" gradientUnits="userSpaceOnUse">
<stop stop-color="#0A0A30" stop-opacity="0.5"/>
<stop offset="0.0889423" stop-color="#BA79DF"/>
<stop offset="0.177885" stop-color="#8072D3"/>
<stop offset="0.379808" stop-color="#8C80D3"/>
<stop offset="0.629808" stop-color="#8571E2"/>
<stop offset="0.875" stop-color="#7068D7"/>
<stop offset="0.947588" stop-color="#6D62D8"/>
<stop offset="1" stop-color="#0A0A30" stop-opacity="0.5"/>
</linearGradient>
<linearGradient id="paint7_linear_141_474" x1="0" y1="0.5" x2="79" y2="0.5" gradientUnits="userSpaceOnUse">
<stop stop-color="#B078DD"/>
<stop offset="1" stop-color="#5B3479" stop-opacity="0"/>
</linearGradient>
<linearGradient id="paint8_linear_141_474" x1="108.5" y1="58" x2="108.5" y2="132" gradientUnits="userSpaceOnUse">
<stop stop-color="#FB9DE4"/>
<stop offset="1" stop-color="#A843EA"/>
</linearGradient>
<linearGradient id="paint9_linear_141_474" x1="108.5" y1="58" x2="108.5" y2="132" gradientUnits="userSpaceOnUse">
<stop stop-color="#FDE4FC"/>
<stop offset="1" stop-color="#F4C1FA"/>
</linearGradient>
<linearGradient id="paint10_linear_141_474" x1="93" y1="138.5" x2="125" y2="138.5" gradientUnits="userSpaceOnUse">
<stop stop-color="#713DD4"/>
<stop offset="1" stop-color="#3823CC"/>
</linearGradient>
<linearGradient id="paint11_linear_141_474" x1="124" y1="137.5" x2="94" y2="134" gradientUnits="userSpaceOnUse">
<stop stop-color="#4D10E7"/>
<stop offset="1" stop-color="#3F21DD"/>
</linearGradient>
<linearGradient id="paint12_linear_141_474" x1="215" y1="720.5" x2="153" y2="720.5" gradientUnits="userSpaceOnUse">
<stop stop-color="#7068D7"/>
<stop offset="1" stop-color="#252464" stop-opacity="0"/>
</linearGradient>
<linearGradient id="paint13_linear_141_474" x1="135.5" y1="726.5" x2="143.5" y2="757.5" gradientUnits="userSpaceOnUse">
<stop stop-color="#BFA5FF"/>
<stop offset="1" stop-color="#744DEA"/>
</linearGradient>
<linearGradient id="paint14_linear_141_474" x1="92.1637" y1="697.036" x2="121.153" y2="747.992" gradientUnits="userSpaceOnUse">
<stop stop-color="#E6CDFF"/>
<stop offset="1" stop-color="#966EFF"/>
</linearGradient>
<linearGradient id="paint15_linear_141_474" x1="105.5" y1="677.5" x2="121" y2="694" gradientUnits="userSpaceOnUse">
<stop stop-color="#9E59FD"/>
<stop offset="1" stop-color="#8143FD"/>
</linearGradient>
<linearGradient id="paint16_linear_141_474" x1="216" y1="558.5" x2="295" y2="558.5" gradientUnits="userSpaceOnUse">
<stop stop-color="#8270E0"/>
<stop offset="1" stop-color="#2B2A61" stop-opacity="0"/>
</linearGradient>
<linearGradient id="paint17_linear_141_474" x1="295.5" y1="515.5" x2="374.5" y2="549.5" gradientUnits="userSpaceOnUse">
<stop stop-color="#8674E7"/>
<stop offset="1" stop-color="#5B4CF0"/>
</linearGradient>
<linearGradient id="paint18_linear_141_474" x1="297.628" y1="528.578" x2="374.147" y2="535.44" gradientUnits="userSpaceOnUse">
<stop stop-color="#4634E3"/>
<stop offset="1" stop-color="#3624DB"/>
</linearGradient>
<radialGradient id="paint19_radial_141_474" cx="0" cy="0" r="1" gradientUnits="userSpaceOnUse" gradientTransform="translate(308 531) rotate(90) scale(4)">
<stop offset="0.8" stop-color="#D87AC3"/>
<stop offset="1" stop-color="#F195A7"/>
</radialGradient>
<linearGradient id="paint20_linear_141_474" x1="295.5" y1="557.605" x2="380.084" y2="585.272" gradientUnits="userSpaceOnUse">
<stop stop-color="#7261EE"/>
<stop offset="1" stop-color="#3F2CE1"/>
</linearGradient>
<linearGradient id="paint21_linear_141_474" x1="297.628" y1="574.641" x2="374.442" y2="579.606" gradientUnits="userSpaceOnUse">
<stop stop-color="#3C26DD"/>
<stop offset="1" stop-color="#2413CF"/>
</linearGradient>
<radialGradient id="paint22_radial_141_474" cx="0" cy="0" r="1" gradientUnits="userSpaceOnUse" gradientTransform="translate(308 572) rotate(90) scale(3)">
<stop offset="0.8" stop-color="#D87AC3"/>
<stop offset="1" stop-color="#F195A7"/>
</radialGradient>
<radialGradient id="paint23_radial_141_474" cx="0" cy="0" r="1" gradientUnits="userSpaceOnUse" gradientTransform="translate(308 587) rotate(90) scale(3)">
<stop offset="0.8" stop-color="#D87AC3"/>
<stop offset="1" stop-color="#F195A7"/>
</radialGradient>
<linearGradient id="paint24_linear_141_474" x1="0" y1="0.5" x2="79" y2="0.5" gradientUnits="userSpaceOnUse">
<stop stop-color="#887ADA"/>
<stop offset="1" stop-color="#3A2979" stop-opacity="0"/>
</linearGradient>
<linearGradient id="paint25_linear_141_474" x1="112" y1="368" x2="107.5" y2="453.5" gradientUnits="userSpaceOnUse">
<stop stop-color="#4A2ED5"/>
<stop offset="1" stop-color="#6423D1"/>
</linearGradient>
<linearGradient id="paint26_linear_141_474" x1="214" y1="247.5" x2="293" y2="247.5" gradientUnits="userSpaceOnUse">
<stop stop-color="#867AD3"/>
<stop offset="1" stop-color="#322B7D" stop-opacity="0"/>
</linearGradient>
<linearGradient id="paint27_linear_141_474" x1="336.082" y1="202.989" x2="336.082" y2="292.94" gradientUnits="userSpaceOnUse">
<stop stop-color="#CC56FC"/>
<stop offset="1" stop-color="#5525E3"/>
</linearGradient>
<linearGradient id="paint28_linear_141_474" x1="335.836" y1="293.008" x2="335.836" y2="202.993" gradientUnits="userSpaceOnUse">
<stop stop-color="#6756E5"/>
<stop offset="1" stop-color="#9B83E7"/>
</linearGradient>
</defs>
</svg>
