<svg width="516" height="672" viewBox="0 0 516 672" fill="none" xmlns="http://www.w3.org/2000/svg">
<ellipse cx="258" cy="356" rx="258" ry="231" fill="url(#paint0_radial_142_539)" fill-opacity="0.95"/>
<path d="M32.7374 381.152C32.7374 381.152 77.8944 423.896 108.571 442.094C163.136 474.463 196.591 479.004 252.923 477.241C287.408 476.162 302.636 473.828 340.148 459.646C377.659 445.464 411.364 435.397 445.031 404.611C459.477 391.402 467.727 383.313 479.479 363.627C490.938 344.432 503.998 306.661 503.998 306.661" stroke="white" stroke-opacity="0.15"/>
<path d="M65.4119 181.747C65.4119 181.747 76.7372 242.62 90.7635 275.175C115.713 333.082 139.952 356.165 186.262 387.397C214.612 406.516 228.217 413.451 266.654 423.692C305.092 433.932 338.066 445.306 383.115 439.842C402.444 437.498 413.801 435.717 434.749 426.555C455.174 417.621 487.739 394.54 487.739 394.54" stroke="white" stroke-opacity="0.15"/>
<rect x="451.228" y="499.559" width="0.772391" height="22.6102" fill="black"/>
<rect x="358" y="452" width="93.4594" height="184" rx="15" fill="url(#paint1_linear_142_539)"/>
<rect x="361.862" y="455.898" width="85.7355" height="176.203" rx="11" fill="white"/>
<path d="M384.261 455.898H425.198V455.898C425.198 459.343 422.405 462.135 418.961 462.135H390.499C387.054 462.135 384.261 459.343 384.261 455.898V455.898Z" fill="#293B5C"/>
<rect x="371.903" y="472.271" width="22.3994" height="9.35593" rx="4.67797" fill="#E7EAFF"/>
<rect x="371.131" y="532.305" width="67.9704" height="4.67797" rx="2.33898" fill="#E7EAFF"/>
<rect x="370.358" y="542.441" width="54.8398" height="4.67797" rx="2.33898" fill="#E7EAFF"/>
<rect x="371.131" y="593.898" width="67.9704" height="4.67797" rx="2.33898" fill="#E7EAFF"/>
<rect x="371.131" y="603.254" width="45.5711" height="4.67797" rx="2.33898" fill="#E7EAFF"/>
<rect x="371.131" y="618.068" width="67.1981" height="7.79661" rx="3.89831" fill="#E7EAFF"/>
<rect x="429.06" y="473.051" width="9.2687" height="9.35593" rx="3" fill="#E7EAFF"/>
<rect x="372.403" y="496.941" width="65.4257" height="26.2881" rx="4.5" fill="url(#paint2_linear_142_539)" stroke="url(#paint3_linear_142_539)"/>
<rect x="372.403" y="560.093" width="65.4257" height="26.2881" rx="4.5" fill="url(#paint4_linear_142_539)" stroke="url(#paint5_linear_142_539)"/>
<path d="M355.96 416.16C355.613 415.773 355.187 415.44 354.68 415.16C354.173 414.88 353.513 414.74 352.7 414.74C351.753 414.74 351.013 414.94 350.48 415.34C349.96 415.727 349.7 416.267 349.7 416.96C349.7 417.147 349.747 417.367 349.84 417.62C349.933 417.873 350.12 418.12 350.4 418.36C350.693 418.587 351.113 418.8 351.66 419L354.66 419.94C355.873 420.313 356.74 420.847 357.26 421.54C357.793 422.22 358.06 423.02 358.06 423.94C358.06 424.82 357.833 425.58 357.38 426.22C356.94 426.86 356.307 427.353 355.48 427.7C354.667 428.033 353.693 428.2 352.56 428.2C351.72 428.2 350.94 428.107 350.22 427.92C349.513 427.72 348.88 427.433 348.32 427.06C347.773 426.673 347.313 426.207 346.94 425.66C346.887 425.567 346.867 425.48 346.88 425.4C346.893 425.32 346.953 425.24 347.06 425.16L348.04 424.48C348.187 424.387 348.3 424.347 348.38 424.36C348.46 424.373 348.533 424.42 348.6 424.5C348.933 424.927 349.267 425.287 349.6 425.58C349.947 425.873 350.34 426.093 350.78 426.24C351.233 426.373 351.78 426.44 352.42 426.44C353.42 426.44 354.22 426.267 354.82 425.92C355.433 425.56 355.74 424.993 355.74 424.22C355.74 423.913 355.68 423.64 355.56 423.4C355.44 423.147 355.233 422.92 354.94 422.72C354.647 422.507 354.22 422.3 353.66 422.1L350.64 421.12C349.88 420.867 349.26 420.54 348.78 420.14C348.313 419.74 347.967 419.287 347.74 418.78C347.513 418.273 347.4 417.753 347.4 417.22C347.4 416.367 347.62 415.62 348.06 414.98C348.5 414.34 349.113 413.847 349.9 413.5C350.687 413.14 351.607 412.96 352.66 412.96C353.367 412.96 354.013 413.047 354.6 413.22C355.2 413.38 355.747 413.613 356.24 413.92C356.733 414.213 357.153 414.567 357.5 414.98C357.553 415.047 357.587 415.113 357.6 415.18C357.627 415.247 357.593 415.32 357.5 415.4L356.36 416.28C356.28 416.333 356.213 416.353 356.16 416.34C356.12 416.313 356.053 416.253 355.96 416.16ZM360.767 428C360.554 428 360.447 427.893 360.447 427.68V417.7C360.447 417.5 360.534 417.4 360.707 417.4H362.267C362.427 417.4 362.507 417.487 362.507 417.66V418.76C362.507 418.827 362.527 418.873 362.567 418.9C362.607 418.913 362.654 418.887 362.707 418.82C363.12 418.487 363.507 418.2 363.867 417.96C364.227 417.707 364.594 417.52 364.967 417.4C365.354 417.267 365.767 417.2 366.207 417.2C366.967 417.2 367.587 417.38 368.067 417.74C368.547 418.087 368.874 418.507 369.047 419C369.074 419.053 369.107 419.073 369.147 419.06C369.2 419.047 369.254 419.013 369.307 418.96C369.694 418.6 370.08 418.293 370.467 418.04C370.854 417.773 371.247 417.567 371.647 417.42C372.047 417.273 372.467 417.2 372.907 417.2C373.867 417.2 374.614 417.48 375.147 418.04C375.694 418.6 375.967 419.353 375.967 420.3V427.64C375.967 427.88 375.847 428 375.607 428H374.127C374.034 428 373.96 427.98 373.907 427.94C373.867 427.887 373.847 427.8 373.847 427.68V420.68C373.847 420.093 373.7 419.633 373.407 419.3C373.114 418.967 372.674 418.8 372.087 418.8C371.74 418.8 371.407 418.867 371.087 419C370.767 419.133 370.474 419.3 370.207 419.5C369.954 419.687 369.727 419.873 369.527 420.06C369.434 420.153 369.367 420.24 369.327 420.32C369.287 420.4 369.267 420.507 369.267 420.64V427.64C369.267 427.88 369.147 428 368.907 428H367.447C367.354 428 367.28 427.98 367.227 427.94C367.174 427.887 367.147 427.8 367.147 427.68V420.68C367.147 420.093 367.007 419.633 366.727 419.3C366.447 418.967 366 418.8 365.387 418.8C364.88 418.8 364.414 418.927 363.987 419.18C363.574 419.42 363.1 419.793 362.567 420.3V427.66C362.567 427.887 362.44 428 362.187 428H360.767ZM384.63 426.8C384.163 427.253 383.65 427.6 383.09 427.84C382.53 428.08 381.897 428.2 381.19 428.2C380.163 428.2 379.357 427.933 378.77 427.4C378.183 426.867 377.89 426.167 377.89 425.3C377.89 424.567 378.097 423.94 378.51 423.42C378.937 422.9 379.55 422.487 380.35 422.18C381.163 421.873 382.15 421.693 383.31 421.64L384.61 421.54C384.69 421.527 384.763 421.5 384.83 421.46C384.897 421.42 384.93 421.347 384.93 421.24V420.74C384.93 420.087 384.73 419.573 384.33 419.2C383.93 418.813 383.383 418.62 382.69 418.62C382.17 418.62 381.69 418.74 381.25 418.98C380.81 419.22 380.417 419.593 380.07 420.1C380.03 420.167 379.99 420.213 379.95 420.24C379.91 420.267 379.837 420.267 379.73 420.24L378.37 419.84C378.317 419.813 378.277 419.78 378.25 419.74C378.237 419.687 378.257 419.593 378.31 419.46C378.697 418.74 379.263 418.187 380.01 417.8C380.77 417.4 381.697 417.2 382.79 417.2C383.75 417.2 384.537 417.34 385.15 417.62C385.763 417.887 386.217 418.28 386.51 418.8C386.817 419.307 386.97 419.907 386.97 420.6V427.66C386.97 427.793 386.943 427.887 386.89 427.94C386.85 427.98 386.777 428 386.67 428H385.31C385.217 428 385.143 427.967 385.09 427.9C385.037 427.82 385.003 427.72 384.99 427.6L384.97 426.84C384.93 426.627 384.817 426.613 384.63 426.8ZM384.93 423.02C384.93 422.793 384.837 422.693 384.65 422.72L383.57 422.8C383.037 422.827 382.55 422.9 382.11 423.02C381.67 423.127 381.29 423.273 380.97 423.46C380.663 423.647 380.417 423.873 380.23 424.14C380.057 424.393 379.97 424.693 379.97 425.04C379.97 425.56 380.15 425.973 380.51 426.28C380.883 426.573 381.383 426.72 382.01 426.72C382.41 426.72 382.783 426.653 383.13 426.52C383.49 426.373 383.803 426.193 384.07 425.98C384.337 425.753 384.543 425.52 384.69 425.28C384.85 425.04 384.93 424.807 384.93 424.58V423.02ZM390.005 428C389.898 428 389.818 427.973 389.765 427.92C389.712 427.867 389.685 427.787 389.685 427.68V417.7C389.685 417.5 389.772 417.4 389.945 417.4H391.485C391.645 417.4 391.725 417.487 391.725 417.66V418.92C391.725 419 391.745 419.047 391.785 419.06C391.838 419.073 391.892 419.047 391.945 418.98C392.278 418.58 392.612 418.253 392.945 418C393.292 417.733 393.638 417.533 393.985 417.4C394.332 417.267 394.678 417.2 395.025 417.2C395.492 417.2 395.725 417.293 395.725 417.48V419.04C395.725 419.2 395.652 419.267 395.505 419.24C395.345 419.2 395.172 419.173 394.985 419.16C394.812 419.147 394.632 419.14 394.445 419.14C394.165 419.14 393.872 419.2 393.565 419.32C393.258 419.44 392.972 419.607 392.705 419.82C392.452 420.02 392.238 420.247 392.065 420.5C391.892 420.753 391.805 421.013 391.805 421.28V427.66C391.805 427.887 391.678 428 391.425 428H390.005ZM400.935 418.92C400.815 418.92 400.755 418.987 400.755 419.12V424.98C400.755 425.553 400.862 425.947 401.075 426.16C401.288 426.36 401.615 426.46 402.055 426.46H403.335C403.415 426.46 403.475 426.487 403.515 426.54C403.555 426.58 403.575 426.633 403.575 426.7V427.56C403.575 427.733 403.475 427.847 403.275 427.9C403.102 427.927 402.888 427.947 402.635 427.96C402.382 427.973 402.128 427.987 401.875 428C401.635 428 401.422 428 401.235 428C400.368 428 399.715 427.8 399.275 427.4C398.848 426.987 398.635 426.353 398.635 425.5V419.16C398.635 419 398.568 418.92 398.435 418.92H396.935C396.762 418.92 396.675 418.84 396.675 418.68V417.62C396.675 417.473 396.755 417.4 396.915 417.4H398.515C398.622 417.4 398.675 417.34 398.675 417.22L398.915 414.08C398.928 413.893 399.008 413.8 399.155 413.8H400.535C400.708 413.8 400.795 413.907 400.795 414.12V417.22C400.795 417.34 400.855 417.4 400.975 417.4H403.375C403.535 417.4 403.615 417.473 403.615 417.62V418.68C403.615 418.84 403.522 418.92 403.335 418.92H400.935ZM407.422 417.4C407.649 417.4 407.762 417.507 407.762 417.72V418.5C407.762 418.593 407.782 418.647 407.822 418.66C407.876 418.66 407.942 418.627 408.022 418.56C408.196 418.387 408.409 418.2 408.662 418C408.916 417.787 409.236 417.6 409.622 417.44C410.022 417.28 410.509 417.2 411.082 417.2C411.896 417.2 412.622 417.4 413.262 417.8C413.916 418.187 414.429 418.773 414.802 419.56C415.189 420.347 415.382 421.347 415.382 422.56C415.382 423.787 415.189 424.82 414.802 425.66C414.429 426.487 413.902 427.12 413.222 427.56C412.556 427.987 411.776 428.2 410.882 428.2C410.296 428.2 409.769 428.113 409.302 427.94C408.849 427.753 408.449 427.507 408.102 427.2C407.982 427.08 407.896 427.033 407.842 427.06C407.789 427.073 407.762 427.16 407.762 427.32V431.02C407.762 431.207 407.682 431.3 407.522 431.3H405.902C405.729 431.3 405.642 431.207 405.642 431.02V417.76C405.642 417.627 405.669 417.533 405.722 417.48C405.776 417.427 405.876 417.4 406.022 417.4H407.422ZM407.762 425.54C408.122 425.913 408.496 426.213 408.882 426.44C409.282 426.653 409.729 426.76 410.222 426.76C410.822 426.76 411.342 426.607 411.782 426.3C412.236 425.993 412.589 425.533 412.842 424.92C413.096 424.293 413.222 423.507 413.222 422.56C413.222 421.613 413.089 420.853 412.822 420.28C412.569 419.707 412.222 419.293 411.782 419.04C411.342 418.773 410.856 418.64 410.322 418.64C409.829 418.64 409.389 418.747 409.002 418.96C408.616 419.173 408.309 419.44 408.082 419.76C407.869 420.08 407.762 420.4 407.762 420.72V425.54ZM417.994 428C417.781 428 417.674 427.893 417.674 427.68V413.46C417.674 413.26 417.754 413.16 417.914 413.16H419.494C419.654 413.16 419.734 413.247 419.734 413.42V418.7C419.734 418.767 419.747 418.813 419.774 418.84C419.814 418.853 419.867 418.827 419.934 418.76C420.387 418.4 420.801 418.107 421.174 417.88C421.561 417.653 421.941 417.487 422.314 417.38C422.701 417.26 423.107 417.2 423.534 417.2C424.561 417.2 425.347 417.48 425.894 418.04C426.441 418.587 426.714 419.333 426.714 420.28V427.64C426.714 427.88 426.601 428 426.374 428H424.894C424.787 428 424.707 427.98 424.654 427.94C424.614 427.887 424.594 427.8 424.594 427.68V420.68C424.594 420.093 424.441 419.633 424.134 419.3C423.841 418.967 423.374 418.8 422.734 418.8C422.374 418.8 422.034 418.86 421.714 418.98C421.407 419.087 421.101 419.253 420.794 419.48C420.487 419.693 420.154 419.967 419.794 420.3V427.66C419.794 427.887 419.667 428 419.414 428H417.994ZM433.992 428.2C432.965 428.2 432.065 427.973 431.292 427.52C430.518 427.053 429.918 426.413 429.492 425.6C429.065 424.773 428.852 423.827 428.852 422.76C428.852 421.653 429.072 420.687 429.512 419.86C429.952 419.02 430.558 418.367 431.332 417.9C432.118 417.433 433.012 417.2 434.012 417.2C435.052 417.2 435.952 417.44 436.712 417.92C437.485 418.387 438.085 419.04 438.512 419.88C438.938 420.707 439.152 421.66 439.152 422.74C439.152 423.807 438.932 424.753 438.492 425.58C438.065 426.393 437.465 427.033 436.692 427.5C435.918 427.967 435.018 428.2 433.992 428.2ZM434.032 426.7C434.658 426.7 435.192 426.54 435.632 426.22C436.072 425.9 436.405 425.447 436.632 424.86C436.872 424.26 436.992 423.54 436.992 422.7C436.992 421.86 436.872 421.14 436.632 420.54C436.405 419.94 436.065 419.48 435.612 419.16C435.172 418.827 434.638 418.66 434.012 418.66C433.385 418.66 432.845 418.827 432.392 419.16C431.952 419.48 431.612 419.94 431.372 420.54C431.132 421.14 431.012 421.86 431.012 422.7C431.012 423.54 431.132 424.26 431.372 424.86C431.612 425.447 431.952 425.9 432.392 426.22C432.845 426.54 433.392 426.7 434.032 426.7ZM441.704 428C441.491 428 441.384 427.893 441.384 427.68V417.7C441.384 417.5 441.471 417.4 441.644 417.4H443.224C443.384 417.4 443.464 417.487 443.464 417.66V418.76C443.464 418.827 443.478 418.873 443.504 418.9C443.544 418.913 443.598 418.887 443.664 418.82C444.078 418.487 444.471 418.2 444.844 417.96C445.218 417.707 445.598 417.52 445.984 417.4C446.371 417.267 446.791 417.2 447.244 417.2C448.258 417.2 449.044 417.48 449.604 418.04C450.164 418.6 450.444 419.34 450.444 420.26V427.64C450.444 427.88 450.331 428 450.104 428H448.624C448.518 428 448.438 427.98 448.384 427.94C448.344 427.887 448.324 427.8 448.324 427.68V420.68C448.324 420.093 448.171 419.633 447.864 419.3C447.558 418.967 447.084 418.8 446.444 418.8C446.084 418.8 445.751 418.86 445.444 418.98C445.138 419.087 444.831 419.253 444.524 419.48C444.218 419.693 443.878 419.967 443.504 420.3V427.66C443.504 427.887 443.378 428 443.124 428H441.704ZM454.762 423.44C454.762 424.04 454.902 424.587 455.182 425.08C455.476 425.56 455.862 425.947 456.342 426.24C456.836 426.52 457.382 426.66 457.982 426.66C458.596 426.66 459.142 426.533 459.622 426.28C460.102 426.027 460.542 425.633 460.942 425.1C460.982 425.047 461.022 425.02 461.062 425.02C461.102 425.007 461.162 425.02 461.242 425.06L462.262 425.54C462.409 425.607 462.422 425.713 462.302 425.86C461.929 426.407 461.516 426.853 461.062 427.2C460.622 427.547 460.129 427.8 459.582 427.96C459.036 428.12 458.429 428.2 457.762 428.2C456.749 428.2 455.856 427.973 455.082 427.52C454.309 427.067 453.696 426.433 453.242 425.62C452.802 424.807 452.582 423.873 452.582 422.82C452.582 421.66 452.809 420.667 453.262 419.84C453.716 419 454.329 418.353 455.102 417.9C455.889 417.433 456.762 417.2 457.722 417.2C458.709 417.2 459.569 417.42 460.302 417.86C461.049 418.287 461.629 418.907 462.042 419.72C462.456 420.533 462.662 421.52 462.662 422.68C462.662 422.8 462.649 422.907 462.622 423C462.596 423.08 462.509 423.12 462.362 423.12H454.962C454.896 423.12 454.842 423.153 454.802 423.22C454.776 423.273 454.762 423.347 454.762 423.44ZM460.222 421.86C460.369 421.86 460.462 421.84 460.502 421.8C460.542 421.76 460.562 421.687 460.562 421.58C460.562 421.073 460.449 420.593 460.222 420.14C460.009 419.687 459.696 419.32 459.282 419.04C458.882 418.76 458.382 418.62 457.782 418.62C457.156 418.62 456.616 418.773 456.162 419.08C455.722 419.373 455.382 419.767 455.142 420.26C454.916 420.753 454.802 421.28 454.802 421.84L460.222 421.86Z" fill="black"/>
<rect x="54" y="41" width="414" height="263" rx="11" fill="url(#paint6_linear_142_539)"/>
<rect x="59" y="46" width="404" height="253" rx="6" fill="white"/>
<rect x="92" y="67" width="49" height="19" rx="9" fill="#E7E9FF"/>
<rect x="254" y="116" width="149" height="11" rx="5.5" fill="#E7E9FF"/>
<rect x="254" y="74.2" width="29" height="8" rx="4" fill="#E7E9FF"/>
<rect x="299" y="74" width="36" height="8" rx="4" fill="#E7E9FF"/>
<rect x="349" y="74" width="38" height="8" rx="4" fill="#E7E9FF"/>
<rect x="401" y="74" width="27" height="8" rx="4" fill="#E7E9FF"/>
<rect x="254" y="138" width="149" height="11" rx="5.5" fill="#E7E9FF"/>
<rect x="125" y="250" width="89" height="8" rx="4" fill="#E7E9FF"/>
<rect x="125" y="266" width="59" height="7" rx="3.5" fill="#E7E9FF"/>
<rect x="230" y="266" width="59" height="7" rx="3.5" fill="#E7E9FF"/>
<rect x="335" y="266" width="59" height="7" rx="3.5" fill="#E7E9FF"/>
<rect x="230" y="250" width="89" height="8" rx="4" fill="#E7E9FF"/>
<rect x="335" y="250" width="89" height="8" rx="4" fill="#E7E9FF"/>
<rect x="126.25" y="110.25" width="116.5" height="53.5" rx="8.75" fill="url(#paint7_linear_142_539)" stroke="#D362BD" stroke-width="0.5"/>
<rect x="126.25" y="183.25" width="87.5" height="55.5" rx="8.75" fill="url(#paint8_linear_142_539)" stroke="url(#paint9_linear_142_539)" stroke-width="0.5"/>
<rect x="230.25" y="183.25" width="87.5" height="54.5" rx="8.75" fill="url(#paint10_linear_142_539)" stroke="url(#paint11_linear_142_539)" stroke-width="0.5"/>
<rect x="335.25" y="183.25" width="87.5" height="55.5" rx="8.75" fill="url(#paint12_linear_142_539)" stroke="url(#paint13_linear_142_539)" stroke-width="0.5"/>
<path d="M217.5 304H304.385L309 338.5C309 338.5 310.215 346.5 311.5 350C312.902 353.819 320 355 320 355C320 355 282.044 355 259 355C235.956 355 198 355 198 355C198 355 206.635 354.139 209 350C211 346.5 212.5 338.5 212.5 338.5L217.5 304Z" fill="url(#paint14_linear_142_539)"/>
<path d="M334.55 355.5L335.441 363.5H184.591L185.928 355.5H334.55Z" fill="#2C4279" stroke="#000B48"/>
<path d="M210.68 19.2C209.333 19.2 208.173 18.9067 207.2 18.32C206.227 17.72 205.48 16.86 204.96 15.74C204.44 14.6067 204.18 13.24 204.18 11.64C204.18 10.0267 204.447 8.64667 204.98 7.5C205.513 6.35333 206.267 5.48 207.24 4.88C208.213 4.26667 209.367 3.96 210.7 3.96C212.02 3.96 213.16 4.26667 214.12 4.88C215.093 5.48 215.84 6.35333 216.36 7.5C216.893 8.63333 217.16 10.0067 217.16 11.62C217.16 13.22 216.9 14.5867 216.38 15.72C215.86 16.84 215.113 17.7 214.14 18.3C213.167 18.9 212.013 19.2 210.68 19.2ZM210.7 17.42C212.033 17.42 213.02 16.96 213.66 16.04C214.313 15.1067 214.64 13.64 214.64 11.64C214.64 9.61333 214.307 8.12 213.64 7.16C212.987 6.2 212.007 5.72 210.7 5.72C209.367 5.72 208.367 6.20667 207.7 7.18C207.033 8.14 206.7 9.62667 206.7 11.64C206.7 13.6267 207.033 15.0867 207.7 16.02C208.367 16.9533 209.367 17.42 210.7 17.42ZM220.052 19C219.945 19 219.865 18.9733 219.812 18.92C219.759 18.8667 219.732 18.7867 219.732 18.68V8.7C219.732 8.5 219.819 8.4 219.992 8.4H221.532C221.692 8.4 221.772 8.48667 221.772 8.66V9.92C221.772 10 221.792 10.0467 221.832 10.06C221.885 10.0733 221.939 10.0467 221.992 9.98C222.325 9.58 222.659 9.25333 222.992 9C223.339 8.73333 223.685 8.53333 224.032 8.4C224.379 8.26667 224.725 8.2 225.072 8.2C225.539 8.2 225.772 8.29333 225.772 8.48V10.04C225.772 10.2 225.699 10.2667 225.552 10.24C225.392 10.2 225.219 10.1733 225.032 10.16C224.859 10.1467 224.679 10.14 224.492 10.14C224.212 10.14 223.919 10.2 223.612 10.32C223.305 10.44 223.019 10.6067 222.752 10.82C222.499 11.02 222.285 11.2467 222.112 11.5C221.939 11.7533 221.852 12.0133 221.852 12.28V18.66C221.852 18.8867 221.725 19 221.472 19H220.052ZM234.868 19C234.775 19 234.695 18.9733 234.628 18.92C234.575 18.8667 234.548 18.7867 234.548 18.68V17.92C234.548 17.8267 234.522 17.7733 234.468 17.76C234.415 17.7467 234.355 17.7733 234.288 17.84C234.115 18 233.895 18.1867 233.628 18.4C233.362 18.6133 233.028 18.8 232.628 18.96C232.228 19.12 231.755 19.2 231.208 19.2C230.382 19.2 229.635 19 228.968 18.6C228.315 18.2 227.795 17.6067 227.408 16.82C227.035 16.02 226.848 15.0267 226.848 13.84C226.848 12.7067 227.048 11.72 227.448 10.88C227.848 10.04 228.395 9.38667 229.088 8.92C229.782 8.44 230.562 8.2 231.428 8.2C232.055 8.2 232.582 8.3 233.008 8.5C233.448 8.7 233.842 8.95333 234.188 9.26C234.295 9.35333 234.375 9.39333 234.428 9.38C234.482 9.35333 234.508 9.26667 234.508 9.12V4.46C234.508 4.26 234.595 4.16 234.768 4.16H236.368C236.542 4.16 236.628 4.26 236.628 4.46V18.66C236.628 18.78 236.602 18.8667 236.548 18.92C236.495 18.9733 236.395 19 236.248 19H234.868ZM234.508 10.88C234.122 10.4933 233.735 10.1933 233.348 9.98C232.962 9.76667 232.528 9.66 232.048 9.66C231.462 9.66 230.935 9.81333 230.468 10.12C230.015 10.4267 229.655 10.8867 229.388 11.5C229.135 12.1 229.008 12.86 229.008 13.78C229.008 14.7133 229.142 15.4733 229.408 16.06C229.675 16.6467 230.028 17.08 230.468 17.36C230.922 17.6267 231.415 17.76 231.948 17.76C232.428 17.76 232.862 17.6467 233.248 17.42C233.635 17.1933 233.942 16.9133 234.168 16.58C234.395 16.2333 234.508 15.8933 234.508 15.56V10.88ZM241.54 18.62C241.54 18.7667 241.506 18.8667 241.44 18.92C241.386 18.9733 241.286 19 241.14 19H239.78C239.633 19 239.533 18.98 239.48 18.94C239.44 18.8867 239.42 18.8 239.42 18.68V8.7C239.42 8.5 239.513 8.4 239.7 8.4H241.3C241.46 8.4 241.54 8.49333 241.54 8.68V18.62ZM241.6 6.28C241.6 6.56 241.466 6.7 241.2 6.7H239.72C239.573 6.7 239.473 6.66667 239.42 6.6C239.38 6.53333 239.36 6.44 239.36 6.32V4.5C239.36 4.27333 239.46 4.16 239.66 4.16H241.32C241.506 4.16 241.6 4.26667 241.6 4.48V6.28ZM244.681 19C244.468 19 244.361 18.8933 244.361 18.68V8.7C244.361 8.5 244.448 8.4 244.621 8.4H246.201C246.361 8.4 246.441 8.48667 246.441 8.66V9.76C246.441 9.82667 246.454 9.87333 246.481 9.9C246.521 9.91333 246.574 9.88667 246.641 9.82C247.054 9.48667 247.448 9.2 247.821 8.96C248.194 8.70667 248.574 8.52 248.961 8.4C249.348 8.26667 249.768 8.2 250.221 8.2C251.234 8.2 252.021 8.48 252.581 9.04C253.141 9.6 253.421 10.34 253.421 11.26V18.64C253.421 18.88 253.308 19 253.081 19H251.601C251.494 19 251.414 18.98 251.361 18.94C251.321 18.8867 251.301 18.8 251.301 18.68V11.68C251.301 11.0933 251.148 10.6333 250.841 10.3C250.534 9.96667 250.061 9.8 249.421 9.8C249.061 9.8 248.728 9.86 248.421 9.98C248.114 10.0867 247.808 10.2533 247.501 10.48C247.194 10.6933 246.854 10.9667 246.481 11.3V18.66C246.481 18.8867 246.354 19 246.101 19H244.681ZM262.099 17.8C261.632 18.2533 261.119 18.6 260.559 18.84C259.999 19.08 259.365 19.2 258.659 19.2C257.632 19.2 256.825 18.9333 256.239 18.4C255.652 17.8667 255.359 17.1667 255.359 16.3C255.359 15.5667 255.565 14.94 255.979 14.42C256.405 13.9 257.019 13.4867 257.819 13.18C258.632 12.8733 259.619 12.6933 260.779 12.64L262.079 12.54C262.159 12.5267 262.232 12.5 262.299 12.46C262.365 12.42 262.399 12.3467 262.399 12.24V11.74C262.399 11.0867 262.199 10.5733 261.799 10.2C261.399 9.81333 260.852 9.62 260.159 9.62C259.639 9.62 259.159 9.74 258.719 9.98C258.279 10.22 257.885 10.5933 257.539 11.1C257.499 11.1667 257.459 11.2133 257.419 11.24C257.379 11.2667 257.305 11.2667 257.199 11.24L255.839 10.84C255.785 10.8133 255.745 10.78 255.719 10.74C255.705 10.6867 255.725 10.5933 255.779 10.46C256.165 9.74 256.732 9.18667 257.479 8.8C258.239 8.4 259.165 8.2 260.259 8.2C261.219 8.2 262.005 8.34 262.619 8.62C263.232 8.88667 263.685 9.28 263.979 9.8C264.285 10.3067 264.439 10.9067 264.439 11.6V18.66C264.439 18.7933 264.412 18.8867 264.359 18.94C264.319 18.98 264.245 19 264.139 19H262.779C262.685 19 262.612 18.9667 262.559 18.9C262.505 18.82 262.472 18.72 262.459 18.6L262.439 17.84C262.399 17.6267 262.285 17.6133 262.099 17.8ZM262.399 14.02C262.399 13.7933 262.305 13.6933 262.119 13.72L261.039 13.8C260.505 13.8267 260.019 13.9 259.579 14.02C259.139 14.1267 258.759 14.2733 258.439 14.46C258.132 14.6467 257.885 14.8733 257.699 15.14C257.525 15.3933 257.439 15.6933 257.439 16.04C257.439 16.56 257.619 16.9733 257.979 17.28C258.352 17.5733 258.852 17.72 259.479 17.72C259.879 17.72 260.252 17.6533 260.599 17.52C260.959 17.3733 261.272 17.1933 261.539 16.98C261.805 16.7533 262.012 16.52 262.159 16.28C262.319 16.04 262.399 15.8067 262.399 15.58V14.02ZM270.2 9.92C270.08 9.92 270.02 9.98667 270.02 10.12V15.98C270.02 16.5533 270.127 16.9467 270.34 17.16C270.554 17.36 270.88 17.46 271.32 17.46H272.6C272.68 17.46 272.74 17.4867 272.78 17.54C272.82 17.58 272.84 17.6333 272.84 17.7V18.56C272.84 18.7333 272.74 18.8467 272.54 18.9C272.367 18.9267 272.154 18.9467 271.9 18.96C271.647 18.9733 271.394 18.9867 271.14 19C270.9 19 270.687 19 270.5 19C269.634 19 268.98 18.8 268.54 18.4C268.114 17.9867 267.9 17.3533 267.9 16.5V10.16C267.9 10 267.834 9.92 267.7 9.92H266.2C266.027 9.92 265.94 9.84 265.94 9.68V8.62C265.94 8.47333 266.02 8.4 266.18 8.4H267.78C267.887 8.4 267.94 8.34 267.94 8.22L268.18 5.08C268.194 4.89333 268.274 4.8 268.42 4.8H269.8C269.974 4.8 270.06 4.90667 270.06 5.12V8.22C270.06 8.34 270.12 8.4 270.24 8.4H272.64C272.8 8.4 272.88 8.47333 272.88 8.62V9.68C272.88 9.84 272.787 9.92 272.6 9.92H270.2ZM276.254 14.44C276.254 15.04 276.394 15.5867 276.674 16.08C276.968 16.56 277.354 16.9467 277.834 17.24C278.328 17.52 278.874 17.66 279.474 17.66C280.088 17.66 280.634 17.5333 281.114 17.28C281.594 17.0267 282.034 16.6333 282.434 16.1C282.474 16.0467 282.514 16.02 282.554 16.02C282.594 16.0067 282.654 16.02 282.734 16.06L283.754 16.54C283.901 16.6067 283.914 16.7133 283.794 16.86C283.421 17.4067 283.008 17.8533 282.554 18.2C282.114 18.5467 281.621 18.8 281.074 18.96C280.528 19.12 279.921 19.2 279.254 19.2C278.241 19.2 277.348 18.9733 276.574 18.52C275.801 18.0667 275.188 17.4333 274.734 16.62C274.294 15.8067 274.074 14.8733 274.074 13.82C274.074 12.66 274.301 11.6667 274.754 10.84C275.208 10 275.821 9.35333 276.594 8.9C277.381 8.43333 278.254 8.2 279.214 8.2C280.201 8.2 281.061 8.42 281.794 8.86C282.541 9.28667 283.121 9.90667 283.534 10.72C283.948 11.5333 284.154 12.52 284.154 13.68C284.154 13.8 284.141 13.9067 284.114 14C284.088 14.08 284.001 14.12 283.854 14.12H276.454C276.388 14.12 276.334 14.1533 276.294 14.22C276.268 14.2733 276.254 14.3467 276.254 14.44ZM281.714 12.86C281.861 12.86 281.954 12.84 281.994 12.8C282.034 12.76 282.054 12.6867 282.054 12.58C282.054 12.0733 281.941 11.5933 281.714 11.14C281.501 10.6867 281.188 10.32 280.774 10.04C280.374 9.76 279.874 9.62 279.274 9.62C278.648 9.62 278.108 9.77333 277.654 10.08C277.214 10.3733 276.874 10.7667 276.634 11.26C276.408 11.7533 276.294 12.28 276.294 12.84L281.714 12.86ZM290.115 17.6C290.648 17.6 291.148 17.46 291.615 17.18C292.095 16.8867 292.562 16.5 293.015 16.02V8.74C293.015 8.51333 293.142 8.4 293.395 8.4H294.835C295.048 8.4 295.155 8.50667 295.155 8.72L295.115 18.72C295.115 18.9067 295.035 19 294.875 19H293.315C293.155 19 293.075 18.9133 293.075 18.74V17.62C293.075 17.5533 293.055 17.5133 293.015 17.5C292.988 17.4733 292.942 17.4933 292.875 17.56C292.195 18.1733 291.575 18.6 291.015 18.84C290.455 19.08 289.882 19.2 289.295 19.2C288.695 19.2 288.155 19.0733 287.675 18.82C287.208 18.5667 286.835 18.2067 286.555 17.74C286.288 17.2733 286.155 16.7267 286.155 16.1V8.76C286.155 8.52 286.275 8.4 286.515 8.4H287.975C288.175 8.4 288.275 8.50667 288.275 8.72V15.66C288.275 16.2333 288.435 16.7 288.755 17.06C289.088 17.42 289.542 17.6 290.115 17.6ZM298.255 19C298.148 19 298.068 18.9733 298.015 18.92C297.962 18.8667 297.935 18.7867 297.935 18.68V8.7C297.935 8.5 298.022 8.4 298.195 8.4H299.735C299.895 8.4 299.975 8.48667 299.975 8.66V9.92C299.975 10 299.995 10.0467 300.035 10.06C300.088 10.0733 300.142 10.0467 300.195 9.98C300.528 9.58 300.862 9.25333 301.195 9C301.542 8.73333 301.888 8.53333 302.235 8.4C302.582 8.26667 302.928 8.2 303.275 8.2C303.742 8.2 303.975 8.29333 303.975 8.48V10.04C303.975 10.2 303.902 10.2667 303.755 10.24C303.595 10.2 303.422 10.1733 303.235 10.16C303.062 10.1467 302.882 10.14 302.695 10.14C302.415 10.14 302.122 10.2 301.815 10.32C301.508 10.44 301.222 10.6067 300.955 10.82C300.702 11.02 300.488 11.2467 300.315 11.5C300.142 11.7533 300.055 12.0133 300.055 12.28V18.66C300.055 18.8867 299.928 19 299.675 19H298.255Z" fill="black"/>
<rect x="54" y="410.5" width="196" height="261" rx="11" fill="url(#paint15_linear_142_539)"/>
<rect x="59.1609" y="415.746" width="185.678" height="250.509" rx="7" fill="white"/>
<rect x="78.408" y="437.579" width="37.3621" height="13.7895" rx="6" fill="#E7EAFF"/>
<rect x="156.529" y="441.026" width="43.023" height="6.32018" rx="3.16009" fill="#E7EAFF"/>
<rect x="179.172" y="480.096" width="46.4195" height="8.04386" rx="4.02193" fill="#E7EAFF"/>
<rect x="179.172" y="499.632" width="46.4195" height="8.04386" rx="4.02193" fill="#E7EAFF"/>
<rect x="121.431" y="642.123" width="60.0057" height="8.61842" rx="4.30921" fill="#E7EAFF"/>
<rect x="77.2759" y="611.096" width="96.2356" height="7.4693" rx="3.73465" fill="#E7EAFF"/>
<rect x="77.2759" y="593.86" width="129.069" height="8.04386" rx="4.02193" fill="#E7EAFF"/>
<rect x="208.043" y="441.026" width="18.1149" height="6.32018" rx="3.16009" fill="#E7EAFF"/>
<rect x="78.658" y="473.452" width="88.9425" height="44.3158" rx="4.75" fill="url(#paint16_linear_142_539)" stroke="#D362BD" stroke-width="0.5"/>
<rect x="78.658" y="534.355" width="42.523" height="45.4649" rx="3.75" fill="url(#paint17_linear_142_539)" stroke="url(#paint18_linear_142_539)" stroke-width="0.5"/>
<rect x="130.739" y="534.355" width="42.523" height="45.4649" rx="3.75" fill="url(#paint19_linear_142_539)" stroke="url(#paint20_linear_142_539)" stroke-width="0.5"/>
<rect x="183.951" y="534.355" width="42.523" height="45.4649" rx="3.75" fill="url(#paint21_linear_142_539)" stroke="url(#paint22_linear_142_539)" stroke-width="0.5"/>
<path d="M110.28 372.44C110.28 372.347 110.3 372.28 110.34 372.24C110.393 372.187 110.473 372.16 110.58 372.16H121.56C121.667 372.16 121.74 372.187 121.78 372.24C121.82 372.28 121.84 372.347 121.84 372.44V373.72C121.84 373.88 121.747 373.96 121.56 373.96H117.6C117.453 373.96 117.38 374.02 117.38 374.14V386.7C117.38 386.9 117.293 387 117.12 387H115.24C115.067 387 114.98 386.907 114.98 386.72V374.18C114.98 374.033 114.907 373.96 114.76 373.96H110.56C110.373 373.96 110.28 373.88 110.28 373.72V372.44ZM128.189 385.8C127.722 386.253 127.209 386.6 126.649 386.84C126.089 387.08 125.455 387.2 124.749 387.2C123.722 387.2 122.915 386.933 122.329 386.4C121.742 385.867 121.449 385.167 121.449 384.3C121.449 383.567 121.655 382.94 122.069 382.42C122.495 381.9 123.109 381.487 123.909 381.18C124.722 380.873 125.709 380.693 126.869 380.64L128.169 380.54C128.249 380.527 128.322 380.5 128.389 380.46C128.455 380.42 128.489 380.347 128.489 380.24V379.74C128.489 379.087 128.289 378.573 127.889 378.2C127.489 377.813 126.942 377.62 126.249 377.62C125.729 377.62 125.249 377.74 124.809 377.98C124.369 378.22 123.975 378.593 123.629 379.1C123.589 379.167 123.549 379.213 123.509 379.24C123.469 379.267 123.395 379.267 123.289 379.24L121.929 378.84C121.875 378.813 121.835 378.78 121.809 378.74C121.795 378.687 121.815 378.593 121.869 378.46C122.255 377.74 122.822 377.187 123.569 376.8C124.329 376.4 125.255 376.2 126.349 376.2C127.309 376.2 128.095 376.34 128.709 376.62C129.322 376.887 129.775 377.28 130.069 377.8C130.375 378.307 130.529 378.907 130.529 379.6V386.66C130.529 386.793 130.502 386.887 130.449 386.94C130.409 386.98 130.335 387 130.229 387H128.869C128.775 387 128.702 386.967 128.649 386.9C128.595 386.82 128.562 386.72 128.549 386.6L128.529 385.84C128.489 385.627 128.375 385.613 128.189 385.8ZM128.489 382.02C128.489 381.793 128.395 381.693 128.209 381.72L127.129 381.8C126.595 381.827 126.109 381.9 125.669 382.02C125.229 382.127 124.849 382.273 124.529 382.46C124.222 382.647 123.975 382.873 123.789 383.14C123.615 383.393 123.529 383.693 123.529 384.04C123.529 384.56 123.709 384.973 124.069 385.28C124.442 385.573 124.942 385.72 125.569 385.72C125.969 385.72 126.342 385.653 126.689 385.52C127.049 385.373 127.362 385.193 127.629 384.98C127.895 384.753 128.102 384.52 128.249 384.28C128.409 384.04 128.489 383.807 128.489 383.58V382.02ZM133.604 387C133.47 387 133.377 386.973 133.324 386.92C133.27 386.867 133.244 386.773 133.244 386.64V372.46C133.244 372.26 133.337 372.16 133.524 372.16H135.124C135.284 372.16 135.364 372.26 135.364 372.46V377.3C135.364 377.433 135.39 377.507 135.444 377.52C135.51 377.533 135.59 377.5 135.684 377.42C135.83 377.273 136.037 377.107 136.304 376.92C136.584 376.733 136.924 376.567 137.324 376.42C137.737 376.273 138.21 376.2 138.744 376.2C139.704 376.2 140.497 376.44 141.124 376.92C141.75 377.387 142.217 378.027 142.524 378.84C142.844 379.653 143.004 380.587 143.004 381.64C143.004 383.347 142.604 384.7 141.804 385.7C141.017 386.7 139.897 387.2 138.444 387.2C137.87 387.2 137.37 387.113 136.944 386.94C136.517 386.767 136.164 386.553 135.884 386.3C135.604 386.047 135.384 385.82 135.224 385.62C135.17 385.553 135.117 385.527 135.064 385.54C135.024 385.54 135.004 385.587 135.004 385.68L134.844 386.66C134.804 386.887 134.67 387 134.444 387H133.604ZM135.364 383.4C135.364 383.853 135.484 384.26 135.724 384.62C135.977 384.98 136.297 385.267 136.684 385.48C137.084 385.68 137.51 385.78 137.964 385.78C138.51 385.78 138.997 385.64 139.424 385.36C139.864 385.08 140.204 384.64 140.444 384.04C140.697 383.427 140.824 382.64 140.824 381.68C140.824 380.36 140.59 379.36 140.124 378.68C139.657 378 138.97 377.66 138.064 377.66C137.517 377.66 137.01 377.787 136.544 378.04C136.077 378.293 135.684 378.613 135.364 379V383.4ZM147.415 386.62C147.415 386.767 147.382 386.867 147.315 386.92C147.262 386.973 147.155 387 146.995 387H145.635C145.395 387 145.275 386.893 145.275 386.68L145.315 372.46C145.315 372.26 145.402 372.16 145.575 372.16H147.155C147.328 372.16 147.415 372.26 147.415 372.46V386.62ZM151.856 382.44C151.856 383.04 151.996 383.587 152.276 384.08C152.569 384.56 152.956 384.947 153.436 385.24C153.929 385.52 154.476 385.66 155.076 385.66C155.689 385.66 156.236 385.533 156.716 385.28C157.196 385.027 157.636 384.633 158.036 384.1C158.076 384.047 158.116 384.02 158.156 384.02C158.196 384.007 158.256 384.02 158.336 384.06L159.356 384.54C159.503 384.607 159.516 384.713 159.396 384.86C159.023 385.407 158.609 385.853 158.156 386.2C157.716 386.547 157.223 386.8 156.676 386.96C156.129 387.12 155.523 387.2 154.856 387.2C153.843 387.2 152.949 386.973 152.176 386.52C151.403 386.067 150.789 385.433 150.336 384.62C149.896 383.807 149.676 382.873 149.676 381.82C149.676 380.66 149.903 379.667 150.356 378.84C150.809 378 151.423 377.353 152.196 376.9C152.983 376.433 153.856 376.2 154.816 376.2C155.803 376.2 156.663 376.42 157.396 376.86C158.143 377.287 158.723 377.907 159.136 378.72C159.549 379.533 159.756 380.52 159.756 381.68C159.756 381.8 159.743 381.907 159.716 382C159.689 382.08 159.603 382.12 159.456 382.12H152.056C151.989 382.12 151.936 382.153 151.896 382.22C151.869 382.273 151.856 382.347 151.856 382.44ZM157.316 380.86C157.463 380.86 157.556 380.84 157.596 380.8C157.636 380.76 157.656 380.687 157.656 380.58C157.656 380.073 157.543 379.593 157.316 379.14C157.103 378.687 156.789 378.32 156.376 378.04C155.976 377.76 155.476 377.62 154.876 377.62C154.249 377.62 153.709 377.773 153.256 378.08C152.816 378.373 152.476 378.767 152.236 379.26C152.009 379.753 151.896 380.28 151.896 380.84L157.316 380.86ZM164.943 377.92C164.823 377.92 164.763 377.987 164.763 378.12V383.98C164.763 384.553 164.869 384.947 165.083 385.16C165.296 385.36 165.623 385.46 166.063 385.46H167.343C167.423 385.46 167.483 385.487 167.523 385.54C167.563 385.58 167.583 385.633 167.583 385.7V386.56C167.583 386.733 167.483 386.847 167.283 386.9C167.109 386.927 166.896 386.947 166.643 386.96C166.389 386.973 166.136 386.987 165.883 387C165.643 387 165.429 387 165.243 387C164.376 387 163.723 386.8 163.283 386.4C162.856 385.987 162.643 385.353 162.643 384.5V378.16C162.643 378 162.576 377.92 162.443 377.92H160.943C160.769 377.92 160.683 377.84 160.683 377.68V376.62C160.683 376.473 160.763 376.4 160.923 376.4H162.523C162.629 376.4 162.683 376.34 162.683 376.22L162.923 373.08C162.936 372.893 163.016 372.8 163.163 372.8H164.543C164.716 372.8 164.803 372.907 164.803 373.12V376.22C164.803 376.34 164.863 376.4 164.983 376.4H167.383C167.543 376.4 167.623 376.473 167.623 376.62V377.68C167.623 377.84 167.529 377.92 167.343 377.92H164.943ZM172.97 377.92C172.85 377.92 172.79 377.987 172.79 378.12V383.98C172.79 384.553 172.897 384.947 173.11 385.16C173.323 385.36 173.65 385.46 174.09 385.46H175.37C175.45 385.46 175.51 385.487 175.55 385.54C175.59 385.58 175.61 385.633 175.61 385.7V386.56C175.61 386.733 175.51 386.847 175.31 386.9C175.137 386.927 174.923 386.947 174.67 386.96C174.417 386.973 174.163 386.987 173.91 387C173.67 387 173.457 387 173.27 387C172.403 387 171.75 386.8 171.31 386.4C170.883 385.987 170.67 385.353 170.67 384.5V378.16C170.67 378 170.603 377.92 170.47 377.92H168.97C168.797 377.92 168.71 377.84 168.71 377.68V376.62C168.71 376.473 168.79 376.4 168.95 376.4H170.55C170.657 376.4 170.71 376.34 170.71 376.22L170.95 373.08C170.963 372.893 171.043 372.8 171.19 372.8H172.57C172.743 372.8 172.83 372.907 172.83 373.12V376.22C172.83 376.34 172.89 376.4 173.01 376.4H175.41C175.57 376.4 175.65 376.473 175.65 376.62V377.68C175.65 377.84 175.557 377.92 175.37 377.92H172.97ZM179.024 382.44C179.024 383.04 179.164 383.587 179.444 384.08C179.737 384.56 180.124 384.947 180.604 385.24C181.097 385.52 181.644 385.66 182.244 385.66C182.857 385.66 183.404 385.533 183.884 385.28C184.364 385.027 184.804 384.633 185.204 384.1C185.244 384.047 185.284 384.02 185.324 384.02C185.364 384.007 185.424 384.02 185.504 384.06L186.524 384.54C186.671 384.607 186.684 384.713 186.564 384.86C186.191 385.407 185.777 385.853 185.324 386.2C184.884 386.547 184.391 386.8 183.844 386.96C183.297 387.12 182.691 387.2 182.024 387.2C181.011 387.2 180.117 386.973 179.344 386.52C178.571 386.067 177.957 385.433 177.504 384.62C177.064 383.807 176.844 382.873 176.844 381.82C176.844 380.66 177.071 379.667 177.524 378.84C177.977 378 178.591 377.353 179.364 376.9C180.151 376.433 181.024 376.2 181.984 376.2C182.971 376.2 183.831 376.42 184.564 376.86C185.311 377.287 185.891 377.907 186.304 378.72C186.717 379.533 186.924 380.52 186.924 381.68C186.924 381.8 186.911 381.907 186.884 382C186.857 382.08 186.771 382.12 186.624 382.12H179.224C179.157 382.12 179.104 382.153 179.064 382.22C179.037 382.273 179.024 382.347 179.024 382.44ZM184.484 380.86C184.631 380.86 184.724 380.84 184.764 380.8C184.804 380.76 184.824 380.687 184.824 380.58C184.824 380.073 184.711 379.593 184.484 379.14C184.271 378.687 183.957 378.32 183.544 378.04C183.144 377.76 182.644 377.62 182.044 377.62C181.417 377.62 180.877 377.773 180.424 378.08C179.984 378.373 179.644 378.767 179.404 379.26C179.177 379.753 179.064 380.28 179.064 380.84L184.484 380.86Z" fill="black"/>
<defs>
<radialGradient id="paint0_radial_142_539" cx="0" cy="0" r="1" gradientUnits="userSpaceOnUse" gradientTransform="translate(258 356) rotate(90) scale(231 258)">
<stop stop-color="#388CE1"/>
<stop offset="0.4" stop-color="#388CE1" stop-opacity="0.58"/>
<stop offset="1" stop-color="white" stop-opacity="0.32"/>
</radialGradient>
<linearGradient id="paint1_linear_142_539" x1="404.73" y1="452" x2="404.73" y2="636" gradientUnits="userSpaceOnUse">
<stop stop-color="#283A5B"/>
<stop offset="1" stop-color="#2B3C5A"/>
</linearGradient>
<linearGradient id="paint2_linear_142_539" x1="371.903" y1="510.085" x2="438.329" y2="510.085" gradientUnits="userSpaceOnUse">
<stop stop-color="#E691C9"/>
<stop offset="1" stop-color="#D471CA"/>
</linearGradient>
<linearGradient id="paint3_linear_142_539" x1="371.903" y1="510.085" x2="438.329" y2="510.085" gradientUnits="userSpaceOnUse">
<stop stop-color="#E275BB"/>
<stop offset="1" stop-color="#BD34B0"/>
</linearGradient>
<linearGradient id="paint4_linear_142_539" x1="371.903" y1="573.237" x2="438.329" y2="573.237" gradientUnits="userSpaceOnUse">
<stop stop-color="#73C8FE"/>
<stop offset="1" stop-color="#8190FF"/>
</linearGradient>
<linearGradient id="paint5_linear_142_539" x1="371.903" y1="573.237" x2="438.329" y2="573.237" gradientUnits="userSpaceOnUse">
<stop stop-color="#36B0FD"/>
<stop offset="1" stop-color="#3857FB"/>
</linearGradient>
<linearGradient id="paint6_linear_142_539" x1="54" y1="172.5" x2="468" y2="172.5" gradientUnits="userSpaceOnUse">
<stop stop-color="#304369"/>
<stop offset="1" stop-color="#415B8D"/>
</linearGradient>
<linearGradient id="paint7_linear_142_539" x1="126" y1="137" x2="243" y2="137" gradientUnits="userSpaceOnUse">
<stop stop-color="#E893CA"/>
<stop offset="1" stop-color="#D376C8"/>
</linearGradient>
<linearGradient id="paint8_linear_142_539" x1="126" y1="211" x2="214" y2="211" gradientUnits="userSpaceOnUse">
<stop stop-color="#78CAFE"/>
<stop offset="1" stop-color="#77A7FE"/>
</linearGradient>
<linearGradient id="paint9_linear_142_539" x1="126" y1="211" x2="214" y2="211" gradientUnits="userSpaceOnUse">
<stop stop-color="#41B9FE"/>
<stop offset="1" stop-color="#4883FF"/>
</linearGradient>
<linearGradient id="paint10_linear_142_539" x1="230" y1="210.5" x2="318" y2="210.5" gradientUnits="userSpaceOnUse">
<stop stop-color="#7EB4FF"/>
<stop offset="1" stop-color="#828AFE"/>
</linearGradient>
<linearGradient id="paint11_linear_142_539" x1="318" y1="210.5" x2="230" y2="210.5" gradientUnits="userSpaceOnUse">
<stop stop-color="#4B4CFF"/>
<stop offset="1" stop-color="#4F90FF"/>
</linearGradient>
<linearGradient id="paint12_linear_142_539" x1="335" y1="211" x2="423" y2="211" gradientUnits="userSpaceOnUse">
<stop stop-color="#908EFE"/>
<stop offset="1" stop-color="#9269FE"/>
</linearGradient>
<linearGradient id="paint13_linear_142_539" x1="335" y1="211" x2="423" y2="211" gradientUnits="userSpaceOnUse">
<stop stop-color="#655DFC"/>
<stop offset="1" stop-color="#6628F7"/>
</linearGradient>
<linearGradient id="paint14_linear_142_539" x1="259" y1="304" x2="259" y2="355" gradientUnits="userSpaceOnUse">
<stop stop-color="#2D3F76"/>
<stop offset="1" stop-color="#586B9D"/>
</linearGradient>
<linearGradient id="paint15_linear_142_539" x1="233.103" y1="412.217" x2="62.0694" y2="664.95" gradientUnits="userSpaceOnUse">
<stop stop-color="#2E4469"/>
<stop offset="1" stop-color="#455373"/>
</linearGradient>
<linearGradient id="paint16_linear_142_539" x1="78.408" y1="495.61" x2="167.85" y2="495.61" gradientUnits="userSpaceOnUse">
<stop stop-color="#E893CA"/>
<stop offset="1" stop-color="#D376C8"/>
</linearGradient>
<linearGradient id="paint17_linear_142_539" x1="78.408" y1="557.088" x2="121.431" y2="557.088" gradientUnits="userSpaceOnUse">
<stop stop-color="#78CAFE"/>
<stop offset="1" stop-color="#77A7FE"/>
</linearGradient>
<linearGradient id="paint18_linear_142_539" x1="78.408" y1="557.088" x2="121.431" y2="557.088" gradientUnits="userSpaceOnUse">
<stop stop-color="#41B9FE"/>
<stop offset="1" stop-color="#4883FF"/>
</linearGradient>
<linearGradient id="paint19_linear_142_539" x1="130.489" y1="557.088" x2="173.512" y2="557.088" gradientUnits="userSpaceOnUse">
<stop stop-color="#88A9FF"/>
<stop offset="1" stop-color="#8B8AFE"/>
</linearGradient>
<linearGradient id="paint20_linear_142_539" x1="130.489" y1="557.088" x2="173.512" y2="557.088" gradientUnits="userSpaceOnUse">
<stop stop-color="#6A91FE"/>
<stop offset="1" stop-color="#685EFF"/>
</linearGradient>
<linearGradient id="paint21_linear_142_539" x1="183.701" y1="557.088" x2="226.724" y2="557.088" gradientUnits="userSpaceOnUse">
<stop stop-color="#9685FE"/>
<stop offset="1" stop-color="#9D70FF"/>
</linearGradient>
<linearGradient id="paint22_linear_142_539" x1="183.701" y1="557.088" x2="226.724" y2="557.088" gradientUnits="userSpaceOnUse">
<stop stop-color="#7057FF"/>
<stop offset="1" stop-color="#5515FC"/>
</linearGradient>
</defs>
</svg>
