<svg width="854" height="467" viewBox="0 0 854 467" fill="none" xmlns="http://www.w3.org/2000/svg">
<ellipse cx="393.5" cy="236" rx="390.5" ry="231" fill="url(#paint0_radial_115_2)" fill-opacity="0.95"/>
<path d="M3.53014 265.565C3.53014 265.565 82.1439 306.533 135.997 323.5C231.788 353.681 291.154 356.846 391.503 352.746C452.935 350.236 480.138 347.267 547.5 331.5C614.862 315.733 675.276 304.249 736.483 272.001C762.744 258.164 777.765 249.716 799.5 229.5C820.693 209.788 845.505 171.394 845.505 171.394" stroke="white" stroke-opacity="0.15"/>
<path d="M85.6604 115.323C85.6604 115.323 132.289 177.168 168.007 209.103C231.541 265.909 276.202 286.51 354.912 312.451C403.096 328.331 425.066 333.617 482.33 338.798C539.593 343.98 590.048 351.123 648.177 338.987C673.118 333.779 687.565 330.299 711.19 317.752C734.225 305.518 766.406 276.799 766.406 276.799" stroke="white" stroke-opacity="0.15"/>
<rect x="185.228" y="193.559" width="0.772391" height="22.6102" fill="black"/>
<rect x="92" y="146" width="93.4594" height="184" rx="15" fill="url(#paint1_linear_115_2)"/>
<rect x="95.8621" y="149.898" width="85.7355" height="176.203" rx="11" fill="white"/>
<path d="M118.261 149.898H159.198C159.198 153.343 156.405 156.136 152.961 156.136H124.499C121.054 156.136 118.261 153.343 118.261 149.898Z" fill="#293B5C"/>
<rect x="105.903" y="166.271" width="22.3994" height="9.35593" rx="4.67797" fill="#E7EAFF"/>
<rect x="105.131" y="226.305" width="67.9704" height="4.67797" rx="2.33898" fill="#E7EAFF"/>
<rect x="104.358" y="236.441" width="54.8398" height="4.67797" rx="2.33898" fill="#E7EAFF"/>
<rect x="105.131" y="287.898" width="67.9704" height="4.67797" rx="2.33898" fill="#E7EAFF"/>
<rect x="105.131" y="297.254" width="45.5711" height="4.67797" rx="2.33898" fill="#E7EAFF"/>
<rect x="105.131" y="312.068" width="67.1981" height="7.79661" rx="3.89831" fill="#E7EAFF"/>
<rect x="163.06" y="167.051" width="9.2687" height="9.35593" rx="3" fill="#E7EAFF"/>
<rect x="106.403" y="190.941" width="65.4257" height="26.2881" rx="4.5" fill="url(#paint2_linear_115_2)" stroke="url(#paint3_linear_115_2)"/>
<rect x="106.403" y="254.093" width="65.4257" height="26.2881" rx="4.5" fill="url(#paint4_linear_115_2)" stroke="url(#paint5_linear_115_2)"/>
<path d="M89.96 110.16C89.6133 109.773 89.1867 109.44 88.68 109.16C88.1733 108.88 87.5133 108.74 86.7 108.74C85.7533 108.74 85.0133 108.94 84.48 109.34C83.96 109.727 83.7 110.267 83.7 110.96C83.7 111.147 83.7467 111.367 83.84 111.62C83.9333 111.873 84.12 112.12 84.4 112.36C84.6933 112.587 85.1133 112.8 85.66 113L88.66 113.94C89.8733 114.313 90.74 114.847 91.26 115.54C91.7933 116.22 92.06 117.02 92.06 117.94C92.06 118.82 91.8333 119.58 91.38 120.22C90.94 120.86 90.3067 121.353 89.48 121.7C88.6667 122.033 87.6933 122.2 86.56 122.2C85.72 122.2 84.94 122.107 84.22 121.92C83.5133 121.72 82.88 121.433 82.32 121.06C81.7733 120.673 81.3133 120.207 80.94 119.66C80.8867 119.567 80.8667 119.48 80.88 119.4C80.8933 119.32 80.9533 119.24 81.06 119.16L82.04 118.48C82.1867 118.387 82.3 118.347 82.38 118.36C82.46 118.373 82.5333 118.42 82.6 118.5C82.9333 118.927 83.2667 119.287 83.6 119.58C83.9467 119.873 84.34 120.093 84.78 120.24C85.2333 120.373 85.78 120.44 86.42 120.44C87.42 120.44 88.22 120.267 88.82 119.92C89.4333 119.56 89.74 118.993 89.74 118.22C89.74 117.913 89.68 117.64 89.56 117.4C89.44 117.147 89.2333 116.92 88.94 116.72C88.6467 116.507 88.22 116.3 87.66 116.1L84.64 115.12C83.88 114.867 83.26 114.54 82.78 114.14C82.3133 113.74 81.9667 113.287 81.74 112.78C81.5133 112.273 81.4 111.753 81.4 111.22C81.4 110.367 81.62 109.62 82.06 108.98C82.5 108.34 83.1133 107.847 83.9 107.5C84.6867 107.14 85.6067 106.96 86.66 106.96C87.3667 106.96 88.0133 107.047 88.6 107.22C89.2 107.38 89.7467 107.613 90.24 107.92C90.7333 108.213 91.1533 108.567 91.5 108.98C91.5533 109.047 91.5867 109.113 91.6 109.18C91.6267 109.247 91.5933 109.32 91.5 109.4L90.36 110.28C90.28 110.333 90.2133 110.353 90.16 110.34C90.12 110.313 90.0533 110.253 89.96 110.16ZM94.7669 122C94.5535 122 94.4469 121.893 94.4469 121.68V111.7C94.4469 111.5 94.5335 111.4 94.7069 111.4H96.2669C96.4269 111.4 96.5069 111.487 96.5069 111.66V112.76C96.5069 112.827 96.5269 112.873 96.5669 112.9C96.6069 112.913 96.6535 112.887 96.7069 112.82C97.1202 112.487 97.5069 112.2 97.8669 111.96C98.2269 111.707 98.5935 111.52 98.9669 111.4C99.3535 111.267 99.7669 111.2 100.207 111.2C100.967 111.2 101.587 111.38 102.067 111.74C102.547 112.087 102.874 112.507 103.047 113C103.074 113.053 103.107 113.073 103.147 113.06C103.2 113.047 103.254 113.013 103.307 112.96C103.694 112.6 104.08 112.293 104.467 112.04C104.854 111.773 105.247 111.567 105.647 111.42C106.047 111.273 106.467 111.2 106.907 111.2C107.867 111.2 108.614 111.48 109.147 112.04C109.694 112.6 109.967 113.353 109.967 114.3V121.64C109.967 121.88 109.847 122 109.607 122H108.127C108.034 122 107.96 121.98 107.907 121.94C107.867 121.887 107.847 121.8 107.847 121.68V114.68C107.847 114.093 107.7 113.633 107.407 113.3C107.114 112.967 106.674 112.8 106.087 112.8C105.74 112.8 105.407 112.867 105.087 113C104.767 113.133 104.474 113.3 104.207 113.5C103.954 113.687 103.727 113.873 103.527 114.06C103.434 114.153 103.367 114.24 103.327 114.32C103.287 114.4 103.267 114.507 103.267 114.64V121.64C103.267 121.88 103.147 122 102.907 122H101.447C101.354 122 101.28 121.98 101.227 121.94C101.174 121.887 101.147 121.8 101.147 121.68V114.68C101.147 114.093 101.007 113.633 100.727 113.3C100.447 112.967 100 112.8 99.3869 112.8C98.8802 112.8 98.4135 112.927 97.9869 113.18C97.5735 113.42 97.1002 113.793 96.5669 114.3V121.66C96.5669 121.887 96.4402 122 96.1869 122H94.7669ZM118.63 120.8C118.163 121.253 117.65 121.6 117.09 121.84C116.53 122.08 115.897 122.2 115.19 122.2C114.163 122.2 113.357 121.933 112.77 121.4C112.183 120.867 111.89 120.167 111.89 119.3C111.89 118.567 112.097 117.94 112.51 117.42C112.937 116.9 113.55 116.487 114.35 116.18C115.163 115.873 116.15 115.693 117.31 115.64L118.61 115.54C118.69 115.527 118.763 115.5 118.83 115.46C118.897 115.42 118.93 115.347 118.93 115.24V114.74C118.93 114.087 118.73 113.573 118.33 113.2C117.93 112.813 117.383 112.62 116.69 112.62C116.17 112.62 115.69 112.74 115.25 112.98C114.81 113.22 114.417 113.593 114.07 114.1C114.03 114.167 113.99 114.213 113.95 114.24C113.91 114.267 113.837 114.267 113.73 114.24L112.37 113.84C112.317 113.813 112.277 113.78 112.25 113.74C112.237 113.687 112.257 113.593 112.31 113.46C112.697 112.74 113.263 112.187 114.01 111.8C114.77 111.4 115.697 111.2 116.79 111.2C117.75 111.2 118.537 111.34 119.15 111.62C119.763 111.887 120.217 112.28 120.51 112.8C120.817 113.307 120.97 113.907 120.97 114.6V121.66C120.97 121.793 120.943 121.887 120.89 121.94C120.85 121.98 120.777 122 120.67 122H119.31C119.217 122 119.143 121.967 119.09 121.9C119.037 121.82 119.003 121.72 118.99 121.6L118.97 120.84C118.93 120.627 118.817 120.613 118.63 120.8ZM118.93 117.02C118.93 116.793 118.837 116.693 118.65 116.72L117.57 116.8C117.037 116.827 116.55 116.9 116.11 117.02C115.67 117.127 115.29 117.273 114.97 117.46C114.663 117.647 114.417 117.873 114.23 118.14C114.057 118.393 113.97 118.693 113.97 119.04C113.97 119.56 114.15 119.973 114.51 120.28C114.883 120.573 115.383 120.72 116.01 120.72C116.41 120.72 116.783 120.653 117.13 120.52C117.49 120.373 117.803 120.193 118.07 119.98C118.337 119.753 118.543 119.52 118.69 119.28C118.85 119.04 118.93 118.807 118.93 118.58V117.02ZM124.005 122C123.898 122 123.818 121.973 123.765 121.92C123.712 121.867 123.685 121.787 123.685 121.68V111.7C123.685 111.5 123.772 111.4 123.945 111.4H125.485C125.645 111.4 125.725 111.487 125.725 111.66V112.92C125.725 113 125.745 113.047 125.785 113.06C125.838 113.073 125.892 113.047 125.945 112.98C126.278 112.58 126.612 112.253 126.945 112C127.292 111.733 127.638 111.533 127.985 111.4C128.332 111.267 128.678 111.2 129.025 111.2C129.492 111.2 129.725 111.293 129.725 111.48V113.04C129.725 113.2 129.652 113.267 129.505 113.24C129.345 113.2 129.172 113.173 128.985 113.16C128.812 113.147 128.632 113.14 128.445 113.14C128.165 113.14 127.872 113.2 127.565 113.32C127.258 113.44 126.972 113.607 126.705 113.82C126.452 114.02 126.238 114.247 126.065 114.5C125.892 114.753 125.805 115.013 125.805 115.28V121.66C125.805 121.887 125.678 122 125.425 122H124.005ZM134.935 112.92C134.815 112.92 134.755 112.987 134.755 113.12V118.98C134.755 119.553 134.862 119.947 135.075 120.16C135.288 120.36 135.615 120.46 136.055 120.46H137.335C137.415 120.46 137.475 120.487 137.515 120.54C137.555 120.58 137.575 120.633 137.575 120.7V121.56C137.575 121.733 137.475 121.847 137.275 121.9C137.102 121.927 136.888 121.947 136.635 121.96C136.382 121.973 136.128 121.987 135.875 122C135.635 122 135.422 122 135.235 122C134.368 122 133.715 121.8 133.275 121.4C132.848 120.987 132.635 120.353 132.635 119.5V113.16C132.635 113 132.568 112.92 132.435 112.92H130.935C130.762 112.92 130.675 112.84 130.675 112.68V111.62C130.675 111.473 130.755 111.4 130.915 111.4H132.515C132.622 111.4 132.675 111.34 132.675 111.22L132.915 108.08C132.928 107.893 133.008 107.8 133.155 107.8H134.535C134.708 107.8 134.795 107.907 134.795 108.12V111.22C134.795 111.34 134.855 111.4 134.975 111.4H137.375C137.535 111.4 137.615 111.473 137.615 111.62V112.68C137.615 112.84 137.522 112.92 137.335 112.92H134.935ZM141.422 111.4C141.649 111.4 141.762 111.507 141.762 111.72V112.5C141.762 112.593 141.782 112.647 141.822 112.66C141.876 112.66 141.942 112.627 142.022 112.56C142.196 112.387 142.409 112.2 142.662 112C142.916 111.787 143.236 111.6 143.622 111.44C144.022 111.28 144.509 111.2 145.082 111.2C145.896 111.2 146.622 111.4 147.262 111.8C147.916 112.187 148.429 112.773 148.802 113.56C149.189 114.347 149.382 115.347 149.382 116.56C149.382 117.787 149.189 118.82 148.802 119.66C148.429 120.487 147.902 121.12 147.222 121.56C146.556 121.987 145.776 122.2 144.882 122.2C144.296 122.2 143.769 122.113 143.302 121.94C142.849 121.753 142.449 121.507 142.102 121.2C141.982 121.08 141.896 121.033 141.842 121.06C141.789 121.073 141.762 121.16 141.762 121.32V125.02C141.762 125.207 141.682 125.3 141.522 125.3H139.902C139.729 125.3 139.642 125.207 139.642 125.02V111.76C139.642 111.627 139.669 111.533 139.722 111.48C139.776 111.427 139.876 111.4 140.022 111.4H141.422ZM141.762 119.54C142.122 119.913 142.496 120.213 142.882 120.44C143.282 120.653 143.729 120.76 144.222 120.76C144.822 120.76 145.342 120.607 145.782 120.3C146.236 119.993 146.589 119.533 146.842 118.92C147.096 118.293 147.222 117.507 147.222 116.56C147.222 115.613 147.089 114.853 146.822 114.28C146.569 113.707 146.222 113.293 145.782 113.04C145.342 112.773 144.856 112.64 144.322 112.64C143.829 112.64 143.389 112.747 143.002 112.96C142.616 113.173 142.309 113.44 142.082 113.76C141.869 114.08 141.762 114.4 141.762 114.72V119.54ZM151.994 122C151.781 122 151.674 121.893 151.674 121.68V107.46C151.674 107.26 151.754 107.16 151.914 107.16H153.494C153.654 107.16 153.734 107.247 153.734 107.42V112.7C153.734 112.767 153.747 112.813 153.774 112.84C153.814 112.853 153.867 112.827 153.934 112.76C154.387 112.4 154.801 112.107 155.174 111.88C155.561 111.653 155.941 111.487 156.314 111.38C156.701 111.26 157.107 111.2 157.534 111.2C158.561 111.2 159.347 111.48 159.894 112.04C160.441 112.587 160.714 113.333 160.714 114.28V121.64C160.714 121.88 160.601 122 160.374 122H158.894C158.787 122 158.707 121.98 158.654 121.94C158.614 121.887 158.594 121.8 158.594 121.68V114.68C158.594 114.093 158.441 113.633 158.134 113.3C157.841 112.967 157.374 112.8 156.734 112.8C156.374 112.8 156.034 112.86 155.714 112.98C155.407 113.087 155.101 113.253 154.794 113.48C154.487 113.693 154.154 113.967 153.794 114.3V121.66C153.794 121.887 153.667 122 153.414 122H151.994ZM167.992 122.2C166.965 122.2 166.065 121.973 165.292 121.52C164.518 121.053 163.918 120.413 163.492 119.6C163.065 118.773 162.852 117.827 162.852 116.76C162.852 115.653 163.072 114.687 163.512 113.86C163.952 113.02 164.558 112.367 165.332 111.9C166.118 111.433 167.012 111.2 168.012 111.2C169.052 111.2 169.952 111.44 170.712 111.92C171.485 112.387 172.085 113.04 172.512 113.88C172.938 114.707 173.152 115.66 173.152 116.74C173.152 117.807 172.932 118.753 172.492 119.58C172.065 120.393 171.465 121.033 170.692 121.5C169.918 121.967 169.018 122.2 167.992 122.2ZM168.032 120.7C168.658 120.7 169.192 120.54 169.632 120.22C170.072 119.9 170.405 119.447 170.632 118.86C170.872 118.26 170.992 117.54 170.992 116.7C170.992 115.86 170.872 115.14 170.632 114.54C170.405 113.94 170.065 113.48 169.612 113.16C169.172 112.827 168.638 112.66 168.012 112.66C167.385 112.66 166.845 112.827 166.392 113.16C165.952 113.48 165.612 113.94 165.372 114.54C165.132 115.14 165.012 115.86 165.012 116.7C165.012 117.54 165.132 118.26 165.372 118.86C165.612 119.447 165.952 119.9 166.392 120.22C166.845 120.54 167.392 120.7 168.032 120.7ZM175.704 122C175.491 122 175.384 121.893 175.384 121.68V111.7C175.384 111.5 175.471 111.4 175.644 111.4H177.224C177.384 111.4 177.464 111.487 177.464 111.66V112.76C177.464 112.827 177.478 112.873 177.504 112.9C177.544 112.913 177.598 112.887 177.664 112.82C178.078 112.487 178.471 112.2 178.844 111.96C179.218 111.707 179.598 111.52 179.984 111.4C180.371 111.267 180.791 111.2 181.244 111.2C182.258 111.2 183.044 111.48 183.604 112.04C184.164 112.6 184.444 113.34 184.444 114.26V121.64C184.444 121.88 184.331 122 184.104 122H182.624C182.518 122 182.438 121.98 182.384 121.94C182.344 121.887 182.324 121.8 182.324 121.68V114.68C182.324 114.093 182.171 113.633 181.864 113.3C181.558 112.967 181.084 112.8 180.444 112.8C180.084 112.8 179.751 112.86 179.444 112.98C179.138 113.087 178.831 113.253 178.524 113.48C178.218 113.693 177.878 113.967 177.504 114.3V121.66C177.504 121.887 177.378 122 177.124 122H175.704ZM188.762 117.44C188.762 118.04 188.902 118.587 189.182 119.08C189.476 119.56 189.862 119.947 190.342 120.24C190.836 120.52 191.382 120.66 191.982 120.66C192.596 120.66 193.142 120.533 193.622 120.28C194.102 120.027 194.542 119.633 194.942 119.1C194.982 119.047 195.022 119.02 195.062 119.02C195.102 119.007 195.162 119.02 195.242 119.06L196.262 119.54C196.409 119.607 196.422 119.713 196.302 119.86C195.929 120.407 195.516 120.853 195.062 121.2C194.622 121.547 194.129 121.8 193.582 121.96C193.036 122.12 192.429 122.2 191.762 122.2C190.749 122.2 189.856 121.973 189.082 121.52C188.309 121.067 187.696 120.433 187.242 119.62C186.802 118.807 186.582 117.873 186.582 116.82C186.582 115.66 186.809 114.667 187.262 113.84C187.716 113 188.329 112.353 189.102 111.9C189.889 111.433 190.762 111.2 191.722 111.2C192.709 111.2 193.569 111.42 194.302 111.86C195.049 112.287 195.629 112.907 196.042 113.72C196.456 114.533 196.662 115.52 196.662 116.68C196.662 116.8 196.649 116.907 196.622 117C196.596 117.08 196.509 117.12 196.362 117.12H188.962C188.896 117.12 188.842 117.153 188.802 117.22C188.776 117.273 188.762 117.347 188.762 117.44ZM194.222 115.86C194.369 115.86 194.462 115.84 194.502 115.8C194.542 115.76 194.562 115.687 194.562 115.58C194.562 115.073 194.449 114.593 194.222 114.14C194.009 113.687 193.696 113.32 193.282 113.04C192.882 112.76 192.382 112.62 191.782 112.62C191.156 112.62 190.616 112.773 190.162 113.08C189.722 113.373 189.382 113.767 189.142 114.26C188.916 114.753 188.802 115.28 188.802 115.84L194.222 115.86Z" fill="black"/>
<rect x="375" y="41" width="414" height="263" rx="11" fill="url(#paint6_linear_115_2)"/>
<rect x="380" y="46" width="404" height="253" rx="6" fill="white"/>
<rect x="413" y="67" width="49" height="19" rx="9" fill="#E7E9FF"/>
<rect x="575" y="116" width="149" height="11" rx="5.5" fill="#E7E9FF"/>
<rect x="575" y="74.2" width="29" height="8" rx="4" fill="#E7E9FF"/>
<rect x="620" y="74" width="36" height="8" rx="4" fill="#E7E9FF"/>
<rect x="670" y="74" width="38" height="8" rx="4" fill="#E7E9FF"/>
<rect x="722" y="74" width="27" height="8" rx="4" fill="#E7E9FF"/>
<rect x="575" y="138" width="149" height="11" rx="5.5" fill="#E7E9FF"/>
<rect x="446" y="250" width="89" height="8" rx="4" fill="#E7E9FF"/>
<rect x="446" y="266" width="59" height="7" rx="3.5" fill="#E7E9FF"/>
<rect x="551" y="266" width="59" height="7" rx="3.5" fill="#E7E9FF"/>
<rect x="656" y="266" width="59" height="7" rx="3.5" fill="#E7E9FF"/>
<rect x="551" y="250" width="89" height="8" rx="4" fill="#E7E9FF"/>
<rect x="656" y="250" width="89" height="8" rx="4" fill="#E7E9FF"/>
<rect x="447.25" y="110.25" width="116.5" height="53.5" rx="8.75" fill="url(#paint7_linear_115_2)" stroke="#D362BD" stroke-width="0.5"/>
<rect x="447.25" y="183.25" width="87.5" height="55.5" rx="8.75" fill="url(#paint8_linear_115_2)" stroke="url(#paint9_linear_115_2)" stroke-width="0.5"/>
<rect x="551.25" y="183.25" width="87.5" height="54.5" rx="8.75" fill="url(#paint10_linear_115_2)" stroke="url(#paint11_linear_115_2)" stroke-width="0.5"/>
<rect x="656.25" y="183.25" width="87.5" height="55.5" rx="8.75" fill="url(#paint12_linear_115_2)" stroke="url(#paint13_linear_115_2)" stroke-width="0.5"/>
<path d="M538.5 304H625.385L630 338.5C630 338.5 631.215 346.5 632.5 350C633.902 353.819 641 355 641 355C641 355 603.044 355 580 355C556.956 355 519 355 519 355C519 355 527.635 354.139 530 350C532 346.5 533.5 338.5 533.5 338.5L538.5 304Z" fill="url(#paint14_linear_115_2)"/>
<path d="M655.55 355.5L656.441 363.5H505.591L506.928 355.5H655.55Z" fill="#2C4279" stroke="#000B48"/>
<path d="M531.68 19.2C530.333 19.2 529.173 18.9067 528.2 18.32C527.227 17.72 526.48 16.86 525.96 15.74C525.44 14.6067 525.18 13.24 525.18 11.64C525.18 10.0267 525.447 8.64667 525.98 7.5C526.513 6.35333 527.267 5.48 528.24 4.88C529.213 4.26667 530.367 3.96 531.7 3.96C533.02 3.96 534.16 4.26667 535.12 4.88C536.093 5.48 536.84 6.35333 537.36 7.5C537.893 8.63333 538.16 10.0067 538.16 11.62C538.16 13.22 537.9 14.5867 537.38 15.72C536.86 16.84 536.113 17.7 535.14 18.3C534.167 18.9 533.013 19.2 531.68 19.2ZM531.7 17.42C533.033 17.42 534.02 16.96 534.66 16.04C535.313 15.1067 535.64 13.64 535.64 11.64C535.64 9.61333 535.307 8.12 534.64 7.16C533.987 6.2 533.007 5.72 531.7 5.72C530.367 5.72 529.367 6.20667 528.7 7.18C528.033 8.14 527.7 9.62667 527.7 11.64C527.7 13.6267 528.033 15.0867 528.7 16.02C529.367 16.9533 530.367 17.42 531.7 17.42ZM541.052 19C540.945 19 540.865 18.9733 540.812 18.92C540.759 18.8667 540.732 18.7867 540.732 18.68V8.7C540.732 8.5 540.819 8.4 540.992 8.4H542.532C542.692 8.4 542.772 8.48667 542.772 8.66V9.92C542.772 10 542.792 10.0467 542.832 10.06C542.885 10.0733 542.939 10.0467 542.992 9.98C543.325 9.58 543.659 9.25333 543.992 9C544.339 8.73333 544.685 8.53333 545.032 8.4C545.379 8.26667 545.725 8.2 546.072 8.2C546.539 8.2 546.772 8.29333 546.772 8.48V10.04C546.772 10.2 546.699 10.2667 546.552 10.24C546.392 10.2 546.219 10.1733 546.032 10.16C545.859 10.1467 545.679 10.14 545.492 10.14C545.212 10.14 544.919 10.2 544.612 10.32C544.305 10.44 544.019 10.6067 543.752 10.82C543.499 11.02 543.285 11.2467 543.112 11.5C542.939 11.7533 542.852 12.0133 542.852 12.28V18.66C542.852 18.8867 542.725 19 542.472 19H541.052ZM555.868 19C555.775 19 555.695 18.9733 555.628 18.92C555.575 18.8667 555.548 18.7867 555.548 18.68V17.92C555.548 17.8267 555.522 17.7733 555.468 17.76C555.415 17.7467 555.355 17.7733 555.288 17.84C555.115 18 554.895 18.1867 554.628 18.4C554.362 18.6133 554.028 18.8 553.628 18.96C553.228 19.12 552.755 19.2 552.208 19.2C551.382 19.2 550.635 19 549.968 18.6C549.315 18.2 548.795 17.6067 548.408 16.82C548.035 16.02 547.848 15.0267 547.848 13.84C547.848 12.7067 548.048 11.72 548.448 10.88C548.848 10.04 549.395 9.38667 550.088 8.92C550.782 8.44 551.562 8.2 552.428 8.2C553.055 8.2 553.582 8.3 554.008 8.5C554.448 8.7 554.842 8.95333 555.188 9.26C555.295 9.35333 555.375 9.39333 555.428 9.38C555.482 9.35333 555.508 9.26667 555.508 9.12V4.46C555.508 4.26 555.595 4.16 555.768 4.16H557.368C557.542 4.16 557.628 4.26 557.628 4.46V18.66C557.628 18.78 557.602 18.8667 557.548 18.92C557.495 18.9733 557.395 19 557.248 19H555.868ZM555.508 10.88C555.122 10.4933 554.735 10.1933 554.348 9.98C553.962 9.76667 553.528 9.66 553.048 9.66C552.462 9.66 551.935 9.81333 551.468 10.12C551.015 10.4267 550.655 10.8867 550.388 11.5C550.135 12.1 550.008 12.86 550.008 13.78C550.008 14.7133 550.142 15.4733 550.408 16.06C550.675 16.6467 551.028 17.08 551.468 17.36C551.922 17.6267 552.415 17.76 552.948 17.76C553.428 17.76 553.862 17.6467 554.248 17.42C554.635 17.1933 554.942 16.9133 555.168 16.58C555.395 16.2333 555.508 15.8933 555.508 15.56V10.88ZM562.54 18.62C562.54 18.7667 562.506 18.8667 562.44 18.92C562.386 18.9733 562.286 19 562.14 19H560.78C560.633 19 560.533 18.98 560.48 18.94C560.44 18.8867 560.42 18.8 560.42 18.68V8.7C560.42 8.5 560.513 8.4 560.7 8.4H562.3C562.46 8.4 562.54 8.49333 562.54 8.68V18.62ZM562.6 6.28C562.6 6.56 562.466 6.7 562.2 6.7H560.72C560.573 6.7 560.473 6.66667 560.42 6.6C560.38 6.53333 560.36 6.44 560.36 6.32V4.5C560.36 4.27333 560.46 4.16 560.66 4.16H562.32C562.506 4.16 562.6 4.26667 562.6 4.48V6.28ZM565.681 19C565.468 19 565.361 18.8933 565.361 18.68V8.7C565.361 8.5 565.448 8.4 565.621 8.4H567.201C567.361 8.4 567.441 8.48667 567.441 8.66V9.76C567.441 9.82667 567.454 9.87333 567.481 9.9C567.521 9.91333 567.574 9.88667 567.641 9.82C568.054 9.48667 568.448 9.2 568.821 8.96C569.194 8.70667 569.574 8.52 569.961 8.4C570.348 8.26667 570.768 8.2 571.221 8.2C572.234 8.2 573.021 8.48 573.581 9.04C574.141 9.6 574.421 10.34 574.421 11.26V18.64C574.421 18.88 574.308 19 574.081 19H572.601C572.494 19 572.414 18.98 572.361 18.94C572.321 18.8867 572.301 18.8 572.301 18.68V11.68C572.301 11.0933 572.148 10.6333 571.841 10.3C571.534 9.96667 571.061 9.8 570.421 9.8C570.061 9.8 569.728 9.86 569.421 9.98C569.114 10.0867 568.808 10.2533 568.501 10.48C568.194 10.6933 567.854 10.9667 567.481 11.3V18.66C567.481 18.8867 567.354 19 567.101 19H565.681ZM583.099 17.8C582.632 18.2533 582.119 18.6 581.559 18.84C580.999 19.08 580.365 19.2 579.659 19.2C578.632 19.2 577.825 18.9333 577.239 18.4C576.652 17.8667 576.359 17.1667 576.359 16.3C576.359 15.5667 576.565 14.94 576.979 14.42C577.405 13.9 578.019 13.4867 578.819 13.18C579.632 12.8733 580.619 12.6933 581.779 12.64L583.079 12.54C583.159 12.5267 583.232 12.5 583.299 12.46C583.365 12.42 583.399 12.3467 583.399 12.24V11.74C583.399 11.0867 583.199 10.5733 582.799 10.2C582.399 9.81333 581.852 9.62 581.159 9.62C580.639 9.62 580.159 9.74 579.719 9.98C579.279 10.22 578.885 10.5933 578.539 11.1C578.499 11.1667 578.459 11.2133 578.419 11.24C578.379 11.2667 578.305 11.2667 578.199 11.24L576.839 10.84C576.785 10.8133 576.745 10.78 576.719 10.74C576.705 10.6867 576.725 10.5933 576.779 10.46C577.165 9.74 577.732 9.18667 578.479 8.8C579.239 8.4 580.165 8.2 581.259 8.2C582.219 8.2 583.005 8.34 583.619 8.62C584.232 8.88667 584.685 9.28 584.979 9.8C585.285 10.3067 585.439 10.9067 585.439 11.6V18.66C585.439 18.7933 585.412 18.8867 585.359 18.94C585.319 18.98 585.245 19 585.139 19H583.779C583.685 19 583.612 18.9667 583.559 18.9C583.505 18.82 583.472 18.72 583.459 18.6L583.439 17.84C583.399 17.6267 583.285 17.6133 583.099 17.8ZM583.399 14.02C583.399 13.7933 583.305 13.6933 583.119 13.72L582.039 13.8C581.505 13.8267 581.019 13.9 580.579 14.02C580.139 14.1267 579.759 14.2733 579.439 14.46C579.132 14.6467 578.885 14.8733 578.699 15.14C578.525 15.3933 578.439 15.6933 578.439 16.04C578.439 16.56 578.619 16.9733 578.979 17.28C579.352 17.5733 579.852 17.72 580.479 17.72C580.879 17.72 581.252 17.6533 581.599 17.52C581.959 17.3733 582.272 17.1933 582.539 16.98C582.805 16.7533 583.012 16.52 583.159 16.28C583.319 16.04 583.399 15.8067 583.399 15.58V14.02ZM591.2 9.92C591.08 9.92 591.02 9.98667 591.02 10.12V15.98C591.02 16.5533 591.127 16.9467 591.34 17.16C591.554 17.36 591.88 17.46 592.32 17.46H593.6C593.68 17.46 593.74 17.4867 593.78 17.54C593.82 17.58 593.84 17.6333 593.84 17.7V18.56C593.84 18.7333 593.74 18.8467 593.54 18.9C593.367 18.9267 593.154 18.9467 592.9 18.96C592.647 18.9733 592.394 18.9867 592.14 19C591.9 19 591.687 19 591.5 19C590.634 19 589.98 18.8 589.54 18.4C589.114 17.9867 588.9 17.3533 588.9 16.5V10.16C588.9 10 588.834 9.92 588.7 9.92H587.2C587.027 9.92 586.94 9.84 586.94 9.68V8.62C586.94 8.47333 587.02 8.4 587.18 8.4H588.78C588.887 8.4 588.94 8.34 588.94 8.22L589.18 5.08C589.194 4.89333 589.274 4.8 589.42 4.8H590.8C590.974 4.8 591.06 4.90667 591.06 5.12V8.22C591.06 8.34 591.12 8.4 591.24 8.4H593.64C593.8 8.4 593.88 8.47333 593.88 8.62V9.68C593.88 9.84 593.787 9.92 593.6 9.92H591.2ZM597.254 14.44C597.254 15.04 597.394 15.5867 597.674 16.08C597.968 16.56 598.354 16.9467 598.834 17.24C599.328 17.52 599.874 17.66 600.474 17.66C601.088 17.66 601.634 17.5333 602.114 17.28C602.594 17.0267 603.034 16.6333 603.434 16.1C603.474 16.0467 603.514 16.02 603.554 16.02C603.594 16.0067 603.654 16.02 603.734 16.06L604.754 16.54C604.901 16.6067 604.914 16.7133 604.794 16.86C604.421 17.4067 604.008 17.8533 603.554 18.2C603.114 18.5467 602.621 18.8 602.074 18.96C601.528 19.12 600.921 19.2 600.254 19.2C599.241 19.2 598.348 18.9733 597.574 18.52C596.801 18.0667 596.188 17.4333 595.734 16.62C595.294 15.8067 595.074 14.8733 595.074 13.82C595.074 12.66 595.301 11.6667 595.754 10.84C596.208 10 596.821 9.35333 597.594 8.9C598.381 8.43333 599.254 8.2 600.214 8.2C601.201 8.2 602.061 8.42 602.794 8.86C603.541 9.28667 604.121 9.90667 604.534 10.72C604.948 11.5333 605.154 12.52 605.154 13.68C605.154 13.8 605.141 13.9067 605.114 14C605.088 14.08 605.001 14.12 604.854 14.12H597.454C597.388 14.12 597.334 14.1533 597.294 14.22C597.268 14.2733 597.254 14.3467 597.254 14.44ZM602.714 12.86C602.861 12.86 602.954 12.84 602.994 12.8C603.034 12.76 603.054 12.6867 603.054 12.58C603.054 12.0733 602.941 11.5933 602.714 11.14C602.501 10.6867 602.188 10.32 601.774 10.04C601.374 9.76 600.874 9.62 600.274 9.62C599.648 9.62 599.108 9.77333 598.654 10.08C598.214 10.3733 597.874 10.7667 597.634 11.26C597.408 11.7533 597.294 12.28 597.294 12.84L602.714 12.86ZM611.115 17.6C611.648 17.6 612.148 17.46 612.615 17.18C613.095 16.8867 613.562 16.5 614.015 16.02V8.74C614.015 8.51333 614.142 8.4 614.395 8.4H615.835C616.048 8.4 616.155 8.50667 616.155 8.72L616.115 18.72C616.115 18.9067 616.035 19 615.875 19H614.315C614.155 19 614.075 18.9133 614.075 18.74V17.62C614.075 17.5533 614.055 17.5133 614.015 17.5C613.988 17.4733 613.942 17.4933 613.875 17.56C613.195 18.1733 612.575 18.6 612.015 18.84C611.455 19.08 610.882 19.2 610.295 19.2C609.695 19.2 609.155 19.0733 608.675 18.82C608.208 18.5667 607.835 18.2067 607.555 17.74C607.288 17.2733 607.155 16.7267 607.155 16.1V8.76C607.155 8.52 607.275 8.4 607.515 8.4H608.975C609.175 8.4 609.275 8.50667 609.275 8.72V15.66C609.275 16.2333 609.435 16.7 609.755 17.06C610.088 17.42 610.542 17.6 611.115 17.6ZM619.255 19C619.148 19 619.068 18.9733 619.015 18.92C618.962 18.8667 618.935 18.7867 618.935 18.68V8.7C618.935 8.5 619.022 8.4 619.195 8.4H620.735C620.895 8.4 620.975 8.48667 620.975 8.66V9.92C620.975 10 620.995 10.0467 621.035 10.06C621.088 10.0733 621.142 10.0467 621.195 9.98C621.528 9.58 621.862 9.25333 622.195 9C622.542 8.73333 622.888 8.53333 623.235 8.4C623.582 8.26667 623.928 8.2 624.275 8.2C624.742 8.2 624.975 8.29333 624.975 8.48V10.04C624.975 10.2 624.902 10.2667 624.755 10.24C624.595 10.2 624.422 10.1733 624.235 10.16C624.062 10.1467 623.882 10.14 623.695 10.14C623.415 10.14 623.122 10.2 622.815 10.32C622.508 10.44 622.222 10.6067 621.955 10.82C621.702 11.02 621.488 11.2467 621.315 11.5C621.142 11.7533 621.055 12.0133 621.055 12.28V18.66C621.055 18.8867 620.928 19 620.675 19H619.255Z" fill="black"/>
<rect x="223.5" y="74.5" width="196" height="261" rx="11" fill="url(#paint15_linear_115_2)"/>
<rect x="228.661" y="79.7456" width="185.678" height="250.509" rx="7" fill="white"/>
<rect x="247.908" y="101.579" width="37.3621" height="13.7895" rx="6" fill="#E7EAFF"/>
<rect x="326.029" y="105.026" width="43.023" height="6.32018" rx="3.16009" fill="#E7EAFF"/>
<rect x="348.672" y="144.096" width="46.4195" height="8.04386" rx="4.02193" fill="#E7EAFF"/>
<rect x="348.672" y="163.632" width="46.4195" height="8.04386" rx="4.02193" fill="#E7EAFF"/>
<rect x="290.931" y="306.123" width="60.0057" height="8.61842" rx="4.30921" fill="#E7EAFF"/>
<rect x="246.776" y="275.096" width="96.2356" height="7.4693" rx="3.73465" fill="#E7EAFF"/>
<rect x="246.776" y="257.86" width="129.069" height="8.04386" rx="4.02193" fill="#E7EAFF"/>
<rect x="377.543" y="105.026" width="18.1149" height="6.32018" rx="3.16009" fill="#E7EAFF"/>
<rect x="248.158" y="137.452" width="88.9425" height="44.3158" rx="4.75" fill="url(#paint16_linear_115_2)" stroke="#D362BD" stroke-width="0.5"/>
<rect x="248.158" y="198.355" width="42.523" height="45.4649" rx="3.75" fill="url(#paint17_linear_115_2)" stroke="url(#paint18_linear_115_2)" stroke-width="0.5"/>
<rect x="300.239" y="198.355" width="42.523" height="45.4649" rx="3.75" fill="url(#paint19_linear_115_2)" stroke="url(#paint20_linear_115_2)" stroke-width="0.5"/>
<rect x="353.451" y="198.355" width="42.523" height="45.4649" rx="3.75" fill="url(#paint21_linear_115_2)" stroke="url(#paint22_linear_115_2)" stroke-width="0.5"/>
<path d="M279.78 36.44C279.78 36.3467 279.8 36.28 279.84 36.24C279.893 36.1867 279.973 36.16 280.08 36.16H291.06C291.167 36.16 291.24 36.1867 291.28 36.24C291.32 36.28 291.34 36.3467 291.34 36.44V37.72C291.34 37.88 291.247 37.96 291.06 37.96H287.1C286.953 37.96 286.88 38.02 286.88 38.14V50.7C286.88 50.9 286.793 51 286.62 51H284.74C284.567 51 284.48 50.9067 284.48 50.72V38.18C284.48 38.0333 284.407 37.96 284.26 37.96H280.06C279.873 37.96 279.78 37.88 279.78 37.72V36.44ZM297.689 49.8C297.222 50.2533 296.709 50.6 296.149 50.84C295.589 51.08 294.955 51.2 294.249 51.2C293.222 51.2 292.415 50.9333 291.829 50.4C291.242 49.8667 290.949 49.1667 290.949 48.3C290.949 47.5667 291.155 46.94 291.569 46.42C291.995 45.9 292.609 45.4867 293.409 45.18C294.222 44.8733 295.209 44.6933 296.369 44.64L297.669 44.54C297.749 44.5267 297.822 44.5 297.889 44.46C297.955 44.42 297.989 44.3467 297.989 44.24V43.74C297.989 43.0867 297.789 42.5733 297.389 42.2C296.989 41.8133 296.442 41.62 295.749 41.62C295.229 41.62 294.749 41.74 294.309 41.98C293.869 42.22 293.475 42.5933 293.129 43.1C293.089 43.1667 293.049 43.2133 293.009 43.24C292.969 43.2667 292.895 43.2667 292.789 43.24L291.429 42.84C291.375 42.8133 291.335 42.78 291.309 42.74C291.295 42.6867 291.315 42.5933 291.369 42.46C291.755 41.74 292.322 41.1867 293.069 40.8C293.829 40.4 294.755 40.2 295.849 40.2C296.809 40.2 297.595 40.34 298.209 40.62C298.822 40.8867 299.275 41.28 299.569 41.8C299.875 42.3067 300.029 42.9067 300.029 43.6V50.66C300.029 50.7933 300.002 50.8867 299.949 50.94C299.909 50.98 299.835 51 299.729 51H298.369C298.275 51 298.202 50.9667 298.149 50.9C298.095 50.82 298.062 50.72 298.049 50.6L298.029 49.84C297.989 49.6267 297.875 49.6133 297.689 49.8ZM297.989 46.02C297.989 45.7933 297.895 45.6933 297.709 45.72L296.629 45.8C296.095 45.8267 295.609 45.9 295.169 46.02C294.729 46.1267 294.349 46.2733 294.029 46.46C293.722 46.6467 293.475 46.8733 293.289 47.14C293.115 47.3933 293.029 47.6933 293.029 48.04C293.029 48.56 293.209 48.9733 293.569 49.28C293.942 49.5733 294.442 49.72 295.069 49.72C295.469 49.72 295.842 49.6533 296.189 49.52C296.549 49.3733 296.862 49.1933 297.129 48.98C297.395 48.7533 297.602 48.52 297.749 48.28C297.909 48.04 297.989 47.8067 297.989 47.58V46.02ZM303.104 51C302.97 51 302.877 50.9733 302.824 50.92C302.77 50.8667 302.744 50.7733 302.744 50.64V36.46C302.744 36.26 302.837 36.16 303.024 36.16H304.624C304.784 36.16 304.864 36.26 304.864 36.46V41.3C304.864 41.4333 304.89 41.5067 304.944 41.52C305.01 41.5333 305.09 41.5 305.184 41.42C305.33 41.2733 305.537 41.1067 305.804 40.92C306.084 40.7333 306.424 40.5667 306.824 40.42C307.237 40.2733 307.71 40.2 308.244 40.2C309.204 40.2 309.997 40.44 310.624 40.92C311.25 41.3867 311.717 42.0267 312.024 42.84C312.344 43.6533 312.504 44.5867 312.504 45.64C312.504 47.3467 312.104 48.7 311.304 49.7C310.517 50.7 309.397 51.2 307.944 51.2C307.37 51.2 306.87 51.1133 306.444 50.94C306.017 50.7667 305.664 50.5533 305.384 50.3C305.104 50.0467 304.884 49.82 304.724 49.62C304.67 49.5533 304.617 49.5267 304.564 49.54C304.524 49.54 304.504 49.5867 304.504 49.68L304.344 50.66C304.304 50.8867 304.17 51 303.944 51H303.104ZM304.864 47.4C304.864 47.8533 304.984 48.26 305.224 48.62C305.477 48.98 305.797 49.2667 306.184 49.48C306.584 49.68 307.01 49.78 307.464 49.78C308.01 49.78 308.497 49.64 308.924 49.36C309.364 49.08 309.704 48.64 309.944 48.04C310.197 47.4267 310.324 46.64 310.324 45.68C310.324 44.36 310.09 43.36 309.624 42.68C309.157 42 308.47 41.66 307.564 41.66C307.017 41.66 306.51 41.7867 306.044 42.04C305.577 42.2933 305.184 42.6133 304.864 43V47.4ZM316.915 50.62C316.915 50.7667 316.882 50.8667 316.815 50.92C316.762 50.9733 316.655 51 316.495 51H315.135C314.895 51 314.775 50.8933 314.775 50.68L314.815 36.46C314.815 36.26 314.902 36.16 315.075 36.16H316.655C316.828 36.16 316.915 36.26 316.915 36.46V50.62ZM321.356 46.44C321.356 47.04 321.496 47.5867 321.776 48.08C322.069 48.56 322.456 48.9467 322.936 49.24C323.429 49.52 323.976 49.66 324.576 49.66C325.189 49.66 325.736 49.5333 326.216 49.28C326.696 49.0267 327.136 48.6333 327.536 48.1C327.576 48.0467 327.616 48.02 327.656 48.02C327.696 48.0067 327.756 48.02 327.836 48.06L328.856 48.54C329.003 48.6067 329.016 48.7133 328.896 48.86C328.523 49.4067 328.109 49.8533 327.656 50.2C327.216 50.5467 326.723 50.8 326.176 50.96C325.629 51.12 325.023 51.2 324.356 51.2C323.343 51.2 322.449 50.9733 321.676 50.52C320.903 50.0667 320.289 49.4333 319.836 48.62C319.396 47.8067 319.176 46.8733 319.176 45.82C319.176 44.66 319.403 43.6667 319.856 42.84C320.309 42 320.923 41.3533 321.696 40.9C322.483 40.4333 323.356 40.2 324.316 40.2C325.303 40.2 326.163 40.42 326.896 40.86C327.643 41.2867 328.223 41.9067 328.636 42.72C329.049 43.5333 329.256 44.52 329.256 45.68C329.256 45.8 329.243 45.9067 329.216 46C329.189 46.08 329.103 46.12 328.956 46.12H321.556C321.489 46.12 321.436 46.1533 321.396 46.22C321.369 46.2733 321.356 46.3467 321.356 46.44ZM326.816 44.86C326.963 44.86 327.056 44.84 327.096 44.8C327.136 44.76 327.156 44.6867 327.156 44.58C327.156 44.0733 327.043 43.5933 326.816 43.14C326.603 42.6867 326.289 42.32 325.876 42.04C325.476 41.76 324.976 41.62 324.376 41.62C323.749 41.62 323.209 41.7733 322.756 42.08C322.316 42.3733 321.976 42.7667 321.736 43.26C321.509 43.7533 321.396 44.28 321.396 44.84L326.816 44.86ZM334.443 41.92C334.323 41.92 334.263 41.9867 334.263 42.12V47.98C334.263 48.5533 334.369 48.9467 334.583 49.16C334.796 49.36 335.123 49.46 335.563 49.46H336.843C336.923 49.46 336.983 49.4867 337.023 49.54C337.063 49.58 337.083 49.6333 337.083 49.7V50.56C337.083 50.7333 336.983 50.8467 336.783 50.9C336.609 50.9267 336.396 50.9467 336.143 50.96C335.889 50.9733 335.636 50.9867 335.383 51C335.143 51 334.929 51 334.743 51C333.876 51 333.223 50.8 332.783 50.4C332.356 49.9867 332.143 49.3533 332.143 48.5V42.16C332.143 42 332.076 41.92 331.943 41.92H330.443C330.269 41.92 330.183 41.84 330.183 41.68V40.62C330.183 40.4733 330.263 40.4 330.423 40.4H332.023C332.129 40.4 332.183 40.34 332.183 40.22L332.423 37.08C332.436 36.8933 332.516 36.8 332.663 36.8H334.043C334.216 36.8 334.303 36.9067 334.303 37.12V40.22C334.303 40.34 334.363 40.4 334.483 40.4H336.883C337.043 40.4 337.123 40.4733 337.123 40.62V41.68C337.123 41.84 337.029 41.92 336.843 41.92H334.443ZM342.47 41.92C342.35 41.92 342.29 41.9867 342.29 42.12V47.98C342.29 48.5533 342.397 48.9467 342.61 49.16C342.823 49.36 343.15 49.46 343.59 49.46H344.87C344.95 49.46 345.01 49.4867 345.05 49.54C345.09 49.58 345.11 49.6333 345.11 49.7V50.56C345.11 50.7333 345.01 50.8467 344.81 50.9C344.637 50.9267 344.423 50.9467 344.17 50.96C343.917 50.9733 343.663 50.9867 343.41 51C343.17 51 342.957 51 342.77 51C341.903 51 341.25 50.8 340.81 50.4C340.383 49.9867 340.17 49.3533 340.17 48.5V42.16C340.17 42 340.103 41.92 339.97 41.92H338.47C338.297 41.92 338.21 41.84 338.21 41.68V40.62C338.21 40.4733 338.29 40.4 338.45 40.4H340.05C340.157 40.4 340.21 40.34 340.21 40.22L340.45 37.08C340.463 36.8933 340.543 36.8 340.69 36.8H342.07C342.243 36.8 342.33 36.9067 342.33 37.12V40.22C342.33 40.34 342.39 40.4 342.51 40.4H344.91C345.07 40.4 345.15 40.4733 345.15 40.62V41.68C345.15 41.84 345.057 41.92 344.87 41.92H342.47ZM348.524 46.44C348.524 47.04 348.664 47.5867 348.944 48.08C349.237 48.56 349.624 48.9467 350.104 49.24C350.597 49.52 351.144 49.66 351.744 49.66C352.357 49.66 352.904 49.5333 353.384 49.28C353.864 49.0267 354.304 48.6333 354.704 48.1C354.744 48.0467 354.784 48.02 354.824 48.02C354.864 48.0067 354.924 48.02 355.004 48.06L356.024 48.54C356.171 48.6067 356.184 48.7133 356.064 48.86C355.691 49.4067 355.277 49.8533 354.824 50.2C354.384 50.5467 353.891 50.8 353.344 50.96C352.797 51.12 352.191 51.2 351.524 51.2C350.511 51.2 349.617 50.9733 348.844 50.52C348.071 50.0667 347.457 49.4333 347.004 48.62C346.564 47.8067 346.344 46.8733 346.344 45.82C346.344 44.66 346.571 43.6667 347.024 42.84C347.477 42 348.091 41.3533 348.864 40.9C349.651 40.4333 350.524 40.2 351.484 40.2C352.471 40.2 353.331 40.42 354.064 40.86C354.811 41.2867 355.391 41.9067 355.804 42.72C356.217 43.5333 356.424 44.52 356.424 45.68C356.424 45.8 356.411 45.9067 356.384 46C356.357 46.08 356.271 46.12 356.124 46.12H348.724C348.657 46.12 348.604 46.1533 348.564 46.22C348.537 46.2733 348.524 46.3467 348.524 46.44ZM353.984 44.86C354.131 44.86 354.224 44.84 354.264 44.8C354.304 44.76 354.324 44.6867 354.324 44.58C354.324 44.0733 354.211 43.5933 353.984 43.14C353.771 42.6867 353.457 42.32 353.044 42.04C352.644 41.76 352.144 41.62 351.544 41.62C350.917 41.62 350.377 41.7733 349.924 42.08C349.484 42.3733 349.144 42.7667 348.904 43.26C348.677 43.7533 348.564 44.28 348.564 44.84L353.984 44.86Z" fill="black"/>
<defs>
<radialGradient id="paint0_radial_115_2" cx="0" cy="0" r="1" gradientUnits="userSpaceOnUse" gradientTransform="translate(393.5 236) rotate(90) scale(231 390.5)">
<stop stop-color="#388CE1"/>
<stop offset="0.4" stop-color="#388CE1" stop-opacity="0.58"/>
<stop offset="1" stop-color="white" stop-opacity="0.32"/>
</radialGradient>
<linearGradient id="paint1_linear_115_2" x1="138.73" y1="146" x2="138.73" y2="330" gradientUnits="userSpaceOnUse">
<stop stop-color="#283A5B"/>
<stop offset="1" stop-color="#2B3C5A"/>
</linearGradient>
<linearGradient id="paint2_linear_115_2" x1="105.903" y1="204.085" x2="172.329" y2="204.085" gradientUnits="userSpaceOnUse">
<stop stop-color="#E691C9"/>
<stop offset="1" stop-color="#D471CA"/>
</linearGradient>
<linearGradient id="paint3_linear_115_2" x1="105.903" y1="204.085" x2="172.329" y2="204.085" gradientUnits="userSpaceOnUse">
<stop stop-color="#E275BB"/>
<stop offset="1" stop-color="#BD34B0"/>
</linearGradient>
<linearGradient id="paint4_linear_115_2" x1="105.903" y1="267.237" x2="172.329" y2="267.237" gradientUnits="userSpaceOnUse">
<stop stop-color="#73C8FE"/>
<stop offset="1" stop-color="#8190FF"/>
</linearGradient>
<linearGradient id="paint5_linear_115_2" x1="105.903" y1="267.237" x2="172.329" y2="267.237" gradientUnits="userSpaceOnUse">
<stop stop-color="#36B0FD"/>
<stop offset="1" stop-color="#3857FB"/>
</linearGradient>
<linearGradient id="paint6_linear_115_2" x1="375" y1="172.5" x2="789" y2="172.5" gradientUnits="userSpaceOnUse">
<stop stop-color="#304369"/>
<stop offset="1" stop-color="#415B8D"/>
</linearGradient>
<linearGradient id="paint7_linear_115_2" x1="447" y1="137" x2="564" y2="137" gradientUnits="userSpaceOnUse">
<stop stop-color="#E893CA"/>
<stop offset="1" stop-color="#D376C8"/>
</linearGradient>
<linearGradient id="paint8_linear_115_2" x1="447" y1="211" x2="535" y2="211" gradientUnits="userSpaceOnUse">
<stop stop-color="#78CAFE"/>
<stop offset="1" stop-color="#77A7FE"/>
</linearGradient>
<linearGradient id="paint9_linear_115_2" x1="447" y1="211" x2="535" y2="211" gradientUnits="userSpaceOnUse">
<stop stop-color="#41B9FE"/>
<stop offset="1" stop-color="#4883FF"/>
</linearGradient>
<linearGradient id="paint10_linear_115_2" x1="551" y1="210.5" x2="639" y2="210.5" gradientUnits="userSpaceOnUse">
<stop stop-color="#7EB4FF"/>
<stop offset="1" stop-color="#828AFE"/>
</linearGradient>
<linearGradient id="paint11_linear_115_2" x1="639" y1="210.5" x2="551" y2="210.5" gradientUnits="userSpaceOnUse">
<stop stop-color="#4B4CFF"/>
<stop offset="1" stop-color="#4F90FF"/>
</linearGradient>
<linearGradient id="paint12_linear_115_2" x1="656" y1="211" x2="744" y2="211" gradientUnits="userSpaceOnUse">
<stop stop-color="#908EFE"/>
<stop offset="1" stop-color="#9269FE"/>
</linearGradient>
<linearGradient id="paint13_linear_115_2" x1="656" y1="211" x2="744" y2="211" gradientUnits="userSpaceOnUse">
<stop stop-color="#655DFC"/>
<stop offset="1" stop-color="#6628F7"/>
</linearGradient>
<linearGradient id="paint14_linear_115_2" x1="580" y1="304" x2="580" y2="355" gradientUnits="userSpaceOnUse">
<stop stop-color="#2D3F76"/>
<stop offset="1" stop-color="#586B9D"/>
</linearGradient>
<linearGradient id="paint15_linear_115_2" x1="402.603" y1="76.2171" x2="231.569" y2="328.95" gradientUnits="userSpaceOnUse">
<stop stop-color="#2E4469"/>
<stop offset="1" stop-color="#455373"/>
</linearGradient>
<linearGradient id="paint16_linear_115_2" x1="247.908" y1="159.61" x2="337.35" y2="159.61" gradientUnits="userSpaceOnUse">
<stop stop-color="#E893CA"/>
<stop offset="1" stop-color="#D376C8"/>
</linearGradient>
<linearGradient id="paint17_linear_115_2" x1="247.908" y1="221.088" x2="290.931" y2="221.088" gradientUnits="userSpaceOnUse">
<stop stop-color="#78CAFE"/>
<stop offset="1" stop-color="#77A7FE"/>
</linearGradient>
<linearGradient id="paint18_linear_115_2" x1="247.908" y1="221.088" x2="290.931" y2="221.088" gradientUnits="userSpaceOnUse">
<stop stop-color="#41B9FE"/>
<stop offset="1" stop-color="#4883FF"/>
</linearGradient>
<linearGradient id="paint19_linear_115_2" x1="299.989" y1="221.088" x2="343.012" y2="221.088" gradientUnits="userSpaceOnUse">
<stop stop-color="#88A9FF"/>
<stop offset="1" stop-color="#8B8AFE"/>
</linearGradient>
<linearGradient id="paint20_linear_115_2" x1="299.989" y1="221.088" x2="343.012" y2="221.088" gradientUnits="userSpaceOnUse">
<stop stop-color="#6A91FE"/>
<stop offset="1" stop-color="#685EFF"/>
</linearGradient>
<linearGradient id="paint21_linear_115_2" x1="353.201" y1="221.088" x2="396.224" y2="221.088" gradientUnits="userSpaceOnUse">
<stop stop-color="#9685FE"/>
<stop offset="1" stop-color="#9D70FF"/>
</linearGradient>
<linearGradient id="paint22_linear_115_2" x1="353.201" y1="221.088" x2="396.224" y2="221.088" gradientUnits="userSpaceOnUse">
<stop stop-color="#7057FF"/>
<stop offset="1" stop-color="#5515FC"/>
</linearGradient>
</defs>
</svg>
