<svg width="199" height="359" viewBox="0 0 199 359" fill="none" xmlns="http://www.w3.org/2000/svg">
<path d="M4.39754 64.1062C2.33709 34.0695 1.30686 19.0511 10.2014 9.52554C19.0959 0 34.1495 0 64.2569 0H116.27C142.661 0 155.857 0 164.487 8.00227C173.117 16.0045 174.111 29.163 176.099 55.48L193.818 290.022C196.019 319.145 197.119 333.706 188.649 343.217C180.179 352.729 165.588 353.317 136.406 354.494L82.9108 356.65C55.3698 357.761 41.5992 358.316 32.5317 350.185C23.4641 342.053 22.5209 328.304 20.6346 300.805L4.39754 64.1062Z" fill="url(#paint0_linear_9_15)" fill-opacity="0.56"/>
<path d="M11.0778 67.2633C8.93342 37.1602 7.86122 22.1087 16.7592 12.5543C25.6571 3 40.7468 3 70.9262 3H115.126C141.554 3 154.769 3 163.402 11.0176C172.035 19.0353 173.011 32.2135 174.962 58.5701L191.943 287.932C194.086 316.879 195.157 331.352 186.745 340.835C178.332 350.317 163.834 350.978 134.838 352.3L90.1419 354.337C62.5406 355.595 48.74 356.224 39.6233 348.113C30.5066 340.003 29.525 326.223 27.5617 298.663L11.0778 67.2633Z" fill="url(#paint1_linear_9_15)"/>
<path d="M18.672 56.9649C17.1856 34.9576 16.4424 23.9539 22.964 16.9769C29.4857 10 40.5144 10 62.572 10H123.258C142.708 10 152.432 10 158.77 15.9082C165.107 21.8165 165.788 31.5173 167.15 50.9191L184.35 295.958C185.832 317.07 186.573 327.626 180.427 334.545C174.28 341.464 163.71 341.973 142.571 342.989L81.4331 345.928C61.0798 346.906 50.9032 347.395 44.1916 341.417C37.48 335.439 36.7935 325.274 35.4204 304.944L18.672 56.9649Z" fill="url(#paint2_linear_9_15)"/>
<path d="M150.062 49.7634C148.931 49.7634 148.469 48.9634 149.031 47.9821C149.356 47.4134 149.163 46.6884 148.594 46.3634L147.513 45.7446C147.019 45.4509 146.381 45.6259 146.087 46.1196L146.019 46.2384C145.456 47.2196 144.531 47.2196 143.963 46.2384L143.894 46.1196C143.612 45.6259 142.975 45.4509 142.481 45.7446L141.4 46.3634C140.831 46.6884 140.638 47.4196 140.963 47.9884C141.531 48.9634 141.069 49.7634 139.938 49.7634C139.288 49.7634 138.75 50.2946 138.75 50.9509V52.0509C138.75 52.7009 139.281 53.2384 139.938 53.2384C141.069 53.2384 141.531 54.0384 140.963 55.0196C140.638 55.5884 140.831 56.3134 141.4 56.6384L142.481 57.2571C142.975 57.5509 143.613 57.3759 143.906 56.8821L143.975 56.7634C144.537 55.7821 145.462 55.7821 146.031 56.7634L146.1 56.8821C146.394 57.3759 147.031 57.5509 147.525 57.2571L148.606 56.6384C149.175 56.3134 149.369 55.5821 149.044 55.0196C148.475 54.0384 148.938 53.2384 150.069 53.2384C150.719 53.2384 151.256 52.7071 151.256 52.0509V50.9509C151.25 50.3009 150.719 49.7634 150.062 49.7634ZM145 53.5321C143.881 53.5321 142.969 52.6196 142.969 51.5009C142.969 50.3821 143.881 49.4696 145 49.4696C146.119 49.4696 147.031 50.3821 147.031 51.5009C147.031 52.6196 146.119 53.5321 145 53.5321Z" fill="white" fill-opacity="0.59"/>
<path d="M37.8368 59.8627L43.8337 59.6709M37.6636 54.4488L42.9109 54.281L48.1582 54.1132M37.4905 49.0349L43.4874 48.8431" stroke="white" stroke-opacity="0.55" stroke-width="2" stroke-linecap="round" stroke-linejoin="round"/>
<path d="M70.5 20.4358C70.5 16.3291 73.8291 13 77.9358 13H116.064C120.171 13 123.5 16.3291 123.5 20.4358C123.5 24.6134 120.113 28 115.936 28H78.0642C73.8866 28 70.5 24.6134 70.5 20.4358Z" fill="black"/>
<path opacity="0.37" d="M85.6662 338.531C85.6038 337.106 86.7083 335.9 88.1332 335.838L135.922 333.744C137.347 333.682 138.553 334.786 138.615 336.211C138.679 337.66 137.555 338.887 136.106 338.95L88.4058 341.04C86.9563 341.104 85.7297 339.98 85.6662 338.531Z" fill="white"/>
<path d="M28.8779 94.4124C28.2213 86.3754 34.4728 79.4466 42.5347 79.2756L146.993 77.0585C154.347 76.9025 160.568 82.4646 161.233 89.7901L165.522 137.04C166.252 145.081 160.046 152.071 151.975 152.3L47.1505 155.269C39.7109 155.48 33.4062 149.833 32.8 142.415L28.8779 94.4124Z" fill="url(#paint3_linear_9_15)"/>
<path d="M29.3765 94.3721C28.7434 86.6224 34.7711 79.9404 42.5449 79.7751L147.003 77.5581C154.095 77.4077 160.094 82.7713 160.735 89.8352L165.024 137.085C165.728 144.839 159.744 151.579 151.962 151.8L47.1367 154.769C39.9629 154.972 33.8833 149.528 33.2986 142.375L29.3765 94.3721Z" stroke="white" stroke-opacity="0.08"/>
<path opacity="0.3" d="M43.9186 109.404C42.0694 106.885 43.8419 103.329 46.9668 103.29L142.613 102.075C145.368 102.04 147.238 104.866 146.127 107.388C145.529 108.745 144.195 109.629 142.713 109.649L47.0688 110.973C45.827 110.99 44.6535 110.406 43.9186 109.404Z" fill="#D9D9D9"/>
<path opacity="0.3" d="M52.2104 126.824C50.952 124.298 52.755 121.324 55.5759 121.271L118.314 120.097C120.879 120.049 122.749 122.511 122.014 124.97C121.543 126.546 120.107 127.638 118.462 127.672L55.726 128.95C54.2415 128.981 52.8726 128.153 52.2104 126.824Z" fill="#D9D9D9"/>
<path d="M105.151 174.294C104.795 168.664 109.164 163.853 114.802 163.668L155.8 162.319C161.204 162.141 165.77 166.29 166.109 171.686L169.848 231.131C170.204 236.792 165.784 241.616 160.113 241.755L119.118 242.763C113.747 242.896 109.232 238.76 108.892 233.398L105.151 174.294Z" fill="url(#paint4_linear_9_15)"/>
<path d="M155.816 162.819C160.95 162.65 165.288 166.592 165.61 171.718L169.349 231.162C169.687 236.54 165.489 241.123 160.102 241.256L119.105 242.264C114.003 242.389 109.714 238.46 109.392 233.366L105.65 174.263C105.312 168.914 109.462 164.344 114.818 164.168L155.816 162.819Z" stroke="black" stroke-opacity="0.12"/>
<path d="M133.117 197.299C132.765 197.313 132.461 197.033 132.447 196.681L132.388 195.179C132.374 194.827 132.654 194.523 133.006 194.509C133.358 194.496 133.662 194.776 133.676 195.128L133.735 196.63C133.749 196.99 133.469 197.285 133.117 197.299Z" fill="white" fill-opacity="0.1"/>
<path d="M136.55 197.163C136.198 197.177 135.895 196.897 135.881 196.545L135.821 195.043C135.807 194.691 136.088 194.388 136.44 194.374C136.792 194.36 137.095 194.64 137.109 194.992L137.168 196.494C137.183 196.855 136.902 197.149 136.55 197.163Z" fill="white" fill-opacity="0.1"/>
<path d="M139.983 197.028C139.631 197.042 139.328 196.761 139.314 196.409L139.255 194.907C139.241 194.555 139.521 194.252 139.873 194.238C140.225 194.224 140.528 194.505 140.542 194.856L140.602 196.359C140.616 196.719 140.335 197.014 139.983 197.028Z" fill="white" fill-opacity="0.1"/>
<path d="M147.34 203.727C147.252 201.478 145.437 199.727 143.232 199.625C142.556 198.612 141.395 197.952 140.091 198.004L133.765 198.254C131.773 198.333 130.215 200.019 130.294 202.01L130.312 202.465L143.865 201.93L143.847 201.475C143.841 201.312 143.808 201.15 143.777 200.996C145.036 201.316 145.999 202.413 146.053 203.778C146.106 205.125 145.258 206.285 144.054 206.711L143.899 202.788L130.346 203.324L130.542 208.293C130.621 210.285 132.307 211.843 134.299 211.764L140.625 211.514C142.513 211.44 143.992 209.92 144.073 208.06C146.014 207.587 147.422 205.795 147.34 203.727Z" fill="white" fill-opacity="0.1"/>
<path d="M43.9257 268.269C43.691 262.73 48.0075 258.057 53.5479 257.853L161.639 253.864C167.106 253.662 171.721 257.891 171.995 263.355L173.989 303.044C174.269 308.634 169.907 313.366 164.312 313.54L55.8836 316.916C50.4072 317.086 45.8133 312.818 45.5814 307.344L43.9257 268.269Z" fill="#D9D9D9" fill-opacity="0.08"/>
<path opacity="0.3" d="M61.5809 280.268C59.8258 277.738 61.5792 274.27 64.6575 274.183L155.01 271.64C157.5 271.57 159.355 273.917 158.714 276.324C158.29 277.912 156.875 279.035 155.232 279.087L64.8886 281.934C63.575 281.975 62.3299 281.348 61.5809 280.268Z" fill="url(#paint5_linear_9_15)"/>
<path opacity="0.3" d="M71.7526 295.779C70.6842 293.393 72.398 290.69 75.0123 290.638L128.092 289.587C130.343 289.543 132.048 291.609 131.576 293.811C131.238 295.389 129.864 296.529 128.251 296.571L75.1785 297.937C73.7057 297.975 72.3545 297.124 71.7526 295.779Z" fill="url(#paint6_linear_9_15)"/>
<path d="M37.1512 177.294C36.7948 171.664 41.1638 166.853 46.8024 166.668L87.8078 165.319C93.2081 165.141 97.773 169.285 98.1164 174.678L101.85 233.292C102.206 238.892 97.8863 243.689 92.2795 243.919L51.2717 245.6C45.8401 245.822 41.2256 241.665 40.8822 236.24L37.1512 177.294Z" fill="url(#paint7_linear_9_15)"/>
<path d="M87.8242 165.818C92.9545 165.65 97.2909 169.587 97.6172 174.71L101.351 233.323C101.689 238.643 97.5852 243.201 92.2588 243.419L51.251 245.1C46.0911 245.311 41.7071 241.362 41.3809 236.208L37.6504 177.263C37.3118 171.914 41.4619 167.344 46.8184 167.168L87.8242 165.818Z" stroke="black" stroke-opacity="0.12"/>
<path opacity="0.3" d="M50.8868 190.355C50.2165 188.696 51.412 186.879 53.201 186.838L86.2125 186.076C87.8718 186.038 89.1163 187.583 88.7253 189.196C88.4562 190.306 87.4759 191.097 86.3342 191.126L53.3244 191.955C52.2578 191.982 51.2865 191.345 50.8868 190.355Z" fill="#D9D9D9" fill-opacity="0.5"/>
<path fill-rule="evenodd" clip-rule="evenodd" d="M61.4716 229.39C61.9044 228.934 61.8854 228.214 61.4293 227.781C58.8175 225.303 57.1545 221.831 57.0562 217.949C56.9568 214.022 58.4781 210.433 61.0138 207.818C61.4515 207.366 61.4404 206.645 60.989 206.208C60.5376 205.77 59.8168 205.781 59.3791 206.233C56.435 209.268 54.6644 213.443 54.7799 218.007C54.8941 222.517 56.8295 226.556 59.862 229.433C60.3182 229.866 61.0388 229.847 61.4716 229.39ZM81.4242 228.775C81.8842 229.204 82.6046 229.179 83.0333 228.719C85.8424 225.704 87.5203 221.627 87.4077 217.181C87.2938 212.682 85.3682 208.653 82.3493 205.777C81.894 205.344 81.1733 205.361 80.7397 205.816C80.306 206.272 80.3235 206.992 80.7788 207.426C83.3788 209.903 85.0334 213.367 85.1314 217.238C85.2282 221.065 83.7866 224.57 81.3675 227.166C80.9388 227.626 80.9641 228.347 81.4242 228.775ZM65.6662 224.584C66.084 224.114 66.0419 223.394 65.5721 222.976C64.0979 221.665 63.1784 219.844 63.1272 217.823C63.0755 215.778 63.9217 213.892 65.3578 212.503C65.8098 212.066 65.8219 211.345 65.3848 210.893C64.9477 210.441 64.2269 210.429 63.7749 210.866C61.9179 212.662 60.7817 215.148 60.8509 217.88C60.9192 220.58 62.1515 222.981 64.0588 224.678C64.5286 225.096 65.2483 225.053 65.6662 224.584ZM76.9458 224.24C77.3918 224.684 78.1126 224.681 78.556 224.235C80.3288 222.452 81.4055 220.023 81.3381 217.362C81.2699 214.668 80.0438 212.273 78.1451 210.577C77.6762 210.158 76.9563 210.199 76.5376 210.668C76.1188 211.137 76.1595 211.857 76.6284 212.276C78.0958 213.586 79.0107 215.403 79.0618 217.419C79.1122 219.412 78.3101 221.252 76.9408 222.63C76.4976 223.076 76.4999 223.797 76.9458 224.24ZM72.1121 222.293C72.1384 222.278 72.1647 222.263 72.1911 222.247C72.551 222.038 72.9077 221.821 73.2289 221.606C73.5947 221.362 73.9829 221.076 74.3637 220.781C74.3865 220.763 74.4093 220.746 74.432 220.728C75.0401 220.258 75.6093 219.818 76.0085 219.377C76.4715 218.867 76.805 218.253 76.7847 217.45C76.7644 216.647 76.4002 216.05 75.9119 215.564C75.491 215.144 74.9002 214.733 74.2691 214.294C74.2456 214.278 74.2219 214.261 74.1983 214.245C73.803 213.97 73.4009 213.704 73.0231 213.478C72.6915 213.281 72.3242 213.081 71.9542 212.891C71.9271 212.877 71.9 212.863 71.873 212.849C71.2566 212.531 70.6578 212.223 70.1342 212.068C69.5086 211.883 68.7897 211.857 68.1117 212.34C67.4731 212.796 67.2235 213.452 67.1059 214.075C66.9985 214.643 66.9706 215.362 66.9399 216.155C66.9389 216.181 66.9379 216.208 66.9368 216.234C66.9173 216.736 66.9088 217.239 66.9205 217.699C66.9321 218.159 66.9661 218.662 67.0109 219.162C67.0133 219.188 67.0157 219.215 67.018 219.241C67.0889 220.032 67.153 220.748 67.289 221.31C67.4381 221.926 67.7205 222.569 68.3814 222.991C69.0829 223.44 69.7996 223.377 70.415 223.161C70.9301 222.98 71.5126 222.642 72.1121 222.293ZM69.588 221.036C69.567 220.993 69.5358 220.913 69.5023 220.774C69.411 220.397 69.3593 219.854 69.2789 218.959C69.2366 218.487 69.2068 218.037 69.1968 217.642C69.1868 217.247 69.1938 216.795 69.2122 216.322C69.2471 215.424 69.2713 214.879 69.3434 214.498C69.3699 214.357 69.397 214.276 69.4158 214.232C69.4355 214.237 69.4596 214.243 69.4887 214.252C69.7792 214.337 70.1819 214.539 70.912 214.915C71.2552 215.092 71.5778 215.268 71.8556 215.434C72.173 215.623 72.5283 215.857 72.8976 216.114C73.6247 216.62 74.0438 216.917 74.3047 217.177C74.506 217.377 74.5074 217.451 74.5082 217.501L74.5083 217.507L74.5085 217.513C74.5102 217.564 74.5125 217.637 74.3217 217.848C74.0742 218.12 73.6707 218.438 72.9701 218.98C72.6143 219.256 72.2713 219.507 71.964 219.713C71.6949 219.892 71.3816 220.084 71.0477 220.278C70.3376 220.691 69.9457 220.912 69.6598 221.013C69.6312 221.023 69.6074 221.03 69.588 221.036Z" fill="white" fill-opacity="0.12"/>
<defs>
<linearGradient id="paint0_linear_9_15" x1="93.6646" y1="354.494" x2="93.6646" y2="0" gradientUnits="userSpaceOnUse">
<stop stop-color="#210C51"/>
<stop offset="1" stop-color="#7246D9"/>
</linearGradient>
<linearGradient id="paint1_linear_9_15" x1="139.5" y1="10.5" x2="101.5" y2="357" gradientUnits="userSpaceOnUse">
<stop stop-color="#35275D"/>
<stop offset="1" stop-color="#1E1638"/>
</linearGradient>
<linearGradient id="paint2_linear_9_15" x1="101.5" y1="348" x2="101.5" y2="10" gradientUnits="userSpaceOnUse">
<stop stop-color="#2B0A78"/>
<stop offset="1" stop-color="#8559EB"/>
</linearGradient>
<linearGradient id="paint3_linear_9_15" x1="99.1787" y1="147.17" x2="94.7861" y2="85.2298" gradientUnits="userSpaceOnUse">
<stop offset="0.100962" stop-color="#78197D" stop-opacity="0.38"/>
<stop offset="0.798077" stop-color="#991FA0" stop-opacity="0.55"/>
</linearGradient>
<linearGradient id="paint4_linear_9_15" x1="161" y1="233.5" x2="122.728" y2="164.701" gradientUnits="userSpaceOnUse">
<stop offset="0.1" stop-color="#53197D" stop-opacity="0.38"/>
<stop offset="1" stop-color="#C23AE7" stop-opacity="0.55"/>
</linearGradient>
<linearGradient id="paint5_linear_9_15" x1="57.5" y1="276.75" x2="160" y2="276.75" gradientUnits="userSpaceOnUse">
<stop stop-color="#A13BAE" stop-opacity="0.64"/>
<stop offset="1" stop-color="#DA84E5" stop-opacity="0.8"/>
</linearGradient>
<linearGradient id="paint6_linear_9_15" x1="69.5" y1="293" x2="132.5" y2="293" gradientUnits="userSpaceOnUse">
<stop stop-color="#A13BAE" stop-opacity="0.64"/>
<stop offset="1" stop-color="#DA84E5" stop-opacity="0.8"/>
</linearGradient>
<linearGradient id="paint7_linear_9_15" x1="67" y1="246" x2="104.422" y2="184.376" gradientUnits="userSpaceOnUse">
<stop offset="0.1" stop-color="#78197D" stop-opacity="0.38"/>
<stop offset="1" stop-color="#E73AD6" stop-opacity="0.55"/>
</linearGradient>
</defs>
</svg>
