<svg width="540" height="315" viewBox="0 0 540 315" fill="none" xmlns="http://www.w3.org/2000/svg">
<path d="M506.666 265.104C506.012 270.374 501.352 274.214 496.054 273.849L197.285 253.244C191.469 252.843 187.228 247.573 188.08 241.806L219.811 27.0497C220.503 22.3612 224.392 18.803 229.123 18.5282L522.726 1.47434C531.455 0.967304 538.508 8.49744 537.431 17.1748L506.666 265.104Z" fill="url(#paint0_linear_3_173)"/>
<path d="M188.711 234.78L201.296 241.555L199.947 261.872L184.8 259.473L188.711 234.78Z" fill="#1A1538"/>
<path d="M218.827 31.7773C219.801 25.2101 225.254 20.2305 231.882 19.8547L521.202 3.45234C529.939 2.957 536.984 10.5097 535.883 19.1915L505.161 261.402C504.229 268.756 497.724 274.109 490.327 273.608L201.128 254.024C192.975 253.472 187.026 246.084 188.226 238.001L218.827 31.7773Z" fill="#1A1538"/>
<path d="M496.415 238.864C495.895 242.921 492.397 245.933 488.307 245.844L204.611 239.697C199.782 239.593 196.147 235.266 196.876 230.491L226.511 36.4753C227.086 32.7091 230.237 29.8712 234.043 29.6921L515.476 16.4482C520.445 16.2144 524.42 20.5234 523.787 25.4571L496.415 238.864Z" fill="white"/>
<path d="M223 59L521 48L503.5 185.5L203.5 186L223 59Z" fill="url(#paint1_linear_3_173)"/>
<path d="M234 206C235.193 206 236.308 206.628 237.14 207.709C237.971 208.791 238.5 210.306 238.5 212C238.5 213.655 237.747 215.422 236.646 216.781C235.533 218.156 234.162 219 233 219C231.824 219 230.58 218.266 229.606 217.036C228.64 215.815 228 214.173 228 212.5C228 210.874 228.853 209.244 230.071 208.005C231.298 206.758 232.802 206 234 206Z" fill="#925FF3" stroke="white"/>
<path d="M312.348 206.5C315.13 206.5 317.5 209.118 317.5 212.5C317.5 214.135 316.658 215.895 315.41 217.259C314.156 218.629 312.585 219.5 311.218 219.5C309.837 219.5 308.408 218.74 307.311 217.513C306.216 216.289 305.5 214.654 305.5 213C305.5 211.397 306.452 209.772 307.838 208.525C309.225 207.278 310.948 206.5 312.348 206.5Z" fill="#925FF3" stroke="white"/>
<path d="M396.782 207.5C399.291 207.5 401.5 210.078 401.5 213.5C401.5 215.148 400.718 216.913 399.568 218.273C398.409 219.646 396.97 220.5 395.739 220.5C394.495 220.5 393.189 219.756 392.175 218.527C391.166 217.306 390.5 215.666 390.5 214C390.5 212.382 391.386 210.753 392.66 209.512C393.94 208.265 395.516 207.5 396.782 207.5Z" fill="#925FF3" stroke="white"/>
<path d="M245.892 209.031C245.892 207.913 246.805 207.011 247.923 207.024L286.017 207.478C287.116 207.491 288 208.386 288 209.485C288 210.603 287.087 211.505 285.969 211.492L247.875 211.038C246.776 211.025 245.892 210.13 245.892 209.031Z" fill="#925FF3" fill-opacity="0.22"/>
<path d="M244 217.537C244 216.42 244.87 215.518 245.936 215.53L284.216 215.986C285.264 215.999 286.108 216.894 286.108 217.993C286.108 219.11 285.238 220.013 284.172 220L245.892 219.544C244.844 219.531 244 218.636 244 217.537Z" fill="#925FF3" fill-opacity="0.22"/>
<path d="M324.892 210.031C324.892 208.913 325.805 208.011 326.923 208.024L365.017 208.478C366.116 208.491 367 209.386 367 210.485C367 211.603 366.087 212.505 364.969 212.492L326.875 212.038C325.776 212.025 324.892 211.13 324.892 210.031Z" fill="#925FF3" fill-opacity="0.22"/>
<path d="M323 218.537C323 217.42 323.87 216.518 324.936 216.53L363.216 216.986C364.264 216.999 365.108 217.894 365.108 218.993C365.108 220.11 364.238 221.013 363.172 221L324.892 220.544C323.844 220.531 323 219.636 323 218.537Z" fill="#925FF3" fill-opacity="0.22"/>
<path d="M409.892 211.031C409.892 209.913 410.805 209.011 411.923 209.024L450.017 209.478C451.116 209.491 452 210.386 452 211.485C452 212.603 451.087 213.505 449.969 213.492L411.875 213.038C410.776 213.025 409.892 212.13 409.892 211.031Z" fill="#925FF3" fill-opacity="0.22"/>
<path d="M408 219.537C408 218.42 408.87 217.518 409.936 217.53L448.216 217.986C449.264 217.999 450.108 218.894 450.108 219.993C450.108 221.11 449.238 222.013 448.172 222L409.892 221.544C408.844 221.531 408 220.636 408 219.537Z" fill="#925FF3" fill-opacity="0.22"/>
<path d="M385.55 68.4331C394.121 66.153 410.907 62.19 426.869 64.9311C443.077 67.7145 454.196 72.6277 468.686 80.4401C487.502 90.5852 511 112.459 511 112.459L503.035 184H283C283 184 298.883 140.667 316.851 117.962C327.291 104.771 333.584 97.2582 347.218 87.4441C355.681 81.3526 368.624 72.9357 385.55 68.4331Z" fill="url(#paint2_linear_3_173)"/>
<path d="M351 132.095C365.126 119.602 368.58 106.745 385 97.6818C398.337 90.3203 404.365 88.5847 419.5 89C432.068 89.3448 441.024 95.4021 453.5 97C464.412 98.3976 470.797 98.5946 481.5 96C497.609 92.0949 518 72 518 72L503.5 185H272C272 185 323.09 156.778 351 132.095Z" fill="url(#paint3_linear_3_173)"/>
<path d="M296.5 166.5C312.312 155.038 319.917 146.836 334.651 134.025C343.433 126.388 348.5 120.5 358 114C366.522 108.169 368.5 107 377 106C405.021 102.703 425.275 131.501 453.382 129.027C474 127.212 495 102 507.988 101.04C510.33 100.867 514.5 101 514.5 101L503.5 185.5L257 186C257 186 268.876 182.441 277 178.5C284.612 174.807 289.652 171.464 296.5 166.5Z" fill="url(#paint4_linear_3_173)"/>
<path d="M326.894 168.48C334.344 162.789 346.787 155.208 346.787 155.208C346.787 155.208 361.508 148.449 373.014 146.747C398.098 143.035 414.199 169.815 439.522 169.603C454.036 169.481 461.198 164.137 474.007 157.181C488.313 149.411 510.492 130.614 509 142.5C505.265 172.255 503.5 185.5 503.5 185.5H307C307 185.5 318.703 174.737 326.894 168.48Z" fill="url(#paint5_linear_3_173)"/>
<path d="M523.5 28L533.548 29.4953L506.374 240.937L497 235L523.5 28Z" fill="url(#paint6_linear_3_173)"/>
<rect x="384.98" y="36.0648" width="13" height="4" rx="2" transform="rotate(-0.57 384.98 36.0648)" fill="#B9ADDC"/>
<rect x="412.98" y="35.0648" width="13" height="4" rx="2" transform="rotate(-0.57 412.98 35.0648)" fill="#B9ADDC"/>
<rect x="441.98" y="34.0648" width="13" height="4" rx="2" transform="rotate(-0.57 441.98 34.0648)" fill="#B9ADDC"/>
<rect x="470.98" y="33.0647" width="13" height="4" rx="2" transform="rotate(-0.569511 470.98 33.0647)" fill="#B9ADDC"/>
<rect x="236" y="143" width="46" height="15" rx="3" fill="#8D69EA"/>
<rect x="243" y="148" width="32" height="5" rx="2.5" fill="white"/>
<rect x="240" y="109" width="65" height="4" rx="2" fill="#B9ADDC"/>
<rect x="239" y="117" width="73" height="4" rx="2" fill="#B9ADDC"/>
<rect x="239" y="125" width="66" height="4" rx="2" fill="#B9ADDC"/>
<path d="M244.384 98.421V84.3859H246.927V90.3275H253.43V84.3859H255.98V98.421H253.43V92.4588H246.927V98.421H244.384ZM263.227 98.6266C262.199 98.6266 261.308 98.4005 260.554 97.9482C259.8 97.4959 259.216 96.8631 258.8 96.0499C258.389 95.2366 258.183 94.2863 258.183 93.199C258.183 92.1116 258.389 91.159 258.8 90.3413C259.216 89.5235 259.8 88.8884 260.554 88.4361C261.308 87.9838 262.199 87.7576 263.227 87.7576C264.255 87.7576 265.146 87.9838 265.9 88.4361C266.653 88.8884 267.236 89.5235 267.647 90.3413C268.063 91.159 268.271 92.1116 268.271 93.199C268.271 94.2863 268.063 95.2366 267.647 96.0499C267.236 96.8631 266.653 97.4959 265.9 97.9482C265.146 98.4005 264.255 98.6266 263.227 98.6266ZM263.241 96.6392C263.798 96.6392 264.264 96.4862 264.639 96.1801C265.013 95.8694 265.292 95.4536 265.475 94.9328C265.662 94.412 265.756 93.8317 265.756 93.1921C265.756 92.5479 265.662 91.9654 265.475 91.4446C265.292 90.9192 265.013 90.5012 264.639 90.1905C264.264 89.8798 263.798 89.7245 263.241 89.7245C262.669 89.7245 262.194 89.8798 261.815 90.1905C261.44 90.5012 261.159 90.9192 260.972 91.4446C260.789 91.9654 260.698 92.5479 260.698 93.1921C260.698 93.8317 260.789 94.412 260.972 94.9328C261.159 95.4536 261.44 95.8694 261.815 96.1801C262.194 96.4862 262.669 96.6392 263.241 96.6392ZM270.376 98.421V87.8947H272.747V89.6834H272.871C273.09 89.0803 273.453 88.6097 273.96 88.2716C274.468 87.929 275.073 87.7576 275.777 87.7576C276.489 87.7576 277.09 87.9313 277.579 88.2785C278.072 88.6211 278.42 89.0894 278.621 89.6834H278.73C278.963 89.0986 279.356 88.6326 279.909 88.2853C280.466 87.9335 281.126 87.7576 281.889 87.7576C282.858 87.7576 283.648 88.0637 284.261 88.676C284.873 89.2882 285.179 90.1813 285.179 91.3555V98.421H282.691V91.7393C282.691 91.086 282.518 90.6085 282.17 90.307C281.823 90.0009 281.398 89.8478 280.896 89.8478C280.297 89.8478 279.829 90.0351 279.491 90.4098C279.157 90.7798 278.991 91.2618 278.991 91.8558V98.421H276.558V91.6365C276.558 91.0928 276.393 90.6588 276.064 90.3344C275.74 90.01 275.315 89.8478 274.79 89.8478C274.433 89.8478 274.109 89.9392 273.817 90.122C273.524 90.3001 273.291 90.5537 273.118 90.8826C272.944 91.207 272.857 91.5862 272.857 92.0203V98.421H270.376ZM292.356 98.6266C291.3 98.6266 290.389 98.4073 289.621 97.9687C288.858 97.5256 288.271 96.8996 287.86 96.091C287.449 95.2777 287.243 94.3206 287.243 93.2195C287.243 92.1368 287.449 91.1865 287.86 90.3687C288.276 89.5463 288.856 88.9067 289.601 88.4498C290.346 87.9884 291.22 87.7576 292.226 87.7576C292.874 87.7576 293.487 87.8627 294.062 88.0729C294.642 88.2785 295.154 88.5983 295.597 89.0323C296.045 89.4663 296.397 90.0192 296.653 90.6908C296.909 91.3578 297.036 92.1527 297.036 93.0756V93.8363H288.408V92.1642H294.658C294.654 91.689 294.551 91.2664 294.35 90.8963C294.149 90.5217 293.868 90.227 293.507 90.0123C293.151 89.7976 292.735 89.6902 292.26 89.6902C291.753 89.6902 291.307 89.8136 290.924 90.0603C290.54 90.3024 290.24 90.6222 290.026 91.0197C289.816 91.4126 289.708 91.8444 289.704 92.3149V93.7746C289.704 94.3868 289.816 94.9122 290.039 95.3508C290.263 95.7849 290.576 96.1184 290.978 96.3514C291.38 96.5798 291.851 96.694 292.39 96.694C292.751 96.694 293.078 96.6438 293.37 96.5433C293.662 96.4382 293.916 96.2851 294.131 96.0841C294.345 95.8831 294.508 95.6341 294.617 95.3371L296.934 95.5976C296.787 96.2098 296.509 96.7443 296.098 97.2012C295.691 97.6535 295.17 98.0053 294.535 98.2565C293.9 98.5033 293.174 98.6266 292.356 98.6266Z" fill="#19183E"/>
<path d="M264.708 41.7298L263.823 41.7559C263.794 41.6115 263.744 41.4843 263.672 41.3743C263.601 41.2627 263.514 41.169 263.411 41.0931C263.307 41.0172 263.19 40.9614 263.06 40.9258C262.931 40.8885 262.792 40.8721 262.644 40.8764C262.381 40.8842 262.149 40.9573 261.949 41.0959C261.75 41.2328 261.596 41.43 261.488 41.6873C261.381 41.9432 261.332 42.2533 261.343 42.6177C261.354 42.9884 261.421 43.2991 261.543 43.5497C261.667 43.7987 261.832 43.9849 262.038 44.1083C262.245 44.2301 262.48 44.2871 262.742 44.2794C262.887 44.2751 263.022 44.2522 263.147 44.2106C263.274 44.1674 263.387 44.1064 263.485 44.0277C263.586 43.949 263.669 43.8534 263.735 43.7409C263.803 43.6284 263.848 43.5007 263.871 43.358L264.756 43.3366C264.729 43.5679 264.664 43.7862 264.56 43.9914C264.457 44.1965 264.319 44.379 264.147 44.5388C263.975 44.697 263.772 44.823 263.538 44.9167C263.303 45.0089 263.042 45.0592 262.753 45.0677C262.327 45.0803 261.944 44.9929 261.604 44.8056C261.264 44.6182 260.992 44.3412 260.788 43.9746C260.585 43.6079 260.476 43.1643 260.46 42.6437C260.445 42.1215 260.529 41.6722 260.712 41.2957C260.895 40.9177 261.151 40.6252 261.479 40.4181C261.808 40.2111 262.184 40.1013 262.607 40.0888C262.876 40.0809 263.128 40.1114 263.362 40.1803C263.597 40.2492 263.807 40.3543 263.992 40.4957C264.178 40.6354 264.332 40.8093 264.455 41.0173C264.58 41.2236 264.664 41.4611 264.708 41.7298ZM267.157 44.9427C266.802 44.9532 266.492 44.8842 266.227 44.7357C265.962 44.5871 265.754 44.3746 265.602 44.098C265.452 43.8214 265.371 43.4953 265.36 43.1199C265.349 42.7444 265.41 42.4134 265.544 42.1268C265.679 41.8402 265.874 41.6149 266.13 41.4511C266.386 41.2872 266.691 41.2001 267.046 41.1896C267.401 41.1792 267.711 41.2482 267.976 41.3967C268.241 41.5452 268.448 41.7586 268.599 42.0368C268.751 42.3149 268.832 42.6418 268.843 43.0172C268.854 43.3927 268.792 43.7229 268.657 44.008C268.523 44.293 268.328 44.5174 268.073 44.6813C267.817 44.8451 267.512 44.9323 267.157 44.9427ZM267.141 44.2563C267.334 44.2507 267.493 44.1931 267.619 44.0836C267.746 43.9725 267.838 43.8261 267.895 43.6444C267.955 43.4626 267.981 43.2613 267.975 43.0404C267.968 42.818 267.93 42.6178 267.86 42.4399C267.791 42.2603 267.691 42.1188 267.558 42.0153C267.426 41.9119 267.263 41.863 267.071 41.8686C266.874 41.8745 266.711 41.9329 266.583 42.0441C266.457 42.1551 266.364 42.3024 266.305 42.4857C266.247 42.6674 266.222 42.8695 266.228 43.0919C266.235 43.3128 266.272 43.5122 266.341 43.6902C266.411 43.8681 266.512 44.0088 266.644 44.1123C266.778 44.2141 266.944 44.2621 267.141 44.2563ZM270.974 44.8231C270.689 44.8316 270.431 44.7657 270.201 44.6257C269.971 44.4856 269.786 44.2779 269.647 44.0025C269.508 43.7271 269.433 43.3899 269.421 42.9907C269.409 42.5869 269.465 42.2441 269.59 41.9626C269.715 41.6794 269.89 41.4635 270.113 41.3148C270.336 41.1645 270.587 41.0853 270.866 41.0771C271.079 41.0708 271.255 41.1019 271.395 41.1704C271.534 41.2374 271.645 41.3202 271.729 41.4188C271.812 41.5158 271.877 41.6078 271.924 41.6948L271.96 41.6938L271.906 39.8811L272.765 39.8558L272.908 44.7022L272.066 44.727L272.049 44.1544L271.997 44.1559C271.955 44.2455 271.894 44.3413 271.813 44.4431C271.732 44.5434 271.624 44.6303 271.489 44.7037C271.354 44.7772 271.182 44.817 270.974 44.8231ZM271.192 44.1133C271.374 44.1079 271.527 44.0545 271.652 43.9529C271.777 43.8497 271.87 43.7088 271.931 43.5302C271.992 43.3516 272.019 43.1447 272.012 42.9096C272.005 42.6746 271.966 42.4713 271.895 42.2997C271.825 42.128 271.724 41.996 271.594 41.9035C271.465 41.811 271.308 41.7675 271.123 41.7729C270.933 41.7785 270.775 41.8329 270.65 41.9361C270.525 42.0392 270.433 42.1793 270.373 42.3563C270.314 42.5334 270.287 42.7347 270.294 42.9603C270.301 43.1874 270.339 43.3892 270.409 43.5656C270.48 43.7403 270.581 43.8771 270.712 43.9758C270.845 44.073 271.005 44.1188 271.192 44.1133ZM275.432 44.6989C275.068 44.7096 274.751 44.6432 274.481 44.4995C274.213 44.3543 274.004 44.1441 273.854 43.8691C273.704 43.5924 273.623 43.264 273.612 42.8838C273.601 42.5099 273.662 42.1797 273.796 41.8931C273.931 41.6049 274.125 41.3782 274.377 41.2128C274.63 41.0459 274.929 40.9573 275.276 40.9471C275.5 40.9405 275.713 40.9706 275.914 41.0373C276.116 41.1024 276.296 41.2076 276.454 41.3529C276.613 41.4983 276.74 41.6856 276.835 41.9149C276.93 42.1426 276.982 42.4158 276.992 42.7345L277 42.9972L274.02 43.0849L274.003 42.5075L276.161 42.4439C276.155 42.2799 276.115 42.135 276.042 42.0093C275.969 41.882 275.869 41.7831 275.742 41.7126C275.617 41.6421 275.472 41.6092 275.308 41.6141C275.133 41.6192 274.98 41.6664 274.85 41.7555C274.72 41.843 274.62 41.9565 274.55 42.0959C274.481 42.2337 274.449 42.3839 274.452 42.5464L274.467 43.0505C274.473 43.2619 274.517 43.4421 274.599 43.5913C274.681 43.7389 274.792 43.8509 274.933 43.9273C275.074 44.002 275.238 44.0367 275.424 44.0312C275.549 44.0275 275.661 44.0069 275.761 43.9692C275.861 43.9299 275.947 43.8745 276.019 43.8029C276.091 43.7313 276.145 43.6437 276.179 43.54L276.982 43.6064C276.938 43.8192 276.847 44.0067 276.71 44.1686C276.574 44.3289 276.397 44.4557 276.181 44.5489C275.964 44.6406 275.714 44.6906 275.432 44.6989ZM281.035 44.5338C280.671 44.5445 280.354 44.4781 280.084 44.3344C279.816 44.1892 279.607 43.979 279.457 43.704C279.307 43.4273 279.226 43.0989 279.215 42.7187C279.204 42.3448 279.265 42.0146 279.399 41.728C279.534 41.4398 279.728 41.2131 279.98 41.0477C280.233 40.8808 280.532 40.7922 280.88 40.782C281.104 40.7754 281.316 40.8055 281.517 40.8722C281.719 40.9373 281.899 41.0425 282.057 41.1878C282.216 41.3332 282.343 41.5205 282.438 41.7498C282.533 41.9775 282.585 42.2507 282.595 42.5694L282.603 42.832L279.623 42.9198L279.606 42.3424L281.764 42.2788C281.758 42.1148 281.718 41.9699 281.645 41.8442C281.572 41.7169 281.472 41.618 281.345 41.5475C281.22 41.477 281.075 41.4441 280.911 41.449C280.736 41.4541 280.583 41.5013 280.453 41.5904C280.323 41.6779 280.223 41.7914 280.153 41.9308C280.085 42.0686 280.052 42.2188 280.055 42.3813L280.07 42.8854C280.076 43.0968 280.12 43.277 280.202 43.4262C280.284 43.5738 280.395 43.6858 280.536 43.7622C280.677 43.8369 280.841 43.8716 281.027 43.8661C281.152 43.8624 281.264 43.8418 281.364 43.8041C281.464 43.7648 281.55 43.7094 281.622 43.6378C281.694 43.5662 281.748 43.4786 281.782 43.3749L282.585 43.4413C282.541 43.6541 282.45 43.8416 282.313 44.0035C282.177 44.1638 282.001 44.2906 281.784 44.3838C281.567 44.4755 281.317 44.5255 281.035 44.5338ZM280.514 40.3617L281.012 39.2646L281.85 39.24L281.156 40.3428L280.514 40.3617ZM284.961 44.4181C284.599 44.4288 284.285 44.3583 284.02 44.2066C283.756 44.0549 283.55 43.8407 283.402 43.564C283.254 43.2857 283.175 42.9628 283.165 42.5952C283.154 42.2261 283.215 41.8982 283.349 41.6116C283.482 41.3235 283.676 41.0967 283.93 40.9313C284.186 40.7643 284.491 40.6756 284.846 40.6651C285.141 40.6564 285.404 40.7032 285.634 40.8053C285.866 40.9059 286.053 41.0527 286.194 41.2459C286.336 41.4376 286.42 41.664 286.446 41.9254L285.628 41.9495C285.589 41.7753 285.506 41.6317 285.378 41.5187C285.252 41.404 285.085 41.3497 284.878 41.3558C284.703 41.3609 284.551 41.4128 284.421 41.5113C284.291 41.6083 284.192 41.7455 284.123 41.9228C284.056 42.1 284.025 42.3109 284.033 42.5554C284.04 42.8031 284.083 43.015 284.16 43.1912C284.238 43.3657 284.344 43.4992 284.478 43.5915C284.613 43.6823 284.77 43.725 284.948 43.7198C285.074 43.7161 285.186 43.6891 285.284 43.6388C285.384 43.5869 285.466 43.5143 285.531 43.4208C285.596 43.3273 285.64 43.2147 285.661 43.083L286.48 43.0589C286.467 43.3166 286.398 43.5468 286.273 43.7494C286.148 43.9505 285.974 44.1104 285.752 44.229C285.529 44.3461 285.266 44.4091 284.961 44.4181ZM287.934 39.4089L288.077 44.2552L287.22 44.2805L287.077 39.4341L287.934 39.4089ZM290.006 44.2718C289.775 44.2786 289.567 44.2437 289.38 44.1671C289.194 44.0889 289.045 43.9701 288.933 43.8108C288.823 43.6514 288.764 43.4526 288.757 43.2144C288.751 43.0093 288.784 42.8386 288.856 42.7023C288.927 42.5659 289.028 42.4556 289.156 42.3713C289.285 42.287 289.43 42.2219 289.593 42.1761C289.758 42.1286 289.928 42.0928 290.104 42.0686C290.316 42.0403 290.489 42.0155 290.621 41.9942C290.753 41.9714 290.848 41.9401 290.907 41.9005C290.967 41.8593 290.996 41.7976 290.994 41.7156L290.993 41.7014C290.988 41.5231 290.931 41.3866 290.822 41.2919C290.714 41.1972 290.56 41.1528 290.361 41.1587C290.152 41.1649 289.987 41.2155 289.866 41.3106C289.747 41.4057 289.669 41.5162 289.63 41.6421L288.826 41.5521C288.883 41.3293 288.982 41.1417 289.122 40.9891C289.263 40.835 289.437 40.7177 289.645 40.6374C289.853 40.5555 290.083 40.5108 290.337 40.5033C290.513 40.4982 290.687 40.5135 290.862 40.5494C291.037 40.5853 291.197 40.6485 291.344 40.7389C291.49 40.8278 291.609 40.9514 291.701 41.1097C291.794 41.268 291.844 41.4679 291.851 41.7093L291.923 44.1419L291.099 44.1662L291.084 43.6669L291.056 43.6677C291.007 43.7702 290.936 43.867 290.844 43.9582C290.754 44.0477 290.638 44.1213 290.498 44.1792C290.359 44.2354 290.195 44.2662 290.006 44.2718ZM290.209 43.6358C290.381 43.6307 290.529 43.5924 290.654 43.5209C290.778 43.4477 290.872 43.3534 290.937 43.2378C291.003 43.1222 291.034 42.9973 291.03 42.8632L291.017 42.4349C290.991 42.4578 290.946 42.4796 290.882 42.5005C290.819 42.5212 290.749 42.5399 290.67 42.5564C290.592 42.573 290.514 42.5879 290.437 42.6012C290.36 42.6145 290.293 42.626 290.237 42.6355C290.11 42.6566 289.996 42.6884 289.896 42.7308C289.796 42.7732 289.718 42.8308 289.662 42.9035C289.606 42.9746 289.579 43.0654 289.582 43.1759C289.587 43.3336 289.648 43.451 289.766 43.5281C289.883 43.6052 290.031 43.6411 290.209 43.6358ZM292.784 44.1165L292.677 40.4818L293.533 40.4565L293.641 44.0913L292.784 44.1165ZM293.092 39.9532C292.957 39.9572 292.839 39.9157 292.738 39.8286C292.638 39.74 292.585 39.6318 292.582 39.504C292.578 39.3747 292.624 39.2636 292.719 39.1708C292.814 39.0764 292.929 39.0272 293.065 39.0232C293.202 39.0191 293.32 39.0615 293.419 39.1501C293.52 39.2372 293.572 39.3454 293.576 39.4747C293.579 39.6025 293.534 39.7136 293.439 39.808C293.345 39.9007 293.23 39.9491 293.092 39.9532ZM294.521 44.0653L294.414 40.4306L295.245 40.4061L295.263 41.0119L295.301 41.0108C295.361 40.799 295.47 40.6339 295.627 40.5156C295.786 40.3957 295.97 40.3326 296.178 40.3265C296.225 40.3251 296.278 40.3259 296.337 40.3289C296.397 40.3303 296.447 40.3343 296.486 40.3411L296.51 41.1291C296.473 41.1175 296.415 41.1082 296.336 41.101C296.258 41.0923 296.183 41.089 296.111 41.0911C295.954 41.0957 295.815 41.1338 295.692 41.2053C295.571 41.2752 295.477 41.3703 295.41 41.4907C295.342 41.6111 295.311 41.7486 295.315 41.9032L295.378 44.0401L294.521 44.0653Z" fill="#19183E"/>
<path d="M246.15 39.2493C246.278 38.171 247.172 37.3467 248.258 37.3085L254.512 37.0878C255.833 37.0412 256.897 38.1629 256.781 39.4803L256.143 46.6867C256.045 47.7935 255.137 48.6535 254.027 48.6915L247.56 48.9125C246.213 48.9585 245.142 47.7942 245.3 46.456L246.15 39.2493Z" fill="#1F1F1F"/>
<path d="M249.652 44.5822C248.634 44.5961 247.997 43.9138 247.982 42.7836C247.966 41.6606 248.594 40.9562 249.59 40.9425C250.242 40.9336 250.761 41.2317 251 41.7436C251.04 41.8237 251.061 41.9064 251.062 41.9796C251.064 42.1481 250.956 42.257 250.787 42.2593C250.643 42.2613 250.547 42.1942 250.477 42.0414C250.308 41.6652 249.985 41.4719 249.602 41.4771C248.997 41.4854 248.615 41.9887 248.626 42.7748C248.637 43.5657 249.03 44.056 249.64 44.0476C250.043 44.0421 250.35 43.8621 250.506 43.4888C250.568 43.3439 250.648 43.2843 250.784 43.2824C250.958 43.28 251.079 43.3931 251.081 43.5591C251.082 43.6397 251.064 43.7132 251.026 43.7967C250.808 44.2782 250.311 44.5732 249.652 44.5822Z" fill="white"/>
<g clip-path="url(#clip0_3_173)">
<path fill-rule="evenodd" clip-rule="evenodd" d="M249.686 42.2689L249.156 42.9312C249.138 42.9543 249.156 42.9877 249.186 42.9855L249.513 42.9611L249.39 43.4191C249.38 43.4546 249.428 43.4772 249.451 43.4483L249.98 42.786C249.999 42.7629 249.98 42.7295 249.95 42.7318L249.624 42.7561L249.747 42.2981C249.756 42.2626 249.709 42.24 249.686 42.2689Z" fill="white"/>
</g>
<rect width="2.56123" height="0.56961" rx="0.284805" transform="matrix(0.999604 -0.0281296 0.0306513 0.99953 251.826 41.2753)" fill="url(#paint7_linear_3_173)"/>
<rect width="2.56124" height="0.569611" rx="0.284805" transform="matrix(0.999604 -0.0281297 0.0306515 0.99953 251.862 42.4576)" fill="url(#paint8_linear_3_173)"/>
<rect width="2.56124" height="0.569611" rx="0.284805" transform="matrix(0.999604 -0.0281297 0.0306515 0.99953 251.899 43.6403)" fill="url(#paint9_linear_3_173)"/>
<g filter="url(#filter0_f_3_173)">
<path d="M175.392 259L518 277.506L370.08 307L3 286.759L175.392 259Z" fill="black" fill-opacity="0.6"/>
</g>
<path d="M24.0057 276.806C24.0057 276.806 23.9097 275.309 24.507 274.753C25.2313 274.078 27.0135 274.753 27.0135 274.753L362.382 289.125L497.732 265C497.732 265 499.846 266.916 500.238 268.593C500.606 270.165 500.307 271.192 499.737 272.699C499.227 274.047 498.86 274.892 497.732 275.779C496.527 276.727 494 277 494 277L375.415 298.878C375.415 298.878 369.932 299.699 366.392 299.904C362.678 300.12 356.867 299.904 356.867 299.904L26.0109 283.992C26.0109 283.992 24.9593 283.911 24.507 283.479C23.9172 282.914 24.0057 281.425 24.0057 281.425V276.806Z" fill="url(#paint10_linear_3_173)"/>
<path d="M185.365 253H188.871L479.886 264.115C479.886 264.115 499.42 264.115 497.918 265.125C494.824 267.205 491.049 267.969 487.375 268.597L368.689 288.871C368.689 288.871 363.515 289.663 360.174 289.881C356.075 290.148 349.655 289.881 349.655 289.881L106.726 278.261L59.6427 276.24L40.609 275.735H30.1115C29.0975 275.735 28.0852 275.651 27.0851 275.482C26.0851 275.314 24.9243 275.446 24.1508 274.79C24.1262 274.769 24.1025 274.747 24.0798 274.725C23.5811 274.222 25.5825 273.714 25.5825 273.714C28.5831 272.705 31.6587 271.935 34.7806 271.41L36.1011 271.188L59.6427 267.651L98.7118 262.599L181.859 253H185.365Z" fill="url(#paint11_linear_3_173)"/>
<path d="M185 256L467 266L385.5 279L114 266L185 256Z" fill="#2F2B57"/>
<path d="M269.957 274.839L231.951 283.997L138.011 279.18L174.548 270.502L269.957 274.839Z" stroke="black" stroke-opacity="0.13"/>
<defs>
<filter id="filter0_f_3_173" x="-4.8" y="251.2" width="530.6" height="63.6" filterUnits="userSpaceOnUse" color-interpolation-filters="sRGB">
<feFlood flood-opacity="0" result="BackgroundImageFix"/>
<feBlend mode="normal" in="SourceGraphic" in2="BackgroundImageFix" result="shape"/>
<feGaussianBlur stdDeviation="3.9" result="effect1_foregroundBlur_3_173"/>
</filter>
<linearGradient id="paint0_linear_3_173" x1="423.5" y1="9.49998" x2="328.694" y2="249.69" gradientUnits="userSpaceOnUse">
<stop stop-color="#412BA1" stop-opacity="0.16"/>
<stop offset="0.702321" stop-color="#412BA1"/>
</linearGradient>
<linearGradient id="paint1_linear_3_173" x1="452.5" y1="53.5" x2="215.5" y2="170.5" gradientUnits="userSpaceOnUse">
<stop stop-color="#C0C8F0"/>
<stop offset="1" stop-color="#F6EAFB"/>
</linearGradient>
<linearGradient id="paint2_linear_3_173" x1="478.144" y1="98.4505" x2="310.154" y2="164.918" gradientUnits="userSpaceOnUse">
<stop stop-color="#F5C8F3"/>
<stop offset="1" stop-color="#CEB5F4"/>
</linearGradient>
<linearGradient id="paint3_linear_3_173" x1="272" y1="128.5" x2="517" y2="128.5" gradientUnits="userSpaceOnUse">
<stop stop-color="#EE5DE2"/>
<stop offset="1" stop-color="#FBA9EE"/>
</linearGradient>
<linearGradient id="paint4_linear_3_173" x1="257" y1="143.482" x2="513.5" y2="143.482" gradientUnits="userSpaceOnUse">
<stop stop-color="#614BCF"/>
<stop offset="1" stop-color="#AA40DC"/>
</linearGradient>
<linearGradient id="paint5_linear_3_173" x1="307" y1="163" x2="508" y2="163" gradientUnits="userSpaceOnUse">
<stop stop-color="#5044C2"/>
<stop offset="1" stop-color="#6932BE"/>
</linearGradient>
<linearGradient id="paint6_linear_3_173" x1="528.589" y1="28.8579" x2="501.415" y2="240.3" gradientUnits="userSpaceOnUse">
<stop stop-color="#1A1538"/>
<stop offset="1" stop-color="#1A1538"/>
</linearGradient>
<linearGradient id="paint7_linear_3_173" x1="0" y1="0.284805" x2="2.56123" y2="0.284805" gradientUnits="userSpaceOnUse">
<stop stop-color="#792792"/>
<stop offset="1" stop-color="#D824BA"/>
</linearGradient>
<linearGradient id="paint8_linear_3_173" x1="0" y1="0.284805" x2="2.56124" y2="0.284805" gradientUnits="userSpaceOnUse">
<stop stop-color="#792792"/>
<stop offset="1" stop-color="#D824BA"/>
</linearGradient>
<linearGradient id="paint9_linear_3_173" x1="0" y1="0.284805" x2="2.56124" y2="0.284805" gradientUnits="userSpaceOnUse">
<stop stop-color="#792792"/>
<stop offset="1" stop-color="#D824BA"/>
</linearGradient>
<linearGradient id="paint10_linear_3_173" x1="24.0057" y1="282.452" x2="500.238" y2="282.452" gradientUnits="userSpaceOnUse">
<stop stop-color="#292346"/>
<stop offset="1" stop-color="#302F79"/>
</linearGradient>
<linearGradient id="paint11_linear_3_173" x1="24" y1="271.5" x2="498" y2="271.5" gradientUnits="userSpaceOnUse">
<stop stop-color="#8D85C4"/>
<stop offset="1" stop-color="#6A69B5"/>
</linearGradient>
<clipPath id="clip0_3_173">
<rect width="1.44207" height="1.44207" fill="white" transform="translate(248.838 42.1476) rotate(-0.78392)"/>
</clipPath>
</defs>
</svg>
