<svg width="1355" height="242" viewBox="0 0 1355 242" fill="none" xmlns="http://www.w3.org/2000/svg">
<path d="M0 24.5252C0 24.5252 14.4174 21.0144 23.8168 21C32.6137 20.9865 37.5261 22.235 46.145 24.0216C66.0325 28.1439 74.6691 39.7981 94.771 42.6547C107.436 44.4545 127.519 42.6547 127.519 42.6547L130 91H0V24.5252Z" fill="url(#paint0_linear_9_5)"/>
<path d="M889 73C889 73 914.365 71.479 930.5 73C948.953 74.7395 958.487 81.6126 977 82.5C1018.7 84.4989 1037.67 52.8644 1079 47C1114.77 41.9257 1135.68 51.8374 1171.5 47C1205.29 42.4375 1221.35 27.161 1255 25C1294.5 22.4636 1355 41.5 1355 41.5V242H889V73Z" fill="url(#paint1_linear_9_5)"/>
<path d="M0 87.6988C0 87.6988 41.8277 77.3426 80.5 64C131.056 46.5575 149.288 16.0067 236.663 1.80955C328.931 -13.1824 359.923 69.8227 453.355 72.7181C505.257 74.3265 532.719 56.2107 584.169 63.2304C633.969 70.0249 703 112.667 703 112.667V242H0V87.6988Z" fill="url(#paint2_linear_9_5)"/>
<path d="M0 91C0 91 60.3109 73.9529 98.9269 64.0993C158.87 48.8037 190.639 19.8047 252.314 24.5101C318.652 29.5715 342.476 80.2249 407.199 95.6704C492.074 115.925 543.373 93.9812 630.534 90.158C731.337 85.7364 787.862 63.9229 888.344 73.1196C954.08 79.1362 988.288 108.852 1054.22 105.693C1116.17 102.725 1145.21 66.4649 1207.11 62.5959C1264.89 58.9844 1354 82.6411 1354 82.6411V242H0V91Z" fill="url(#paint3_linear_9_5)"/>
<path d="M0 91C0 91 119.679 56.066 198 58.5C296.36 61.5567 342.293 120.72 440.5 127C523.069 132.28 568.325 99.7836 651 103C692.047 104.597 714.445 116.381 755.5 115C795.96 113.639 817.087 98.8876 857.5 96.5C940.265 91.6103 983.479 144.514 1066 136.5C1128.94 130.388 1156.96 91.3588 1220 86.5C1272.96 82.4187 1355 103 1355 103V242H0V91Z" fill="url(#paint4_linear_9_5)"/>
<path d="M0 107.427C0 107.427 101.032 81.7038 166 87.9892C236.433 94.8035 267.297 137.435 337.5 146.304C411.195 155.614 452.75 132.105 527 129.856C619.586 127.052 671.412 142.042 764 139.326C817.412 137.759 847.065 129.807 900.5 129.856C970.117 129.92 1008.49 150.099 1078 146.304C1140.1 142.913 1172.37 119.68 1234.5 116.897C1281.6 114.788 1355 124.374 1355 124.374V242H0V107.427Z" fill="url(#paint5_linear_9_5)"/>
<defs>
<linearGradient id="paint0_linear_9_5" x1="65" y1="21" x2="34" y2="106" gradientUnits="userSpaceOnUse">
<stop stop-color="#1A1954"/>
<stop offset="1" stop-color="#151230"/>
</linearGradient>
<linearGradient id="paint1_linear_9_5" x1="889" y1="133.5" x2="1355" y2="133.5" gradientUnits="userSpaceOnUse">
<stop stop-color="#211D61"/>
<stop offset="1" stop-color="#2E2881"/>
</linearGradient>
<linearGradient id="paint2_linear_9_5" x1="-8.23094e-08" y1="121" x2="517.766" y2="50.7649" gradientUnits="userSpaceOnUse">
<stop stop-color="#522CA7"/>
<stop offset="0.578396" stop-color="#6B29AC"/>
<stop offset="1" stop-color="#331C8A"/>
</linearGradient>
<linearGradient id="paint3_linear_9_5" x1="177.369" y1="42.0496" x2="1354.04" y2="132.714" gradientUnits="userSpaceOnUse">
<stop stop-color="#4B299B"/>
<stop offset="1" stop-color="#2F288A"/>
</linearGradient>
<linearGradient id="paint4_linear_9_5" x1="127.5" y1="74.5" x2="1355" y2="150.25" gradientUnits="userSpaceOnUse">
<stop stop-color="#2A2070"/>
<stop offset="1" stop-color="#1E1B54"/>
</linearGradient>
<linearGradient id="paint5_linear_9_5" x1="677.5" y1="87.9892" x2="677.5" y2="242" gradientUnits="userSpaceOnUse">
<stop stop-color="#1C163F"/>
<stop offset="1" stop-color="#130F25"/>
</linearGradient>
</defs>
</svg>
